<svg enable-background="new 0 0 24 24" height="512" viewBox="0 0 24 24" width="512" xmlns="http://www.w3.org/2000/svg"><g id="color_1_"><g><path d="m9.25 17.5c0-2.204.858-4.275 2.417-5.833 1.099-1.099 2.456-1.842 3.933-2.189v-6.84c0-1.181-.957-2.138-2.137-2.138h-10.926c-1.175 0-2.137.962-2.137 2.138v14.725c0 1.176.962 2.138 2.137 2.138h6.965c-.16-.648-.252-1.317-.252-2.001z" fill="#eceff1"/></g><g><circle cx="5" cy="7" fill="#ffc107" r="1.5"/></g><g><path d="m9.25 17.5c0-2.204.858-4.275 2.417-5.833.692-.693 1.49-1.238 2.352-1.64l-1.076-1.077c-.646-.646-1.71-.646-2.356 0l-4.522 4.522-1.197-1.197c-.646-.646-1.71-.646-2.356 0l-2.147 2.147v3.144c0 1.178.96 2.138 2.138 2.138h7.051c-.196-.709-.304-1.448-.304-2.204z" fill="#4caf50"/></g><g><circle cx="17.5" cy="17.5" fill="#4caf50" r="6.175"/></g></g><g id="regular_1.5"><g><path d="m17.5 24c-3.584 0-6.5-2.916-6.5-6.5s2.916-6.5 6.5-6.5 6.5 2.916 6.5 6.5-2.916 6.5-6.5 6.5zm0-11.5c-2.757 0-5 2.243-5 5s2.243 5 5 5 5-2.243 5-5-2.243-5-5-5z"/></g><g><path d="m17.5 21c-.414 0-.75-.336-.75-.75v-5.5c0-.414.336-.75.75-.75s.75.336.75.75v5.5c0 .414-.336.75-.75.75z"/></g><g><path d="m20.25 18.25h-5.5c-.414 0-.75-.336-.75-.75s.336-.75.75-.75h5.5c.414 0 .75.336.75.75s-.336.75-.75.75z"/></g><g><path d="m9.24 20h-6.49c-1.517 0-2.75-1.233-2.75-2.75v-14.5c0-1.517 1.233-2.75 2.75-2.75h10.5c1.517 0 2.75 1.233 2.75 2.75v6.49c0 .414-.336.75-.75.75s-.75-.336-.75-.75v-6.49c0-.689-.561-1.25-1.25-1.25h-10.5c-.689 0-1.25.561-1.25 1.25v14.5c0 .689.561 1.25 1.25 1.25h6.49c.414 0 .75.336.75.75s-.336.75-.75.75z"/></g><g><path d="m5 9c-1.103 0-2-.897-2-2s.897-2 2-2 2 .897 2 2-.897 2-2 2zm0-2.5c-.275 0-.5.224-.5.5s.225.5.5.5.5-.224.5-.5-.225-.5-.5-.5z"/></g><g><path d="m.75 15.5c-.192 0-.384-.073-.53-.22-.293-.293-.293-.768 0-1.061l2.04-2.04c.66-.66 1.82-.661 2.48 0l1.26 1.26 4.76-4.76c.66-.66 1.82-.661 2.48 0l.54.54c.293.293.293.768 0 1.061s-.768.293-1.061 0l-.54-.54c-.127-.127-.232-.126-.359 0l-5.29 5.29c-.293.293-.768.293-1.061 0l-1.79-1.79c-.127-.127-.232-.127-.359 0l-2.04 2.04c-.146.147-.338.22-.53.22z"/></g></g></svg>