<?xml version="1.0"?>
<svg xmlns="http://www.w3.org/2000/svg" xmlns:xlink="http://www.w3.org/1999/xlink" xmlns:svgjs="http://svgjs.com/svgjs" version="1.1" width="512" height="512" x="0" y="0" viewBox="0 0 512 512" style="enable-background:new 0 0 512 512" xml:space="preserve" class=""><g>
<path xmlns="http://www.w3.org/2000/svg" style="" d="M486.616,193.862c12.492,12.492,12.492,32.671,0,45.162L314.935,410.705l-181.29-181.29  L305.326,57.734c12.492-12.492,32.671-12.492,45.162,0L486.616,193.862z" fill="#4fc4ff" data-original="#99ddff" class=""/>
<path xmlns="http://www.w3.org/2000/svg" style="" d="M314.935,410.705l-34.913,34.592c-11.851,12.171-28.186,18.898-45.162,18.898H133.325  c-16.976,0-33.311-6.726-45.483-18.898l-62.459-62.459c-12.492-12.492-12.492-32.671,0-45.162l108.262-108.261L314.935,410.705z" fill="#fb6949" data-original="#ff9999" class=""/>
<path xmlns="http://www.w3.org/2000/svg" style="" d="M497.939,182.539L361.811,46.412c-9.321-9.337-21.684-14.077-33.904-14.061  c-12.219-0.016-24.583,4.724-33.904,14.061L122.323,218.093L14.061,326.354C4.724,335.675-0.016,348.038,0,360.258  c-0.016,12.219,4.724,24.583,14.061,33.904l62.459,62.186c15.15,15.15,35.585,23.302,56.805,23.302H234.86  c21.108,0,41.495-8.072,56.421-23.27l0.016,0.16l34.913-34.528l0.048-0.016l171.681-171.665  c9.337-9.321,14.077-21.668,14.061-33.904C512.016,204.208,507.276,191.86,497.939,182.539z M268.748,433.927l-0.208-0.08  c-8.76,9-20.932,13.773-33.696,13.773H133.309c-12.748,0-24.967-4.74-34.16-13.933L36.69,371.372  c-3.139-3.171-4.644-7.079-4.66-11.178c0.016-4.116,1.521-8.056,4.676-11.227l96.939-96.923l158.597,158.597L268.748,433.927z   M475.294,227.702L314.935,388.06L156.291,229.415L316.649,69.057c3.171-3.155,7.143-4.66,11.259-4.676  c4.116,0.016,8.088,1.521,11.259,4.676l136.128,136.128c3.155,3.171,4.66,7.143,4.676,11.259  C479.954,220.559,478.449,224.531,475.294,227.702z" fill="#000000" data-original="#664848" class=""/>
<g xmlns="http://www.w3.org/2000/svg">
</g>
<g xmlns="http://www.w3.org/2000/svg">
</g>
<g xmlns="http://www.w3.org/2000/svg">
</g>
<g xmlns="http://www.w3.org/2000/svg">
</g>
<g xmlns="http://www.w3.org/2000/svg">
</g>
<g xmlns="http://www.w3.org/2000/svg">
</g>
<g xmlns="http://www.w3.org/2000/svg">
</g>
<g xmlns="http://www.w3.org/2000/svg">
</g>
<g xmlns="http://www.w3.org/2000/svg">
</g>
<g xmlns="http://www.w3.org/2000/svg">
</g>
<g xmlns="http://www.w3.org/2000/svg">
</g>
<g xmlns="http://www.w3.org/2000/svg">
</g>
<g xmlns="http://www.w3.org/2000/svg">
</g>
<g xmlns="http://www.w3.org/2000/svg">
</g>
<g xmlns="http://www.w3.org/2000/svg">
</g>
</g></svg>
