<?xml version="1.0" encoding="utf-8"?>
<!-- Generator: Adobe Illustrator 25.2.1, SVG Export Plug-In . SVG Version: 6.00 Build 0)  -->
<svg version="1.1" id="Capa_1" xmlns="http://www.w3.org/2000/svg" xmlns:xlink="http://www.w3.org/1999/xlink" x="0px" y="0px"
	 viewBox="0 0 469.3 469.3" style="enable-background:new 0 0 469.3 469.3;" xml:space="preserve">
<style type="text/css">
	.st0{fill:#FFCA28;}
	.st1{fill:#D32F2F;}
	.st2{fill:#F2F2F2;}
	.st3{fill:#666666;}
	.st4{opacity:0.1;enable-background:new    ;}
	.st5{fill:url(#SVGID_1_);}
</style>
<path d="M456.8,76.2l-64-64.1c-16.1-16.1-44.2-16.2-60.4,0L45.8,301.7c-1.3,1.3-2.2,2.9-2.7,4.6L0.4,455.7c-1.1,3.7,0,7.7,2.7,10.5
	c2,2,4.8,3.1,7.5,3.1c1,0,2-0.1,2.9-0.4l149.3-42.7c1.7-0.5,3.3-1.4,4.6-2.7l289.3-287c8.1-8.1,12.5-18.8,12.5-30.2
	S464.9,84.2,456.8,76.2z"/>
<g>
	<path class="st0" d="M120.2,334l-14.7-29.4c-1.8-3.6-5.5-5.9-9.5-5.9H78.9L285.9,89.7l39.3,39.3L120.2,334z"/>
	<path class="st0" d="M164.7,363.8l-29.4-14.7l205-205l39.3,39.3L170.6,390.4v-17.1C170.6,369.3,168.3,365.6,164.7,363.8z"/>
</g>
<path class="st1" d="M347.5,27.6c8.1-8.1,22.1-8.1,30.2,0l64,64c4,4,6.2,9.4,6.2,15.1s-2.2,11.1-6.2,15.1l-47,46.6l-93.7-93.7
	L347.5,27.6z"/>
<path class="st2" d="M112.6,361.6c-1-0.5-4.3-3.7-4.8-4.8l-18.4-36.8h-28l-23.7,83.1l29.8,28.3l81.9-23.4v-28L112.6,361.6z"/>
<polygon class="st3" points="67.4,431.4 37.6,403.2 40.1,394.6 40.1,394.6 26.2,443.2 74.8,429.3 74.8,429.3 "/>
<path class="st4" d="M149.3,380l-36.8-18.4c-1-0.5-1.6-1.6-2.4-2.4l-84,84L149.3,408V380z"/>
<path class="st4" d="M409.8,59.6l-61.9,61.9l46.9,46.9l47-46.6c4-4,6.2-9.4,6.2-15.1c0-5.7-2.2-11.1-6.2-15.1L409.8,59.6z"/>
<path class="st4" d="M164.8,363.8l-29.4-14.7l205-205l39.3,39.3L170.7,390.5v-17.1C170.7,369.3,168.4,365.7,164.8,363.8z"/>
<linearGradient id="SVGID_1_" gradientUnits="userSpaceOnUse" x1="-752.5659" y1="175.0479" x2="-739.563" y2="181.1087" gradientTransform="matrix(21.3333 0 0 21.3333 16151.3906 -3543.3857)">
	<stop  offset="0" style="stop-color:#FFFFFF;stop-opacity:0.2"/>
	<stop  offset="1" style="stop-color:#FFFFFF;stop-opacity:0"/>
</linearGradient>
<path class="st5" d="M456.8,76.2l-64-64.1c-16.1-16.1-44.2-16.2-60.4,0L45.8,301.7c-1.3,1.3-2.2,2.9-2.7,4.6L0.4,455.7
	c-1.1,3.7,0,7.7,2.7,10.5c2,2,4.8,3.1,7.5,3.1c1,0,2-0.1,2.9-0.4l149.3-42.7c1.7-0.5,3.3-1.4,4.6-2.7l289.3-287
	c8.1-8.1,12.5-18.8,12.5-30.2S464.9,84.2,456.8,76.2z"/>
</svg>
