<svg xmlns="http://www.w3.org/2000/svg" xmlns:xlink="http://www.w3.org/1999/xlink" version="1.1" style="" xml:space="preserve" width="245" height="249"><rect id="backgroundrect" width="100%" height="100%" x="0" y="0" fill="none" stroke="none"/>
<style type="text/css">
	.st0{fill:#EFAE8E;}
	.st1{fill:#E95B0C;}
	.st2{fill:#3C3C3B;}
</style>








<g class="currentLayer" style=""><title>Layer 1</title><g id="svg_1" class="">
	<g id="svg_2">
		<path class="st0" d="M126.62551086425782,132.9375765991211 c0.18000000000000002,0.23 0.36000000000000004,0.45 0.53,0.6800000000000002 c-0.6300000000000001,-0.81 -1.25,-1.62 -1.8800000000000001,-2.43 c2.73,3.56 4.99,7.43 6.76,11.55 c-0.4,-0.9600000000000001 -0.81,-1.9100000000000001 -1.21,-2.87 c0.6700000000000002,1.6 1.27,3.22 1.79,4.87 c6.69,-3.89 13.37,-7.78 20.06,-11.68 c-3.09,-2.5 -5.86,-5.34 -8.3,-8.47 c0.6300000000000001,0.81 1.25,1.62 1.8800000000000001,2.43 c-2.83,-3.68 -5.16,-7.68 -6.96,-11.95 c0.4,0.9600000000000001 0.81,1.9100000000000001 1.21,2.87 c-1.7200000000000002,-4.16 -2.91,-8.5 -3.52,-12.97 c-7.3100000000000005,3.08 -14.620000000000001,6.16 -21.93,9.25 c3.31,5.08 6.01,10.51 8.37,16.08 c-0.4,-0.9600000000000001 -0.81,-1.9100000000000001 -1.21,-2.87 c4.45,10.59 7.7,21.63 11.92,32.31 c4.54,11.5 9.84,23.46 18.97,32.13 c2.68,2.54 5.71,4.95 9,6.65 c1.99,1.03 4.09,1.9300000000000002 6.22,2.63 c2.3200000000000003,0.7600000000000001 4.72,1 7.15,1.31 c2.17,-0.010000000000000002 4.18,-0.55 6.06,-1.6400000000000001 c1.8,-1.07 3.24,-2.5 4.3100000000000005,-4.3100000000000005 c1.09,-1.87 1.6300000000000001,-3.89 1.6400000000000001,-6.06 c-0.010000000000000002,-2.17 -0.55,-4.18 -1.6400000000000001,-6.06 c-1.6700000000000002,-3.55 -3.2800000000000002,-7.14 -4.8,-10.76 c0.4,0.9600000000000001 0.81,1.9100000000000001 1.21,2.87 c-5.73,-13.620000000000001 -10.39,-27.66 -13.93,-42 c-0.7100000000000001,-2.88 -2.98,-5.69 -5.51,-7.17 c-2.5700000000000003,-1.51 -6.36,-2.14 -9.25,-1.21 c-6.32,2.05 -9.99,8.23 -8.38,14.76 c4.73,19.17 11.53,37.77 19.94,55.63 c3.45,-6.02 6.91,-12.04 10.36,-18.06 c-0.12000000000000001,-0.020000000000000004 -0.25,-0.030000000000000006 -0.37000000000000005,-0.05000000000000001 c1.06,0.14 2.13,0.29000000000000004 3.19,0.43000000000000005 c-1.83,-0.27 -3.58,-0.77 -5.29,-1.48 c0.9600000000000001,0.4 1.9100000000000001,0.81 2.87,1.21 c-2.03,-0.8800000000000001 -3.91,-2.02 -5.67,-3.36 c0.81,0.6300000000000001 1.62,1.25 2.43,1.8800000000000001 c-2.59,-2.03 -4.85,-4.42 -6.86,-7.01 c0.6300000000000001,0.81 1.25,1.62 1.8800000000000001,2.43 c-4.28,-5.6 -7.4,-12.01 -10.13,-18.48 c0.4,0.9600000000000001 0.81,1.9100000000000001 1.21,2.87 c-6.07,-14.48 -10.14,-29.7 -16.9,-43.92 c-1.78,-3.75 -3.7800000000000002,-7.4 -6.05,-10.88 c-3.2800000000000002,-5.04 -9.34,-7.29 -14.98,-4.91 c-2.31,0.97 -4.54,2.63 -5.74,4.91 c-0.4,0.9600000000000001 -0.81,1.9100000000000001 -1.21,2.87 c-0.5700000000000001,2.13 -0.5700000000000001,4.25 0,6.38 c1.02,7.47 3.73,14.79 7.42,21.35 c3.67,6.53 8.620000000000001,12.61 14.45,17.34 c0.81,0.6300000000000001 1.62,1.25 2.43,1.8800000000000001 c1.3800000000000001,0.8800000000000001 2.8600000000000003,1.35 4.46,1.42 c2.56,0.3400000000000001 5.42,0.020000000000000004 7.65,-1.42 c1.7400000000000002,-1.12 3.19,-2.5700000000000003 4.3,-4.3100000000000005 c1.58,-2.46 2.09,-6.47 1.21,-9.25 c-1.29,-4.07 -2.96,-8.07 -4.96,-11.84 c-2.02,-3.8 -4.55,-7.19 -7.22,-10.56 c-1.78,-2.25 -5.76,-3.51 -8.49,-3.51 c-2.94,0 -6.46,1.31 -8.49,3.51 c-2.1,2.29 -3.66,5.29 -3.51,8.49 c0.14,1.06 0.29000000000000004,2.13 0.43000000000000005,3.19 C124.10551086425784,129.6775765991211 125.13551086425781,131.4475765991211 126.62551086425782,132.9375765991211 L126.62551086425782,132.9375765991211 z" id="svg_3"/>
	</g>
</g><g id="svg_4" class="">
	<g id="svg_5">
		<path class="st1" d="M192.97551086425779,129.75757659912108 c5.19,-7.43 10.08,-15.08 14.620000000000001,-22.92 c4.52,-7.8100000000000005 8.85,-15.81 12.5,-24.07 c2.13,-4.83 4.16,-9.73 5.65,-14.8 c1.49,-5.06 2.38,-10.29 2.84,-15.55 c0.41000000000000003,-4.78 0,-9.41 -0.7500000000000001,-14.14 c-0.7000000000000001,-4.39 -2.21,-8.42 -3.9699999999999998,-12.49 c-3.39,-7.88 -9.38,-14.82 -16.71,-19.29 c-8.72,-5.32 -19.51,-6.61 -29.36,-4.17 c-4.47,1.11 -8.94,3.1 -12.620000000000001,5.890000000000001 c-2.4,1.82 -4.68,3.66 -6.69,5.9 c-1.99,2.22 -3.8,4.62 -5.55,7.02 c-5.23,7.18 -9.16,15.09 -12.39,23.35 c-6.3100000000000005,16.14 -8.22,34.02 -5.92,51.15 c0.33000000000000007,2.43 0.6800000000000002,4.86 1.15,7.26 c0.4,0.9600000000000001 0.81,1.9100000000000001 1.21,2.87 c0.7500000000000001,1.4 1.78,2.52 3.09,3.37 c2.02,1.56 4.640000000000001,2.6900000000000004 7.27,2.58 c2.13,-0.1 4.17,-0.6400000000000001 6.06,-1.6400000000000001 c2.8,-1.48 4.49,-4.32 5.51,-7.17 c2.19,-6.11 0.47000000000000003,-12.43 -2.18,-18.02 c-1.59,-3.35 -3.7800000000000002,-6.38 -5.23,-9.8 c0.4,0.9600000000000001 0.81,1.9100000000000001 1.21,2.87 c-0.54,-1.35 -0.93,-2.72 -1.13,-4.16 c0.14,1.06 0.29000000000000004,2.13 0.43000000000000005,3.19 c-0.18000000000000002,-1.5 -0.17,-2.98 0,-4.48 c-0.14,1.06 -0.29000000000000004,2.13 -0.43000000000000005,3.19 c0.28,-2.07 0.8500000000000001,-4.04 1.6600000000000001,-5.96 c-0.4,0.9600000000000001 -0.81,1.9100000000000001 -1.21,2.87 c0.91,-2.05 2.06,-3.93 3.42,-5.71 c-0.6300000000000001,0.81 -1.25,1.62 -1.8800000000000001,2.43 c2.36,-2.99 5.18,-5.53 8.18,-7.87 c-0.81,0.6300000000000001 -1.62,1.25 -2.43,1.8800000000000001 c1.46,-1.12 2.94,-2.19 4.45,-3.25 c2.6,-1.83 4.640000000000001,-4.01 5.51,-7.17 c0.79,-2.87 0.43000000000000005,-6.7 -1.21,-9.25 c-1.6500000000000001,-2.56 -4.11,-4.82 -7.17,-5.51 c-3,-0.6800000000000002 -6.63,-0.6300000000000001 -9.25,1.21 c-7.28,5.12 -14.5,10.68 -19.04,18.53 c-2.7600000000000002,4.76 -4.17,9.8 -4.67,15.23 c-0.49000000000000005,5.3100000000000005 1.07,10.36 3.2800000000000002,15.1 c1.54,3.3 3.6900000000000004,6.27 5.15,9.6 c-0.4,-0.9600000000000001 -0.81,-1.9100000000000001 -1.21,-2.87 c0.49000000000000005,1.17 0.8800000000000001,2.36 1.07,3.62 c-0.14,-1.06 -0.29000000000000004,-2.13 -0.43000000000000005,-3.19 c0.1,0.78 0.11000000000000001,1.54 0.030000000000000006,2.3200000000000003 c0.14,-1.06 0.29000000000000004,-2.13 0.43000000000000005,-3.19 c-0.1,0.7000000000000001 -0.26,1.35 -0.5,2.02 c7.71,0 15.43,0 23.14,0 c-0.37000000000000005,-1.8800000000000001 -0.6800000000000002,-3.77 -0.9400000000000001,-5.67 c0.14,1.06 0.29000000000000004,2.13 0.43000000000000005,3.19 c-1.06,-8.15 -1.02,-16.4 0.06000000000000001,-24.55 c-0.14,1.06 -0.29000000000000004,2.13 -0.43000000000000005,3.19 c1.1400000000000001,-8.28 3.34,-16.38 6.57,-24.09 c-0.4,0.9600000000000001 -0.81,1.9100000000000001 -1.21,2.87 c3.01,-7.1 6.86,-13.83 11.56,-19.94 c-0.6300000000000001,0.81 -1.25,1.62 -1.8800000000000001,2.43 c1.97,-2.52 4.11,-4.890000000000001 6.63,-6.87 c-0.81,0.6300000000000001 -1.62,1.25 -2.43,1.8800000000000001 c1.77,-1.35 3.67,-2.46 5.71,-3.34 c-0.9600000000000001,0.4 -1.9100000000000001,0.81 -2.87,1.21 c2.2800000000000002,-0.9500000000000001 4.640000000000001,-1.58 7.09,-1.92 c-1.06,0.14 -2.13,0.29000000000000004 -3.19,0.43000000000000005 c2.3200000000000003,-0.29000000000000004 4.640000000000001,-0.29000000000000004 6.96,-0.010000000000000002 c-1.06,-0.14 -2.13,-0.29000000000000004 -3.19,-0.43000000000000005 c2.3,0.31000000000000005 4.53,0.9 6.68,1.79 c-0.9600000000000001,-0.4 -1.9100000000000001,-0.81 -2.87,-1.21 c2.14,0.92 4.14,2.1 5.98,3.5300000000000002 c-0.81,-0.6300000000000001 -1.62,-1.25 -2.43,-1.8800000000000001 c2.01,1.59 3.7800000000000002,3.41 5.34,5.43 c-0.6300000000000001,-0.81 -1.25,-1.62 -1.8800000000000001,-2.43 c1.86,2.45 3.37,5.12 4.57,7.94 c-0.4,-0.9600000000000001 -0.81,-1.9100000000000001 -1.21,-2.87 c1.3800000000000001,3.3200000000000003 2.31,6.79 2.8200000000000003,10.34 c-0.14,-1.06 -0.29000000000000004,-2.13 -0.43000000000000005,-3.19 c0.55,4.17 0.45,8.35 -0.08000000000000002,12.52 c0.14,-1.06 0.29000000000000004,-2.13 0.43000000000000005,-3.19 c-0.9400000000000001,6.9 -3.08,13.54 -5.77,19.94 c0.4,-0.9600000000000001 0.81,-1.9100000000000001 1.21,-2.87 c-3.64,8.59 -8.08,16.86 -12.72,24.95 c-4.71,8.2 -9.79,16.19 -15.21,23.94 c-1.7000000000000002,2.43 -1.97,6.48 -1.21,9.25 c0.77,2.7800000000000002 2.92,5.8 5.51,7.17 c2.7800000000000002,1.47 6.16,2.21 9.25,1.21 C188.9055108642578,134.25757659912108 191.0955108642578,132.4375765991211 192.97551086425779,129.75757659912108 L192.97551086425779,129.75757659912108 z" id="svg_6"/>
	</g>
</g><g id="svg_7" class="">
	<g id="svg_8">
		<path class="st1" d="M192.37551086425782,182.69757659912108 c4.98,0.23 9.96,0.4 14.95,0.48000000000000004 c4.34,0.07 8.8,0.33000000000000007 13.13,-0.04000000000000001 c4.94,-0.42000000000000004 9.84,-1.35 14.17,-3.91 c5.76,-3.4 9.53,-9.33 9.52,-16.1 c0,-3.08 -1.34,-6.3100000000000005 -3.51,-8.49 c-2.08,-2.08 -5.5,-3.6500000000000004 -8.49,-3.51 c-6.5,0.29000000000000004 -12,5.27 -12,12 c0,0.29000000000000004 -0.010000000000000002,0.5800000000000001 -0.04000000000000001,0.8700000000000001 c0.14,-1.06 0.29000000000000004,-2.13 0.43000000000000005,-3.19 c-0.08000000000000002,0.55 -0.21000000000000002,1.06 -0.41000000000000003,1.57 c0.4,-0.9600000000000001 0.81,-1.9100000000000001 1.21,-2.87 c-0.22000000000000003,0.49000000000000005 -0.49000000000000005,0.93 -0.81,1.35 c0.6300000000000001,-0.81 1.25,-1.62 1.8800000000000001,-2.43 c-0.41000000000000003,0.5 -0.8600000000000001,0.92 -1.37,1.32 c0.81,-0.6300000000000001 1.62,-1.25 2.43,-1.8800000000000001 c-0.8,0.5800000000000001 -1.6500000000000001,1.04 -2.55,1.4300000000000002 c0.9600000000000001,-0.4 1.9100000000000001,-0.81 2.87,-1.21 c-1.6800000000000002,0.6800000000000002 -3.44,1.09 -5.24,1.34 c1.06,-0.14 2.13,-0.29000000000000004 3.19,-0.43000000000000005 c-4.49,0.5700000000000001 -9.14,0.26 -13.66,0.19000000000000003 c-5.23,-0.08000000000000002 -10.47,-0.25 -15.69,-0.49000000000000005 c-2.98,-0.14 -6.41,1.44 -8.49,3.51 c-2.08,2.08 -3.6500000000000004,5.5 -3.51,8.49 C180.67551086425783,177.44757659912108 185.6455108642578,182.37757659912108 192.37551086425782,182.69757659912108 L192.37551086425782,182.69757659912108 z" id="svg_9"/>
	</g>
</g><g id="svg_10" class="">
	<g id="svg_11">
		<path class="st1" d="M123.42551086425783,199.1175765991211 c0.12000000000000001,2.9699999999999998 0.21000000000000002,5.94 -0.15000000000000002,8.9 c0.14,-1.06 0.29000000000000004,-2.13 0.43000000000000005,-3.19 c-0.24000000000000002,1.75 -0.6300000000000001,3.44 -1.29,5.08 c0.4,-0.9600000000000001 0.81,-1.9100000000000001 1.21,-2.87 c-0.45,1.06 -0.98,2.04 -1.6700000000000002,2.96 c0.6300000000000001,-0.81 1.25,-1.62 1.8800000000000001,-2.43 c-0.6600000000000001,0.8400000000000001 -1.4,1.58 -2.24,2.24 c0.81,-0.6300000000000001 1.62,-1.25 2.43,-1.8800000000000001 c-0.8400000000000001,0.6400000000000001 -1.73,1.1600000000000001 -2.7,1.58 c0.9600000000000001,-0.4 1.9100000000000001,-0.81 2.87,-1.21 c-0.78,0.31000000000000005 -1.57,0.53 -2.4,0.6600000000000001 c1.06,-0.14 2.13,-0.29000000000000004 3.19,-0.43000000000000005 c-0.7200000000000001,0.09000000000000002 -1.4300000000000002,0.09000000000000002 -2.16,0.010000000000000002 c1.06,0.14 2.13,0.29000000000000004 3.19,0.43000000000000005 c-0.6400000000000001,-0.1 -1.24,-0.26 -1.84,-0.5 c0.9600000000000001,0.4 1.9100000000000001,0.81 2.87,1.21 c-0.5,-0.22000000000000003 -0.97,-0.48000000000000004 -1.4100000000000001,-0.81 c0.81,0.6300000000000001 1.62,1.25 2.43,1.8800000000000001 c-0.38000000000000006,-0.31000000000000005 -0.7200000000000001,-0.6400000000000001 -1.02,-1.02 c0.6300000000000001,0.81 1.25,1.62 1.8800000000000001,2.43 c-0.38000000000000006,-0.5 -0.6800000000000002,-1.02 -0.92,-1.6 c0.4,0.9600000000000001 0.81,1.9100000000000001 1.21,2.87 c-0.26,-0.6600000000000001 -0.43000000000000005,-1.33 -0.52,-2.02 c0.14,1.06 0.29000000000000004,2.13 0.43000000000000005,3.19 c-0.09000000000000002,-0.79 -0.08000000000000002,-1.56 0.010000000000000002,-2.35 c-0.14,1.06 -0.29000000000000004,2.13 -0.43000000000000005,3.19 c0.11000000000000001,-0.78 0.31000000000000005,-1.53 0.6000000000000001,-2.26 c-0.4,0.9600000000000001 -0.81,1.9100000000000001 -1.21,2.87 c0.28,-0.6500000000000001 0.6200000000000001,-1.25 1.04,-1.81 c-0.6300000000000001,0.81 -1.25,1.62 -1.8800000000000001,2.43 c0.35000000000000003,-0.43000000000000005 0.7200000000000001,-0.8200000000000001 1.15,-1.1600000000000001 c-0.81,0.6300000000000001 -1.62,1.25 -2.43,1.8800000000000001 c0.39000000000000007,-0.29000000000000004 0.79,-0.54 1.24,-0.7400000000000001 c-0.9600000000000001,0.4 -1.9100000000000001,0.81 -2.87,1.21 c0.33000000000000007,-0.14 0.6600000000000001,-0.25 1.01,-0.3400000000000001 c2.89,-0.7500000000000001 5.67,-2.95 7.17,-5.51 c1.51,-2.5700000000000003 2.14,-6.36 1.21,-9.25 c-0.9400000000000001,-2.9 -2.74,-5.71 -5.51,-7.17 c-2.88,-1.52 -6.04,-2.04 -9.25,-1.21 c-6.48,1.6800000000000002 -11.4,7.09 -13.17,13.45 c-0.97,3.49 -0.79,6.49 -0.27,9.99 c0.1,0.7000000000000001 0.27,1.36 0.52,2.02 c0.5900000000000001,1.53 1.1600000000000001,3.12 2.13,4.46 c1.7400000000000002,2.41 2.9,3.58 5.33,5.32 c1.4300000000000002,1.02 3.15,1.6600000000000001 4.79,2.21 c0.43000000000000005,0.15000000000000002 0.8700000000000001,0.23 1.32,0.31000000000000005 c1.31,0.22000000000000003 2.67,0.46 4,0.49000000000000005 c1.92,0.06000000000000001 3.91,-0.24000000000000002 5.75,-0.7500000000000001 c3.73,-1.03 6.73,-2.96 9.64,-5.44 c2.09,-1.77 3.9,-4.14 5.06,-6.62 c0.92,-1.98 1.83,-4.03 2.34,-6.17 c0.52,-2.18 0.78,-4.44 0.98,-6.66 c0.24000000000000002,-2.6100000000000003 0.14,-5.23 0.030000000000000006,-7.85 c-0.13,-3.15 -1.25,-6.22 -3.51,-8.49 c-2.08,-2.08 -5.5,-3.6500000000000004 -8.49,-3.51 c-3.1,0.14 -6.32,1.1600000000000001 -8.49,3.51 C124.8355108642578,192.9275765991211 123.29551086425784,195.9175765991211 123.42551086425783,199.1175765991211 L123.42551086425783,199.1175765991211 z" id="svg_12"/>
	</g>
</g><g id="svg_13" class="">
	<g id="svg_14">
		<path class="st1" d="M10.095510864257818,155.9275765991211 c4.76,5.57 11.22,9.77 17.82,12.86 c7.13,3.34 14.56,6.13 22.09,8.42 c14.48,4.4 29.64,6.890000000000001 44.75,7.58 c8.11,0.37000000000000005 16.24,0.15000000000000002 24.32,-0.6400000000000001 c3.26,-0.32000000000000006 6.09,-1.12 8.49,-3.51 c2.08,-2.08 3.6500000000000004,-5.5 3.51,-8.49 c-0.14,-3.1 -1.1600000000000001,-6.32 -3.51,-8.49 c-2.21,-2.03 -5.37,-3.8200000000000003 -8.49,-3.51 c-12.97,1.28 -26.05,1.04 -38.97,-0.6700000000000002 c1.06,0.14 2.13,0.29000000000000004 3.19,0.43000000000000005 c-14.65,-1.97 -29.06,-5.8 -42.7,-11.52 c0.9600000000000001,0.4 1.9100000000000001,0.81 2.87,1.21 c-4.73,-2 -9.33,-4.32 -13.44,-7.43 c0.81,0.6300000000000001 1.62,1.25 2.43,1.8800000000000001 c-1.96,-1.52 -3.77,-3.2 -5.39,-5.09 c-1.9,-2.23 -5.65,-3.51 -8.49,-3.51 c-2.94,0 -6.46,1.31 -8.49,3.51 c-2.1,2.29 -3.66,5.29 -3.51,8.49 C6.7355108642578045,150.7675765991211 7.935510864257822,153.3975765991211 10.095510864257818,155.9275765991211 L10.095510864257818,155.9275765991211 z" id="svg_15"/>
	</g>
</g><g id="svg_16" class="">
	<g id="svg_17">
		<path class="st1" d="M82.68551086425782,118.3675765991211 c-1.83,0.6100000000000001 -3.6900000000000004,1.04 -5.6,1.31 c1.06,-0.14 2.13,-0.29000000000000004 3.19,-0.43000000000000005 c-3.94,0.52 -7.890000000000001,0.35000000000000003 -11.82,-0.16000000000000003 c1.06,0.14 2.13,0.29000000000000004 3.19,0.43000000000000005 c-7.23,-0.99 -14.25,-3.07 -21.4,-4.48 c-8.97,-1.78 -17.86,-2.5700000000000003 -26.85,-0.48000000000000004 c-0.9600000000000001,0.4 -1.9100000000000001,0.81 -2.87,1.21 c-1.4,0.7500000000000001 -2.52,1.78 -3.37,3.09 c-1.56,2.02 -2.6900000000000004,4.640000000000001 -2.58,7.27 c0.1,2.13 0.6400000000000001,4.17 1.6400000000000001,6.06 c1.25,2.37 4.48,5.03 7.17,5.51 c10.42,1.86 20.83,3.72 31.25,5.58 c2.13,0.5700000000000001 4.25,0.5700000000000001 6.38,0 c2.03,-0.5700000000000001 3.8,-1.6 5.3,-3.09 c1.49,-1.5 2.52,-3.26 3.09,-5.3 c0.5700000000000001,-2.13 0.5700000000000001,-4.25 0,-6.38 c-0.8600000000000001,-5.48 -5.08,-10.4 -9.69,-13.19 c-4.76,-2.89 -11.18,-3.92 -16.52,-2.13 c-4.6,1.54 -7.94,5.07 -8.6,9.98 c-0.29000000000000004,2.2 -0.04000000000000001,4.18 0.8200000000000001,6.22 c0.92,2.18 2.66,4.74 4.91,5.74 c4.86,2.14 9.71,4.29 14.57,6.43 c1.87,1.09 3.89,1.6300000000000001 6.06,1.6400000000000001 c2.17,-0.010000000000000002 4.18,-0.55 6.06,-1.6400000000000001 c3.35,-1.96 6.38,-6.29 5.94,-10.36 c-0.55,-5.13 -1.7200000000000002,-9.9 -4.54,-14.31 c-1.6700000000000002,-2.6100000000000003 -4.14,-4.68 -7.17,-5.51 c-2.87,-0.79 -6.7,-0.43000000000000005 -9.25,1.21 c-2.56,1.6500000000000001 -4.82,4.11 -5.51,7.17 c-0.7000000000000001,3.08 -0.54,6.51 1.21,9.25 c0.6100000000000001,0.9500000000000001 1.13,1.9300000000000002 1.58,2.9699999999999998 c-0.4,-0.9600000000000001 -0.81,-1.9100000000000001 -1.21,-2.87 c0.5800000000000001,1.44 0.99,2.91 1.23,4.45 c-0.14,-1.06 -0.29000000000000004,-2.13 -0.43000000000000005,-3.19 c0.04000000000000001,0.28 0.07,0.56 0.1,0.8400000000000001 c6.02,-3.45 12.04,-6.91 18.06,-10.36 c-4.86,-2.14 -9.71,-4.29 -14.57,-6.43 c-0.9600000000000001,7.3100000000000005 -1.9100000000000001,14.620000000000001 -2.87,21.93 c0.52,-0.17 1.03,-0.30000000000000004 1.57,-0.38000000000000006 c-1.06,0.14 -2.13,0.29000000000000004 -3.19,0.43000000000000005 c0.7600000000000001,-0.08000000000000002 1.48,-0.07 2.23,0.030000000000000006 c-1.06,-0.14 -2.13,-0.29000000000000004 -3.19,-0.43000000000000005 c0.7500000000000001,0.13 1.46,0.33000000000000007 2.17,0.6100000000000001 c-0.9600000000000001,-0.4 -1.9100000000000001,-0.81 -2.87,-1.21 c0.8,0.35000000000000003 1.54,0.78 2.24,1.31 c-0.81,-0.6300000000000001 -1.62,-1.25 -2.43,-1.8800000000000001 c0.5900000000000001,0.48000000000000004 1.12,1 1.6,1.59 c-0.6300000000000001,-0.81 -1.25,-1.62 -1.8800000000000001,-2.43 c0.46,0.6100000000000001 0.8300000000000001,1.23 1.13,1.9300000000000002 c-0.4,-0.9600000000000001 -0.81,-1.9100000000000001 -1.21,-2.87 c0.24000000000000002,0.6100000000000001 0.4,1.22 0.51,1.86 c4.92,-4.92 9.84,-9.84 14.76,-14.76 c-10.42,-1.86 -20.83,-3.72 -31.25,-5.58 c0,7.71 0,15.43 0,23.14 c1.01,-0.23 2.02,-0.42000000000000004 3.05,-0.5700000000000001 c-1.06,0.14 -2.13,0.29000000000000004 -3.19,0.43000000000000005 c3.99,-0.53 7.99,-0.37000000000000005 11.97,0.14 c-1.06,-0.14 -2.13,-0.29000000000000004 -3.19,-0.43000000000000005 c7.71,1.04 15.16,3.31 22.8,4.74 c9.2,1.7200000000000002 18.8,2.51 27.85,-0.49000000000000005 c2.96,-0.98 5.57,-2.77 7.17,-5.51 c1.51,-2.5700000000000003 2.14,-6.36 1.21,-9.25 c-0.9400000000000001,-2.9 -2.74,-5.71 -5.51,-7.17 C89.15551086425779,118.1075765991211 85.75551086425781,117.34757659912108 82.68551086425782,118.3675765991211 L82.68551086425782,118.3675765991211 z" id="svg_18"/>
	</g>
</g><g id="svg_19" class="">
	<g id="svg_20">
		<path class="st1" d="M46.23551086425783,158.6175765991211 c12.99,10.25 28.23,17.52 44.42,21.02 c4.5600000000000005,0.98 9.17,1.6600000000000001 13.82,2.06 c1.92,0.17 1.9100000000000001,-2.84 0,-3 c-15.82,-1.36 -31.26,-6.38 -44.9,-14.49 c-3.9,-2.3200000000000003 -7.65,-4.890000000000001 -11.22,-7.71 C46.85551086425784,155.31757659912108 44.715510864257794,157.4175765991211 46.23551086425783,158.6175765991211 L46.23551086425783,158.6175765991211 z" id="svg_21"/>
	</g>
</g><g id="svg_22" class="">
	<path class="st1" d="M165.7755108642578,196.57757659912107 c-11.38,-29.53 -27.04,-62.39 -57.83,-75.61 c-7,-3.01 -18.79,2.09 -14.96,11.5 c0.56,1.37 1.1400000000000001,2.73 1.7000000000000002,4.1 c-4.71,-5.88 -9.46,-11.73 -14.32,-17.49 c-6.62,-7.85 -21.01,0.48000000000000004 -17.43,10.14 c1.07,2.89 2.04,5.8 2.9699999999999998,8.73 c-7.38,-9.53 -14.76,-19.05 -22.45,-28.34 c-6.8,-8.22 -17.99,0.8400000000000001 -16.32,9.5 c0.7500000000000001,3.91 1.3900000000000001,7.84 1.99,11.77 c-4.5,-4.47 -9.12,-8.82 -13.93,-12.870000000000001 c-6.29,-5.3100000000000005 -15.28,1.24 -11.41,8.8 c3.88,7.58 5.15,16.2 7.890000000000001,24.21 c2.17,6.34 11.43,3.81 10.03,-2.7600000000000002 c-0.09000000000000002,-0.39000000000000007 -0.13,-0.79 -0.22000000000000003,-1.18 c4.85,5.49 9.6,11.06 13.96,17.02 c5.99,8.19 18.42,3.38 16.38,-6.91 c-0.48000000000000004,-2.43 -0.8800000000000001,-4.86 -1.25,-7.3100000000000005 c9.48,12.26 18.88,24.57 28.61,36.63 c6.9,8.56 18.31,-0.9600000000000001 16.69,-9.72 c-0.46,-2.5 -0.92,-4.99 -1.3800000000000001,-7.48 c6.640000000000001,8.36 13.33,16.69 20.09,24.96 c0.92,3.24 1.79,6.5 2.68,9.74 c-2.14,1.31 -3.83,3.3200000000000003 -4.44,5.84 c-0.49000000000000005,2.04 -0.52,4.09 -0.4,6.12 c-6.66,-1.7000000000000002 -14.96,4.37 -12.79,12.55 c2.24,8.45 8.35,12.48 16.27,12.63 c1.3800000000000001,0.42000000000000004 2.7600000000000002,0.8 4.07,1.15 c5.2,1.37 11.15,-1.6300000000000001 12.52,-7.01 c8.18,3.26 16.86,-6.5600000000000005 12.09,-14.52 c-3.37,-5.640000000000001 -5.47,-11.8 -7.19,-18.11 c4.52,1.55 8.98,3.22 13.2,5.59 C157.87551086425782,212.32757659912107 169.2055108642578,205.4975765991211 165.7755108642578,196.57757659912107 zM135.1955108642578,180.70757659912107 c-1.07,-3.09 -2.18,-6.16 -3.34,-9.2 c1.87,3.22 3.6100000000000003,6.54 5.23,9.9 C136.4555108642578,181.1875765991211 135.8255108642578,180.95757659912107 135.1955108642578,180.70757659912107 z" id="svg_23"/>
	<path class="st1" d="M223.0855108642578,138.9575765991211 c8.41,0.98 -2.9699999999999998,-1.1600000000000001 -4.98,-0.39000000000000007 c-0.41000000000000003,0.16000000000000003 -0.8,0.33000000000000007 -1.19,0.5 c-2.15,-2.45 -4.17,-5.01 -5.83,-7.88 c-5.47,-9.42 -17.63,-4.47 -18.89,4.05 c-0.04000000000000001,-0.5 -0.11000000000000001,-1.01 -0.22000000000000003,-1.52 c-1.8900000000000001,-8.36 -4.65,-16.34 -7.91,-24.12 c3.87,-0.9500000000000001 7.19,-4.35 7.86,-8.9 c6.21,5.39 17.49,2.2 17.25,-7.38 c-0.13,-5.49 -0.6400000000000001,-10.89 -1.42,-16.23 c6.67,0.6800000000000002 13.42,-4.63 11.41,-13.12 c-1.54,-6.52 -3.07,-12.99 -4.8,-19.37 c6.76,-1.56 12.26,-8.79 7.48,-15.69 c-0.15000000000000002,-0.21000000000000002 -0.29000000000000004,-0.42000000000000004 -0.44000000000000006,-0.6300000000000001 c-1.92,-2.7800000000000002 -4.47,-4.25 -7.11,-4.72 c-3.46,-1.4100000000000001 -8.27,-5.29 -10.95,-7.59 c-5.13,-4.4 -11.05,-3.62 -14.8,-0.25 c-0.13,-0.21000000000000002 -0.26,-0.42000000000000004 -0.38000000000000006,-0.6300000000000001 c-7.27,-12.07 -23.54,-1.53 -18.33,10.72 c1.96,4.6 3.87,9.26 5.72,13.95 c-4.01,-5.640000000000001 -8.14,-11.2 -12.49,-16.62 c-7.16,-8.93 -20.17,1.5 -16.71,11 c-7.07,-2.74 -16.28,3.91 -13.63,12.21 c1.86,5.84 4.12,11.5 6.59,17.07 c-5.7,0.38000000000000006 -11.28,6.41 -9.53,12.64 c11.1,39.42 40.17,70.48 48.07,111.25 c1.01,5.19 9.15,3.9 9.08,-1.23 c-0.08000000000000002,-5.95 -0.7300000000000001,-11.73 -1.77,-17.39 c0.8200000000000001,2.27 1.6800000000000002,4.53 2.6500000000000004,6.73 c2.5300000000000002,5.71 10.32,1.35 9.39,-3.96 c-0.19000000000000003,-1.11 -0.37000000000000005,-2.19 -0.54,-3.2800000000000002 c5.34,4.69 10.64,9.41 15.43,14.620000000000001 c7.46,8.12 19.74,-2.23 14.8,-11.41 c-1.06,-1.96 -2,-3.9699999999999998 -2.89,-6 c0.92,-0.55 1.77,-1.22 2.51,-2.01 c0.21000000000000002,0.11000000000000001 0.37000000000000005,0.18000000000000002 0.48000000000000004,0.2 c0.18000000000000002,0.13 0.32000000000000006,0.30000000000000004 0.51,0.42000000000000004 c1.9,1.22 4,2.07 6.3100000000000005,1.83 c4.91,-0.53 7.87,-2.79 9.69,-7.38 C248.00551086425781,147.0475765991211 231.60551086425784,139.9575765991211 223.0855108642578,138.9575765991211 z" id="svg_24"/>
	<g id="svg_25">
		<path class="st2" d="M192.87551086425782,132.4675765991211 c25.63,-29.99 55.87,-99.61 17.59,-124.68 c-49.82,-32.62 -110.16,45 -80.86,89.42 c-3.6900000000000004,-2.54 -7.48,-4.58 -11.35,-5.8100000000000005 c-0.020000000000000004,-0.010000000000000002 -0.04000000000000001,0 -0.07,-0.010000000000000002 c-7.24,-16.63 -10.25,-33.38 -8.78,-52.29 c0.23,-2.9699999999999998 -4.42,-3.51 -5.13,-0.6900000000000002 c-4.61,18.29 1.1600000000000001,39.02 10.19,55.97 c-0.020000000000000004,1.04 0.43000000000000005,2.03 1.4300000000000002,2.64 c0.8300000000000001,1.47 1.6900000000000002,2.9 2.5700000000000003,4.3 c-4.3,3.31 -5.52,9.26 -4.54,16.73 c-34.33,-0.41000000000000003 -91.85,-38.67 -111.46,9.76 c-13.91,34.36 34.5,47.98 58.7,53.21 c16.09,3.47 33.32,5.57 49.78,4.29 c-6.67,0.52 -6.85,41.79 -3.18,50.24 c5.63,12.95 18.36,17.86 30.24,9.35 c14.02,-10.04 16.63,-34.13 20.91,-49.4 c5.87,5.67 11.24,9.45 15.3,10.27 c10.97,2.21 11.35,-9.28 8.82,-21.6 c24.77,3.5300000000000002 58.94,2.75 62.25,-28.32 C247.4655108642578,135.2075765991211 212.92551086425783,131.87757659912108 192.87551086425782,132.4675765991211 zM152.4655108642578,193.46757659912112 c-4.37,13.68 -6.67,27.53 -13.81,40.23 c-15.71,9.22 -24.32,7.47 -25.82,-5.26 c-1.6,-6.16 -0.7500000000000001,-13.48 -0.31000000000000005,-19.78 c0.6200000000000001,-8.78 2.56,-17.47 3.93,-26.15 c0.30000000000000004,-1.92 -0.8700000000000001,-4.61 -3.29,-4.3100000000000005 c-30.6,3.81 -74.29,-3.46 -98.49,-23.4 c-9.35,-7.71 -9.5,-17.82 -4.04,-27.87 c9.95,-18.31 29.94,-18.68 47.85,-15.07 c17.86,3.6 37.59,15.08 56.12,10.13 c4.5600000000000005,21.14 23.53,51.45 40.18,69.28 C153.7855108642578,191.52757659912112 152.87551086425782,192.1875765991211 152.4655108642578,193.46757659912112 zM174.2055108642578,200.7375765991211 c-16.84,-3.2 -67.33,-80.72 -54.2,-96.99 c0.020000000000000004,0.030000000000000006 0.04000000000000001,0.06000000000000001 0.06000000000000001,0.09000000000000002 c1.32,2.01 4.39,0.25 3.23,-1.8900000000000001 c-0.17,-0.31000000000000005 -0.31000000000000005,-0.6300000000000001 -0.48000000000000004,-0.9400000000000001 c0.030000000000000006,-0.33000000000000007 -0.08000000000000002,-0.6800000000000002 -0.28,-0.9600000000000001 c14.77,8.42 27.3,29.19 35.56,41.45 c1.5,2.23 10.74,20.05 16.45,35.58 c-1.7600000000000002,1.87 -1.7400000000000002,5.34 1.46,5.93 c0.19000000000000003,0.04000000000000001 0.4,0.06000000000000001 0.6000000000000001,0.1 C179.93551086425782,193.76757659912107 180.5955108642578,201.95757659912107 174.2055108642578,200.7375765991211 zM231.87551086425782,168.0975765991211 c-6.640000000000001,8.58 -15.27,9.65 -25.4,10.29 c-8.37,0.54 -17.02,-0.51 -25.32,-1.92 c-2.49,-8.85 -5.69,-16.73 -6.61,-18.6 c-8.2,-16.8 -23.35,-43.67 -41.4,-58.05 c0.54,-0.27 0.8800000000000001,-0.8 0.5900000000000001,-1.56 c-9.16,-23.92 -2,-48.67 11.71,-69.37 c15.61,-23.57 52.86,-32.64 69.4,-4.93 c18.77,31.43 -10.54,88.73 -34.16,110.29 c-3.12,2.85 0.29000000000000004,6.86 3.7,6.36 c15.29,-2.24 32.31,-0.8800000000000001 46.25,6.08 C239.56551086425782,151.3575765991211 239.98551086425783,158.4975765991211 231.87551086425782,168.0975765991211 z" id="svg_26"/>
		<path class="st2" d="M114.0855108642578,106.2375765991211 c-13.78,-17.24 -37.87,-32.05 -59.87,-35.31 c-2.31,-0.3400000000000001 -4.32,3.05 -1.75,4.15 c10.35,4.45 21.18,7.09 31.37,12.15 c10.66,5.29 19.88,12.64 28.41,20.84 C113.48551086425783,109.25757659912108 115.10551086425784,107.5175765991211 114.0855108642578,106.2375765991211 z" id="svg_27"/>
	</g>
</g></g></svg>