<?xml version="1.0" encoding="utf-8"?>
<!-- Generator: Adobe Illustrator 25.2.1, SVG Export Plug-In . SVG Version: 6.00 Build 0)  -->
<svg version="1.1" id="Layer_1" xmlns="http://www.w3.org/2000/svg" xmlns:xlink="http://www.w3.org/1999/xlink" x="0px" y="0px"
	 viewBox="0 0 960 626" style="enable-background:new 0 0 960 626;" xml:space="preserve">
<style type="text/css">
	.st0{fill:#00BFF3;}
	.st1{fill:#3C3C3B;}
</style>
<g>
	<g>
		<path class="st0" d="M466.16,435.89c-9.21-5.81-18.41-11.62-27.62-17.43c-2.41-1.53-5.01-2.37-7.81-2.49
			c-2.79-0.63-5.58-0.5-8.37,0.38c-1.67,0.71-3.34,1.41-5.02,2.12c-3.16,1.87-5.67,4.38-7.53,7.53c-1.77,2.78-3.18,6.09-3.68,9.38
			c-0.36,2.33-0.94,5.21-0.83,7.75c0.12,2.65,0.51,5.36,1.05,7.96c0.18,0.85,0.42,1.68,0.72,2.48c0.88,2.34,1.83,4.68,2.95,6.92
			c1.49,2.99,3.75,5.64,5.82,8.2c1.04,1.28,2.18,2.45,3.43,3.52c2.55,2.18,5.25,4.32,8.11,6.09c1.44,0.89,2.94,1.67,4.49,2.34
			c3.32,1.45,6.65,2.92,10.12,3.99c3.84,1.18,7.79,1.94,11.75,2.63c5.38,0.94,10.78,1.8,16.22,2.33c5.41,0.52,10.53-0.01,15.92-0.9
			c1.69-0.28,3.34-0.72,4.93-1.35c3.22-1.27,6.55-2.49,9.36-4.56c2.93-2.15,5.85-4.31,8.22-7.09c2.4-2.82,4.64-5.81,6.74-8.87
			c2.15-3.14,4.27-6.3,6.59-9.33c-1.09,1.42-2.19,2.83-3.28,4.25c2.81-3.63,5.89-7.07,9.53-9.9c-1.42,1.09-2.83,2.19-4.25,3.28
			c1.99-1.51,4.12-2.8,6.42-3.78c-1.67,0.71-3.34,1.41-5.02,2.12c1.89-0.77,3.84-1.3,5.86-1.57c-1.86,0.25-3.72,0.5-5.58,0.75
			c0.51-0.06,1-0.1,1.52-0.08c-1.86-0.25-3.72-0.5-5.58-0.75c0.25,0.02,0.5,0.07,0.74,0.15c-1.67-0.71-3.34-1.41-5.02-2.12
			c0.23,0.09,0.44,0.21,0.63,0.37c-1.42-1.09-2.83-2.19-4.25-3.28c0.08,0.08,0.17,0.17,0.25,0.25c-1.09-1.42-2.19-2.83-3.28-4.25
			c0.23,0.31,0.4,0.59,0.56,0.94c-0.71-1.67-1.41-3.34-2.12-5.02c0.29,0.73,0.49,1.46,0.62,2.24c-0.25-1.86-0.5-3.72-0.75-5.58
			c0.13,1.02,0.12,2.01-0.01,3.03c0.25-1.86,0.5-3.72,0.75-5.58c-0.19,1.16-0.53,2.26-0.99,3.34c0.71-1.67,1.41-3.34,2.12-5.02
			c-0.73,1.63-1.68,3.13-2.76,4.55c1.09-1.42,2.19-2.83,3.28-4.25c-3.89,4.98-9.1,9.04-14.08,12.88c1.42-1.09,2.83-2.19,4.25-3.28
			c-3.83,2.94-7.76,5.94-12.22,7.88c1.67-0.71,3.34-1.41,5.02-2.12c-1.54,0.64-3.11,1.13-4.76,1.38c1.86-0.25,3.72-0.5,5.58-0.75
			c-1.2,0.15-2.39,0.17-3.59,0.01c1.86,0.25,3.72,0.5,5.58,0.75c-0.93-0.16-1.81-0.4-2.68-0.75c1.67,0.71,3.34,1.41,5.02,2.12
			c-0.84-0.37-1.61-0.82-2.35-1.36c1.42,1.09,2.83,2.19,4.25,3.28c-0.99-0.77-1.84-1.65-2.62-2.63c1.09,1.42,2.19,2.83,3.28,4.25
			c-1.28-1.7-2.26-3.58-3.1-5.54c0.71,1.67,1.41,3.34,2.12,5.02c-1.45-3.48-2.54-7.12-3.6-10.73c-1.16-3.97-2.15-8-2.72-12.11
			c0.25,1.86,0.5,3.72,0.75,5.58c-0.47-3.56-0.6-7.15-0.15-10.72c-0.25,1.86-0.5,3.72-0.75,5.58c0.34-2.43,0.95-4.78,1.89-7.04
			c-0.71,1.67-1.41,3.34-2.12,5.02c0.33-0.76,0.69-1.51,1.08-2.24c2.63-4.92,3.62-10.72,2.12-16.18c-0.65-2.73-1.9-5.11-3.76-7.14
			c-1.48-2.29-3.44-4.09-5.89-5.41c-4.87-2.57-10.78-3.87-16.18-2.12c-5.1,1.65-9.96,4.8-12.55,9.65c-2.14,4-4.04,8.39-4.86,12.89
			c-0.83,4.57-1.47,9.29-1.19,13.95c0.45,7.7,1.98,15.31,4.21,22.68c0.79,2.62,1.6,5.25,2.56,7.82c1.46,3.88,2.97,8.09,5.37,11.54
			c3.28,4.71,7.12,9.3,12.38,11.93c2.62,1.31,5.4,2.63,8.32,3.16c1.81,0.33,4.88,0.85,7.18,0.87c2.45,0.03,5.46-0.53,7.58-0.88
			c1.37-0.23,2.69-0.57,3.98-1.07c2.99-1.15,6.06-2.38,8.87-3.96c2.7-1.52,5.21-3.38,7.68-5.23c3.95-2.96,7.87-5.98,11.62-9.2
			c2.38-2.04,4.76-4.1,6.83-6.46c2.01-2.29,3.9-4.71,5.6-7.23c1.77-2.62,2.92-5.67,4.05-8.58c2.17-5.6,2.19-12.55,0.6-18.3
			c-0.1-0.38-0.24-0.73-0.38-1.1c-0.59-1.57-1.41-3.91-2.28-5.35c-0.96-1.61-3.17-4.37-3.69-4.85c-1.15-1.09-3.14-2.71-4.5-3.54
			c-1.97-1.2-4.13-2.16-6.38-2.64c-1.33-0.28-4.31-0.86-6.35-0.75c-2.1,0.12-4.25,0.53-6.33,0.83c-4.23,0.61-8.16,2.37-12,4.19
			c-4.01,1.9-7.62,4.87-10.95,7.7c-2.27,1.93-4.32,4.1-6.22,6.39c-3,3.6-5.84,7.36-8.53,11.2c-1.81,2.58-3.5,5.25-5.41,7.76
			c1.09-1.42,2.19-2.83,3.28-4.25c-1.51,1.95-3.15,3.76-5.1,5.28c1.42-1.09,2.83-2.19,4.25-3.28c-1.29,0.97-2.67,1.76-4.15,2.41
			c1.67-0.71,3.34-1.41,5.02-2.12c-1.95,0.81-3.98,1.32-6.08,1.62c1.86-0.25,3.72-0.5,5.58-0.75c-4.21,0.54-8.44,0.23-12.63-0.33
			c1.86,0.25,3.72,0.5,5.58,0.75c-7.99-1.1-16.27-2.37-23.77-5.45c1.67,0.71,3.34,1.41,5.02,2.12c-2.78-1.18-5.39-2.63-7.8-4.46
			c1.42,1.09,2.83,2.19,4.25,3.28c-1.8-1.41-3.43-2.98-4.85-4.78c1.09,1.42,2.19,2.83,3.28,4.25c-1.15-1.51-2.11-3.11-2.86-4.85
			c0.71,1.67,1.41,3.34,2.12,5.02c-0.55-1.35-0.95-2.73-1.18-4.17c0.25,1.86,0.5,3.72,0.75,5.58c-0.15-1.19-0.18-2.36-0.06-3.56
			c-0.25,1.86-0.5,3.72-0.75,5.58c0.15-1.04,0.4-2.02,0.81-2.99c-0.71,1.67-1.41,3.34-2.12,5.02c0.22-0.48,0.47-0.93,0.75-1.37
			c-9.58,2.51-19.15,5.02-28.73,7.53c9.21,5.81,18.41,11.62,27.62,17.43c2.41,1.53,5.01,2.37,7.81,2.49
			c2.79,0.63,5.58,0.5,8.37-0.38c2.73-0.65,5.11-1.9,7.14-3.76c2.29-1.48,4.09-3.44,5.41-5.89c2.57-4.87,3.87-10.78,2.12-16.18
			c-0.71-1.67-1.41-3.34-2.12-5.02C471.83,440.27,469.32,437.75,466.16,435.89L466.16,435.89z"/>
	</g>
</g>
<g>
	<g>
		<path class="st0" d="M600.06,275.88c5.38,0,11.04-2.34,14.85-6.15c2.05-1.9,3.5-4.15,4.34-6.76c1.31-2.5,1.92-5.2,1.81-8.09
			c-0.24-5.43-2.03-11.06-6.15-14.85c-4.11-3.77-9.16-6.15-14.85-6.15c-5.38,0-11.04,2.34-14.85,6.15c-2.05,1.9-3.5,4.15-4.34,6.76
			c-1.31,2.5-1.92,5.2-1.81,8.09c0.24,5.43,2.03,11.06,6.15,14.85C589.32,273.5,594.37,275.88,600.06,275.88L600.06,275.88z"/>
	</g>
</g>
<g>
	<g>
		<path class="st0" d="M696.06,227.88c5.38,0,11.04-2.34,14.85-6.15c2.05-1.9,3.5-4.15,4.34-6.76c1.31-2.5,1.92-5.2,1.81-8.09
			c-0.24-5.43-2.03-11.06-6.15-14.85c-4.11-3.77-9.16-6.15-14.85-6.15c-5.38,0-11.04,2.34-14.85,6.15c-2.05,1.9-3.5,4.15-4.34,6.76
			c-1.31,2.5-1.92,5.2-1.81,8.09c0.24,5.43,2.03,11.06,6.15,14.85C685.32,225.5,690.37,227.88,696.06,227.88L696.06,227.88z"/>
	</g>
</g>
<g>
	<g>
		<path class="st0" d="M702.37,287.76c-2.25-9.57-4.5-19.14-6.75-28.71c-1.11-4.7-2.21-9.41-3.32-14.11
			c-1.11-4.72-2.36-9.44-3.01-14.26c0.25,1.86,0.5,3.72,0.75,5.58c-0.35-2.83-0.46-5.66-0.11-8.49c-0.25,1.86-0.5,3.72-0.75,5.58
			c0.31-2.15,0.88-4.2,1.71-6.21c-0.71,1.67-1.41,3.34-2.12,5.02c1.54-3.61,3.74-6.85,6.12-9.94c-1.09,1.42-2.19,2.83-3.28,4.25
			c1.63-2.09,3.24-4.5,5.32-6.16c-1.42,1.09-2.83,2.19-4.25,3.28c0.32-0.22,0.62-0.41,0.97-0.59c-1.67,0.71-3.34,1.41-5.02,2.12
			c0.46-0.19,0.9-0.31,1.39-0.38c-1.86,0.25-3.72,0.5-5.58,0.75c0.34-0.02,0.65-0.01,0.99,0.02c-1.86-0.25-3.72-0.5-5.58-0.75
			c0.44,0.08,0.84,0.2,1.25,0.37c-1.67-0.71-3.34-1.41-5.02-2.12c0.52,0.25,0.99,0.55,1.46,0.91c-1.42-1.09-2.83-2.19-4.25-3.28
			c0.76,0.63,1.42,1.35,2.04,2.13c-1.09-1.42-2.19-2.83-3.28-4.25c2.7,3.57,4.83,7.71,7.03,11.6c2.32,4.11,4.49,8.3,6.34,12.64
			c-0.71-1.67-1.41-3.34-2.12-5.02c2.23,5.31,3.92,10.81,4.73,16.53c-0.25-1.86-0.5-3.72-0.75-5.58c0.56,4.17,0.64,8.37,0.1,12.55
			c0.25-1.86,0.5-3.72,0.75-5.58c-0.38,2.67-1,5.27-1.91,7.81c13.75,1.86,27.5,3.72,41.25,5.58c0.61-8.75,0.44-17.54-0.54-26.25
			c-1.17-10.45-2.9-20.76-5.91-30.84c-0.71-1.67-1.41-3.34-2.12-5.02c-1.32-2.45-3.12-4.41-5.41-5.89c-1.31-1.3-2.85-2.2-4.63-2.7
			c-2.5-1.31-5.2-1.92-8.09-1.81c-1.86,0.25-3.72,0.5-5.58,0.75c-1.67,0.71-3.34,1.41-5.02,2.12c-2.45,1.32-4.41,3.12-5.89,5.41
			c-1.86,2.03-3.11,4.41-3.76,7.14c-1.47,10.89-2.52,21.68-2.25,32.68c0.26,10.81,1.49,21.71,3.51,32.33
			c0.32,1.67,0.69,3.33,1.19,4.95c0.25,0.81,0.53,1.61,0.84,2.4c0.94,2.39,1.88,4.84,3.08,7.12c0.35,0.67,0.74,1.32,1.18,1.94
			c1.44,2.05,2.95,4.17,4.71,5.97c1.71,1.76,3.83,3.23,5.8,4.64c0.73,0.52,1.49,0.95,2.3,1.31c2.19,0.99,4.48,2.16,6.85,2.71
			c0.4,0.09,0.79,0.15,1.19,0.21c2.18,0.33,4.41,0.74,6.62,0.84c0.82,0.03,1.62-0.03,2.44-0.13c2.6-0.31,5.31-0.5,7.84-1.25
			c2.37-0.7,4.65-1.8,6.9-2.79c0.85-0.37,1.68-0.78,2.48-1.25c0.75-0.44,1.47-0.94,2.17-1.46c2.07-1.54,4.21-3.08,6.11-4.85
			c2.68-2.5,4.88-5.62,6.98-8.58c1.31-1.84,2.46-3.79,3.57-5.76c2.26-4,4.35-8.11,7.17-11.76c-1.09,1.42-2.19,2.83-3.28,4.25
			c2.2-2.79,4.76-5.25,7.56-7.44c-1.42,1.09-2.83,2.19-4.25,3.28c4.94-3.8,10.49-6.74,16.21-9.19c-1.67,0.71-3.34,1.41-5.02,2.12
			c1.96-0.82,3.94-1.51,6.04-1.81c-1.86,0.25-3.72,0.5-5.58,0.75c1.03-0.12,2.03-0.14,3.06-0.03c-1.86-0.25-3.72-0.5-5.58-0.75
			c1.16,0.16,2.25,0.47,3.33,0.92c-1.67-0.71-3.34-1.41-5.02-2.12c1.19,0.54,2.28,1.21,3.32,2c-1.42-1.09-2.83-2.19-4.25-3.28
			c1.23,0.99,2.32,2.1,3.3,3.34c-1.09-1.42-2.19-2.83-3.28-4.25c1.3,1.7,2.37,3.54,3.22,5.5c-0.71-1.67-1.41-3.34-2.12-5.02
			c0.96,2.32,1.59,4.73,1.95,7.21c-0.25-1.86-0.5-3.72-0.75-5.58c0.46,3.44,0.4,6.9-0.05,10.34c0.25-1.86,0.5-3.72,0.75-5.58
			c-0.62,4.5-1.88,8.84-3.62,13.03c0.71-1.67,1.41-3.34,2.12-5.02c-2.4,5.69-5.56,11.01-9.32,15.91c1.09-1.42,2.19-2.83,3.28-4.25
			c-4.5,5.81-9.78,10.96-15.59,15.45c1.42-1.09,2.83-2.19,4.25-3.28c-6.99,5.36-14.66,9.75-22.77,13.18
			c1.67-0.71,3.34-1.41,5.02-2.12c-12.25,5.13-25.24,8.15-38.38,9.93c1.86-0.25,3.72-0.5,5.58-0.75
			c-8.44,1.12-16.94,1.75-25.45,2.09c-8.73,0.35-17.51,0.58-26.19-0.55c1.86,0.25,3.72,0.5,5.58,0.75
			c-6.38-0.87-12.51-2.61-18.44-5.09c1.67,0.71,3.34,1.41,5.02,2.12c-6.22-2.64-12.12-5.93-17.9-9.42
			c-5.32-3.21-10.75-6.38-15.69-10.15c1.42,1.09,2.83,2.19,4.25,3.28c-2.55-1.97-4.92-4.14-6.92-6.68c1.09,1.42,2.19,2.83,3.28,4.25
			c-1.25-1.64-2.31-3.38-3.14-5.27c0.71,1.67,1.41,3.34,2.12,5.02c-0.84-1.99-1.39-4.05-1.68-6.19c0.25,1.86,0.5,3.72,0.75,5.58
			c-0.29-2.41-0.25-4.82,0.04-7.24c-0.25,1.86-0.5,3.72-0.75,5.58c0.47-3.43,1.44-6.73,2.77-9.92c-0.71,1.67-1.41,3.34-2.12,5.02
			c2.1-4.9,5.05-9.3,8.3-13.51c-1.09,1.42-2.19,2.83-3.28,4.25c5.74-7.38,12.03-14.28,17.44-21.92
			c-12.09-7.07-24.18-14.13-36.27-21.2c-0.97,1.71-2.06,3.33-3.26,4.89c1.09-1.42,2.19-2.83,3.28-4.25
			c-2.19,2.79-4.69,5.27-7.49,7.44c1.42-1.09,2.83-2.19,4.25-3.28c-2.72,2.06-5.65,3.78-8.78,5.14
			c7.07,12.09,14.13,24.18,21.2,36.27c4.71-2.53,9.41-5.06,14.12-7.59c4.61-2.48,9.18-5.27,13.95-7.43
			c-1.67,0.71-3.34,1.41-5.02,2.12c0.83-0.34,1.65-0.6,2.54-0.73c-1.86,0.25-3.72,0.5-5.58,0.75c0.45-0.03,0.86-0.03,1.31,0.01
			c-1.86-0.25-3.72-0.5-5.58-0.75c0.53,0.09,1.02,0.23,1.52,0.44c-1.67-0.71-3.34-1.41-5.02-2.12c0.74,0.35,1.4,0.77,2.06,1.26
			c-1.42-1.09-2.83-2.19-4.25-3.28c6.17,4.8,12,10.09,17.98,15.13c3.04,2.56,6.08,5.13,9.12,7.69c2.67,2.25,5.69,4.38,7.91,7.09
			c-1.09-1.42-2.19-2.83-3.28-4.25c0.45,0.59,0.84,1.19,1.15,1.86c-0.71-1.67-1.41-3.34-2.12-5.02c0.23,0.56,0.38,1.11,0.46,1.71
			c-0.25-1.86-0.5-3.72-0.75-5.58c0.03,0.46,0.02,0.89-0.04,1.34c0.25-1.86,0.5-3.72,0.75-5.58c-0.08,0.39-0.18,0.75-0.32,1.12
			c0.71-1.67,1.41-3.34,2.12-5.02c-0.2,0.44-0.44,0.84-0.73,1.23c1.09-1.42,2.19-2.83,3.28-4.25c-0.38,0.46-0.8,0.86-1.27,1.23
			c1.42-1.09,2.83-2.19,4.25-3.28c-0.78,0.57-1.61,1.01-2.49,1.39c1.67-0.71,3.34-1.41,5.02-2.12c-1.53,0.61-3.12,1-4.76,1.23
			c1.86-0.25,3.72-0.5,5.58-0.75c-7.58,1-15.25,0.99-22.83,0.01c1.86,0.25,3.72,0.5,5.58,0.75c-3.15-0.43-6.28-1.02-9.37-1.78
			c-1.86-0.25-3.72-0.5-5.58-0.75c-2.89-0.11-5.59,0.49-8.09,1.81c-1.78,0.5-3.32,1.4-4.63,2.7c-2.29,1.48-4.09,3.44-5.41,5.89
			c-4.89,8.24-4.76,19.44,0.63,27.45c2.7,4.01,5.88,7.36,10.16,9.74c2.85,1.58,6.04,2.87,9.23,3.64c3.21,0.78,6.49,1.33,9.75,1.81
			c5,0.75,10.02,1.43,15.06,1.86c14.92,1.27,29.71,0.06,44.49-2.15c13.28-1.99,26.34-5.41,38.98-9.91
			c14.12-5.03,27.93-11.16,41.1-18.32c3.29-1.79,6.63-3.56,9.72-5.67c2.82-1.92,5.61-3.98,8.1-6.33c2.41-2.27,4.41-5.08,6.32-7.74
			c2.96-4.13,4.86-9.11,6.54-13.85c1.16-3.29,2-6.69,2.83-10.08c1.31-5.4,0.72-11.33-2.12-16.18c-1.32-2.45-3.12-4.41-5.41-5.89
			c-2.03-1.86-4.41-3.11-7.14-3.76c-5.38-1.22-11.41-0.96-16.18,2.12c-4.52,2.91-8.35,7.19-9.65,12.55c-1.04,4.3-2.13,8.6-3.83,12.7
			c0.71-1.67,1.41-3.34,2.12-5.02c-1.04,2.43-2.29,4.74-3.88,6.86c1.09-1.42,2.19-2.83,3.28-4.25c-1.36,1.76-2.93,3.28-4.68,4.65
			c1.42-1.09,2.83-2.19,4.25-3.28c-5.15,3.91-11.15,6.85-16.88,9.8c-5.87,3.02-11.85,5.82-17.94,8.38c1.67-0.71,3.34-1.41,5.02-2.12
			c-13.56,5.7-27.62,10.23-42.05,13.16c-4.06,0.82-8.14,1.51-12.24,2.07c1.86-0.25,3.72-0.5,5.58-0.75
			c-14.48,1.94-29.16,2.16-43.65,0.23c1.86,0.25,3.72,0.5,5.58,0.75c-2.59-0.35-5.17-0.77-7.73-1.25c-2.46-0.47-4.97-0.91-7.3-1.86
			c1.67,0.71,3.34,1.41,5.02,2.12c-0.87-0.39-1.67-0.84-2.44-1.42c1.42,1.09,2.83,2.19,4.25,3.28c-0.48-0.4-0.9-0.82-1.28-1.31
			c1.09,1.42,2.19,2.83,3.28,4.25c-0.35-0.5-0.64-1.01-0.88-1.57c0.71,1.67,1.41,3.34,2.12,5.02c-0.17-0.45-0.29-0.89-0.38-1.37
			c0.25,1.86,0.5,3.72,0.75,5.58c-0.06-0.47-0.08-0.91-0.04-1.38c-0.25,1.86-0.5,3.72-0.75,5.58c0.06-0.46,0.17-0.88,0.34-1.32
			c-0.71,1.67-1.41,3.34-2.12,5.02c0.09-0.21,0.2-0.42,0.33-0.61c-7.91,3.22-15.81,6.43-23.72,9.65c6.44,1.58,13.09,2.52,19.7,3.03
			c4.92,0.38,9.86,0.34,14.77-0.13c3.77-0.36,7.62-0.66,11.29-1.59c0.81-0.2,1.59-0.47,2.36-0.77c2.31-0.91,4.89-1.76,7-3.15
			c3.99-2.63,7.89-5.97,10.04-10.35c2.23-4.55,2.97-7.03,3.24-12.18c0.14-2.69-0.24-5.63-1.22-8.18c-0.91-2.36-1.76-4.83-3.27-6.88
			c-1.58-2.14-3.14-4.37-5.12-6.18c-1.77-1.62-3.67-3.13-5.51-4.68c-3.93-3.31-7.85-6.63-11.78-9.94s-7.85-6.63-11.78-9.94
			c-3.02-2.54-6.02-5.33-9.36-7.41c-1.1-0.69-2.39-1.13-3.57-1.62c-1.17-0.49-2.38-1.12-3.64-1.43c-1.73-0.42-4.19-0.69-5.98-0.82
			c-0.3-0.02-0.58-0.04-0.88-0.04c-2.29-0.03-4.64,0.4-6.88,0.93c-1.42,0.34-2.89,1.09-4.19,1.64c-1.41,0.6-2.78,1.14-4.13,1.85
			c-1.22,0.64-2.43,1.31-3.65,1.96c-2.53,1.36-5.07,2.73-7.6,4.09c-5.07,2.73-10.13,5.45-15.2,8.18c-2.45,1.32-4.41,3.12-5.89,5.41
			c-1.86,2.03-3.11,4.41-3.76,7.14c-0.88,2.79-1,5.58-0.38,8.37c0.13,2.79,0.96,5.4,2.49,7.81c2.89,4.48,7.2,8.43,12.55,9.65
			c1.86,0.25,3.72,0.5,5.58,0.75c3.79-0.01,7.32-0.97,10.6-2.87c2.1-0.91,4.13-1.97,6.05-3.22c3.3-2.13,6.46-4.58,9.39-7.2
			c1.66-1.48,3.19-3.1,4.59-4.83c2.51-3.11,5.04-6.27,7.03-9.76c1.53-2.41,2.37-5.01,2.49-7.81c0.63-2.79,0.5-5.58-0.38-8.37
			c-0.65-2.73-1.9-5.11-3.76-7.14c-1.48-2.29-3.44-4.09-5.89-5.41c-4.87-2.57-10.78-3.87-16.18-2.12c-1.67,0.71-3.34,1.41-5.02,2.12
			c-3.16,1.87-5.67,4.38-7.53,7.53c-0.86,1.21-1.74,2.39-2.64,3.56c1.09-1.42,2.19-2.83,3.28-4.25
			c-5.38,6.91-11.21,13.41-16.4,20.48c-2.04,2.77-3.93,5.66-5.48,8.74c-2.21,4.42-4.27,9.12-5.43,13.95
			c-0.79,3.27-1.18,6.7-1.52,10.02c-0.17,1.6-0.21,3.22-0.1,4.83c0.22,3.32,0.61,6.7,1.42,9.93c0.79,3.15,2.24,6.3,3.61,9.18
			c0.66,1.38,1.45,2.7,2.35,3.93c1.86,2.55,3.78,5.17,6,7.45c3.32,3.41,7.25,6.27,11.12,9c5.56,3.91,11.48,7.42,17.36,10.83
			c7.64,4.42,15.69,8.27,24.04,11.16c8.64,2.98,17.94,4.19,27.04,4.62c7.5,0.35,15.04,0.05,22.53-0.35
			c9.09-0.48,18.1-1.46,27.12-2.7c7.26-1,14.48-2.36,21.56-4.28c8.43-2.28,16.59-5.44,24.52-9.08c5.56-2.55,10.91-5.58,15.93-9.09
			c12.75-8.89,23.94-19.71,31.9-33.18c1.54-2.6,2.9-5.3,4.1-8.08c1.89-4.4,3.81-8.75,4.94-13.41c2.34-9.56,2.66-19.09,0.6-28.71
			c-0.29-1.34-0.67-2.66-1.15-3.94c-1.14-3.06-2.36-6.22-4.04-9.06c-1.55-2.62-3.55-5.06-5.48-7.36c-2.15-2.56-5.01-4.58-7.68-6.48
			c-2.51-1.79-5.59-2.9-8.42-3.94c-0.73-0.27-1.47-0.45-2.23-0.58c-2.55-0.46-5.45-1.03-8.14-0.86c-2.44,0.15-4.95,0.53-7.35,0.98
			c-0.89,0.17-1.76,0.41-2.61,0.69c-3.4,1.13-6.68,2.65-9.93,4.15c-7.52,3.47-14.41,7.99-20.61,13.51
			c-6.22,5.54-10.67,12.66-14.66,19.88c-1.61,2.91-3.27,5.79-5.28,8.44c1.09-1.42,2.19-2.83,3.28-4.25
			c-1.33,1.71-2.82,3.25-4.53,4.58c1.42-1.09,2.83-2.19,4.25-3.28c-1.49,1.13-3.08,2.08-4.8,2.82c1.67-0.71,3.34-1.41,5.02-2.12
			c-1.34,0.55-2.71,0.95-4.14,1.17c1.86-0.25,3.72-0.5,5.58-0.75c-1.16,0.15-2.31,0.17-3.47,0.04c1.86,0.25,3.72,0.5,5.58,0.75
			c-1.05-0.15-2.05-0.41-3.03-0.81c1.67,0.71,3.34,1.41,5.02,2.12c-0.87-0.39-1.67-0.85-2.44-1.42c1.42,1.09,2.83,2.19,4.25,3.28
			c-0.91-0.71-1.71-1.52-2.43-2.42c1.09,1.42,2.19,2.83,3.28,4.25c-1-1.32-1.77-2.75-2.42-4.27c0.71,1.67,1.41,3.34,2.12,5.02
			c-2.01-4.92-2.7-10.35-3.42-15.58c0.25,1.86,0.5,3.72,0.75,5.58c-2.02-15.08-2.04-30.38-0.06-45.47c-0.25,1.86-0.5,3.72-0.75,5.58
			c0.02-0.16,0.04-0.32,0.06-0.48c-13.5,0-27,0-40.5,0c2.17,7.27,3.76,14.69,4.78,22.21c-0.25-1.86-0.5-3.72-0.75-5.58
			c1.28,9.71,1.6,19.53,0.91,29.31c-0.11,2.89,0.49,5.59,1.81,8.09c0.85,2.6,2.29,4.86,4.34,6.76c1.42,1.09,2.83,2.19,4.25,3.28
			c2.41,1.53,5.01,2.37,7.81,2.49c1.86,0.5,3.72,0.5,5.58,0c2.79-0.13,5.4-0.96,7.81-2.49c1.42-1.09,2.83-2.19,4.25-3.28
			c2.6-2.62,4.4-5.71,5.4-9.27c1.56-4.35,2.08-8.81,2.66-13.39c0.36-2.82,0.46-5.66,0.3-8.51c-0.43-7.33-1.69-14.75-4.15-21.69
			c-2.46-6.93-5.54-13.68-9.08-20.12c-3.46-6.3-7.04-12.61-11.66-18.15c-1.77-2.11-4.1-3.8-6.34-5.33
			c-3.18-2.17-6.56-3.06-10.24-3.56c-4.25-0.57-4.26-0.51-9.36,0.35c-1.4,0.24-2.56,0.88-3.9,1.44c-3.67,1.55-4.15,1.97-7.73,4.93
			c-0.5,0.42-0.97,0.85-1.4,1.34c-2.84,3.17-5.42,6.69-7.97,10.09c-1.59,2.12-3.08,4.33-4.3,6.68c-1.95,3.77-3.82,7.87-4.65,12.07
			c-0.88,4.52-1.48,9.21-1.06,13.82c0.72,7.83,2.49,15.33,4.29,22.95c3.24,13.79,6.48,27.57,9.73,41.36
			c0.65,2.73,1.9,5.11,3.76,7.14c1.48,2.29,3.44,4.09,5.89,5.41c2.41,1.53,5.01,2.37,7.81,2.49c2.79,0.63,5.58,0.5,8.37-0.38
			c5.08-1.64,9.98-4.79,12.55-9.65c0.71-1.67,1.41-3.34,2.12-5.02C703.37,295.2,703.37,291.48,702.37,287.76L702.37,287.76z"/>
	</g>
</g>
<g>
	<g>
		<path class="st0" d="M365,289.7c1.79-1.54,3.45-3.22,4.94-5.05c2.52-3.1,5.07-6.27,7.03-9.76c1.94-3.45,3.47-7.19,4.8-10.89
			c0.74-2.06,1.19-4.2,2.01-6.23c-0.71,1.67-1.41,3.34-2.12,5.02c0.35-0.82,0.76-1.58,1.3-2.29c-1.09,1.42-2.19,2.83-3.28,4.25
			c0.28-0.33,0.57-0.62,0.9-0.89c-1.42,1.09-2.83,2.19-4.25,3.28c0.35-0.26,0.71-0.47,1.11-0.66c-1.67,0.71-3.34,1.41-5.02,2.12
			c0.4-0.15,0.76-0.26,1.18-0.34c-1.86,0.25-3.72,0.5-5.58,0.75c0.55-0.07,1.07-0.07,1.63-0.03c-1.86-0.25-3.72-0.5-5.58-0.75
			c1.14,0.16,2.2,0.51,3.27,0.94c-1.67-0.71-3.34-1.41-5.02-2.12c2.57,1.12,5.06,2.42,7.58,3.65c2.23,1.09,4.66,2.02,6.68,3.48
			c-1.42-1.09-2.83-2.19-4.25-3.28c0.46,0.36,0.85,0.74,1.21,1.2c-1.09-1.42-2.19-2.83-3.28-4.25c0.19,0.29,0.34,0.56,0.48,0.88
			c-0.71-1.67-1.41-3.34-2.12-5.02c0.09,0.24,0.16,0.48,0.2,0.74c-0.25-1.86-0.5-3.72-0.75-5.58c0.05,0.43,0.05,0.81,0.01,1.25
			c0.25-1.86,0.5-3.72,0.75-5.58c-0.25,1.63-0.91,3.18-1.47,4.72c-0.6,1.65-1.21,3.29-1.83,4.92c-1.25,3.27-2.56,6.52-3.92,9.75
			c0.71-1.67,1.41-3.34,2.12-5.02c-1.8,4.25-3.68,8.47-5.67,12.64c-1.81,3.82-3.58,7.75-6.16,11.12c1.09-1.42,2.19-2.83,3.28-4.25
			c-1.05,1.32-2.21,2.49-3.54,3.53c1.42-1.09,2.83-2.19,4.25-3.28c-2.1,1.58-4.42,2.76-6.83,3.79c1.67-0.71,3.34-1.41,5.02-2.12
			c-5.51,2.32-11.16,4.41-16.83,6.31c-5.89,1.98-11.9,3.56-18.06,4.41c1.86-0.25,3.72-0.5,5.58-0.75
			c-10.86,1.44-21.83,0.88-32.74,0.56c-5.29-0.16-10.63-0.37-15.91,0.03c-4.24,0.32-8.59,0.76-12.69,1.96
			c-3.76,1.1-7.63,2.6-10.88,4.82c-5.13,3.51-8.34,6.67-11.86,11.8c-3.44,5.02-4.44,10.6-5.06,16.49c-0.11,2.89,0.49,5.59,1.81,8.09
			c0.85,2.6,2.29,4.86,4.34,6.76c4.16,3.82,9.12,6.03,14.85,6.15c9.13,0.19,18.34-0.87,27.28-2.65c9-1.79,17.42-4.97,25.81-8.63
			c3.91-1.71,7.7-3.67,11.36-5.86c4.56-2.73,8.24-7.41,9.65-12.55c0.88-2.79,1-5.58,0.38-8.37c-0.13-2.79-0.96-5.4-2.49-7.81
			c-2.89-4.48-7.2-8.43-12.55-9.65c-5.48-1.25-11.25-0.83-16.18,2.12c-4.04,2.42-8.24,4.54-12.57,6.38
			c1.67-0.71,3.34-1.41,5.02-2.12c-8.28,3.47-16.98,5.83-25.88,7.04c1.86-0.25,3.72-0.5,5.58-0.75c-5.11,0.67-10.25,0.96-15.39,0.85
			c7,7,14,14,21,21c0.01-0.12,0.03-0.24,0.04-0.37c-0.25,1.86-0.5,3.72-0.75,5.58c0.15-1.09,0.43-2.12,0.84-3.14
			c-0.71,1.67-1.41,3.34-2.12,5.02c0.49-1.12,1.11-2.15,1.85-3.12c-1.09,1.42-2.19,2.83-3.28,4.25c0.85-1.07,1.81-2.01,2.88-2.86
			c-1.42,1.09-2.83,2.19-4.25,3.28c1.31-1,2.71-1.81,4.23-2.47c-1.67,0.71-3.34,1.41-5.02,2.12c2.24-0.91,4.56-1.48,6.95-1.82
			c-1.86,0.25-3.72,0.5-5.58,0.75c6.7-0.89,13.59-0.48,20.32-0.26c6.89,0.22,13.78,0.49,20.67,0.24c8.5-0.31,17.1-1.34,25.35-3.43
			c6.62-1.68,13.04-4.06,19.41-6.5c4.37-1.67,8.76-3.34,12.99-5.36c1.24-0.59,2.45-1.24,3.6-2c1.95-1.28,3.77-2.78,5.59-4.23
			c0.65-0.52,1.28-1.04,1.86-1.63c5.76-5.75,9.17-13.03,12.53-20.3c3.53-7.64,6.82-15.41,9.85-23.26c1.21-3.12,2.58-6.28,3.47-9.51
			c0.65-2.33,1.09-4.88,1.04-7.25c-0.02-1.22-0.26-2.39-0.42-3.62c-0.2-1.47-0.23-2.31-0.57-3.53c-1.21-4.35-3.04-6.77-5.88-10.15
			c-1.48-1.76-3.76-3.3-5.46-4.48c-2.91-2.02-6.41-3.34-9.58-4.89c-6.24-3.04-12.58-6.41-19.77-6.07
			c-6.76,0.32-12.87,2.72-17.79,7.41c-2.11,2.01-4.04,4.52-5.24,7.23c-1.26,2.85-2.43,5.64-3.28,8.62
			c-0.44,1.54-0.96,3.04-1.57,4.51c0.71-1.67,1.41-3.34,2.12-5.02c-1.32,3.11-3.02,6.02-5.07,8.71c1.09-1.42,2.19-2.83,3.28-4.25
			c-1.66,2.13-3.51,4.09-5.57,5.85c-2.05,1.9-3.5,4.15-4.34,6.76c-1.31,2.5-1.92,5.2-1.81,8.09c-0.11,2.89,0.49,5.59,1.81,8.09
			c0.85,2.6,2.29,4.86,4.34,6.76c4,3.67,9.26,6.4,14.85,6.15c1.86-0.25,3.72-0.5,5.58-0.75C359.29,294.11,362.38,292.31,365,289.7
			L365,289.7z"/>
	</g>
</g>
<g>
	<g>
		<path class="st0" d="M291.4,259.11c1.08-9.96,1.18-20.01,0.25-29.99c-1.08-11.68-3.02-23.31-6.38-34.56
			c-0.65-2.73-1.9-5.11-3.76-7.14c-1.48-2.29-3.44-4.09-5.89-5.41c-1.67-0.71-3.34-1.41-5.02-2.12c-2.79-0.88-5.58-1-8.37-0.38
			c-1.9,0.01-3.66,0.48-5.3,1.43c-2.6,0.85-4.86,2.29-6.76,4.34c-3.62,3.95-6.52,9.31-6.15,14.85c1.41,21.15,4.07,42.26,7.86,63.11
			c0.99,5.44,2.06,10.85,3.23,16.25c0.65,2.73,1.9,5.11,3.76,7.14c1.48,2.29,3.44,4.09,5.89,5.41c2.41,1.53,5.01,2.37,7.81,2.49
			c2.79,0.63,5.58,0.5,8.37-0.38c5.08-1.64,9.98-4.79,12.55-9.65c0.71-1.67,1.41-3.34,2.12-5.02c1-3.72,1-7.44,0-11.17
			c-2.8-13.03-5.09-26.16-6.88-39.36c0.25,1.86,0.5,3.72,0.75,5.58c-1.54-11.43-2.69-22.91-3.46-34.43
			c-13.75,1.86-27.5,3.72-41.25,5.58c2.26,7.56,3.91,15.28,4.96,23.1c-0.25-1.86-0.5-3.72-0.75-5.58
			c1.56,11.89,1.71,23.94,0.41,35.86c-0.11,2.89,0.49,5.59,1.81,8.09c0.85,2.6,2.29,4.86,4.34,6.76c1.9,2.05,4.15,3.5,6.76,4.34
			c2.5,1.31,5.2,1.92,8.09,1.81c5.43-0.24,11.06-2.03,14.85-6.15c1.09-1.42,2.19-2.83,3.28-4.25
			C290.44,266.44,291.39,262.9,291.4,259.11L291.4,259.11z"/>
	</g>
</g>
<g>
	<g>
		<path class="st0" d="M285.44,308.69c1.38-1.52,2.72-3.27,3.88-4.96c0.24-0.36,0.46-0.72,0.65-1.1c0.88-1.78,1.75-3.82,2.4-5.69
			c0.16-0.47,0.31-0.95,0.41-1.43c0.76-3.47,1.1-7.09,1.19-10.64c0.11-4.66,0.19-9.32,0.25-13.97c0.11-9.3,0.11-18.61-0.01-27.92
			c-0.03-2.48-0.08-4.97-0.34-7.44c-0.43-4.12-0.85-8.4-2.14-12.37c-1.6-4.94-4.9-10.04-9.65-12.55c-1.67-0.71-3.34-1.41-5.02-2.12
			c-2.79-0.88-5.58-1-8.37-0.38c-1.9,0.01-3.66,0.48-5.3,1.43c-2.6,0.85-4.86,2.29-6.76,4.34c-3.81,4.15-6.05,9.13-6.15,14.85
			c-0.31,16.95-0.61,33.9-0.92,50.85c-0.11,2.89,0.49,5.59,1.81,8.09c0.85,2.6,2.29,4.86,4.34,6.76c1.9,2.05,4.15,3.5,6.76,4.34
			c2.5,1.31,5.2,1.92,8.09,1.81c5.43-0.24,11.06-2.03,14.85-6.15c3.81-4.15,6.05-9.13,6.15-14.85c0.31-16.95,0.61-33.9,0.92-50.85
			c-13.75,1.86-27.5,3.72-41.25,5.58c0.57,1.77,0.96,3.57,1.22,5.41c-0.25-1.86-0.5-3.72-0.75-5.58c0.58,4.4,0.51,8.85,0.55,13.28
			c0.04,4.74,0.05,9.48,0.03,14.22c-0.02,4.66-0.06,9.32-0.14,13.97c-0.07,4.35,0.13,8.84-0.42,13.17c0.25-1.86,0.5-3.72,0.75-5.58
			c-0.15,1-0.37,1.96-0.75,2.9c0.71-1.67,1.41-3.34,2.12-5.02c-0.25,0.57-0.55,1.08-0.91,1.59c1.09-1.42,2.19-2.83,3.28-4.25
			c-0.15,0.2-0.31,0.39-0.48,0.56c-3.73,4.1-6.15,9.2-6.15,14.85c-0.11,2.89,0.49,5.59,1.81,8.09c0.85,2.6,2.29,4.86,4.34,6.76
			c4,3.67,9.26,6.4,14.85,6.15C276,314.6,281.68,312.83,285.44,308.69L285.44,308.69z"/>
	</g>
</g>
<g>
	<g>
		<path class="st0" d="M256.85,212.61c-1.06-0.27-2.08-0.61-3.09-1.03c1.67,0.71,3.34,1.41,5.02,2.12
			c-1.65-0.73-3.18-1.66-4.61-2.76c1.42,1.09,2.83,2.19,4.25,3.28c-1.72-1.37-3.23-2.94-4.58-4.68c1.09,1.42,2.19,2.83,3.28,4.25
			c-1.56-2.07-2.84-4.32-3.87-6.7c0.71,1.67,1.41,3.34,2.12,5.02c-1.46-3.5-2.3-7.19-2.82-10.94c0.25,1.86,0.5,3.72,0.75,5.58
			c-0.48-3.72-0.64-7.48-0.68-11.23c-0.04-3.71-0.16-7.48,0.28-11.18c-0.25,1.86-0.5,3.72-0.75,5.58c0.22-1.65,0.59-3.24,1.2-4.79
			c-0.71,1.67-1.41,3.34-2.12,5.02c0.6-1.38,1.36-2.65,2.27-3.85c-1.09,1.42-2.19,2.83-3.28,4.25c1.8-2.28,3.99-4.17,6.27-5.94
			c-1.42,1.09-2.83,2.19-4.25,3.28c4.2-3.22,8.72-6,13.6-8.08c-1.67,0.71-3.34,1.41-5.02,2.12c3.53-1.47,7.2-2.54,11-3.08
			c-1.86,0.25-3.72,0.5-5.58,0.75c3.17-0.41,6.35-0.44,9.53-0.04c-1.86-0.25-3.72-0.5-5.58-0.75c2.89,0.39,5.69,1.12,8.38,2.24
			c-1.67-0.71-3.34-1.41-5.02-2.12c2.18,0.94,4.22,2.11,6.11,3.55c-1.42-1.09-2.83-2.19-4.25-3.28c1.95,1.53,3.67,3.29,5.2,5.24
			c-1.09-1.42-2.19-2.83-3.28-4.25c2.48,3.23,4.36,6.83,5.95,10.56c-0.71-1.67-1.41-3.34-2.12-5.02c2.88,6.86,5.07,14.06,7.28,21.16
			c2.43,7.83,4.54,15.77,5.65,23.9c-0.25-1.86-0.5-3.72-0.75-5.58c0.7,5.36,1.02,10.78,0.35,16.15c0.25-1.86,0.5-3.72,0.75-5.58
			c-0.39,2.9-1.07,5.72-2.17,8.44c0.71-1.67,1.41-3.34,2.12-5.02c-0.8,1.89-1.76,3.7-3,5.34c1.09-1.42,2.19-2.83,3.28-4.25
			c-0.49,0.61-1.02,1.16-1.62,1.67c1.42-1.09,2.83-2.19,4.25-3.28c-0.41,0.31-0.82,0.56-1.28,0.79c1.67-0.71,3.34-1.41,5.02-2.12
			c-0.48,0.19-0.93,0.32-1.44,0.39c1.86-0.25,3.72-0.5,5.58-0.75c-0.39,0.02-0.73,0.02-1.12-0.02c1.86,0.25,3.72,0.5,5.58,0.75
			c-0.5-0.09-0.95-0.22-1.42-0.41c1.67,0.71,3.34,1.41,5.02,2.12c-0.58-0.28-1.12-0.6-1.64-0.98c1.42,1.09,2.83,2.19,4.25,3.28
			c-2.85-2.21-5.18-5.28-7.38-8.11c1.09,1.42,2.19,2.83,3.28,4.25c-4.63-6.01-8.46-12.58-11.43-19.56c0.71,1.67,1.41,3.34,2.12,5.02
			c-2.99-7.12-5.06-14.58-6.13-22.24c0.25,1.86,0.5,3.72,0.75,5.58c-0.96-7.21-1.28-14.54-2.86-21.66
			c-0.92-4.16-2.6-8.26-4.52-12.02c-0.97-1.89-2.27-3.49-3.57-5.17c-1.37-1.77-2.62-3.45-4.34-4.86c-2.62-2.6-5.71-4.4-9.27-5.4
			c-2.79-0.88-5.58-1-8.37-0.38c-2.79,0.13-5.4,0.96-7.81,2.49c-3.16,1.87-5.67,4.38-7.53,7.53
			c-11.56,19.51-14.05,42.72-13.51,64.98c0.06,2.63,0.17,5.26,0.29,7.88c0.11,2.24,0.23,4.43-0.07,6.66
			c0.25-1.86,0.5-3.72,0.75-5.58c-0.18,1.22-0.47,2.41-0.93,3.55c0.71-1.67,1.41-3.34,2.12-5.02c-0.3,0.69-0.65,1.33-1.11,1.92
			c1.09-1.42,2.19-2.83,3.28-4.25c-0.28,0.34-0.58,0.64-0.92,0.91c1.42-1.09,2.83-2.19,4.25-3.28c-0.35,0.26-0.71,0.46-1.11,0.63
			c1.67-0.71,3.34-1.41,5.02-2.12c-0.34,0.12-0.68,0.21-1.03,0.27c1.86-0.25,3.72-0.5,5.58-0.75c-0.48,0.05-0.94,0.05-1.42,0
			c1.86,0.25,3.72,0.5,5.58,0.75c-1.13-0.18-2.21-0.56-3.34-0.78c-5.24-1.05-7.81-1.09-13-0.04c-5.04,1.01-9.19,3.98-12.96,7.29
			c-2.66,2.33-4.41,5.47-7.23,7.66c1.42-1.09,2.83-2.19,4.25-3.28c-1.32,0.99-2.72,1.8-4.23,2.47c1.67-0.71,3.34-1.41,5.02-2.12
			c-1.74,0.73-3.54,1.23-5.41,1.51c1.86-0.25,3.72-0.5,5.58-0.75c-1.87,0.25-3.74,0.27-5.61,0.04c1.86,0.25,3.72,0.5,5.58,0.75
			c-1.75-0.24-3.43-0.69-5.06-1.37c1.67,0.71,3.34,1.41,5.02,2.12c-1.68-0.74-3.22-1.7-4.68-2.82c1.42,1.09,2.83,2.19,4.25,3.28
			c-4.52-3.59-7.75-8.4-11.45-12.76c-5.63-6.63-13.14-12.28-21.63-14.57c-0.53-0.14-1.07-0.25-1.62-0.34
			c-2.27-0.37-4.61-0.75-6.9-0.89c-2.89-0.18-6.21,0.43-8.88,0.91c-5.61,1.01-10.41,4.07-14.66,7.69c-2.05,1.75-3.82,4.13-5.21,6.33
			c-0.79,1.25-1.27,2.59-1.85,3.97c-0.63,1.5-1.33,2.96-1.73,4.54c-0.36,1.41-0.53,2.85-0.74,4.28c-0.47,3.34-0.93,6.69-1.35,10.04
			c-0.78,6.24-1.29,12.56-0.86,18.85c0.33,4.8,0.92,9.65,2.05,14.32c1.07,4.46,2.91,8.75,4.85,12.88c1.11,2.36,2.45,4.61,3.99,6.72
			c2.47,3.38,5.04,6.78,8.03,9.74c3.05,3.01,6.53,5.62,9.96,8.15c2.14,1.57,4.39,3,6.71,4.27c3.81,2.08,7.87,3.74,11.89,5.36
			c2.66,1.07,5.38,1.96,8.14,2.71c7.83,2.12,16,3.17,24.07,3.9c12.29,1.11,24.76,1.11,37.1,0.95c12.81-0.16,25.69-1.16,38.26-3.7
			c5.34-1.08,10.62-2.56,15.69-4.57c6.61-2.62,13.12-5.46,18.98-9.53c3.57-2.48,7.22-5.08,10.33-8.14c4.13-4.07,7.85-9.72,8.9-15.51
			c0.3-1.65,0.86-4.77,0.84-7c-0.02-2.32-0.47-4.73-0.86-7c-0.51-2.95-1.91-5.82-3.18-8.47c-0.55-1.14-1.22-2.19-1.97-3.2
			c-1.8-2.39-3.6-5.01-5.9-7.01c-2.25-1.96-4.64-3.83-7.17-5.42c-2.74-1.72-5.8-2.86-8.77-4.09c-4.5-1.85-9.28-2.45-14.11-2.9
			c-3.31-0.31-6.65-0.12-9.94,0.27c-4.97,0.58-9.9,1.36-14.83,2.14c-3.31,0.52-6.63,1-9.95,1.45c1.86-0.25,3.72-0.5,5.58-0.75
			c-22.36,3-44.93,4.31-67.49,3.9c-6.37-0.12-12.74-0.37-19.11-0.76c3.53,13.04,7.07,26.09,10.6,39.13
			c0.52-0.25,1.05-0.48,1.58-0.71c-1.67,0.71-3.34,1.41-5.02,2.12c3.19-1.31,6.52-2.11,9.93-2.6c-1.86,0.25-3.72,0.5-5.58,0.75
			c9.27-1.24,18.61-0.07,27.91-0.71c3.8-0.26,7.59-0.79,11.35-1.41c1.96-0.32,3.9-0.75,5.8-1.31c3.48-1.03,6.86-2.5,10.13-4.03
			c1.71-0.8,3.36-1.76,4.87-2.89c3.04-2.27,6.14-4.46,8.52-7.43c1.69-2.11,3.43-4.22,4.84-6.53c0.59-0.97,1.17-1.94,1.85-2.86
			c-1.09,1.42-2.19,2.83-3.28,4.25c0.47-0.61,0.96-1.15,1.55-1.64c-1.42,1.09-2.83,2.19-4.25,3.28c0.33-0.24,0.66-0.44,1.03-0.61
			c-1.67,0.71-3.34,1.41-5.02,2.12c0.29-0.11,0.55-0.18,0.85-0.25c-1.86,0.25-3.72,0.5-5.58,0.75c0.32-0.04,0.6-0.04,0.92-0.02
			c-1.86-0.25-3.72-0.5-5.58-0.75c0.43,0.07,0.78,0.17,1.19,0.32c-1.67-0.71-3.34-1.41-5.02-2.12c2.22,1.02,4.22,2.5,6.43,3.56
			c3.65,1.75,7.43,3.38,11.31,4.61c2.21,0.7,4.47,1.25,6.76,1.64c4,0.69,8.07,1.28,12.14,1.46c6.48,0.29,13.14-0.55,19.45-1.94
			c2.33-0.51,4.62-1.18,6.86-2.01c3.74-1.39,7.49-2.93,11.02-4.81c6.28-3.34,11.54-8.21,17.12-12.56c-1.42,1.09-2.83,2.19-4.25,3.28
			c2.21-1.7,4.51-3.29,7.07-4.41c-1.67,0.71-3.34,1.41-5.02,2.12c1.23-0.51,2.49-0.88,3.81-1.1c-1.86,0.25-3.72,0.5-5.58,0.75
			c1.1-0.15,2.19-0.17,3.29-0.06c2.89,0.11,5.59-0.49,8.09-1.81c2.6-0.85,4.86-2.29,6.76-4.34c2.05-1.9,3.5-4.15,4.34-6.76
			c1.31-2.5,1.92-5.2,1.81-8.09c-0.24-5.43-2.03-11.06-6.15-14.85c-1.42-1.09-2.83-2.19-4.25-3.28c-3.28-1.9-6.81-2.86-10.6-2.87
			c-0.98-0.1-1.95-0.09-2.94,0.01c-2.65,0.28-5.46,0.49-8.04,1.27c-2.54,0.77-5,1.92-7.39,3.04c-0.96,0.45-1.88,0.97-2.78,1.54
			c-4.96,3.13-9.33,7.14-13.95,10.74c1.42-1.09,2.83-2.19,4.25-3.28c-3.29,2.54-6.88,4.62-10.69,6.25c1.67-0.71,3.34-1.41,5.02-2.12
			c-4.3,1.8-8.8,3-13.41,3.63c1.86-0.25,3.72-0.5,5.58-0.75c-4.62,0.59-9.29,0.6-13.91,0.01c1.86,0.25,3.72,0.5,5.58,0.75
			c-4.49-0.61-8.86-1.77-13.04-3.52c1.67,0.71,3.34,1.41,5.02,2.12c-1.96-0.84-3.87-1.79-5.71-2.88c-1.78-1.06-3.33-1.84-5.29-2.67
			c-1.08-0.46-2.15-1-3.29-1.31c-0.14-0.02-0.27-0.04-0.41-0.07c-1.86-0.25-3.72-0.5-5.58-0.75c-2.21-0.07-4.62,0.24-6.65,0.8
			c-0.19,0.05-0.38,0.11-0.57,0.16c-1.23,0.38-4.15,1.62-5.29,2.23c-1.85,0.99-3.56,2.48-5.14,3.83c-1.96,1.67-3.46,3.98-4.94,6.03
			c-1.17,1.62-2.08,3.42-3.3,5.01c1.09-1.42,2.19-2.83,3.28-4.25c-1.14,1.43-2.43,2.7-3.87,3.84c1.42-1.09,2.83-2.19,4.25-3.28
			c-2.01,1.55-4.22,2.77-6.56,3.76c1.67-0.71,3.34-1.41,5.02-2.12c-3.66,1.5-7.52,2.4-11.44,2.92c1.86-0.25,3.72-0.5,5.58-0.75
			c-7.19,0.92-14.44,0.42-21.66,0.47c-5.61,0.04-11.1,0.65-16.65,1.51c-5.53,0.86-10.62,2.9-15.67,5.3
			c-1.42,1.09-2.83,2.19-4.25,3.28c-2.05,1.9-3.5,4.15-4.34,6.76c-0.95,1.64-1.43,3.4-1.43,5.3c-0.63,2.79-0.5,5.58,0.38,8.37
			c0.71,1.67,1.41,3.34,2.12,5.02c1.09,1.42,2.19,2.83,3.28,4.25c1.9,2.05,4.15,3.5,6.76,4.34c2.5,1.31,5.2,1.92,8.09,1.81
			c27.41,1.67,54.97,0.82,82.22-2.57c9.28-1.15,18.48-2.72,27.73-3.98c-1.86,0.25-3.72,0.5-5.58,0.75
			c4.24-0.56,8.51-0.85,12.77-0.28c-1.86-0.25-3.72-0.5-5.58-0.75c2.46,0.37,4.83,1.02,7.12,1.99c-1.67-0.71-3.34-1.41-5.02-2.12
			c2.06,0.91,4,2.03,5.8,3.39c-1.42-1.09-2.83-2.19-4.25-3.28c1.3,1.02,2.46,2.18,3.49,3.47c-1.09-1.42-2.19-2.83-3.28-4.25
			c0.84,1.11,1.56,2.27,2.13,3.54c-0.71-1.67-1.41-3.34-2.12-5.02c0.42,1.01,0.74,2.04,0.91,3.12c-0.25-1.86-0.5-3.72-0.75-5.58
			c0.12,0.95,0.14,1.88,0.02,2.83c0.25-1.86,0.5-3.72,0.75-5.58c-0.12,0.72-0.3,1.41-0.56,2.09c0.71-1.67,1.41-3.34,2.12-5.02
			c-0.38,0.89-0.86,1.69-1.43,2.47c1.09-1.42,2.19-2.83,3.28-4.25c-1.44,1.82-3.24,3.29-5.06,4.7c1.42-1.09,2.83-2.19,4.25-3.28
			c-4.63,3.54-9.7,6.41-15.06,8.68c1.67-0.71,3.34-1.41,5.02-2.12c-8.09,3.37-16.66,5.35-25.33,6.53c1.86-0.25,3.72-0.5,5.58-0.75
			c-8.11,1.08-16.29,1.48-24.47,1.58c-8.75,0.11-17.52,0.01-26.26-0.3c-5.5-0.2-10.99-0.56-16.44-1.27c1.86,0.25,3.72,0.5,5.58,0.75
			c-7.55-1.02-15.03-2.72-22.07-5.67c1.67,0.71,3.34,1.41,5.02,2.12c-4.78-2.04-9.31-4.6-13.44-7.76c1.42,1.09,2.83,2.19,4.25,3.28
			c-3.26-2.53-6.22-5.39-8.77-8.64c1.09,1.42,2.19,2.83,3.28,4.25c-2.21-2.86-4.05-5.97-5.46-9.3c0.71,1.67,1.41,3.34,2.12,5.02
			c-1.46-3.56-2.4-7.28-2.95-11.09c0.25,1.86,0.5,3.72,0.75,5.58c-1.12-8.34-0.36-16.76,0.74-25.06c-0.25,1.86-0.5,3.72-0.75,5.58
			c0.38-2.86,0.61-5.85,1.72-8.54c-0.71,1.67-1.41,3.34-2.12,5.02c0.3-0.66,0.65-1.27,1.07-1.85c-1.09,1.42-2.19,2.83-3.28,4.25
			c0.52-0.67,1.1-1.25,1.77-1.78c-1.42,1.09-2.83,2.19-4.25,3.28c0.77-0.57,1.59-1.03,2.47-1.41c-1.67,0.71-3.34,1.41-5.02,2.12
			c1.02-0.4,2.05-0.67,3.13-0.83c-1.86,0.25-3.72,0.5-5.58,0.75c1.33-0.17,2.64-0.17,3.97-0.02c-1.86-0.25-3.72-0.5-5.58-0.75
			c1.34,0.19,2.62,0.54,3.88,1.06c-1.67-0.71-3.34-1.41-5.02-2.12c1.71,0.75,3.27,1.71,4.74,2.85c-1.42-1.09-2.83-2.19-4.25-3.28
			c3.61,2.86,6.42,6.5,9.27,10.07c4,5.01,8.34,9.26,13.77,12.8c3.14,2.05,6.76,3.56,10.36,4.57c1.81,0.51,3.68,0.68,5.54,0.93
			c1.87,0.25,3.71,0.56,5.59,0.54c1.88-0.01,3.74-0.33,5.6-0.58c1.93-0.26,3.84-0.46,5.72-1c1.72-0.5,3.34-1.25,4.99-1.94
			c1.77-0.75,3.52-1.43,5.15-2.43c2.36-1.46,4.56-3.24,6.65-5.04c0.84-0.72,1.6-1.53,2.32-2.38c1.47-1.74,2.82-3.61,4.61-5.05
			c-1.42,1.09-2.83,2.19-4.25,3.28c0.52-0.39,1.06-0.73,1.65-1.01c-1.67,0.71-3.34,1.41-5.02,2.12c0.5-0.21,0.99-0.35,1.52-0.44
			c-1.86,0.25-3.72,0.5-5.58,0.75c0.48-0.05,0.93-0.06,1.42-0.02c-1.86-0.25-3.72-0.5-5.58-0.75c1,0.14,1.94,0.47,2.92,0.69
			c4.9,1.11,8.52,1.13,13.42,0.16c0.31-0.06,0.61-0.13,0.91-0.22c1.18-0.37,4-1.64,5.14-2.16c0.16-0.07,0.31-0.13,0.47-0.22
			c0.98-0.52,2.01-1.47,2.77-2.06c0.93-0.72,1.96-1.39,2.79-2.26c3.5-3.65,5.5-7.56,7.08-12.32c0.23-0.68,0.39-1.39,0.52-2.1
			c0.45-2.56,0.84-5.18,1.01-7.78c0.25-3.72-0.23-7.53-0.34-11.26c-0.13-4.21-0.17-8.42-0.06-12.63c0.13-4.75,0.46-9.5,1.08-14.21
			c-0.25,1.86-0.5,3.72-0.75,5.58c1-7.33,2.73-14.55,5.6-21.39c-0.71,1.67-1.41,3.34-2.12,5.02c1.15-2.7,2.47-5.32,3.97-7.85
			c-10.99,1.42-21.99,2.83-32.98,4.25c1,0.82,1.89,1.73,2.7,2.74c-1.09-1.42-2.19-2.83-3.28-4.25c1.06,1.38,1.9,2.87,2.59,4.46
			c-0.71-1.67-1.41-3.34-2.12-5.02c1.41,3.35,2.1,6.91,2.59,10.49c-0.25-1.86-0.5-3.72-0.75-5.58c0.85,6.4,1.32,12.83,2.38,19.21
			c0.83,5.03,2.12,9.98,3.81,14.78c2.25,6.36,4.94,12.66,8.22,18.56c3.29,5.92,7.33,11.31,11.57,16.57c1.57,1.95,3.2,3.92,5.01,5.66
			c5.54,5.31,12.23,8.6,19.99,8.74c1.68,0.03,4.3-0.47,5.96-0.77c0.31-0.06,0.61-0.1,0.92-0.2c2.13-0.68,4.29-1.49,6.2-2.67
			c3.63-2.24,5.68-4.34,8.13-7.51c1.27-1.65,2.51-3.2,3.49-5.03c1.41-2.62,2.52-5.45,3.57-8.21c0.91-2.41,1.48-4.92,1.84-7.46
			c0.61-4.34,1.22-8.57,1.15-12.95c-0.12-7.4-1.26-14.86-2.76-22.09c-2.3-11.11-5.92-22.06-9.76-32.72
			c-2.2-6.11-4.6-12.39-8.15-17.88c-4.47-6.91-10.02-12.83-17.13-17.08c-3.51-2.1-7.41-3.69-11.3-4.91
			c-3.97-1.24-8.28-1.72-12.38-2.11c-2.44-0.23-4.91-0.21-7.35,0.05c-4.28,0.47-8.61,0.99-12.75,2.22
			c-4.11,1.23-8.11,2.97-11.97,4.81c-2.39,1.14-4.69,2.45-6.91,3.89c-3.52,2.29-6.85,4.9-10.1,7.54c-3.36,2.73-5.95,5.96-8.5,9.49
			c-0.72,1-1.34,2.03-1.86,3.15c-1.23,2.63-2.58,5.49-3.19,8.4c-0.94,4.52-1.31,9.11-1.33,13.71c-0.01,2.76-0.01,5.52,0.08,8.28
			c0.16,4.65,0.74,9.21,1.42,13.81c2.11,14.45,10.35,28.16,22.92,35.86c1.6,0.98,3.32,1.65,5.05,2.38c1.86,0.78,3.64,1.6,5.59,2.09
			c5.36,1.34,11.37,0.7,16.18-2.12c2.45-1.32,4.41-3.12,5.89-5.41c1.86-2.03,3.11-4.41,3.76-7.14c1.22-5.38,0.96-11.41-2.12-16.18
			C266.47,217.71,262.22,213.95,256.85,212.61L256.85,212.61z"/>
	</g>
</g>
<g>
	<g>
		<path class="st0" d="M249.22,225.75c-3.38-7.69-6.76-15.39-10.13-23.08c-0.47-1.08-2.06-0.87-2.59,0
			c-2.11,3.46-3.53,7.28-4.17,11.28c-0.3,1.89,2.59,2.7,2.89,0.8c0.6-3.76,1.89-7.31,3.87-10.56c-0.86,0-1.73,0-2.59,0
			c3.38,7.69,6.76,15.39,10.13,23.08C247.4,229.03,249.99,227.5,249.22,225.75L249.22,225.75z"/>
	</g>
</g>
<g>
	<path class="st1" d="M337.76,229.91c-1.98-53.59-32.3-112.61-84.37-98.38c-30.65,8.38-53.71,55.32-46.35,90.69
		c-12.38-9.24-26.51-13.15-41.77-5.55c-20.91,10.42-27.15,48.26-22.94,71.11c9.98,54.23,83.92,67.32,121.91,68.68
		c57.09,2.03,123.29-12.28,146.73-80.73C430.75,217.99,369.78,217.56,337.76,229.91z M387.9,302.99
		c-26.58,38.17-78.79,43.17-117.57,43.38c-32.63,0.18-65.89-7.6-94.35-26.83c-19.97-13.49-29.77-35.22-24.73-61.79
		c7.84-41.42,36.85-40.94,59.83-23.33c3.67,7.77,9.29,14.51,17.26,19.45c4.25,2.64,7.37-4.13,3.68-7.35
		c-39.75-34.79-6.41-101.9,34.89-107.65c43.14-6,62.75,59.08,62.32,98.2c-0.05,4.18,3.64,5.82,6.5,4.36
		c15.87-8.1,33.13-12.36,50.39-8.83C419.28,239.39,401.03,284.14,387.9,302.99z"/>
	<path class="st1" d="M782.48,214.41c-19.53-2.12-39.2,11.12-51.88,28.63c-1.53-25.66-7.3-53.96-29.18-63.59
		c-33.68-14.82-53.19,31.69-55.07,62.5c-25.31-46.24-85.74-3.16-89.04,43.9c-5.11,72.94,91.95,85.59,133.92,83.1
		c49.95-2.96,121.38-38.85,127.51-104.24C821.31,237.2,804.81,216.83,782.48,214.41z M802.71,292.06
		c-18.94,41.5-73.7,63.51-111.48,66.76c-36.94,3.17-81.54-3.21-109.83-33.48c-47.08-50.38,31.76-133.69,65.18-74.06
		c1.22,2.18,3.73,0.57,3.27-1.67c2.23,0.24,4.67-1.28,4.76-4.65c0.76-28.47,24.45-78.89,53.64-49.46
		c13.49,13.6,14.03,43.72,14.27,62.57c0.06,4.91,5.88,6.96,8.01,2.54c9.94-20.57,27.32-33.68,47.45-36.09
		C811.89,220.45,814.55,266.11,802.71,292.06z"/>
	<path class="st1" d="M535.91,405.48c-12.67-5.79-25.32,3.04-33.78,14.25c-4.09-19.11-14.69-39.12-33.97-28.12
		c-9.37,5.35-16.46,17.59-15.9,28.7c-18.07-10.26-42.45-12.16-47.17,15.58c-6.18,36.3,30.18,56.97,54.97,60.16
		c33.79,4.34,84.11-5.35,93.18-50.44C556.61,428.79,549.45,411.67,535.91,405.48z M529.23,471.11
		c-20.48,17.15-55.47,19.07-79.37,13.24c-18.18-4.44-37.46-21.26-36.75-44.91c0.76-25.44,25.64-17.21,41.44-10.44
		c1.62,3.12,4.11,5.92,7.71,8.13c3.29,2.02,6.42-2.74,3.92-5.94c-8.67-11.13-7.05-22.68,4.14-30.47
		c17.42-12.12,24.31,16.14,25.5,30.52c0.37,4.46,5.3,6.64,7.49,2.37c7.1-13.84,20.53-25.85,34.41-16.76
		C556.4,429.09,541.04,461.22,529.23,471.11z"/>
</g>
</svg>
