<svg xmlns="http://www.w3.org/2000/svg" xmlns:xlink="http://www.w3.org/1999/xlink" version="1.1" style="" xml:space="preserve" width="376" height="307"><rect id="backgroundrect" width="100%" height="100%" x="0" y="0" fill="none" stroke="none" class="" style=""/>
<style type="text/css">
	.st0{fill:#57C1EC;}
	.st1{fill:#3C3C3B;}
</style>

<g class="currentLayer" style=""><title>Layer 1</title><g id="svg_1" class="" transform="rotate(81.266845703125 201.59562683105466,152.0805816650391) ">
	<path class="st0" d="M184.02995410383218,146.9948645163538 c-0.29690661072731056,-0.49533778786659305 -0.5938132214546209,-0.9906755757331852 -0.898744335174561,-1.4860133635997774 c-1.5246555685997008,-2.527930779457092 -4.204839568138123,-4.551983464360237 -7.157856669425964,-4.3726370239257815 c-5.705421627759934,0.3501525741815571 -7.663400357961655,2.920784887075424 -12.181195542812347,6.140480508208275 c-8.305360597372054,5.918432534337043 -22.901931540966032,1.4860133635997774 -31.3437086892128,-1.1016995626688004 c-5.8659116876125355,-1.793464404344559 -11.796019399166106,2.1521572852134705 -13.513263039588928,8.002267366051674 c-3.603001843690872,-2.6560353797674177 -7.141807663440705,-5.414554439783096 -10.439878393411636,-8.497605153918265 c-7.7917924058437364,-7.28488160431385 -21.02419784069061,-0.43555564105510725 -17.950813194513323,11.119479306936263 c0.5456662034988413,2.041133298277855 1.0191118800640107,4.0993472099304205 1.476508550643921,6.157561121582985 c-0.6018377244472507,-0.5551199346780787 -1.2036754488945007,-1.1016995626688004 -1.7734151613712306,-1.6568194973468788 c-4.220888574123382,-4.056645676493645 -10.223216812610627,-4.210371196866035 -14.42805638074875,0 c-2.1505668020248416,2.1606975919008256 -3.410413771867752,4.039565063118935 -4.413476645946503,6.371068788766861 c-0.11234304189682011,-0.03416122674942023 -0.21666158080101022,-0.08540306687355048 -0.32900462269783065,-0.11102398693561562 c-8.409679136276246,-2.1692378985881806 -14.989771590232849,8.898999568223953 -8.562144693136215,15.65438215792179 c2.006125748157501,2.109455751776695 3.9239819633960735,4.073726289868355 5.8659116876125355,5.9098922276496895 c0.9147933411598207,1.4347715234756475 1.7332926464080816,2.937865500450134 2.4956204307079313,4.21891150355339 c2.5036449337005617,4.227451810240746 6.395528885126113,5.602441186904907 10.231241315603256,4.791112051606179 c4.718407759666443,2.229020045399666 10.118898273706435,-2.8012205934524537 8.096723519563675,-7.3702846711874015 c0.18456356883049024,-0.9138128155469896 0.24875959277153048,-1.870327164530754 0.24875959277153048,-2.8268415135145197 c4.9591428494453424,3.288018074631691 10.279388333559037,5.8330294674634935 15.856417913436891,6.857866269946098 c6.973293100595474,1.2810460031032562 15.45519276380539,-4.7825717449188225 12.766984261274338,-13.288717205524446 c1.2518224668502809,1.0760786426067352 2.4875959277153017,2.1692378985881806 3.683246873617173,3.3221793013811114 c6.997366609573365,6.7468422830104835 18.59277343392372,2.254640965461731 18.697091972827913,-8.241395953297616 c0.016049005985260035,-1.4262312167882927 0.016049005985260035,-2.8524624335765836 0.03209801197052007,-4.287233957052231 c15.110139135122298,2.5364710861444473 31.929497407674788,1.460392443537712 41.82370959758758,-11.187801760435104 C185.40214411557187,157.16636978099365 186.8465546542453,151.68349288771168 184.02995410383218,146.9948645163538 z" id="svg_2"/>
	<path class="st0" d="M190.94707568347923,176.46746289441603 c-9.605330082178117,-7.387365284562112 -16.12122651219368,-0.7259260684251793 -19.67608133792877,8.070589819550513 c-5.3122209811210634,-1.3152072298526765 -10.512098920345306,-1.5457955104112626 -15.029894105196,2.9976476472616196 c-7.583155328035354,-1.8788674712181097 -14.741011997461321,7.378824977874756 -12.510200165510177,15.048020383119583 c0.874670826196671,3.0147282606363297 1.604900598526001,6.063617748022079 2.2629098439216615,9.129587848782538 c-5.376417005062104,-4.534902850985527 -14.68484047651291,-1.6311985772848134 -14.371884859800339,6.7297616696357725 c0.6419602394104008,17.020831227898597 2.078346275091171,34.69926607072354 6.708484501838684,51.06249368369579 c2.1746403110027313,7.677735711932183 11.900337938070297,4.278693650364875 10.937397578954696,-3.2111553144454956 c-1.1635529339313506,-9.035644475221634 -1.3320674967765809,-17.934644043445587 -1.1555284309387206,-26.850724225044253 c1.8536601912975312,2.229020045399666 3.5628793287277225,4.577604384422303 4.967167352437973,7.16531731069088 c5.873936190605164,10.871810413002969 20.301992571353914,3.270937461256981 18.19957278728485,-8.16453319311142 c-1.1956509459018707,-6.482092775702476 -1.8456356883049012,-13.041048311591148 -2.5196939396858222,-19.60000384747982 c3.193752191066742,-1.255425083041191 5.849862681627274,-4.287233957052231 7.109709651470184,-7.788759698867797 c0.21666158080101022,0.04270153343677528 0.4172741556167603,0.11102398693561562 0.633935736417771,0.15372552037239096 c7.478836789131165,1.4006102967262268 14.259541817903518,-3.313638994693756 14.55644842863083,-11.802703841924668 c-0.1283920478820803,-2.7328981399536136 0.1203675448894502,-5.414554439783096 0.7141807663440712,-8.062049512863158 c0.24073508977890046,-0.24766889393329652 0.5215926945209507,-0.5209587079286581 0.8826953291893008,-0.8284097486734392 C197.2864330476569,186.64750846574324 194.85500864089002,179.473650848365 190.94707568347923,176.46746289441603 z" id="svg_3"/>
	<path class="st0" d="M352.15934080541604,143.74954797515886 c-2.720306514501572,-13.886538673639299 -8.457826154232025,-26.406628277301788 -15.350874224901201,-38.499702546596524 c-5.071485891342164,-8.890459261536598 -15.663829841613769,-7.5667117249965665 -20.534703158140182,-1.0846189492940903 c-1.8135376763343811,-1.1529414027929308 -3.6270753526687622,-2.314423112273216 -5.504809052944184,-3.3819614481925964 c-7.358469244241714,-4.176209970116616 -19.186586655378342,0.8369500553607943 -18.207597290277484,11.119479306936263 c0.14444105386734035,1.8532465511560439 0.3851761436462407,3.7064931023120877 0.5938132214546209,5.551199346780777 c-1.5808270895481114,0.24766889393329652 -3.1135071611404417,0.6917648416757587 -4.413476645946503,1.5116342836618424 c-2.7122820115089414,1.6909807240962982 -4.405452142953873,4.08226659655571 -5.464686537981033,6.849325963258743 c-4.630138226747513,-3.4929854351282117 -9.228178441524506,-7.045753017067909 -13.529312045574187,-10.991374706625939 c-8.425728142261505,-7.737517858743668 -21.690231589078905,-0.4697168678045274 -18.87363103866577,11.69167985498905 c0.706156263351441,3.057429794073105 1.2999694848060608,6.140480508208275 1.8536601912975312,9.2320715290308 c-2.8807965743541724,-3.0061879539489746 -5.6492501068115235,-6.123399894833565 -8.281287088394166,-9.368716436028482 c1.4363860356807714,-1.7763837909698488 2.4073508977890015,-4.0993472099304205 2.5598164546489715,-6.857866269946098 c0.3851761436462407,-7.062833630442619 0.5135681915283207,-14.151288180947304 0.5938132214546209,-21.231202424764632 c2.7122820115089414,-0.2562092006206515 5.5288825619220745,-1.5287148970365525 7.013415615558625,-3.5100660485029223 c3.9079329574108126,-5.218127385973931 4.790628286600112,-10.726625199317933 5.416539520025253,-16.474251599907873 c4.156692550182342,-0.8284097486734392 7.535008310079575,-4.611765611171723 9.107810896635055,-8.839217421412467 c1.428361532688141,-3.826057395935059 2.535742945671082,-7.720437245368957 3.6431243586540223,-11.62335740149021 c2.1746403110027313,1.6397388839721678 4.373354130983353,3.450283901691437 4.678285244703293,3.6552512621879583 c4.8548243105411535,3.253856847882271 11.322573722600936,1.4518521368503572 14.716938488483429,-3.0915910208225252 c0.3129556167125706,0.21350766718387604 0.5857887184619911,0.4526362544298172 0.9228178441524505,0.6490633082389838 c4.6702607417106625,2.7158175265789035 11.651578345298766,0.5124184012413028 12.815131279230119,-5.551199346780777 c2.4073508977890015,-12.494468683600426 -3.554854825735092,-21.70091929256916 -13.384870991706848,-28.15739114820957 c-6.130720286369325,-4.031024756431579 -14.837306033372878,-0.2989107340574269 -16.68294172167778,7.088454550504685 c-3.8678104424476625,-1.605577657222748 -8.016478489637375,-2.1436169785261154 -13.537336548566818,-0.6832245349884037 c-6.893048070669174,1.8276256310939794 -9.765820142030716,10.31669047832489 -11.796019399166106,18.56662673830986 c-4.726432262659074,0.24766889393329652 -9.107810896635055,4.107887516617775 -10.423829387426377,8.916080181598662 c-0.6580092453956611,2.416906792521477 -0.8104748022556306,6.678519829511643 -1.0833079040050508,10.812028266191483 c-6.636263974905014,-1.4347715234756475 -13.408944500684738,3.9968635296821593 -13.296601458787919,11.426930347681045 c0.07222052693367022,5.04732125222683 0.10431853890419004,10.09464250445366 0.16049005985260026,15.150504063367842 c-2.0703217720985414,-1.3835296833515172 -4.124594538211822,-2.7841399800777435 -6.098622274398803,-4.278693650364875 c-5.1758044302463535,-3.911460462808609 -14.091027255058288,1.238344469666481 -13.336723973751068,8.14745257973671 c1.412312526702881,12.972725858092307 3.915957460403442,24.758349086642266 8.891149315834046,36.45002894163132 c1.8697091972827917,4.398257943987847 7.302297723293304,1.6141179639101029 7.663400357961655,-2.2119394320249555 c0.4654211735725409,-4.9192166519165035 0.6098622274398814,-9.898215450644493 0.6981317603588114,-14.885754556059837 c1.6289741075038913,1.597037350535393 3.0814091491699216,3.296558381319046 4.1968150651454925,5.183966159224511 c0.40122514963150024,0.6832245349884037 0.8505973172187808,1.2725056964159012 1.3240429937839515,1.8190853244066236 c-1.0110873770713806,1.9130286979675297 -1.412312526702881,4.176209970116616 -0.7462787783145909,6.507713695764542 c1.5567535805702208,5.457255973219871 4.244962083101273,9.26623275578022 6.275161340236664,14.424577994942666 c1.3320674967765809,3.3905017548799514 4.758530274629592,4.8167329716682445 7.510934801101684,4.0993472099304205 c6.467749412059784,6.968890256881714 13.360797482728957,13.51930548608303 19.451395254135132,20.97499322414398 c7.013415615558625,8.583008220791818 19.427321745157244,-0.5892811614274985 17.08416687130928,-10.581439985632898 c-0.8826953291893008,-3.7662752491235736 -1.5407045745849608,-7.575252031683923 -2.1024197840690615,-11.409849734306334 c3.097458155155182,2.493769552707672 6.1387447893619544,5.0729421722888945 8.995467854738235,7.891243379116059 c7.4226652681827545,7.319042831063271 19.900767421722414,2.3315037256479263 19.989036954641342,-8.813596501350403 c0.016049005985260035,-1.8276256310939794 0.03209801197052007,-3.6552512621879583 0.040122514963150106,-5.4828768932819365 c1.444410538673401,-0.21350766718387604 2.8647475683689123,-0.6661439216136937 4.204839568138123,-1.5030939769744878 c3.105482658147812,-1.9301093113422392 5.031363376379013,-4.492201317548751 6.218989819288254,-7.395905591249466 c1.6690966224670416,1.460392443537712 3.314119735956192,2.9805670338869095 4.919020334482193,4.577604384422303 c2.3913018918037414,2.3742052590847016 5.617152094841003,3.450283901691437 8.826953291893005,3.4161226749420166 c2.3431548738479613,3.2282359278202057 4.9591428494453424,6.277125415205955 8.136846034526826,8.967322021722794 C344.57618547738065,158.1058035166027 353.980902984743,153.07556287775057 352.15934080541604,143.74954797515886 z" id="svg_4"/>
	<g id="svg_5">
		<path class="st1" d="M273.73587305844296,27.507433653569393 c-30.51718488097191,14.082965727448462 -54.68698789477349,56.306241989731795 -65.83302255153656,89.91234880447388 c-12.301563087701798,-13.117911071777343 -28.39069158792496,-25.919830796122554 -34.52943637728691,-11.042616546750068 c-0.17653906583786036,0.4270153343677523 -0.25678409576416056,0.8711112821102145 -0.2808576047420505,1.3152072298526765 c-0.7944257962703708,0.1878867471218111 -1.4925575566291809,0.7344663751125339 -1.6851456284523016,1.7251419508457184 c-2.6159879755973816,13.655950393080712 -1.4925575566291809,26.28706398367882 2.078346275091171,38.166630585789676 c-21.280981936454772,-10.1629649579525 -52.23951448202133,0.05124184012413033 -72.55755605936051,6.977430563569069 c-19.387199230194092,6.6101973760128026 -47.23222461462021,18.848456858992577 -49.88031060218811,43.487241652011875 c-4.782603783607483,44.38397385418415 61.35534988164901,17.012290921211243 100.16987085700035,-4.560523771047592 c-16.12122651219368,24.433817432522773 -24.225974534749987,53.470860169529914 -30.236327276229858,83.59252185583114 c-0.7783767902851104,3.9200007694959638 2.1184687900543215,6.524794309139253 5.617152094841003,6.029456521272659 c39.994122915267944,-5.756166707277298 57.40729440927506,-53.2061106622219 71.36992961645126,-91.0482095938921 c12.638592213392258,16.756081720590593 27.130844618082048,32.49586694538593 37.996021670103076,48.35521646380424 c5.777642154693604,8.43782300710678 18.11130325436592,28.405060042142868 30.733846461772917,24.809590926766397 c10.078775758743287,-2.8695430469512937 13.416969003677368,-18.22501447081566 11.715774369239806,-27.781617653965952 c-5.191853436231613,-29.19076825737953 -22.564902415275576,-57.373780325651175 -40.44349508285522,-82.02964573204517 c10.544196932315828,2.7499787533283238 23.720430846214292,3.0915910208225252 29.225239899158478,3.6552512621879583 c21.658133577108384,2.237560352087021 54.92772298455239,3.663791568875313 72.73409512519837,-12.776298804283142 c12.213293554782869,-11.290285440683366 13.585483566522598,-31.462489836215976 -3.747442897558212,-38.158090279102325 c-22.420461361408236,-8.668411287665368 -54.173419703245166,-5.534118733406067 -77.25991481304169,1.5799567371606829 c5.8338136756420145,-6.1831820416450505 11.306524716615677,-12.443226843476296 16.32183908700943,-18.002966496944428 c13.465116021633149,-14.919915782809257 34.86646550297738,-36.73185906231403 36.23063101172447,-58.84271307587624 C312.74298210561744,12.314228056764769 281.52766546428677,23.911964538192926 273.73587305844296,27.507433653569393 zM131.4293369871425,271.9907931924822 c7.647351351976394,-35.869288086891174 18.985974080562592,-69.73160410225393 45.659422028064725,-95.07069404363632 c4.317182610034942,-4.0993472099304205 -1.9018072092533111,-10.752246119379997 -6.227014322280883,-6.798084123134613 c-14.339786847829819,13.14353199183941 -32.8683642578125,22.0169106400013 -50.048825165033335,30.002097392678262 c-10.985544596910476,5.098563092350959 -74.78836789131165,27.098393118977548 -59.24490559458732,-9.197910302281379 c13.296601458787919,-31.04401480853558 85.13997675180434,-49.021360385417935 112.86463459134103,-37.57734942436218 c0.37715164065361045,0.15372552037239096 0.7222052693367006,0.15372552037239096 1.0512098920345307,0.09394337356090558 c3.9079329574108126,10.461875692009926 9.605330082178117,20.36009114265442 16.17739803314209,29.88253309905529 C179.31154634416572,216.84603291223064 164.45016680181493,261.74242516765617 131.4293369871425,271.9907931924822 zM205.9448717767047,175.00707045087833 c-1.1956509459018707,2.041133298277855 -2.7443800234794615,4.756950824856759 -1.4925575566291809,7.16531731069088 c1.420337029695511,2.724357833266258 6.050475256443024,1.0077561891078948 8.048576501607894,0.2989107340574269 c4.694334250688552,-1.6824404174089436 9.123859902620316,-4.381177330613136 13.320674967765811,-7.148236697316169 c2.3752528858184814,-1.5628761237859727 5.857887184619903,-3.484445128440857 8.000429483652116,-6.037996827960015 c6.515896430015563,10.060481277704238 12.590445195436477,19.950156421661376 17.58168605685234,28.362358508706095 c-3.6431243586540223,3.313638994693756 -6.676386489868165,7.105535163879395 -11.635529339313507,9.018563861846925 c-5.119632909297943,1.9728108447790147 -11.033691614866257,0.8796515887975693 -12.365759111642838,-5.465796279907227 c-0.2888821077346807,-1.3749893766641619 -2.4554979157447816,-1.1102398693561555 -2.3190813648700717,0.32453165411949186 c1.5166310656070712,16.65359804034233 21.008148834705352,11.461091574430466 29.79497961163521,2.0325929915904997 c4.734456765651704,8.155992886424066 8.048576501607894,14.262312167882918 9.083737387657166,16.65359804034233 c1.9098317122459414,4.406798250675202 3.386340262889862,8.907539874911308 4.726432262659074,13.527845792770385 c0.8104748022556306,2.8097609001398087 5.384441508054733,33.26449454724789 -12.542298177480697,17.669894536137583 c-9.982481722831725,-8.676951594352722 -16.931701314449313,-21.615516225695607 -24.683371205329895,-32.41046387851239 c-9.316447974443435,-12.989806471467018 -20.141502511501315,-24.707107246518135 -29.77090610265732,-36.894124889373785 c0.9388668501377105,-2.4852292460203174 1.8697091972827917,-4.902136038541794 2.8005515444278717,-7.225099457502366 c1.9660032331943516,-4.944837571978569 -6.210965316295624,-8.651330674290657 -8.184993052482604,-3.7150334089994432 c-0.3209801197052005,0.7942485219240186 -0.6419602394104008,1.6653598040342334 -0.9629403591156006,2.493769552707672 c-12.349710105657579,-17.25995981514454 -21.22481041550636,-36.142577900886536 -19.323003206253052,-61.251079561710355 c1.0271363830566407,0.31599134743213675 2.1585913050174717,0.08540306687355048 3.121531664133072,-1.1785623228549957 c4.477672669887543,-5.892811614274979 15.81629539847374,4.6459268379211425 28.807965743541715,21.188500891327855 c-1.612925101518631,1.8532465511560439 -2.4795714247226712,4.270153343677521 -4.0443495082855225,6.328367255330086 c-2.0703217720985414,2.7328981399536136 -4.766554777622223,4.765491131544113 -7.671424860954285,6.362528482079506 c-2.872772071361542,1.5799567371606829 -9.693599615097046,4.244532423615455 -12.758959758281708,2.1692378985881806 c-1.0592343950271608,-0.7173857617378238 -2.2629098439216615,0.9138128155469896 -1.364165508747101,1.8361659377813337 c3.7795409095287322,3.87729923605919 9.645452597141265,3.1342925542593 14.243492811918259,1.6824404174089436 c3.7313938915729525,-1.1785623228549957 7.069587136507034,-3.3221793013811114 10.086800261735917,-5.9098922276496895 c1.925880718231201,-1.6482791906595236 4.3813786339759835,-4.20183089017868 5.729495136737823,-6.968890256881714 c6.058499759435653,8.07913012623787 12.341685602664947,17.191637361645697 18.36006284713745,26.338305823802948 c-1.4925575566291809,1.1102398693561555 -2.7604290294647216,2.5791726195812226 -4.172741556167603,3.8516783159971237 c-2.8968455803394324,2.6047935396432873 -6.154793795347214,4.8167329716682445 -9.396693004369736,6.8834871900081644 c-2.5598164546489715,1.6397388839721678 -5.256049460172653,3.2026150077581406 -8.096723519563675,4.21891150355339 c-3.4906588017940523,1.255425083041191 -2.8246250534057618,0.00854030668735505 -1.2197244548797608,-3.1172119408845904 C208.23185512960424,174.89604646394272 206.610905525093,173.86266935477272 205.9448717767047,175.00707045087833 zM258.26463128865237,119.11930348882692 c17.405146991014483,-1.6568194973468788 34.256603275537486,-5.713465173840523 51.878411847352986,-5.858650387525559 c8.554120190143585,-0.07686276018619552 33.07700133562088,0.17080613374710094 30.65360143184662,16.141179639101026 c-1.7011946344375612,11.187801760435104 -15.04594311118126,15.910591358542442 -23.632161313295363,18.541005818247797 c-29.819053120613095,9.129587848782538 -57.848642073869705,0.6234423881769183 -86.98561244010926,-3.0232685673236848 c-1.8456356883049012,-2.451068019270897 -3.691271376609803,-4.876515118479729 -5.504809052944184,-7.242180070877075 c10.552221435308457,-5.312070759534835 20.454458128213883,-13.920699900388719 29.554244521856308,-23.127150509357453 C254.10793873847,116.95860589692609 255.44803073823925,119.38405299613493 258.26463128865237,119.11930348882692 zM295.9155993300723,49.96844024131315 c-17.172436404228208,30.79634591460228 -46.25323524951935,62.79687507212162 -75.64698971152305,81.9698635852337 c-1.380214514732361,-1.7593031775951387 -3.1456051731109618,-3.9627023029327404 -5.183828933238983,-6.3966897088289265 c8.770781770944595,-29.327413164377216 26.312345312833784,-56.63931395053863 47.23222461462021,-77.5801459479332 c9.589281076192854,-9.599304716587067 21.834672642946245,-16.303445466160774 35.043004568815235,-17.507628709077835 C308.1208683818626,29.471704191661047 298.2346806949424,45.8178511912586 295.9155993300723,49.96844024131315 z" id="svg_6"/>
	</g>
</g></g></svg>