<svg xmlns="http://www.w3.org/2000/svg" xmlns:xlink="http://www.w3.org/1999/xlink" version="1.1" style="" xml:space="preserve" width="419" height="246"><rect id="backgroundrect" width="100%" height="100%" x="0" y="0" fill="none" stroke="none" class="" style=""/>
<style type="text/css">
	.st0{fill:#009EE2;}
	.st1{fill:#F281C1;}
	.st2{fill:#F8B133;}
	.st3{fill:#FBE910;}
	.st4{fill:#868686;}
	.st5{fill:#3C3C3B;}
</style>

<g class="currentLayer" style=""><title>Layer 1</title><g id="svg_1" class="">
	<path class="st0" d="M377.51204125148087,194.0054078079159 c-1.3191471660578713,-2.9969802441749467 -2.8158718352389185,-5.879668868868645 -4.401385255981553,-8.724260287068594 c0.9386239450796395,-1.0286245753312317 1.3698835955216355,-2.527114697418705 0.7610464419564645,-4.406576884443672 c-0.12684107365941072,-0.3809720649374936 -0.2536821473188215,-0.7746431987062364 -0.38052322097823243,-1.1556152636437294 c2.0294571785505715,-0.6222543727312392 3.5515500624635,-2.5398137662499547 3.386656666706266,-5.219317289643656 c1.9787207490868075,-1.663578016893721 2.7905036205070366,-4.952636844187413 1.1669378776665786,-7.225770164981123 c-0.7229941198586409,-2.133443563649962 -2.48608504372445,-3.035077450668696 -4.325280611785905,-2.984281175343697 c-1.0781491261049914,-0.46986554675624187 -2.168982359575923,-0.8762357493562352 -3.19639505621715,-1.3080040896187266 c-2.168982359575923,-0.9143329558499834 -4.058914357101143,0.12699068831249782 -5.175115805303958,1.815966842868718 c-1.9533525343549252,-0.6603515792249888 -4.084282571833025,-0.02539813766249958 -5.428797952622779,1.3080040896187266 c-3.0441857678258573,-0.30477765194999484 -6.037635106187949,2.3112305272874587 -5.162431697938017,5.816173524712396 c-2.5241373658222725,0.2793795142874953 -4.7311720474960195,2.3747258714437076 -4.363332933883729,5.02883125717491 c-2.3846121847969215,-2.742998867549953 -4.8072766916916665,-5.447900528606154 -7.34409816487988,-8.063908707843606 c-3.107606304655563,-3.200165345474943 -7.8134101374197,-0.30477765194999484 -7.8007260300537595,3.4287485844374395 c-0.08878875156158761,-0.2793795142874953 -0.2029457178550573,-0.5460599597437403 -0.2917344694166448,-0.8254394740312354 c-0.0761046441956465,-0.24128230779374574 -0.13952518102535189,-0.49526368441874163 -0.21562982522099827,-0.7492450610437369 c1.357199488155695,-1.9175593935187158 1.4079359176194597,-4.939937775356162 -1.0781491261049914,-6.743205549393631 c-4.211123645492436,-3.0604755883311956 -8.802770511963105,0.02539813766249958 -8.701297653035576,4.863743362368663 c-0.9386239450796395,-0.9651292311749827 -1.88993199752522,-1.9302584623499657 -2.828555942604859,-2.8826886246936994 c-2.8666082647026827,-2.9207858311874473 -7.521675668003055,-0.5968562350687395 -8.079776392104463,2.730299798718701 c-3.158342734119327,-3.9494104065186795 -6.418158327166181,-7.822626400049861 -10.185338214850681,-11.23867591565605 c-4.058914357101143,-3.682729961062434 -9.411607665528274,0.8762357493562352 -7.255309413318293,5.701881905231148 c0.22831393258693958,0.49526368441874163 0.4566278651738789,0.9905273688374822 0.6849417977608184,1.485791053256224 c-0.913255730347757,-0.7238469233812378 -1.8645637827933372,-1.422295709099975 -2.853924157336741,-2.0572491506624635 c-4.096966679198966,-2.6160081792374537 -7.8007260300537595,2.3620268026124585 -6.075687428285773,6.19714558964989 c1.3191471660578713,2.9334849000186978 2.739767191043272,5.828872593543646 4.185755430760554,8.698862149406095 c-1.3952518102535183,-1.8667631181937172 -2.8158718352389185,-3.733526236387434 -4.299912397054023,-5.524094941593651 c-2.7017148689454475,-3.276359758462442 -8.764718189865281,0.2158841701312463 -7.191888876488587,4.266887127299924 c1.1035173408368735,2.8572904870311993 2.3719280774309808,5.6510856299061505 3.6783911361229107,8.419482635118602 c-3.9193891760757906,-2.3874249402749577 -8.790086404597163,2.4636193532624566 -5.187799912669899,6.159048383156139 c2.092877715380277,2.133443563649962 3.881336853977968,4.4954703662624205 5.581007241014072,6.920992513031127 c-1.8518796754273965,1.0921199194874807 -2.5241373658222725,4.228789920806174 -0.1902616104891162,5.917766075362395 c2.105561822746218,1.5365873285812224 4.452121685445315,2.082647288324963 6.824049762876296,3.162068138981194 c0.6088371535651719,0.2793795142874953 1.2810948439600482,0.3555739272749939 1.9279843196230426,0.2920785831187451 c0.6342053682970535,0.9651292311749827 1.2557266292281661,1.9429575311812148 1.8645637827933372,2.9461839688499483 c2.48608504372445,4.139896438987426 8.967663907720338,1.4476938467624743 7.699253171126231,-3.3144569649561912 c-0.1522092883912931,-0.5841571662374899 -0.32978679151446855,-1.1683143324749794 -0.4946801872717022,-1.7397724298812194 c1.4459882397172823,1.5873836039062224 2.942712908898329,3.1493690701499437 4.540910437006904,4.609761985743669 c3.094922197289621,2.8191932805374496 8.688613545669634,0.15238882597499728 7.293361735416116,-4.330382471456173 c-0.6976259051267598,-2.2604342519624594 -1.4967246691810465,-4.48277129743117 -2.3465598626990984,-6.679710205237381 c0.6342053682970535,0.8762357493562352 1.2810948439600482,1.7397724298812194 1.9406684269889842,2.5652119039124543 c2.8792923720686234,3.555739272749936 8.993032122452219,-0.24128230779374574 7.547043882734938,-4.48277129743117 c-0.8498351935180523,-2.514415628587455 -1.8138273533295743,-4.978034981849912 -2.828555942604859,-7.4289552662811165 c1.1415696629346965,1.1937124701374788 2.321191647967216,2.3620268026124585 3.5515500624635,3.4668457909311887 c2.7651354057751534,2.4763184220937067 6.7225769039487675,1.13021712598123 7.7246213858581125,-1.8794621870249664 c0.11415696629346966,0.2158841701312463 0.22831393258693958,0.43176834026249256 0.38052322097823243,0.6476525103937388 c4.299912397054023,5.993960488349893 8.815454619329044,12.064115389687284 12.54458218491572,18.54064049362467 c-1.5094087765469872,-1.3588003649437261 -2.993449338362093,-2.717600729887452 -4.464805792811258,-4.089100163662428 c-2.4099803995288034,-2.2604342519624594 -5.999582784090126,1.3714994337749757 -3.6022864919272637,3.670030892231186 c4.819960799057607,5.155821945487408 9.487712309723923,10.476731785781064 14.853089725516995,15.06109563386223 c2.625610224749802,2.2477351831312102 6.6591563671190634,0.16508789480624725 5.8093211736010115,-3.4541467220999387 c-0.6088371535651719,-2.603309110406203 -1.4206200249854004,-5.117724738993659 -2.3719280774309808,-7.555945954593616 c1.4713564544491646,1.485791053256224 2.930028801532388,2.958883037681198 4.388701148615611,4.457373159768671 c0.7990987640542878,0.8127404051999861 1.6489339575723396,1.2191106077999783 2.473400936358509,1.3334022272812267 c0.7610464419564645,1.2064115389687289 1.53477699127887,2.4001240091062073 2.321191647967216,3.5684383415811864 c2.7143989763113896,4.038303888337428 9.741394457042743,1.6508789480624713 8.117828714202286,-3.4795448597624383 c-0.8625193008839933,-2.7049016610562022 -1.8645637827933372,-5.333608909124906 -2.9680811236302103,-7.898820813037359 c0.32978679151446855,0.3555739272749939 0.6468894756629956,0.7111478545499877 0.9766762671774627,1.0540227129937314 c3.107606304655563,3.238262551968692 9.551132846553628,-0.03809720649374937 7.826094244785641,-4.635160123406169 c-0.8371510861521111,-2.209637976637461 -1.7250386017679864,-4.3684796779499235 -2.663662546847625,-6.514622310431134 C376.586101413767,200.92640032094712 378.89460895436844,197.16747594689716 377.51204125148087,194.0054078079159 z" id="svg_2"/>
	<path class="st1" d="M226.4189543083908,187.88445663125356 c-1.5220928839129284,-1.9810547376749648 -3.0188175530939745,-3.987507613012429 -4.5282263296409635,-5.981261419518644 c2.3465598626990984,-0.8254394740312354 4.173071323394613,-3.6446327545686863 2.460716828992568,-6.095553038999891 c-1.5474610986448107,-2.23503611429996 -3.171026841485268,-4.406576884443672 -4.8072766916916665,-6.578117654587382 c3.107606304655563,-0.12699068831249782 5.352693308427132,-3.873215993531181 2.828555942604859,-7.187672958487372 c-1.6235657428404568,-2.120744494818712 -3.19639505621715,-4.292285264962423 -4.756540262227902,-6.463826035106136 c1.636249850206399,-1.1556152636437294 2.536821473188214,-3.3398551026186905 1.2049901997644017,-5.511395872762401 c-1.2810948439600482,-2.108045425987463 -2.3465598626990984,-4.292285264962423 -3.3739725593403254,-6.489224172768634 c0.27905036205070366,-0.24128230779374574 0.520048402003584,-0.520661822081241 0.7103100124927003,-0.8254394740312354 c3.8686527466120273,0.2539813766249956 5.66979599257566,-4.787548949381165 2.283139325869393,-7.174973889656124 c-0.44394375780793777,-0.3301757896124945 -0.9005716229818166,-0.6095553038999896 -1.3952518102535183,-0.8381385428624858 c-0.35515500624635027,-0.20318510129999653 -0.7229941198586409,-0.3174767207812447 -1.0781491261049914,-0.3809720649374936 c-1.1923060923984607,-0.7238469233812378 -2.422664506894745,-1.5873836039062224 -3.8559686392460852,-1.904860324687466 c-2.5495055805541553,-0.5587590285749907 -5.352693308427132,1.2064115389687289 -5.251220449499604,4.076401094831177 c0.012684107365941085,0.36827299610624387 0.03805232209782325,0.7238469233812378 0.0634205368297054,1.066721781824981 c-0.31710268414852694,0.30477765194999484 -0.6215212609311128,0.6603515792249888 -0.913255730347757,1.066721781824981 c-0.12684107365941072,0.17778696363749694 -0.22831393258693958,0.36827299610624387 -0.30441857678258616,0.5587590285749907 c-0.32978679151446855,-0.22858323896249616 -0.6468894756629956,-0.45716647792499226 -0.9639921598115215,-0.6730506480562384 c-1.6743021723042215,-1.1429161948124795 -3.741811672952617,-0.5460599597437403 -5.073642946376428,0.7619441298749868 c-2.739767191043272,-2.4382212155999565 -5.66979599257566,-4.660558261068669 -8.916927478256573,-6.463826035106136 c-3.4373930961700303,-1.904860324687466 -8.320774432057343,2.158841701312462 -5.745900636771307,5.854270731206146 c1.1542537703006375,1.663578016893721 2.3465598626990984,3.289058827293691 3.5642341698294415,4.914539637693663 c-0.34247089888040944,0.3301757896124945 -0.6342053682970535,0.7111478545499877 -0.8498351935180523,1.13021712598123 c-0.8752034082499344,-0.5968562350687395 -1.7504068164998685,-1.1810134013062292 -2.663662546847625,-1.7270733610499693 c-3.323236129876561,-1.9683556688437154 -7.775357815321876,2.082647288324963 -5.466850274720603,5.574891216918651 c0.8117828714202294,1.231809676631228 1.6489339575723396,2.450920284431206 2.473400936358509,3.657331823399936 c-1.3445153807897543,-1.1429161948124795 -2.7143989763113896,-2.2477351831312102 -4.135019001296789,-3.3017578961249416 c-3.1837109488512088,-2.3493277337812084 -6.849417977608179,2.0953463571562128 -5.111695268474251,5.219317289643656 c3.741811672952617,6.730506480562379 7.889514781615346,13.219730653331014 11.59327413247014,19.924838996230896 c-3.3486043446084435,-3.860516924699931 -6.6591563671190634,-7.746431987062361 -10.147285892752857,-11.479958223449794 c-2.2450870037715696,-2.4001240091062073 -7.026995480731354,0.06349534415624894 -5.733216529405364,3.4033504467749394 c1.4079359176194597,3.631933685737436 2.980765230996152,7.200372027318622 4.7438561548619615,10.67991688708106 c-1.8265114606955142,-0.9651292311749827 -3.6783911361229107,-1.8921612558562169 -5.56832313364813,-2.768397005212451 c-2.612926117383861,-1.2064115389687289 -5.4541661673546615,1.2826059519562272 -3.9954938202714376,4.076401094831177 c2.3465598626990984,4.48277129743117 4.287228289688081,9.194125833824836 6.3927901124343,13.791188750737252 c0.9766762671774627,2.120744494818712 4.274544182322142,0.6095553038999896 3.6530229213910292,-1.5746845350749719 c-0.6849417977608184,-2.425522146768707 -1.3825677028875771,-4.851044293537414 -2.143614144844041,-7.263867371474871 c3.3486043446084435,1.9556566000124653 6.621104045021239,4.012905750674928 9.766762671774625,6.387631622118636 c2.105561822746218,1.5873836039062224 4.870697228521371,-0.5968562350687395 4.934117765351077,-2.8953876935249485 c2.1943505743078053,2.3620268026124585 4.452121685445315,4.660558261068669 6.8621020849741186,6.80670089354988 c2.460716828992568,2.196938907806211 6.874786192340061,0.15238882597499728 5.783952958869129,-3.4287485844374395 c-1.7504068164998685,-5.7145809740623985 -4.122334893930848,-11.111685227343552 -6.785997440778473,-16.35640065464971 c4.858013121155431,5.790775387049897 9.538448739187684,11.74663866890604 14.726248651857583,17.207238266343445 c3.2090791635830915,3.3779523091124406 7.775357815321876,-0.8889348181874848 6.024950998822009,-4.7367526740561665 c-0.3932073283441733,-0.8762357493562352 -0.8117828714202294,-1.7397724298812194 -1.2303584144962838,-2.5906100415749536 c2.8666082647026827,3.657331823399936 5.847373495698834,7.162274820824874 9.094504981379748,10.298944822143566 C224.61781106242714,197.3325638417034 229.52656061304629,191.91006145075974 226.4189543083908,187.88445663125356 z" id="svg_3"/>
	<path class="st2" d="M123.27179320855795,169.43270961944768 c-4.8072766916916665,-6.413029759781136 -9.677973920213038,-12.775263244237273 -14.548671148734408,-19.12479765986216 c-2.663662546847625,-3.8986141311936806 -5.3019568789633675,-7.886121744206109 -7.978303533176934,-11.84823121955604 c4.1096507865649095,4.6732573298999185 8.257353895227636,9.244922109149835 12.620686829111364,13.410216685799762 c5.200484020035839,4.965335913018662 12.126006641839664,-2.4128230779374573 7.699253171126231,-7.84802453771236 c-3.8052322097823215,-4.660558261068669 -7.5977803121987035,-9.333815590968582 -11.352276092517258,-14.019771989699748 c2.7143989763113896,-1.2445087454624781 4.477489900177198,-4.406576884443672 2.473400936358509,-7.733732918231112 c-1.7630909238658097,-2.908086762356198 -3.640338814025088,-5.739979111724897 -5.530270811550307,-8.559172392262347 c1.88993199752522,-1.5365873285812224 2.8158718352389185,-4.279586196131174 1.3952518102535183,-7.174973889656124 c-0.6088371535651719,-1.2445087454624781 -1.217674307130343,-2.4890174909249563 -1.8391955680614553,-3.733526236387434 c1.8138273533295743,-1.5111891909187232 2.8666082647026827,-4.266887127299924 2.1943505743078053,-6.705108342899881 c0.24099803995288058,-0.6730506480562384 0.34247089888040944,-1.4730919844249741 0.2536821473188215,-2.3874249402749577 c-0.6088371535651719,-6.1717474519873905 -3.6530229213910292,-9.156028627331086 -9.639921598115214,-9.905273688374823 c-2.993449338362093,-0.36827299610624387 -4.794592584325725,1.9683556688437154 -5.225852234767722,4.571664779249918 c-3.500813632999736,0.7619441298749868 -6.2278967166770665,4.3684796779499235 -3.8179163171482617,8.228996602649854 c0.44394375780793777,0.6984487857187381 0.8498351935180523,1.422295709099975 1.268410736594107,2.133443563649962 c-0.7356782272245829,0.3174767207812447 -1.4079359176194597,0.7492450610437369 -1.9533525343549252,1.3080040896187266 c-2.930028801532388,-2.9461839688499483 -5.860057603064775,-5.905067006531146 -8.764718189865281,-8.876649113043591 c-3.8179163171482617,-3.8859150623624306 -10.451704469535445,0.20318510129999653 -9.487712309723923,4.901840568862412 c-1.8391955680614553,-1.0286245753312317 -3.703759350854793,-1.9937538065062146 -5.66979599257566,-2.8445914181999497 c-3.729127565586675,-1.6127817415687216 -9.14524141084351,1.3714994337749757 -8.358826754155166,5.460599597437402 c-1.8011432459636323,0.520661822081241 -3.285183807778737,1.8286659116999675 -3.8306004245142042,3.5430402039186872 c-0.2917344694166448,-0.2793795142874953 -0.5581007241014074,-0.5714580974062399 -0.8498351935180523,-0.8635366805249849 c-4.591646866470669,-4.457373159768671 -10.464388576901383,1.13021712598123 -8.219301573129815,6.463826035106136 c2.232402896405629,5.333608909124906 4.6804356180322575,10.540227129937314 7.267993520684234,15.670650937762222 c-2.2577711111375107,-2.0318510129999643 -4.642383295934433,-3.9494104065186795 -7.191888876488587,-5.689182836399899 c-3.5388659550975587,-2.4128230779374573 -8.980348015086278,1.6000826727374724 -7.420202809075526,5.816173524712396 c4.5282263296409635,12.191106077999782 12.227479500767194,23.201198754693337 18.54416496900585,34.71925418463688 c-5.999582784090126,-7.670237574074863 -11.872324494520841,-15.454766767630975 -18.645637827933374,-22.46465276248085 c-3.171026841485268,-3.276359758462442 -10.071181248557211,0.050796275324999134 -8.105144606836344,4.812947087043664 c2.6763466542135674,6.476525103937384 5.999582784090126,12.597476280599775 9.411607665528274,18.680330250768417 c-3.7164434582207337,-3.670030892231186 -7.6485167416624655,-7.073381339006125 -12.316268252328781,-9.58779696759358 c-3.7798639950504396,-2.044550081831214 -8.358826754155166,2.1461426324812116 -6.012266891456069,6.120951176662391 c0.8244669787861699,1.3968975714374756 1.6235657428404568,2.7937951428749512 2.422664506894745,4.216090851974926 c-0.8878875156158755,-0.6730506480562384 -1.7884591385976918,-1.3334022272812267 -2.7143989763113896,-1.9810547376749648 c-2.4987691510903915,-1.7270733610499693 -5.695164207307543,1.663578016893721 -4.096966679198966,4.177993645481176 c2.942712908898329,4.660558261068669 3.9447573908076734,10.286245753312315 6.329369575604596,15.264280735162231 c1.06546501873905,2.209637976637461 4.794592584325725,0.6349534415624893 3.9193891760757906,-1.6889761545562205 c-0.5707848314673477,-1.5111891909187232 -1.0274126966412271,-3.047776519499946 -1.4333041323513411,-4.609761985743669 c2.054825393282454,2.285832389624959 4.008177927637379,4.6478591922374175 5.8093211736010115,7.187672958487372 c2.5875579026519793,3.631933685737436 7.95293531844505,1.4730919844249741 7.0904160175610595,-3.047776519499946 c-0.3932073283441733,-2.0572491506624635 -0.9259398377136987,-4.076401094831177 -1.5474610986448107,-6.070154901337392 c5.2385363421336635,5.447900528606154 10.261442859046326,11.187879640331051 16.489339575723392,15.429368629968476 c3.158342734119327,2.1461426324812116 8.257353895227636,-1.4603929155937236 6.7352610113147104,-5.282812633799906 c-0.41857554307605566,-1.0540227129937314 -0.8878875156158755,-2.069948219493713 -1.3445153807897543,-3.0985727948249453 c2.8031877278729778,3.238262551968692 5.707848314673482,6.374932553287386 8.840822834060926,9.321116522137334 c3.8306004245142042,3.6065355480749357 9.031084444550043,-0.03809720649374937 8.231985680495757,-4.8891415000311635 c-1.5094087765469872,-9.130630489668588 -5.187799912669899,-17.35962709231844 -9.525764631821744,-25.321943249512053 c6.887470299706001,10.159255064999819 13.521258452093184,20.57249150662463 22.146451460933115,28.941177866418236 c4.198439538126495,4.063702025999929 11.085909837832498,-1.13021712598123 8.067092284738521,-6.349534415624887 c-3.323236129876561,-5.739979111724897 -6.7352610113147104,-11.429161948124797 -10.159970000118797,-17.10564571569345 c4.629699188568492,6.616214861081132 9.398923558162334,13.118138102681018 14.574039363466293,19.289885554668405 c4.033546142369261,4.8002480182124145 11.162014482028145,-1.3334022272812267 8.320774432057343,-6.540020448093635 c-5.783952958869129,-10.62912061175606 -12.113322534473726,-20.902667296237126 -18.58221729110367,-31.100019567730694 c2.917344694166446,3.7843225117124324 5.834689388332892,7.568645023424866 8.752034082499339,11.365666603968545 c5.289272771597426,7.619441298749864 10.680018402122382,15.162688184512229 16.84449458196974,22.070981628712104 C118.88309205994231,180.63328832860992 127.01360488151059,174.42344367012885 123.27179320855795,169.43270961944768 z" id="svg_4"/>
	<path class="st3" d="M189.3940449072088,87.01575290463663 c-0.5581007241014074,-3.758924374049933 -5.428797952622779,-5.752678180556147 -8.270038002593576,-7.3019645779686195 c-3.056869875191799,-1.6762770857249705 -6.849417977608179,0.4063702025999932 -6.887470299706001,4.025604819506178 c0,0.10159255064999832 0,0.20318510129999653 0,0.2920785831187451 c-1.3191471660578713,-0.6603515792249888 -2.7270830836773303,-1.0159255064999821 -5.048274731644546,-0.5460599597437403 c-1.5855134207426338,0.3301757896124945 -2.930028801532388,1.9175593935187158 -3.323236129876561,3.6065355480749357 c-2.5241373658222725,-3.619234616906186 -8.219301573129815,-2.4128230779374573 -8.346142646789225,2.3493277337812084 c-0.03805232209782325,1.523888259749973 -0.1522092883912931,3.047776519499946 -0.30441857678258616,4.5589657104186685 c-0.6468894756629956,-0.6603515792249888 -1.3064630586919306,-1.3080040896187266 -1.9660366417208666,-1.9556566000124653 c-3.640338814025088,-3.5684383415811864 -8.85350694142687,0.9143329558499834 -6.747945118680651,5.308210771462406 c1.9533525343549252,4.089100163662428 3.323236129876561,8.546473323431098 4.9468018727170175,12.787962313068522 c1.1288855555687556,2.9461839688499483 2.3592439700650396,8.355987290962352 6.316685468238654,8.457579841612349 c2.181666466941865,0.06349534415624894 3.66570702875697,-2.108045425987463 3.2724997004127965,-4.177993645481176 c0.0761046441956465,0.02539813766249958 0.03805232209782325,-0.2920785831187451 -0.2029457178550573,-1.2826059519562272 c-0.17757750312317508,-0.7492450610437369 -0.4312596504419967,-1.4603929155937236 -0.6849417977608184,-2.1842398389749618 c-0.17757750312317508,-0.49526368441874163 -0.34247089888040944,-1.0032264376687319 -0.520048402003584,-1.5111891909187232 c1.77577503123175,-0.49526368441874163 3.3105520225106204,-2.069948219493713 3.412024881438149,-4.292285264962423 c0.08878875156158761,-2.006452875337464 0.30441857678258616,-3.987507613012429 0.5327325093695251,-5.981261419518644 c0.32978679151446855,0.3809720649374936 0.6342053682970535,0.7746431987062364 0.913255730347757,1.1937124701374788 c2.1943505743078053,3.250961620799942 7.179204769122646,2.9461839688499483 8.333458539423283,-1.1048189883187305 c0.4058914357101146,-1.4095966402687252 0.7103100124927003,-2.768397005212451 0.9005716229818166,-4.114498301324927 c0.2029457178550573,0.11429161948124812 0.36783911361229127,0.2158841701312463 0.4819960799057612,0.2539813766249956 c1.9279843196230426,0.7365459922124875 4.198439538126495,-0.46986554675624187 5.187799912669899,-2.1461426324812116 c0.3932073283441733,-0.6730506480562384 0.7103100124927003,-1.3588003649437261 0.9639921598115215,-2.0572491506624635 c1.4206200249854004,0.6095553038999896 2.9046605868005058,0.9016338870187341 4.452121685445315,0.4825646155874914 C188.92473293466892,91.07945493063653 189.68577937662545,89.03490484880533 189.3940449072088,87.01575290463663 z" id="svg_5"/>
	<path class="st3" d="M263.25360209908365,120.947664821736 c-0.8371510861521111,-2.450920284431206 -1.7504068164998685,-4.851044293537414 -2.7778195131410945,-7.187672958487372 c-1.4079359176194597,-4.254188058468675 -2.5495055805541553,-8.622667736418597 -4.135019001296789,-12.813360450731022 c-1.0147285892752858,-2.6668044545624534 -3.450077203535972,-3.6446327545686863 -5.644427777843777,-3.3398551026186905 c-0.8625193008839933,-1.0413236441624814 -1.7504068164998685,-2.069948219493713 -2.6890307615795077,-3.073174657162445 c-2.60024201001792,-2.7556979363812006 -6.5069470787277695,-1.1810134013062292 -7.8007260300537595,1.6127817415687216 c-1.77577503123175,0.12699068831249782 -3.4373930961700303,1.4095966402687252 -4.096966679198966,3.1366700013186946 c-1.8391955680614553,-1.8921612558562169 -3.640338814025088,-3.809720649374932 -5.187799912669899,-5.981261419518644 c-2.2577711111375107,-3.162068138981194 -7.94025121107911,-1.4095966402687252 -6.583051722923417,2.8318923493686996 c0.7990987640542878,2.527114697418705 1.9914048564527485,4.3684796779499235 3.5388659550975587,5.917766075362395 c2.9553970162642695,3.657331823399936 6.646472259753122,6.755904618224881 8.85350694142687,10.984694539031056 c2.0801936080143357,3.987507613012429 7.788041922687818,1.9429575311812148 7.94025121107911,-2.196938907806211 c0,-0.11429161948124812 0.012684107365941085,-0.22858323896249616 0.012684107365941085,-0.3428748584437442 c1.0781491261049914,1.231809676631228 2.0421412859165127,2.5906100415749536 2.8919764794345646,4.165294576649926 c0.7356782272245829,1.2191106077999783 1.737722709133927,1.8667631181937172 2.7778195131410945,2.133443563649962 c0.35515500624635027,0.8000413363687362 0.9259398377136987,1.4476938467624743 1.6235657428404568,1.904860324687466 c0.7356782272245829,2.044550081831214 1.53477699127887,4.063702025999929 2.448032721626627,6.044756763674893 C256.75933912772183,129.79891579711708 265.04206123768125,126.20507931787341 263.25360209908365,120.947664821736 z" id="svg_6"/>
	<path class="st4" d="M340.0939245219547,134.67535822831704 c-1.3318312734238127,-1.9429575311812148 -2.48608504372445,-4.000206681843679 -3.589602384561323,-6.070154901337392 c1.9406684269889842,-0.5968562350687395 3.3105520225106204,-2.9334849000186978 2.1943505743078053,-5.3463079779561555 c-0.31710268414852694,-0.6730506480562384 -0.6215212609311128,-1.3461012961124765 -0.9259398377136987,-1.9937538065062146 c2.993449338362093,-0.8889348181874848 3.8052322097823215,-5.8923679376998965 0.11415696629346966,-6.641612998743633 c1.8265114606955142,0.36827299610624387 -0.6849417977608184,-0.39367113376874335 -0.8117828714202294,-0.4190692714312433 c-2.0294571785505715,-0.46986554675624187 -4.084282571833025,-0.8381385428624858 -6.126423857749538,-1.2445087454624781 c-2.397296292162863,-0.4825646155874914 -4.147703108662731,1.13021712598123 -4.490174007543139,3.0223783818374463 c-2.1943505743078053,0.5333608909124904 -3.9320732834417322,2.958883037681198 -2.3592439700650396,5.270113564968657 c1.9533525343549252,2.8826886246936994 3.5261818477316185,5.981261419518644 5.124379375840193,9.054436076681089 c-1.53477699127887,0.2666804454562453 -2.8666082647026827,1.3461012961124765 -2.917344694166446,2.9969802441749467 c-1.4586723470832232,0.2666804454562453 -2.6890307615795077,1.3588003649437261 -2.4987691510903915,3.2255634831374422 c0.27905036205070366,2.717600729887452 0.8752034082499344,5.308210771462406 1.88993199752522,7.7591310558936115 c-0.6976259051267598,2.298531458456209 0.05073642946376434,3.3525541714499405 2.9046605868005058,4.635160123406169 c1.0274126966412271,0.45716647792499226 2.181666466941865,0.3174767207812447 3.006133445728034,-0.24128230779374574 c2.321191647967216,2.450920284431206 7.179204769122646,0.8254394740312354 5.92347813989448,-3.1112718636561953 c-0.5961530461992306,-1.8540640493624676 -1.1796219850325198,-3.7081280987249343 -1.7630909238658097,-5.549493079256151 c0.3932073283441733,0.06349534415624894 0.7990987640542878,0.12699068831249782 1.217674307130343,0.17778696363749694 C339.6372966567808,140.51692989069193 341.5525968690378,136.82150086079824 340.0939245219547,134.67535822831704 z" id="svg_7"/>
	<g id="svg_8">
		<path class="st5" d="M99.80619458156698,59.66195864212459 c-2.1182459301121592,5.612988423412401 -3.5261818477316185,9.702088587074828 -9.449659987626099,12.051416320856035 c-4.426753470713435,1.7524714987124688 -9.58918516865145,1.3461012961124765 -14.130095605658354,0.46986554675624187 c-7.242625305952352,-1.3841985026062253 -21.57566662946577,-7.4289552662811165 -17.275754232411742,-17.34692802348719 c0.1522092883912931,-0.3428748584437442 -0.27905036205070366,-0.7746431987062364 -0.5581007241014074,-0.44446740909374255 c-7.5850962048327615,9.016338870187338 7.889514781615346,16.9913540962122 14.574039363466293,19.086700453368408 c10.096549463289092,3.162068138981194 29.097342297468817,1.2445087454624781 28.209454781852937,-13.626100855931007 C101.11265764025894,59.01430613173085 100.08524494361772,58.91271358108085 99.80619458156698,59.66195864212459 z" id="svg_9"/>
		<path class="st5" d="M74.95802825168842,31.76210441986882 c-0.025368214731882163,1.523888259749973 -0.13952518102535189,3.035077450668696 -0.2917344694166448,4.53356757275617 c-0.2029457178550573,0.07619441298749866 -0.3932073283441733,0.2158841701312463 -0.41857554307605566,0.45716647792499226 c-0.012684107365941085,0.10159255064999832 -0.012684107365941085,0.2158841701312463 -0.03805232209782325,0.3174767207812447 c-0.12684107365941072,-1.422295709099975 -0.24099803995288058,-2.8445914181999497 -0.2663662546847626,-4.279586196131174 c-0.025368214731882163,-1.3461012961124765 -2.0040889638186896,-1.3334022272812267 -2.0421412859165127,0 c-0.012684107365941085,0.39367113376874335 -0.05073642946376434,0.7873422675374865 -0.0634205368297054,1.1810134013062292 c-0.4312596504419967,0.03809720649374937 -0.8371510861521111,0.3301757896124945 -0.8625193008839933,0.9016338870187341 c-0.13952518102535189,3.4541467220999387 -0.0634205368297054,6.9336915818623766 -0.0761046441956465,10.400537372793565 c0,0.8254394740312354 0.7737305493224055,1.13021712598123 1.357199488155695,0.9270320246812338 c0.08878875156158761,0.20318510129999653 0.16489339575723413,0.4190692714312433 0.2917344694166448,0.5714580974062399 c0.17757750312317508,0.2158841701312463 0.3932073283441733,0.20318510129999653 0.5707848314673477,0.10159255064999832 c0.1902616104891162,0.2793795142874953 0.4946801872717022,0.43176834026249256 0.8244669787861699,0.44446740909374255 c0,0.01269906883124978 0,0.02539813766249958 0,0.02539813766249958 c0,1.3588003649437261 2.0421412859165127,1.3461012961124765 2.054825393282454,0 c0.0761046441956465,-5.219317289643656 0.9386239450796395,-10.387838303962315 1.0147285892752858,-15.60715559360597 C77.02553775233685,30.403304054925123 74.97071235905435,30.403304054925123 74.95802825168842,31.76210441986882 z" id="svg_10"/>
		<path class="st5" d="M96.39416970012887,36.95602357184999 c-0.025368214731882163,-1.1429161948124795 -1.77577503123175,-1.4730919844249741 -2.0167730711846303,-0.2793795142874953 c-0.0634205368297054,0.30477765194999484 -0.11415696629346966,0.6095553038999896 -0.17757750312317508,0.9143329558499834 c-0.31710268414852694,-0.7619441298749868 -1.4713564544491646,-0.7238469233812378 -1.7884591385976918,0.1396897571437476 c-0.7737305493224055,2.019151944168714 -0.4693119725398201,4.609761985743669 -0.36783911361229127,6.7178074117311315 c0.012684107365941085,0.3174767207812447 0,0.952430162343733 0.025368214731882163,1.6508789480624713 c-0.13952518102535189,2.069948219493713 -0.35515500624635027,4.127197370156177 -0.7356782272245829,6.18444652081864 c-0.24099803995288058,1.295305020787477 1.6869862796701636,1.8540640493624676 1.9406684269889842,0.5460599597437403 c0.35515500624635027,-1.7778696363749682 0.6976259051267598,-3.555739272749936 1.052780911373109,-5.333608909124906 c0,0.2920785831187451 0.012684107365941085,0.5968562350687395 0.012684107365941085,0.8889348181874848 c0,1.1683143324749794 1.77577503123175,1.4603929155937236 2.0167730711846303,0.2793795142874953 C97.18058435681714,44.74055276540611 96.47027434432445,40.930832116031176 96.39416970012887,36.95602357184999 z" id="svg_11"/>
		<path class="st5" d="M255.64313767951901,99.80371521770512 c-6.2278967166770665,-10.768810368899809 -19.63499820247678,-14.0578691961935 -26.116577066472665,-1.7905687052062182 c-0.3932073283441733,0.7365459922124875 0.6595735830289365,1.3588003649437261 1.1035173408368735,0.6603515792249888 c6.900154407071944,-10.794208506562308 17.2630701250458,-7.670237574074863 23.376809875429394,2.108045425987463 c6.7352610113147104,10.756111300068559 2.828555942604859,22.286865798843355 -8.003671747908816,27.06171567939327 c3.627654706659148,-11.924425632543539 -4.249175967590259,-25.2584479053558 -16.654232971480628,-27.125211023549515 c-1.77577503123175,-8.305191015637352 -6.697208689216888,-14.934104945549734 -14.282304894049645,-15.276979803993479 c-10.591229650560795,-5.701881905231148 -20.649726791752066,0.30477765194999484 -26.522468502182782,9.867176481881074 c-0.025368214731882163,0 -0.025368214731882163,-0.02539813766249958 -0.05073642946376434,-0.02539813766249958 c-14.472566504538763,-3.8478178558686817 -22.85676147342581,8.279792877974852 -24.569115967827855,21.39793098065587 c-5.403429737890895,-2.082647288324963 -9.893603745434035,-5.828872593543646 -9.83018320860433,-12.229203284493533 c0.05073642946376434,-5.460599597437402 3.5642341698294415,-10.552926198768562 7.204572983854528,-14.235656159830999 c3.7544957803185572,-3.809720649374932 8.87887515615875,-6.7178074117311315 14.269620786683705,-6.794001824718628 c2.625610224749802,-0.03809720649374937 5.086327053742369,0.9778283000062322 7.103100124926999,2.641406316899953 c2.448032721626627,2.019151944168714 3.0822380899236803,5.3463079779561555 5.3019568789633675,7.340061784462369 c0.2663662546847626,0.24128230779374574 0.6088371535651719,0.06349534415624894 0.6468894756629956,-0.2793795142874953 c0.6088371535651719,-5.7145809740623985 -6.785997440778473,-11.2005787091623 -11.770851635593315,-11.657745187087292 c-6.4435265418980645,-0.5841571662374899 -12.443109325988193,2.908086762356198 -16.996703870361035,7.263867371474871 c-4.5155422222750214,4.317683402624924 -8.041724070006639,10.552926198768562 -7.775357815321876,17.004053165043448 c0.27905036205070366,7.1495757519936225 6.3674218977024175,11.314870328643547 12.417741111256309,13.359420410474762 c0.6722576903948778,0.22858323896249616 1.2303584144962838,-0.36827299610624387 1.2810948439600482,-1.0032264376687319 c1.1415696629346965,-12.254601422156032 8.333458539423283,-23.950443815737078 21.715191810491117,-20.95346357156213 c-5.403429737890895,10.12115785850607 -6.265949038774891,23.366286649499582 1.2937789513259896,31.252408393705693 c-13.86372935097359,17.51201591829344 -17.935327815440676,40.12905750674929 -23.985647028994567,61.20951176662392 c-0.1522092883912931,0.5333608909124904 0.17757750312317508,1.1429161948124795 0.7103100124927003,1.2826059519562272 c13.318312734238125,3.441447653268689 26.979096367356657,4.177993645481176 40.63988000047519,3.987507613012429 c-0.03805232209782325,0.06349534415624894 -0.08878875156158761,0.11429161948124812 -0.10147285892752865,0.2158841701312463 c-0.5581007241014074,7.835325468881111 -4.794592584325725,18.515242355962172 -1.1669378776665786,26.109285517049535 c2.2070346816737465,4.635160123406169 8.929611585622515,8.990940732524841 14.104727390926469,6.743205549393631 c3.640338814025088,-1.5873836039062224 4.6804356180322575,-5.511395872762401 3.0822380899236803,-9.02903793901859 c-2.48608504372445,-5.460599597437402 -11.098593945198438,-5.587590285749902 -15.652188489571282,-3.682729961062434 c-0.6722576903948778,0.2793795142874953 -0.6595735830289365,1.3968975714374756 0.17757750312317508,1.3714994337749757 c4.566278651738786,-0.12699068831249782 10.185338214850681,-1.6508789480624713 13.445153807897535,2.730299798718701 c2.739767191043272,3.6954290298936847 -0.7610464419564645,7.225770164981123 -4.477489900177198,7.098779476668623 c-15.601452060107519,-0.520661822081241 -8.270038002593576,-22.12177790403711 -8.409563183618928,-31.341301875524444 c0,-0.10159255064999832 -0.0634205368297054,-0.15238882597499728 -0.08878875156158761,-0.22858323896249616 c7.001627265999471,-0.11429161948124812 14.015938639364887,-0.45716647792499226 20.979513583266527,-0.8127404051999861 c0.5707848314673477,-0.02539813766249958 1.0147285892752858,-0.45716647792499226 1.0274126966412271,-1.0413236441624814 c0.36783911361229127,-20.102625959868394 -14.485250611904704,-41.424362527536765 -9.310134806600745,-61.13331735363641 c0.0761046441956465,-0.2666804454562453 0.025368214731882163,-0.49526368441874163 -0.0634205368297054,-0.6857497168874886 c8.472983720448635,-6.082853970168642 11.529853595640434,-18.146969359855927 10.045813033825329,-28.369719769011994 c11.098593945198438,3.073174657162445 18.848583545788433,14.527734742949741 13.787624706777946,26.22357713653078 c-0.31710268414852694,0.7238469233812378 0.2029457178550573,1.765170567543719 1.1035173408368735,1.4603929155937236 C258.4082730852941,125.74791283994844 262.99991995176475,112.54088125544865 255.64313767951901,99.80371521770512 zM220.5208443832282,159.1464638661353 c1.8011432459636323,6.9971869260186255 3.7671798876844984,13.94357757671225 5.251220449499604,21.029657984549626 c0.7229941198586409,3.4541467220999387 1.1035173408368735,6.946390650693626 1.2810948439600482,10.464032716949813 c0.12684107365941072,2.4763184220937067 -13.305628626872185,1.9683556688437154 -14.776985081321348,2.019151944168714 c-8.041724070006639,0.2793795142874953 -16.070764032647336,0.19048603246874674 -24.11248810265398,-0.2539813766249956 c-5.035590624278605,-0.2793795142874953 -10.033128926459389,-0.9778283000062322 -15.005299013908289,-1.8413649805312169 c-7.191888876488587,-1.2445087454624781 -4.934117765351077,-5.511395872762401 -3.4627613109019126,-11.010092676693553 c4.756540262227902,-17.702501950762183 9.170609625575397,-35.34150855736812 19.723786954038367,-50.5168958107116 c3.386656666706266,3.200165345474943 8.257353895227636,5.435201459774904 14.979930799176406,5.993960488349893 c5.225852234767722,0.43176834026249256 9.58918516865145,-0.5587590285749907 13.166103445846835,-2.501716559756206 C215.04131000114157,140.91060102446062 218.45333488257972,151.09525422712295 220.5208443832282,159.1464638661353 zM228.56256845323477,109.60739635542998 c0.025368214731882163,13.486411098787261 -8.85350694142687,23.785355920930826 -22.32402896405629,23.480578268980832 c-35.04618865209518,-0.7873422675374865 -20.966829475900592,-53.20909840293655 5.682480099941601,-47.4056239470554 c-0.4946801872717022,0.0888934818187485 -0.9766762671774627,0.15238882597499728 -1.4967246691810465,0.2793795142874953 c-1.2049901997644017,0.3174767207812447 -0.6722576903948778,2.0572491506624635 0.5073642946376428,1.8667631181937172 c9.246714269771042,-1.5111891909187232 14.371093645611234,5.079627532499909 16.463971360991515,12.92765207021227 c-0.44394375780793777,0.46986554675624187 -0.38052322097823243,1.4730919844249741 0.38052322097823243,1.6127817415687216 h0 C228.29620219855008,104.7690511307238 228.54988434586883,107.2453695528175 228.56256845323477,109.60739635542998 z" id="svg_12"/>
		<path class="st5" d="M217.3371334343769,117.60780971911731 c-3.66570702875697,3.8859150623624306 -5.682480099941601,7.31466364679987 -11.263487340955674,8.648065874081096 c-2.422664506894745,0.5714580974062399 -5.010222409546723,0.2920785831187451 -7.217257091220471,-0.850837611693735 c-2.917344694166446,-1.5111891909187232 -3.2217632709490323,-4.597062916912418 -3.9954938202714376,-7.4289552662811165 c-0.12684107365941072,-0.46986554675624187 -0.8878875156158755,-0.520661822081241 -0.9893603745434035,0 c-2.853924157336741,14.743618913080986 22.75528861449828,12.38159211046853 24.632536504657562,0.3301757896124945 C218.60554417097103,117.63320785677982 217.85718183638056,117.04905069054229 217.3371334343769,117.60780971911731 z" id="svg_13"/>
		<path class="st5" d="M213.20211443308017,110.3312432788112 c-0.9005716229818166,-1.1810134013062292 -0.7737305493224055,-3.289058827293691 -0.6849417977608184,-4.7113545363936655 c0.03805232209782325,-0.5714580974062399 -0.4058914357101146,-0.8254394740312354 -0.8371510861521111,-0.7746431987062364 c0,-0.43176834026249256 0,-0.8635366805249849 0,-1.295305020787477 c0,-1.3207031584499764 -1.9660366417208666,-1.3080040896187266 -2.0040889638186896,0 c-0.03805232209782325,1.3080040896187266 -0.22831393258693958,2.6287072480687037 -0.34247089888040944,3.9367113376874308 c-0.0761046441956465,0.9143329558499834 -0.3932073283441733,2.3366286649499592 0.27905036205070366,3.0985727948249453 c0.025368214731882163,0.02539813766249958 0.05073642946376434,0.03809720649374937 0.0761046441956465,0.06349534415624894 c0,0.7619441298749868 0,1.5111891909187232 0.012684107365941085,2.2731333207937094 c0,1.2699068831249778 1.9406684269889842,1.2699068831249778 1.9406684269889842,0 c0,-0.7619441298749868 0.08878875156158761,-1.4984901220874733 0.21562982522099827,-2.2477351831312102 c0.12684107365941072,0.2158841701312463 0.21562982522099827,0.45716647792499226 0.38052322097823243,0.6476525103937388 C212.82159121210185,111.9948212957049 213.73484694244974,111.01699299569866 213.20211443308017,110.3312432788112 z" id="svg_14"/>
		<path class="st5" d="M202.38257084993245,105.77227756839254 c-0.2029457178550573,-0.4825646155874914 -0.5581007241014074,-0.6984487857187381 -1.052780911373109,-0.6730506480562384 c0,-0.17778696363749694 0,-0.3428748584437442 -0.012684107365941085,-0.520661822081241 c-0.025368214731882163,-1.1048189883187305 -1.6996703870361038,-1.1048189883187305 -1.6869862796701636,0 c0.025368214731882163,2.806494211706201 -0.8244669787861699,5.511395872762401 -0.8371510861521111,8.317890084468601 c0,0.4825646155874914 0.38052322097823243,0.6730506480562384 0.7356782272245829,0.6222543727312392 c0,0.1396897571437476 0,0.2793795142874953 0,0.4190692714312433 c-0.012684107365941085,1.2572078142937275 1.8772478901592786,1.2572078142937275 1.9153002122571028,0 c0.03805232209782325,-1.2826059519562272 0.22831393258693958,-2.5652119039124543 0.38052322097823243,-3.8478178558686817 c0.08878875156158761,-0.7746431987062364 0.17757750312317508,-1.5492863974124726 0.27905036205070366,-2.3112305272874587 c0.03805232209782325,-0.2793795142874953 0.0761046441956465,-0.5460599597437403 0.12684107365941072,-0.8254394740312354 C202.44599138676216,106.62311518008624 202.54746424568967,106.15324963333 202.38257084993245,105.77227756839254 z" id="svg_15"/>
		<path class="st5" d="M358.79029877935176,79.07883488510552 c-3.8559686392460852,7.962316157193607 -12.493845755451956,9.854477413049825 -20.522885718092652,9.473505348112331 c-3.386656666706266,-0.16508789480624725 -15.449242771716225,-1.9937538065062146 -14.09204328356053,-7.835325468881111 c0.0634205368297054,-0.2539813766249956 -0.2917344694166448,-0.4190692714312433 -0.41857554307605566,-0.17778696363749694 c-3.3739725593403254,6.1717474519873905 7.559727990100878,8.965542594862338 11.644010561933904,9.676690449412327 c9.373555343430452,1.6254808103999714 20.61167446965424,-0.7365459922124875 25.152584906661144,-10.07036158318107 C361.14954274941675,78.93914512796174 359.373767718185,77.87242334613677 358.79029877935176,79.07883488510552 z" id="svg_16"/>
		<path class="st5" d="M355.0992235358629,60.00483350056835 c0.12684107365941072,-0.6603515792249888 0.2663662546847626,-1.3080040896187266 0.4566278651738789,-1.9683556688437154 c0.38052322097823243,-1.2826059519562272 -1.5474610986448107,-1.8032677740374679 -1.9533525343549252,-0.5460599597437403 c-0.16489339575723413,0.507962753249991 -0.31710268414852694,1.0159255064999821 -0.4819960799057612,1.523888259749973 c-0.13952518102535189,0.07619441298749866 -0.27905036205070366,0.17778696363749694 -0.35515500624635027,0.36827299610624387 c-0.03805232209782325,0.07619441298749866 -0.05073642946376434,0.15238882597499728 -0.0761046441956465,0.22858323896249616 c0,0 -0.012684107365941085,0 -0.012684107365941085,0 c-0.012684107365941085,0.02539813766249958 -0.012684107365941085,0.06349534415624894 -0.012684107365941085,0.0888934818187485 c-0.4693119725398201,1.1556152636437294 -0.7610464419564645,2.3366286649499592 -0.9259398377136987,3.555739272749936 c0,0 -0.012684107365941085,0 -0.012684107365941085,0 c-1.0020444819093446,-0.20318510129999653 -1.3318312734238127,1.1556152636437294 -0.41857554307605566,1.5365873285812224 c-0.44394375780793777,-0.17778696363749694 -0.2029457178550573,0.3809720649374936 -0.22831393258693958,0.8635366805249849 c-0.025368214731882163,0.44446740909374255 -0.05073642946376434,0.9016338870187341 -0.0634205368297054,1.3588003649437261 c-0.012684107365941085,0.6349534415624893 0.12684107365941072,1.1556152636437294 0.6468894756629956,1.5365873285812224 c0.0761046441956465,0.06349534415624894 0.1902616104891162,0.050796275324999134 0.27905036205070366,0.07619441298749866 c0,0.20318510129999653 0,0.4063702025999932 0.012684107365941085,0.6095553038999896 c0.012684107365941085,0.7746431987062364 1.1542537703006375,0.7746431987062364 1.1796219850325198,0 c0.012684107365941085,-0.36827299610624387 0.025368214731882163,-0.7238469233812378 0.03805232209782325,-1.0921199194874807 c0.012684107365941085,-0.01269906883124978 0.025368214731882163,-0.02539813766249958 0.05073642946376434,-0.03809720649374937 c0.5834689388332893,0.17778696363749694 1.3318312734238127,-0.1396897571437476 1.3698835955216355,-0.952430162343733 c0.08878875156158761,-2.133443563649962 0.8752034082499344,-4.127197370156177 1.0274126966412271,-6.247941864974889 C355.6319560452325,60.487398116155845 355.40364211264557,60.182620464205826 355.0992235358629,60.00483350056835 z" id="svg_17"/>
		<path class="st5" d="M336.1999035606107,54.645826453780955 c0,-1.3334022272812267 -1.9914048564527485,-1.3207031584499764 -2.0167730711846303,0 c-0.012684107365941085,0.4063702025999932 -0.0634205368297054,0.8000413363687362 -0.08878875156158761,1.2064115389687289 c-0.4312596504419967,0.02539813766249958 -0.8498351935180523,0.30477765194999484 -0.8244669787861699,0.8762357493562352 c-0.05073642946376434,2.425522146768707 -0.0634205368297054,4.851044293537414 -0.08878875156158761,7.276566440306121 c0,0.3301757896124945 0.12684107365941072,0.5714580974062399 0.30441857678258616,0.7365459922124875 c0.012684107365941085,0.44446740909374255 0.012684107365941085,0.9016338870187341 0.03805232209782325,1.3461012961124765 c0.03805232209782325,0.8381385428624858 1.2303584144962838,0.8381385428624858 1.2810948439600482,0 c0.025368214731882163,-0.45716647792499226 0.025368214731882163,-0.9270320246812338 0.03805232209782325,-1.3841985026062253 c0.17757750312317508,-0.16508789480624725 0.2917344694166448,-0.39367113376874335 0.30441857678258616,-0.6984487857187381 c0.012684107365941085,-0.20318510129999653 0.03805232209782325,-0.4063702025999932 0.05073642946376434,-0.5968562350687395 c0.4312596504419967,0.050796275324999134 0.8498351935180523,-0.1396897571437476 0.9386239450796395,-0.6984487857187381 C336.5296903521252,60.10642605121835 336.1999035606107,57.261834633018395 336.1999035606107,54.645826453780955 z" id="svg_18"/>
		<path class="st5" d="M329.2109604019773,24.9427044574877 c-0.12684107365941072,-1.3588003649437261 -0.41857554307605566,-2.8572904870311993 -0.520048402003584,-4.317683402624924 c0.05073642946376434,-0.10159255064999832 0.11415696629346966,-0.17778696363749694 0.11415696629346966,-0.3174767207812447 c-0.03805232209782325,-0.7746431987062364 0.13952518102535189,-2.0953463571562128 -0.7990987640542878,-2.3874249402749577 c-0.44394375780793777,-0.1396897571437476 -1.0908332334709325,0.16508789480624725 -1.1669378776665786,0.6730506480562384 c-0.27905036205070366,1.8286659116999675 0.44394375780793777,4.127197370156177 0.6849417977608184,5.943164213024894 c0.31710268414852694,2.3874249402749577 0.7229941198586409,4.812947087043664 0.8498351935180523,7.225770164981123 c0.05073642946376434,0.8889348181874848 1.3445153807897543,0.9016338870187341 1.357199488155695,0 C329.7817452334446,29.501670167906383 329.4265902271982,27.19043964061892 329.2109604019773,24.9427044574877 z" id="svg_19"/>
		<path class="st5" d="M372.6032917008616,25.945930895156444 c-1.3191471660578713,0.9905273688374822 -2.0421412859165127,2.692202592224953 -2.8919764794345646,4.1017992324936765 c-1.268410736594107,2.120744494818712 -2.4353486142606857,4.304984333793674 -3.450077203535972,6.565418585756134 c-0.35515500624635027,0.7746431987062364 0.7229941198586409,1.4603929155937236 1.1415696629346965,0.6857497168874886 c1.06546501873905,-1.9683556688437154 2.181666466941865,-3.9113132000249307 3.3739725593403254,-5.8034744558811475 c0.9386239450796395,-1.485791053256224 2.4353486142606857,-3.0223783818374463 2.8412400499708004,-4.749451742887415 C373.7321772564303,26.19991227178145 373.1233401028651,25.564958830218963 372.6032917008616,25.945930895156444 z" id="svg_20"/>
		<path class="st5" d="M382.3827384800022,33.616168469231305 c-0.10147285892752865,0.3555739272749939 -0.7610464419564645,1.1048189883187305 -1.0274126966412271,1.523888259749973 c-0.7229941198586409,1.13021712598123 -1.5474610986448107,2.196938907806211 -2.3846121847969215,3.2255634831374422 c-0.8625193008839933,1.0540227129937314 -1.77577503123175,2.0572491506624635 -2.7524512984092127,2.984281175343697 c-0.3932073283441733,0.36827299610624387 -1.560145206010752,1.6127817415687216 -2.143614144844041,1.4476938467624743 c-0.41857554307605566,-0.11429161948124812 -0.6976259051267598,0.520661822081241 -0.30441857678258616,0.7238469233812378 c2.054825393282454,1.0286245753312317 4.401385255981553,-1.7778696363749682 5.631743670477837,-3.0604755883311956 c1.1542537703006375,-1.2064115389687289 2.2197187890396877,-2.514415628587455 3.2217632709490323,-3.860516924699931 c0.5707848314673477,-0.7619441298749868 1.357199488155695,-1.7524714987124688 1.3191471660578713,-2.7810960740437003 C383.9175154712811,32.930418752343826 382.6364206273209,32.72723365104384 382.3827384800022,33.616168469231305 z" id="svg_21"/>
		<path class="st5" d="M399.18918073987413,128.80838842827967 c-10.64196608002456,-10.768810368899809 -21.689823595759236,-22.299564867674604 -34.51345614272566,-30.452367057336957 c14.878457940248879,-10.933898263706052 20.966829475900592,-29.652325720968225 12.54458218491572,-47.77389694316165 c-4.566278651738786,-9.841778344218575 -12.506529862817896,-15.581757455943473 -21.5883507368317,-18.07077494686843 c0.2663662546847626,-1.3207031584499764 0.5961530461992306,-2.6160081792374537 1.0020444819093446,-3.9113132000249307 c0.6595735830289365,-2.1461426324812116 1.9026161048911607,-3.9494104065186795 2.6382943321157426,-6.032057694843642 c0.2029457178550573,-0.5841571662374899 -0.4819960799057612,-0.952430162343733 -0.9386239450796395,-0.7238469233812378 c-1.8772478901592786,0.9397310935124837 -2.4987691510903915,3.746225305218684 -3.06955398255774,5.612988423412401 c-0.4566278651738789,1.5111891909187232 -0.8117828714202294,3.0985727948249453 -1.0400968040071679,4.698655467562418 c-3.9954938202714376,-0.9397310935124837 -8.181249251031991,-1.3080040896187266 -12.392372896524424,-1.1048189883187305 c0.0634205368297054,-0.10159255064999832 0.13952518102535189,-0.17778696363749694 0.1522092883912931,-0.3301757896124945 c0.10147285892752865,-3.047776519499946 0.5454166167354663,-6.070154901337392 0.9005716229818166,-9.092533283174838 c0.0634205368297054,-0.6095553038999896 0.12684107365941072,-1.2191106077999783 0.1902616104891162,-1.8286659116999675 c0.12684107365941072,-1.3968975714374756 -0.012684107365941085,-1.5111891909187232 -0.4819960799057612,-2.7937951428749512 c0.32978679151446855,0.9143329558499834 0.6468894756629956,1.8032677740374679 1.1162014482028144,2.6668044545624534 c0.4058914357101146,0.7746431987062364 1.6743021723042215,0.24128230779374574 1.3952518102535183,-0.5968562350687395 c-0.3932073283441733,-1.1810134013062292 -0.41857554307605566,-3.3271560337874413 -1.6108816354745168,-4.012905750674928 c-0.2663662546847626,-0.15238882597499728 -0.6849417977608184,-0.20318510129999653 -0.9386239450796395,0 c-1.6108816354745168,1.231809676631228 -1.1288855555687556,3.860516924699931 -1.243042521862225,5.6510856299061505 c-0.21562982522099827,3.3398551026186905 -0.6849417977608184,6.654312067574882 -0.6849417977608184,10.019565307856073 c0,0.16508789480624725 0.0761046441956465,0.2666804454562453 0.1522092883912931,0.36827299610624387 c-7.179204769122646,0.4825646155874914 -14.371093645611234,2.4890174909249563 -20.675095006483946,5.727280042893648 c-1.1796219850325198,0.6095553038999896 -2.2958234332353347,1.2699068831249778 -3.3486043446084435,1.9810547376749648 c0,-0.01269906883124978 0,-0.01269906883124978 0,-0.02539813766249958 c-1.0400968040071679,-3.3271560337874413 -1.4713564544491646,-7.6067422299186145 -3.3486043446084435,-10.540227129937314 c-0.4058914357101146,-0.6222543727312392 -1.4967246691810465,-0.43176834026249256 -1.4459882397172823,0.4063702025999932 c0.012684107365941085,0.16508789480624725 0.03805232209782325,0.3301757896124945 0.05073642946376434,0.49526368441874163 c-0.17757750312317508,-0.3174767207812447 -0.32978679151446855,-0.6476525103937388 -0.5327325093695251,-0.9651292311749827 c-0.6342053682970535,-0.9778283000062322 -2.1562982522099827,-0.0888934818187485 -1.5474610986448107,0.9270320246812338 c1.9787207490868075,3.3398551026186905 2.993449338362093,7.136876683162373 5.010222409546723,10.451333648118563 c0.10147285892752865,0.16508789480624725 0.22831393258693958,0.2666804454562453 0.38052322097823243,0.3428748584437442 c-14.307673108781529,10.895801057212307 -15.297033483324933,31.150815843055696 -6.557683508191534,46.783369574324176 c3.500813632999736,6.247941864974889 8.16856514366605,11.060888952018555 13.546626666825064,14.464239398793493 c-0.10147285892752865,6.552719516924884 0.16489339575723413,12.92765207021227 1.7884591385976918,19.302584623499655 c0.2029457178550573,0.8000413363687362 1.2937789513259896,0.9270320246812338 1.6996703870361038,0.22858323896249616 c0.5327325093695251,-0.9143329558499834 1.1288855555687556,-1.765170567543719 1.7504068164998685,-2.5906100415749536 c-0.6722576903948778,2.730299798718701 -0.2663662546847626,5.739979111724897 0.6468894756629956,8.609968667587347 c0.12684107365941072,0.39367113376874335 0.4693119725398201,0.6857497168874886 0.8878875156158755,0.6857497168874886 c2.0040889638186896,-0.01269906883124978 5.403429737890895,0.01269906883124978 8.65056122357181,-0.520661822081241 c-0.2663662546847626,0.22858323896249616 -0.3932073283441733,0.6222543727312392 -0.1902616104891162,1.0413236441624814 c1.217674307130343,2.5398137662499547 2.8666082647026827,4.5589657104186685 3.6783911361229107,7.340061784462369 c0.6722576903948778,2.2731333207937094 0.7103100124927003,4.698655467562418 0.27905036205070366,7.022585063681126 c-0.7103100124927003,3.8478178558686817 -3.2471314856809146,7.682936642906113 -6.9508908365357085,9.041737007849838 c-4.464805792811258,1.6508789480624713 -7.559727990100878,-2.3620268026124585 -8.954979800354396,-6.159048383156139 c-1.2557266292281661,-3.441447653268689 -0.9386239450796395,-7.174973889656124 0.5581007241014074,-10.489430854612314 c0.6342053682970535,-1.3968975714374756 1.6235657428404568,-2.5652119039124543 2.7143989763113896,-3.6065355480749357 c1.052780911373109,-1.0032264376687319 2.48608504372445,-1.295305020787477 3.4754454182678542,-2.3239295961187088 c0.16489339575723413,-0.16508789480624725 0.08878875156158761,-0.44446740909374255 -0.13952518102535189,-0.520661822081241 c-2.625610224749802,-0.850837611693735 -5.390745630524956,2.196938907806211 -6.7986815481444145,4.089100163662428 c-2.1182459301121592,2.8318923493686996 -3.2724997004127965,7.555945954593616 -2.397296292162863,11.048189883187302 c1.2557266292281661,5.04153032600616 4.236491860224318,10.705315024743559 10.109233570655034,10.349741097468566 c4.6804356180322575,-0.2920785831187451 8.105144606836344,-4.53356757275617 9.716026242310862,-8.648065874081096 c2.2070346816737465,-5.625687492243652 0.7483623345905236,-14.248355228662247 -3.982809712905497,-18.185066566349676 c-0.08878875156158761,-0.07619441298749866 -0.17757750312317508,-0.12699068831249782 -0.27905036205070366,-0.16508789480624725 c3.4754454182678542,-0.6857497168874886 6.621104045021239,-2.082647288324963 7.45825513117335,-4.952636844187413 c0.9513080524455811,0.8381385428624858 1.9153002122571028,1.663578016893721 2.9553970162642695,2.425522146768707 c0.4312596504419967,0.3174767207812447 1.1162014482028144,0.0888934818187485 1.3698835955216355,-0.36827299610624387 c2.930028801532388,-5.3463079779561555 4.5155422222750214,-11.2005787091623 6.9382067291697656,-16.77546992608095 c0.32978679151446855,-0.7619441298749868 -0.5454166167354663,-1.6000826727374724 -1.1923060923984607,-0.9270320246812338 c-2.48608504372445,2.5906100415749536 -3.323236129876561,7.263867371474871 -4.591646866470669,10.514828992274813 c-0.6342053682970535,1.6127817415687216 -1.3318312734238127,3.200165345474943 -2.1182459301121592,4.749451742887415 c-0.41857554307605566,0.8762357493562352 -5.32732509369525,-4.190692714312425 -5.695164207307543,-4.597062916912418 c-2.8666082647026827,-3.0223783818374463 -5.251220449499604,-6.514622310431134 -7.8007260300537595,-9.803681137724825 c-0.30441857678258616,-0.39367113376874335 -1.0781491261049914,-0.39367113376874335 -1.3825677028875771,0 c-2.9553970162642695,3.746225305218684 -6.5069470787277695,6.971788788356125 -9.195977840307277,10.921199194874804 c-1.357199488155695,-5.2574144961374065 -1.572829313376693,-10.61642154292481 -1.6996703870361038,-16.051623002699714 c11.656694669299844,6.743205549393631 26.319522784327724,7.124177614331124 39.47294212280862,1.2064115389687289 c0.6849417977608184,-0.30477765194999484 0.1902616104891162,-1.5111891909187232 -0.5073642946376428,-1.231809676631228 c-19.07689747837537,7.733732918231112 -39.02899836500068,2.9334849000186978 -50.97742750371716,-14.515035674118492 c-10.223390536948504,-14.934104945549734 -8.62519300883993,-34.49067094567439 5.162431697938017,-45.71664779249919 c0.22831393258693958,0.02539813766249958 0.4566278651738789,-0.1396897571437476 0.520048402003584,-0.39367113376874335 c0.6088371535651719,-0.4825646155874914 1.217674307130343,-0.9651292311749827 1.8772478901592786,-1.422295709099975 c10.375599825339798,-7.022585063681126 23.46559862699098,-8.876649113043591 34.89397936370389,-5.498696803931152 c-0.025368214731882163,0.5333608909124904 -0.05073642946376434,1.079420850656231 -0.03805232209782325,1.6127817415687216 c0.025368214731882163,0.7746431987062364 1.1162014482028144,0.7619441298749868 1.1669378776665786,0 c0.025368214731882163,-0.4063702025999932 0.08878875156158761,-0.8127404051999861 0.12684107365941072,-1.2191106077999783 c7.749989600589995,2.577910972743704 14.637459900295996,7.594043161087366 19.216422659400724,15.162688184512229 c10.439020362169504,17.25803454166844 2.7905036205070366,36.92889216127434 -12.075270212375898,47.469119291211655 c-0.1522092883912931,0.050796275324999134 -0.27905036205070366,0.16508789480624725 -0.38052322097823243,0.2793795142874953 c-1.572829313376693,1.0921199194874807 -3.2217632709490323,2.069948219493713 -4.921433657985135,2.9461839688499483 c-1.1923060923984607,0.5968562350687395 -0.1522092883912931,2.4001240091062073 1.0400968040071679,1.8032677740374679 c1.636249850206399,-0.8254394740312354 3.171026841485268,-1.7524714987124688 4.655067403300373,-2.730299798718701 c9.85555142333621,6.133650245493641 18.391955680614554,14.54043381178099 26.763466542135664,22.56624531313085 c2.143614144844041,2.0572491506624635 4.249175967590259,4.152595507818676 6.3547377903364755,6.260640933806138 c1.8391955680614553,1.8413649805312169 -6.570367615557474,8.4448807727811 -7.369466379611763,9.194125833824836 c-8.092460499470404,7.581344092256114 -11.98648146081431,7.162274820824874 -21.20782751585347,1.3968975714374756 c-0.7103100124927003,-0.44446740909374255 -1.8645637827933372,0.30477765194999484 -1.5094087765469872,1.1810134013062292 c8.891559263524691,22.096379766374604 12.658739151209192,46.91036026263666 10.591229650560795,70.70841525239874 c-0.7864146566883465,9.105232352006087 -3.4373930961700303,8.127404051999857 -10.933700549441205,8.762357493562346 c-5.060958839010489,0.43176834026249256 -10.096549463289092,0.7492450610437369 -15.182876517031461,0.6222543727312392 c-15.753661348498811,-0.3809720649374936 -13.673467740484476,-21.740805839099615 -16.184920998940807,-32.801694791118166 c-0.21562982522099827,-0.9270320246812338 -1.4206200249854004,-0.9778283000062322 -1.8772478901592786,-0.2539813766249956 c-5.200484020035839,8.317890084468601 -7.394834594343645,20.102625959868394 -15.461926879082165,26.210878067699536 c-2.930028801532388,2.209637976637461 -7.128468339658883,2.108045425987463 -11.59327413247014,0.9397310935124837 c0.5327325093695251,-0.6095553038999896 0.025368214731882163,-1.765170567543719 -0.8752034082499344,-1.485791053256224 c-0.4946801872717022,0.16508789480624725 -1.1669378776665786,0.3555739272749939 -1.9787207490868075,0.5968562350687395 c-6.544999400825594,-2.2604342519624594 -13.204155767944656,-6.18444652081864 -16.971335655629154,-8.076607776674855 c-2.6890307615795077,-1.3461012961124765 5.631743670477837,-33.34775475086191 6.3927901124343,-37.15747540023684 c0.7610464419564645,-3.7970215805436824 1.6235657428404568,-7.555945954593616 2.5495055805541553,-11.302171259812297 c7.293361735416116,8.102005914337356 25.21600544349085,7.187672958487372 34.868611148972,7.5432468857623665 c13.889097565705471,0.49526368441874163 29.16076283429852,1.13021712598123 42.96107164844241,-0.9016338870187341 c1.0147285892752858,-0.15238882597499728 0.6088371535651719,-1.5492863974124726 -0.21562982522099827,-1.663578016893721 c-25.913631348617606,-3.441447653268689 -52.34731109923881,5.676483767568649 -77.39842314697243,-5.676483767568649 c-0.012684107365941085,0 -0.012684107365941085,0 -0.025368214731882163,0 c2.1562982522099827,-8.635366805249847 4.7311720474960195,-17.131043853355944 7.990987640542875,-25.448933937824545 c0.30441857678258616,-0.7746431987062364 -0.5707848314673477,-1.4603929155937236 -1.2557266292281661,-1.2826059519562272 c-10.451704469535445,2.679503523393702 -17.2630701250458,3.1493690701499437 -21.258563945317242,-5.485997735099903 c0.30441857678258616,0.06349534415624894 0.6215212609311128,-0.03809720649374937 0.7990987640542878,-0.3809720649374936 c0.6088371535651719,-1.1810134013062292 -0.5961530461992306,-1.6254808103999714 -1.5220928839129284,-1.3714994337749757 l0,0 c-0.34247089888040944,-0.9270320246812338 -0.6722576903948778,-1.904860324687466 -0.9766762671774627,-3.0096793130061963 c-2.663662546847625,-9.930671826037324 28.818291935418113,-19.315283692330905 35.65502580566035,-21.34713470533087 c0.8878875156158755,-0.2666804454562453 0.5073642946376428,-1.6508789480624713 -0.38052322097823243,-1.4095966402687252 c-13.419785593165654,3.682729961062434 -25.71068563076255,10.12115785850607 -38.0776903125551,16.457993205299708 c-0.41857554307605566,0.2158841701312463 -0.5581007241014074,0.7365459922124875 -0.4693119725398201,1.1683143324749794 c0.7229941198586409,3.238262551968692 1.4206200249854004,6.286039071468639 2.3338757553331573,8.978241663693591 c-1.0908332334709325,0.6222543727312392 -2.1562982522099827,1.3968975714374756 -3.1329745193874454,2.019151944168714 c-2.092877715380277,1.3334022272812267 -4.173071323394613,2.679503523393702 -6.2278967166770665,4.063702025999929 c-0.6215212609311128,0.4063702025999932 -1.4079359176194597,0.7873422675374865 -1.9406684269889842,1.3207031584499764 c-0.0634205368297054,0.06349534415624894 -0.0634205368297054,0.12699068831249782 -0.08878875156158761,0.19048603246874674 c-0.13952518102535189,0.10159255064999832 -0.2536821473188215,0.22858323896249616 -0.31710268414852694,0.3428748584437442 c-0.11415696629346966,-0.2920785831187451 -0.2029457178550573,-0.5841571662374899 -0.32978679151446855,-0.8635366805249849 c-1.5981975281085754,-3.3144569649561912 -5.251220449499604,-3.873215993531181 -8.244669787861696,-2.603309110406203 c0.13952518102535189,-0.3809720649374936 -0.11415696629346966,-0.8889348181874848 -0.6215212609311128,-0.7492450610437369 c-5.0229065169126645,1.3714994337749757 -8.016355855274758,6.984487857187376 -6.27863314614083,12.038717252024785 c0.16489339575723413,0.46986554675624187 0.3932073283441733,0.9016338870187341 0.6468894756629956,1.3207031584499764 c-0.05073642946376434,-0.02539813766249958 -0.0761046441956465,-0.07619441298749866 -0.13952518102535189,-0.0888934818187485 c-4.299912397054023,-0.7238469233812378 -9.170609625575397,0.4190692714312433 -13.470522022629421,0.9143329558499834 c-5.79663706623507,0.6603515792249888 -11.567905917738255,1.4603929155937236 -17.364542983973326,2.1715407701437113 c-1.0274126966412271,0.12699068831249782 -1.052780911373109,1.7778696363749682 0,1.663578016893721 c10.096549463289092,-1.079420850656231 20.90340893907089,-1.1683143324749794 30.835065006602747,-3.162068138981194 c0.41857554307605566,-0.0888934818187485 0.5834689388332893,-0.507962753249991 0.5454166167354663,-0.8889348181874848 c2.7017148689454475,3.4795448597624383 8.637877116205871,4.419275953274921 12.011849675546195,1.5746845350749719 c3.0188175530939745,-2.552512835081204 3.792548102416381,-6.984487857187376 2.650978439481684,-10.705315024743559 c1.357199488155695,0.6476525103937388 4.959485980082959,-2.3874249402749577 5.8727417104307165,-2.958883037681198 c1.6869862796701636,-1.0413236441624814 3.361288451974385,-2.082647288324963 5.073642946376428,-3.085873725993695 c0.3932073283441733,-0.22858323896249616 0.7864146566883465,-0.44446740909374255 1.1923060923984607,-0.6730506480562384 c2.422664506894745,5.905067006531146 6.380106005068359,9.56239882993108 15.119455980201757,8.457579841612349 c5.8093211736010115,-0.7365459922124875 6.773313333412532,-1.9556566000124653 4.236491860224318,5.130423807824909 c-2.422664506894745,6.768603687056129 -4.147703108662731,13.803887819568505 -5.8093211736010115,20.80107474558713 c-3.589602384561323,15.162688184512229 -5.860057603064775,30.60475588331196 -9.449659987626099,45.780143136655425 c-0.10147285892752865,0.43176834026249256 0.05073642946376434,0.9651292311749827 0.4693119725398201,1.1810134013062292 c5.187799912669899,2.641406316899953 10.908332334709321,5.8415716623748954 16.80644225987192,8.025811501349857 c-9.84286731597027,2.9969802441749467 -28.28555942604859,9.295718384474835 -24.721325256219142,17.48661778063094 c6.900154407071944,15.899234176724717 31.59611144855921,-5.9558632818561446 36.51754510654434,-13.613401787099757 c0.44394375780793777,-0.6984487857187381 -0.5961530461992306,-1.2572078142937275 -1.06546501873905,-0.6349534415624893 c-4.033546142369261,5.3463079779561555 -9.665289812847096,9.63859324291858 -15.25898116122711,13.130837171512267 c-3.3486043446084435,2.0953463571562128 -7.001627265999471,3.8224197182061816 -10.946384656807147,4.304984333793674 c-3.4247089888040896,0.4190692714312433 -9.183293732941337,-2.450920284431206 -6.9508908365357085,-6.705108342899881 c2.650978439481684,-5.06692846366866 11.644010561933904,-7.644839436412363 16.42591903889369,-9.460806279281082 c3.0188175530939745,-1.1429161948124795 6.544999400825594,-1.9175593935187158 9.58918516865145,-3.3017578961249416 c3.2217632709490323,0.9270320246812338 6.481578863995887,1.4476938467624743 9.716026242310862,1.3334022272812267 c10.692702509488324,-0.39367113376874335 14.637459900295996,-15.746845350749721 18.303166929052963,-23.442481062487083 c3.412024881438149,-7.1495757519936225 3.3486043446084435,9.270320246812336 3.9193891760757906,13.054642758524768 c0.6215212609311128,4.190692714312425 2.105561822746218,10.210051340324817 5.79663706623507,12.902253932549769 c5.961530461992304,4.3430815402874225 14.409145967709057,3.9113132000249307 22.501606467179457,2.9715821065124466 c4.9468018727170175,2.3747258714437076 9.386239450796394,5.587590285749902 12.417741111256309,10.324342959806067 c1.7630909238658097,2.7556979363812006 3.957441498173615,8.292491946806102 0.5961530461992306,10.756111300068559 c-4.008177927637379,2.9334849000186978 -10.870280012611499,-1.7143742922187204 -14.104727390926469,-3.8478178558686817 c-3.7164434582207337,-2.450920284431206 -6.380106005068359,-6.463826035106136 -8.637877116205871,-10.248148546818568 c-1.1288855555687556,-1.8794621870249664 -1.9406684269889842,-5.447900528606154 -4.0208620350033195,-6.324136277962388 c-0.05073642946376434,-0.02539813766249958 -0.10147285892752865,0.02539813766249958 -0.11415696629346966,0.06349534415624894 c-1.1542537703006375,2.8445914181999497 2.930028801532388,7.975015226024858 4.388701148615611,10.22275040915607 c2.473400936358509,3.7843225117124324 5.504902596818425,6.819399962381128 9.297450699234806,9.194125833824836 c3.7164434582207337,2.3366286649499592 10.6546501873905,5.854270731206146 14.726248651857583,2.285832389624959 c3.3105520225106204,-2.908086762356198 2.181666466941865,-7.835325468881111 0.5581007241014074,-11.340268466306048 c-2.321191647967216,-5.02883125717491 -6.773313333412532,-8.851250975381092 -11.59327413247014,-11.505356361112295 c3.285183807778737,-0.4190692714312433 6.430842434532124,-0.8127404051999861 9.246714269771042,-0.8889348181874848 c0.4312596504419967,-0.01269906883124978 0.9005716229818166,-0.30477765194999484 0.9893603745434035,-0.7746431987062364 c2.6890307615795077,-13.461012961124759 2.5875579026519793,-27.41728960666826 0.7610464419564645,-41.00529325610552 c-1.1162014482028144,-8.279792877974852 -2.6763466542135674,-16.407196929974706 -4.794592584325725,-24.483804706649565 c-1.1035173408368735,-4.203391783143674 -2.5241373658222725,-8.305191015637352 -4.033546142369261,-12.38159211046853 c0.5581007241014074,1.5111891909187232 9.018400337184103,4.660558261068669 10.629281972658621,5.663784698737399 c0.3932073283441733,0.2539813766249956 0.9259398377136987,0.16508789480624725 1.243042521862225,-0.16508789480624725 c6.024950998822009,-5.993960488349893 12.341636467060665,-11.683143324749791 18.366587465882674,-17.689802881930937 C399.5823880682182,129.88780927893586 399.5823880682182,129.20205956204836 399.18918073987413,128.80838842827967 zM329.41390611983223,115.7410466009236 c0.7864146566883465,-0.9016338870187341 1.5855134207426338,-1.7778696363749682 2.4099803995288034,-2.6668044545624534 c1.7884591385976918,-1.904860324687466 2.6382943321157426,-4.724053605224917 5.137063483206134,-1.4476938467624743 c2.473400936358509,3.250961620799942 5.010222409546723,6.298738140299887 7.889514781615346,9.041737007849838 l0,0 c-2.092877715380277,1.8921612558562169 -3.6149705992932053,3.1239709324874445 -6.430842434532124,3.8859150623624306 c-2.8158718352389185,0.7619441298749868 -5.79663706623507,0.8762357493562352 -8.701297653035576,0.9143329558499834 C328.7416484294375,122.57314563213598 328.18354770533597,118.71262870743604 329.41390611983223,115.7410466009236 zM262.7716060191778,140.14865689458566 c-2.7270830836773303,3.41604951560619 -8.688613545669634,2.133443563649962 -10.629281972658621,-1.4476938467624743 c-1.5220928839129284,-2.806494211706201 -0.34247089888040944,-6.336835346793639 1.8138273533295743,-8.648065874081096 c-0.520048402003584,0.7492450610437369 0.16489339575723413,1.7016752233874697 1.0274126966412271,1.2826059519562272 c3.006133445728034,-1.4730919844249741 6.329369575604596,-4.1017992324936765 8.612508901473989,-0.01269906883124978 C265.0547453450472,133.9388122361045 264.61080158723934,137.8374263672982 262.7716060191778,140.14865689458566 z" id="svg_22"/>
		<path class="st5" d="M416.51567140174967,155.1843543907854 c-2.9680811236302103,-3.9621094753499295 -8.219301573129815,-3.1366700013186946 -11.00980519363685,0.520661822081241 c0.08878875156158761,-0.36827299610624387 -0.025368214731882163,-0.7619441298749868 -0.44394375780793777,-0.9905273688374822 c-3.2598155930468558,-1.8540640493624676 -6.024950998822009,-4.838345224706163 -8.840822834060926,-7.3019645779686195 c-2.2450870037715696,-1.9683556688437154 -4.858013121155431,-4.724053605224917 -7.788041922687818,-5.562192148087401 c-0.2663662546847626,-0.07619441298749866 -0.6468894756629956,-0.01269906883124978 -0.8371510861521111,0.22858323896249616 c-0.6342053682970535,0.8000413363687362 -0.913255730347757,0.9778283000062322 -0.7229941198586409,2.1461426324812116 c0.0634205368297054,0.4190692714312433 0.7610464419564645,0.3174767207812447 0.7356782272245829,-0.10159255064999832 c-0.0761046441956465,-1.1048189883187305 -0.6595735830289365,-1.1556152636437294 0.16489339575723413,-0.6603515792249888 c0.520048402003584,0.30477765194999484 1.1035173408368735,0.4825646155874914 1.6235657428404568,0.8127404051999861 c1.9914048564527485,1.2445087454624781 3.7544957803185572,2.9334849000186978 5.517586704184366,4.48277129743117 c2.8919764794345646,2.5652119039124543 5.758584744137247,5.816173524712396 9.183293732941337,7.657538505243614 c0.35515500624635027,0.19048603246874674 0.6849417977608184,0.12699068831249782 0.9513080524455811,-0.03809720649374937 c-0.22831393258693958,0.520661822081241 0.38052322097823243,1.0921199194874807 0.8752034082499344,0.7873422675374865 c2.9680811236302103,-1.8540640493624676 5.999582784090126,-4.393877815612422 8.929611585622515,-1.0032264376687319 c2.054825393282454,2.3747258714437076 2.650978439481684,6.298738140299887 2.067509500648395,9.321116522137334 c-0.7356782272245829,3.809720649374932 -3.729127565586675,4.660558261068669 -6.988943158633529,3.187466276643693 c-2.739767191043272,-1.231809676631228 -5.986898676724185,-2.6668044545624534 -5.225852234767722,-6.324136277962388 c0.5581007241014074,-2.679503523393702 3.3993407740722072,-4.990734050681161 5.999582784090126,-5.270113564968657 c0.5707848314673477,-0.06349534415624894 0.5961530461992306,-0.9143329558499834 0,-0.9270320246812338 c-6.1010556430176575,-0.17778696363749694 -11.352276092517258,8.089306845506107 -5.3146409863293105,12.343494903974781 c3.843284531880144,2.717600729887452 10.324863395876033,4.851044293537414 12.77289611750266,-0.6857497168874886 C419.8896439610899,163.89591560902278 419.027124660206,158.52420949340407 416.51567140174967,155.1843543907854 z" id="svg_23"/>
		<path class="st5" d="M185.6141809121583,194.9324398325972 c-1.4333041323513411,4.546266641587419 -0.9386239450796395,10.971995470199806 -1.9406684269889842,16.254808103999714 c-0.05073642946376434,-0.050796275324999134 -0.08878875156158761,-0.10159255064999832 -0.1522092883912931,-0.1396897571437476 c-4.490174007543139,-2.679503523393702 -10.515125006365148,-2.7049016610562022 -14.371093645611234,1.13021712598123 c-2.2577711111375107,2.2477351831312102 -2.9680811236302103,6.590816723418632 -0.2029457178550573,8.749658424731095 c4.299912397054023,3.36525324028119 11.263487340955674,1.1683143324749794 14.371093645611234,-2.806494211706201 c4.426753470713435,-5.6510856299061505 2.0421412859165127,-16.24210903516846 3.4373930961700303,-22.871022965080844 C186.92064397085028,194.4879724235034 185.85517895211117,194.18319477155347 185.6141809121583,194.9324398325972 zM174.70584857744905,220.38137377042173 c-4.388701148615611,0.43176834026249256 -7.217257091220471,-3.047776519499946 -4.1603872160286715,-6.781302755887379 c3.1837109488512088,-3.8859150623624306 8.39687907625299,-2.2477351831312102 12.367004681792544,-1.0921199194874807 c0.17757750312317508,0.050796275324999134 0.34247089888040944,0.02539813766249958 0.4946801872717022,-0.03809720649374937 C182.36704942647737,216.63514846520303 180.10927831533994,219.83531381067797 174.70584857744905,220.38137377042173 z" id="svg_24"/>
		<path class="st5" d="M179.3989683028472,136.64371389716072 c-0.5454166167354663,1.4603929155937236 -5.771268851503187,2.108045425987463 -7.026995480731354,2.3874249402749577 c-3.412024881438149,0.7365459922124875 -6.900154407071944,1.13021712598123 -10.375599825339798,1.3207031584499764 c0.24099803995288058,-0.9397310935124837 0.24099803995288058,-1.904860324687466 -0.11415696629346966,-2.8318923493686996 c-1.2937789513259896,-3.3017578961249416 -6.405474219800241,-3.9494104065186795 -9.34818712869857,-3.6065355480749357 c-0.012684107365941085,0 -0.025368214731882163,0.01269906883124978 -0.03805232209782325,0.02539813766249958 c-2.321191647967216,-3.3144569649561912 -6.316685468238654,-5.701881905231148 -9.957024282263742,-5.06692846366866 c0.6468894756629956,-0.7492450610437369 1.3318312734238127,-1.4349947779312244 2.092877715380277,-1.9937538065062146 c0.5073642946376428,-0.3809720649374936 0.0761046441956465,-1.1810134013062292 -0.5073642946376428,-0.8762357493562352 c-1.712354494402045,0.9016338870187341 -3.1456586267533857,2.3239295961187088 -4.287228289688081,4.000206681843679 c-1.268410736594107,0.8889348181874848 -2.4099803995288034,2.285832389624959 -3.2978679151446793,4.3430815402874225 c-0.2663662546847626,0.6222543727312392 0.27905036205070366,1.3461012961124765 0.8371510861521111,1.2445087454624781 c-0.4946801872717022,2.0572491506624635 -0.6342053682970535,4.177993645481176 -0.30441857678258616,6.108252107831142 c0.9259398377136987,5.524094941593651 7.534359775368998,6.730506480562379 12.176743071303429,4.914539637693663 c1.0020444819093446,4.762150811718665 8.244669787861696,0.15238882597499728 10.362915717973856,-2.1715407701437113 c0.7356782272245829,-0.8000413363687362 1.4586723470832232,-1.8032677740374679 1.9533525343549252,-2.8826886246936994 c4.388701148615611,0.01269906883124978 8.802770511963105,-0.49526368441874163 13.102682909017128,-1.3461012961124765 c1.8011432459636323,-0.3555739272749939 5.8727417104307165,-0.8635366805249849 6.113739750383597,-3.36525324028119 C180.85764064993043,135.97066324910446 179.65265045016602,135.945265111442 179.3989683028472,136.64371389716072 zM142.6911615858138,145.2536825647481 c-2.8158718352389185,-0.46986554675624187 -3.9447573908076734,-3.0223783818374463 -4.1096507865649095,-5.638386561074901 c-0.12684107365941072,-2.120744494818712 0.35515500624635027,-4.3684796779499235 1.2557266292281661,-6.4511269662748845 c2.650978439481684,-2.450920284431206 5.56832313364813,-3.581137410412437 9.10718908874569,-0.5841571662374899 c2.980765230996152,2.527114697418705 4.959485980082959,7.708334780568614 1.8265114606955142,10.85770385071856 C148.86832187302704,145.35527511539806 145.16456252217225,145.6727518361793 142.6911615858138,145.2536825647481 zM158.4575070416785,143.2726278270731 c-1.2937789513259896,1.5111891909187232 -7.128468339658883,6.159048383156139 -8.39687907625299,2.9715821065124466 c0.5834689388332893,-0.2920785831187451 1.1415696629346965,-0.6349534415624893 1.6235657428404568,-1.0413236441624814 c3.2217632709490323,-2.6668044545624534 3.3359202372425014,-6.324136277962388 1.8265114606955142,-9.52430162343733 c2.3465598626990984,0.15238882597499728 5.822005280966952,0.16508789480624725 6.773313333412532,2.4763184220937067 C161.01969672959856,139.9327727244544 159.5229720604175,142.01542001277943 158.4575070416785,143.2726278270731 z" id="svg_25"/>
		<path class="st5" d="M141.70180121127032,125.70981563345464 c-6.468894756629946,-3.4541467220999387 -12.887053083796129,-6.9082934441998765 -19.241790874132604,-10.578324336431063 c-4.046230249735202,-2.3366286649499592 -8.079776392104463,-4.6732573298999185 -12.164058963937487,-6.9082934441998765 c-0.3932073283441733,-0.2158841701312463 -0.8244669787861699,-0.4825646155874914 -1.268410736594107,-0.7492450610437369 c-2.092877715380277,-6.984487857187376 -4.287228289688081,-13.930878507881001 -6.544999400825594,-20.85187102091213 c-0.0634205368297054,-0.20318510129999653 -0.1902616104891162,-0.3555739272749939 -0.31710268414852694,-0.46986554675624187 c0.9893603745434035,-0.49526368441874163 1.9533525343549252,-1.0159255064999821 2.9046605868005058,-1.6000826727374724 c34.39929917643219,-21.20744494818712 14.434514182440942,-101.8211338889607 -28.247507103950763,-81.2105451758423 c-0.3932073283441733,0.19048603246874674 -0.11415696629346966,0.7873422675374865 0.2917344694166448,0.6857497168874886 c1.6108816354745168,-0.39367113376874335 3.171026841485268,-0.6476525103937388 4.693119725398197,-0.8381385428624858 c-11.758167528227371,3.8859150623624306 -24.08711988792209,8.521075185768598 -33.61288451974384,16.673877375430955 c-10.616597865292675,9.092533283174838 -11.542537703006374,23.036110859887092 -9.436975880260158,36.05265641191811 c1.9406684269889842,11.962522839037286 9.094504981379748,21.28363936117462 18.506112646908022,27.226803574199515 c-0.08878875156158761,0.06349534415624894 -0.17757750312317508,0.1396897571437476 -0.24099803995288058,0.2666804454562453 c-1.4206200249854004,2.908086762356198 -2.7017148689454475,5.854270731206146 -3.9447573908076734,8.838551906549842 c-0.2029457178550573,-0.17778696363749694 -0.4819960799057612,-0.24128230779374574 -0.8244669787861699,-0.10159255064999832 c-12.79826433223454,5.282812633799906 -24.11248810265398,13.372119479306011 -35.71844634249006,20.877269158574627 c-0.4312596504419967,-1.11751805714998 -1.052780911373109,-2.133443563649962 -1.9153002122571028,-2.9461839688499483 c-4.591646866470669,-4.292285264962423 -11.745483420861431,2.6668044545624534 -13.939833995169238,6.489224172768634 c-0.35515500624635027,0.6095553038999896 -0.5073642946376428,1.6254808103999714 -0.21562982522099827,2.3620268026124585 c-0.9513080524455811,2.23503611429996 -0.5581007241014074,4.8002480182124145 2.283139325869393,7.009885994849875 c4.655067403300373,3.619234616906186 11.047857515734671,2.450920284431206 13.419785593165654,-3.047776519499946 c1.0400968040071679,-2.4128230779374573 1.4459882397172823,-5.612988423412401 0.8244669787861699,-8.419482635118602 c11.682062884031728,-6.857497168874879 22.704552185034515,-14.832512394899735 35.22376615521836,-20.08992689103714 c-4.058914357101143,10.095759720843569 -7.470939238539292,20.496297093637136 -11.796219850325198,30.477765194999456 c-7.052363695463237,16.26750717283096 -17.59285691656027,31.341301875524444 -20.522885718092652,49.14539637693663 c-0.10147285892752865,0.6095553038999896 0.1522092883912931,1.066721781824981 0.7229941198586409,1.295305020787477 c10.210706429582565,4.000206681843679 20.979513583266527,4.965335913018662 31.79905716641427,5.701881905231148 c-0.2663662546847626,0.02539813766249958 -0.520048402003584,0.20318510129999653 -0.4946801872717022,0.5714580974062399 c0.21562982522099827,3.3779523091124406 0.7737305493224055,8.127404051999857 0.520048402003584,12.533980936443527 c-5.225852234767722,-2.603309110406203 -13.077314694285246,-0.22858323896249616 -17.64359334602403,2.679503523393702 c-4.198439538126495,2.679503523393702 -4.249175967590259,6.768603687056129 0.1522092883912931,9.117931420837337 c5.352693308427132,2.8445914181999497 13.35636505633595,3.4033504467749394 17.009387977726977,-2.285832389624959 c3.8179163171482617,-5.9558632818561446 1.9660366417208666,-15.518262111787223 1.1923060923984607,-22.045583491049605 c-0.03805232209782325,-0.3428748584437442 -0.30441857678258616,-0.520661822081241 -0.5707848314673477,-0.5587590285749907 c0.9386239450796395,0.06349534415624894 1.8645637827933372,0.12699068831249782 2.8031877278729778,0.19048603246874674 c11.225435018857848,0.7238469233812378 22.146451460933115,2.2223370454687106 33.206993084033726,3.987507613012429 c-0.9513080524455811,5.765377249387398 -1.6743021723042215,11.568851705268543 -2.5748737952860368,17.34692802348719 c-0.7737305493224055,4.978034981849912 -1.3064630586919306,5.60028935458115 2.7651354057751534,8.546473323431098 c3.8306004245142042,2.768397005212451 8.967663907720338,3.3398551026186905 12.925105405893952,0.5841571662374899 c2.7017148689454475,-1.8794621870249664 4.490174007543139,-5.60028935458115 3.1456586267533857,-8.825852837718593 c-1.9914048564527485,-4.825646155874914 -8.764718189865281,-4.203391783143674 -12.79826433223454,-3.530341135087437 c-1.2937789513259896,0.2158841701312463 -0.7483623345905236,2.2223370454687106 0.5454166167354663,2.006452875337464 c3.2217632709490323,-0.5333608909124904 9.310134806600745,-1.295305020787477 10.565861435828912,2.9207858311874473 c0.8244669787861699,2.768397005212451 -1.7884591385976918,5.384405184449904 -3.9320732834417322,6.501923241599884 c-4.008177927637379,2.082647288324963 -8.536404257278344,-0.45716647792499226 -11.542537703006374,-3.1239709324874445 c-1.4840405618151054,-1.3207031584499764 0.6088371535651719,-9.613195105256079 0.8371510861521111,-11.467259154618546 c0.4312596504419967,-3.581137410412437 0.8752034082499344,-7.162274820824874 1.268410736594107,-10.756111300068559 c0.520048402003584,0.0888934818187485 1.0400968040071679,0.16508789480624725 1.572829313376693,0.24128230779374574 c10.743438938952087,1.7524714987124688 27.08056922628419,5.574891216918651 29.909125168889044,-8.584570529924846 c2.828555942604859,-14.172160815674747 -2.2070346816737465,-31.138116774224446 -5.479534382086544,-44.76421763015545 c-1.8138273533295743,-7.5432468857623665 -3.8686527466120273,-15.022998427368483 -6.063003320919832,-22.46465276248085 c3.957441498173615,2.2731333207937094 7.8641465668834645,4.622461054574917 11.796219850325198,6.9590897195248775 c5.961530461992304,3.5430402039186872 12.734843795404835,8.889348181874842 19.55889355828113,10.476731785781064 C141.95548335858913,127.43688899450461 142.55163640478838,126.1542830425484 141.70180121127032,125.70981563345464 zM15.279303094935672,119.00470729055479 c-0.38052322097823243,3.8351187870374317 -2.7905036205070366,7.3908580597873685 -6.874786192340061,7.162274820824874 c-3.158342734119327,-0.17778696363749694 -7.5089915606371145,-2.5906100415749536 -6.570367615557474,-6.311437209131137 c0,0 0,-0.01269906883124978 0,-0.01269906883124978 c0.8498351935180523,0.050796275324999134 1.8645637827933372,-0.19048603246874674 2.536821473188214,-0.03809720649374937 c0.7103100124927003,0.16508789480624725 1.1796219850325198,-0.8381385428624858 0.5073642946376428,-1.231809676631228 c-0.5327325093695251,-0.3174767207812447 -0.9766762671774627,-0.46986554675624187 -1.5981975281085754,-0.5587590285749907 c-0.16489339575723413,-0.02539813766249958 -0.32978679151446855,-0.03809720649374937 -0.4946801872717022,-0.03809720649374937 c1.7504068164998685,-2.3620268026124585 5.263904556865546,-3.657331823399936 7.889514781615346,-3.492243928593688 c0.5834689388332893,0.03809720649374937 0.7229941198586409,-0.952430162343733 0.13952518102535189,-1.0413236441624814 c-2.0167730711846303,-0.3301757896124945 -4.198439538126495,0.16508789480624725 -6.063003320919832,1.1429161948124795 c0.4566278651738789,-0.4190692714312433 0.8878875156158755,-0.8000413363687362 1.217674307130343,-1.11751805714998 c1.4586723470832232,-1.3714994337749757 3.627654706659148,-3.0604755883311956 5.758584744137247,-2.742998867549953 c1.737722709133927,0.2539813766249956 2.7017148689454475,1.6762770857249705 3.1837109488512088,3.36525324028119 c-0.16489339575723413,0.10159255064999832 -0.32978679151446855,0.2158841701312463 -0.4946801872717022,0.3174767207812447 c-0.7356782272245829,0.46986554675624187 -0.0761046441956465,1.6254808103999714 0.6849417977608184,1.1937124701374788 c0.03805232209782325,-0.02539813766249958 0.0761046441956465,-0.03809720649374937 0.11415696629346966,-0.06349534415624894 C15.380775953863225,116.76967117625483 15.368091846497265,118.0395780593798 15.279303094935672,119.00470729055479 zM42.7150273274662,205.84093995864072 c-2.8158718352389185,-0.10159255064999832 -6.430842434532124,-1.0540227129937314 -8.62519300883993,-2.9461839688499483 c-2.308507540601275,-1.9810547376749648 1.8011432459636323,-4.419275953274921 3.1456586267533857,-5.168521014318658 c4.769224369593843,-2.692202592224953 9.83018320860433,-2.6287072480687037 15.017983121274227,-1.7905687052062182 C51.606586590990915,201.49785841835336 49.29807905038963,206.0695231976032 42.7150273274662,205.84093995864072 zM40.736306578379406,55.35697430833095 c-7.902198888981288,-32.66200503397442 20.446781073897007,-40.31954353921803 42.82154646741706,-50.93596508214284 c0.5961530461992306,-0.2793795142874953 0.4946801872717022,-1.0413236441624814 0.08878875156158761,-1.422295709099975 c36.13702188556611,-2.6287072480687037 49.89927837761218,51.67251107435533 25.000375618269857,76.10551950567988 C85.99320166005714,101.35300161511763 47.61109277071947,83.81558755916167 40.736306578379406,55.35697430833095 zM115.01443931333034,137.9136207802857 c2.2958234332353347,9.892574619543574 4.185755430760554,19.950237133893395 4.6677515106663146,30.12219126772446 c0.17757750312317508,3.7716234428811832 -0.05073642946376434,7.555945954593616 -1.0400968040071679,11.2005787091623 c-2.0294571785505715,7.416256197449868 -11.96111324608243,5.943164213024894 -17.770434419683443,5.524094941593651 c-11.656694669299844,-0.850837611693735 -23.07239129864681,-3.873215993531181 -34.72908596794665,-4.927238706524912 c-7.267993520684234,-0.6603515792249888 -14.574039363466293,-0.9270320246812338 -21.842032884150523,-1.5492863974124726 c-7.293361735416116,-0.6222543727312392 -23.57975559328445,-0.12699068831249782 -20.979513583266527,-10.845004781887305 c3.7798639950504396,-15.569058387112223 13.952518102535178,-29.461839688499474 19.99015320872313,-44.19275953274921 c5.289272771597426,-12.889554863718521 9.246714269771042,-26.38866503133703 14.90382615498076,-39.1131320002493 c0.05073642946376434,-0.12699068831249782 0.0634205368297054,-0.24128230779374574 0.0634205368297054,-0.3555739272749939 c12.569950399647603,7.492450610437368 28.85634425751594,9.130630489668588 42.21270931385188,3.187466276643693 c0.012684107365941085,0.06349534415624894 0,0.1396897571437476 0.025368214731882163,0.2158841701312463 c2.0421412859165127,6.260640933806138 4.008177927637379,12.546680005274778 5.8981099251626,18.85811721440591 c-0.9639921598115215,-0.43176834026249256 -1.9406684269889842,-0.7238469233812378 -2.8792923720686234,-0.6476525103937388 c-0.1522092883912931,0.01269906883124978 -0.30441857678258616,0.19048603246874674 -0.1902616104891162,0.3428748584437442 c0.8878875156158755,1.2064115389687289 2.3465598626990984,1.9937538065062146 3.792548102416381,2.717600729887452 C110.01690101114956,118.20466595418611 112.70593177272903,128.0083470919109 115.01443931333034,137.9136207802857 z" id="svg_26"/>
	</g>
</g></g></svg>