<svg xmlns="http://www.w3.org/2000/svg" xmlns:xlink="http://www.w3.org/1999/xlink" version="1.1" style="enable-background:new 0 0 802 610;" xml:space="preserve" width="264" height="382"><rect id="backgroundrect" width="100%" height="100%" x="0" y="0" fill="none" stroke="none" class="" style=""/>
<style type="text/css">
	.st0{fill:#F281C1;}
	.st1{fill:#009540;}
	.st2{fill:#3C3C3B;}
</style>

<g class="currentLayer" style=""><title>Layer 1</title><g id="svg_1" class="">
	<path class="st0" d="M176.84622131347658,88.18596191406249 c4.4,-3.5 6.8,-9.99 3.92,-16.18 c-2.79,-6.01 -5.21,-12.18 -7.45,-18.41 c2.8600000000000003,-0.8600000000000001 5.47,-2.67 7.26,-5.11 c2.13,1.82 4.23,3.68 6.28,5.6 c8.91,8.36 26.12,0.25 21.64,-12.6 c-1.7200000000000002,-4.92 -3.58,-9.8 -5.45,-14.66 c-1.02,-7.63 -3.77,-14.09 -8.96,-20.66 c-6.06,-7.69 -17.57,-3.39 -21.19,4.25 c-5.04,-1.05 -10.41,0.92 -13.36,5.05 c-1.42,-0.5800000000000001 -2.89,-1.09 -4.49,-1.46 c-7.92,-1.81 -15.56,3.67 -16.26,11.26 c-6.97,-0.7200000000000001 -14.57,4.79 -14.35,12.66 c-5.52,-2.87 -12.35,-1 -16.2,3.22 c-4.55,-5.5600000000000005 -9.26,-11.02 -14.18,-16.32 c-8.29,-8.92 -26.14,0.31000000000000005 -21.32,12.41 c2.81,7.05 5.9,13.98 9.08,20.86 c-5.55,-6.35 -11.38,-12.46 -17.63,-18.21 c-8.4,-7.72 -25.36,-0.30000000000000004 -20.68,12.04 c9.37,24.69 22.07,47.81 34.05,71.26 c-5.14,-3.94 -10.42,-7.71 -15.91,-11.19 c-2.58,-1.6400000000000001 -5.38,-2.02 -8,-1.52 c-0.9400000000000001,-1.6300000000000001 -1.8800000000000001,-3.27 -2.8200000000000003,-4.9 c-6.59,-11.37 -25.94,-3.79 -21.55,9.09 c0.8800000000000001,2.58 1.7600000000000002,5.16 2.63,7.75 c-0.98,-0.97 -1.9500000000000002,-1.94 -2.95,-2.9 c-5.54,-5.28 -17.38,-2.03 -16.44,6.8100000000000005 c1.15,10.73 4.49,17.14 10.73,25.87 c2.29,3.2 6.57,3.8 9.76,2.51 c6.51,9 12.24,18.51 16.68,28.92 c4.22,9.89 15.89,5.63 19.23,-2.29 c4.74,6.87 9.7,13.59 14.96,20.11 c7.76,9.63 23.6,-0.7300000000000001 20.2,-11.76 c-1.9100000000000001,-6.19 -4.18,-12.18 -6.68,-18.05 c1.61,1.35 3.22,2.71 4.85,4.04 c8.44,6.88 25.31,0.78 20.49,-11.93 c-4.13,-10.89 -8.91,-21.48 -13.97,-31.94 c8.3,10.23 17,20.11 26.73,29.11 c9.57,8.85 21.64,0.1 20.48,-10.66 c5.26,7.48 10.65,14.84 16.3,21.97 c6.97,8.78 19.82,1.8800000000000001 21.32,-7.45 c9.34,1.8900000000000001 17.82,-8.620000000000001 13.37,-18.98 C198.36622131347656,125.74596191406249 188.21622131347658,106.6759619140625 176.84622131347658,88.18596191406249 z" id="svg_2"/>
	<path class="st1" d="M185.76622131347654,283.1759619140625 c3.91,-4.55 4.65,-12.45 0.28,-17.42 c-8.29,-9.43 -11.96,-22.22 -24.37,-26.99 c-5.47,-2.11 -9.93,1.53 -11.67,6.2 c-6.91,-5.17 -14.25,-9.89 -22.07,-14.07 c-13.36,-7.16 -24.49,12.05 -11.82,20.22 c5.05,3.26 9.96,6.640000000000001 14.85,10.01 c-9.63,-3.55 -19.36,-6.55 -29.38,-7.98 c-7.88,-1.13 -11.65,9.65 -4.3,12.42 c25.08,12.06 51.21,24.24 77.52,33.34 c8.47,2.93 16.1,-7.63 11.49,-14.95 C186.12622131347655,283.6759619140625 185.93622131347655,283.4359619140625 185.76622131347654,283.1759619140625 z" id="svg_3"/>
	<path class="st1" d="M242.78622131347657,180.50596191406248 c-20.29,20.61 -40.86,41.45 -56.81,65.72 c-6.55,9.97 6.16,21.59 15.9,15.9 c7.09,-4.15 14.11,-7.99 20.25,-13.52 c0.98,-0.8800000000000001 1.6800000000000002,-1.81 2.24,-2.7600000000000002 c11.23,-8 19.96,-17.86 26.93,-29.11 c2.8200000000000003,-1.19 5.2,-3.52 5.96,-6.43 c0.5,-1.9300000000000002 0.7000000000000001,-3.83 0.6400000000000001,-5.66 c1.94,-3.96 3.79,-7.99 5.48,-12.16 C268.1562213134765,180.6159619140625 250.88622131347654,172.26596191406247 242.78622131347657,180.50596191406248 z" id="svg_4"/>
	<g id="svg_5">
		<path class="st2" d="M133.49622131347655,88.8259619140625 c-3.89,-14.97 -21.12,-14.31 -29.14,-3.42 c-11.07,3.96 -20.83,15.08 -22.66,25.73 c-3.5700000000000003,20.73 24.47,26.51 38.23,17.29 C132.02622131347658,120.3059619140625 137.05622131347656,102.5559619140625 133.49622131347655,88.8259619140625 zM117.58622131347659,118.8059619140625 c-7.1,7.41 -27.53,8.2 -27.58,-5.35 c-0.030000000000000006,-8.8 7.36,-16.64 16,-20.41 c0.6900000000000002,0.06000000000000001 1.4100000000000001,-0.04000000000000001 2.12,-0.41000000000000003 c0.53,-0.28 1.07,-0.6000000000000001 1.61,-0.9400000000000001 c4.33,-1.24 8.74,-1.4300000000000002 12.53,-0.15000000000000002 c1.07,0.36000000000000004 1.87,-0.08000000000000002 2.3200000000000003,-0.79 c0.14,0.41000000000000003 0.29000000000000004,0.8 0.41000000000000003,1.28 C127.35622131347657,101.02596191406249 123.91622131347657,112.2059619140625 117.58622131347659,118.8059619140625 z" id="svg_6"/>
		<path class="st2" d="M258.0962213134766,375.5159619140625 c-2.24,-8.61 -1.62,-6.93 -6.12,-14.870000000000001 c-2.05,-3.63 -8.29,-1.17 -6.84,2.88 c0.07,0.14 0.11000000000000001,0.29000000000000004 0.18000000000000002,0.43000000000000005 c-23.97,-21.1 -41.85,-47.73 -56.34,-76.61 c0.28,-0.6000000000000001 0.3400000000000001,-1.29 -0.05000000000000001,-1.9500000000000002 c-0.7200000000000001,-1.22 -1.55,-2.58 -2.47,-4.01 c0.13,-0.46 0.25,-0.92 0.38000000000000006,-1.3800000000000001 c17.41,-5.8100000000000005 36.6,-22.43 48.59,-33.66 c14.12,-13.24 19.51,-30.32 10.33,-47.73 c-1.32,-2.5 -4.23,-2.71 -6.53,-1.71 c-30.89,13.44 -48.53,41.48 -58.8,72.16 c-0.010000000000000002,0.010000000000000002 -0.030000000000000006,0.010000000000000002 -0.04000000000000001,0.020000000000000004 c-14.61,-32.87 -25.77,-67.67 -37.01,-100.03 c24.25,7.2 51.35,3.7 66.92,-18.77 c17.5,-25.24 -4.17,-58.14 -30.75,-65.73 c21.58,-17.2 39.73,-43.22 23.45,-68.82 c-23.39,-36.77 -62.27,-1.11 -77.94,25.76 c-32.58,-50.82 -85.42,11.98 -71,47.37 c-27.15,-6.77 -52.98,2.11 -54.03,38.25 c-0.98,33.82 25.65,54.61 55.34,45.47 c-7.16,65.88 68.32,24.03 72.72,-9.64 c2.6900000000000004,1.3800000000000001 5.49,2.6 8.34,3.71 c-0.28,0.5900000000000001 -0.28,1.27 -0.030000000000000006,2 c-0.010000000000000002,0 -0.020000000000000004,0 -0.030000000000000006,0 c7.4,26.85 15.93,55.25 26.71,82.91 c-19.45,-20.52 -44.61,-37.23 -62.43,-18.12 c-27.22,29.21 58.65,62.29 74.48,69.04 c2.59,1.1 6.24,0.46 6.91,-2.81 c0.27,-1.32 0.5700000000000001,-2.6500000000000004 0.8600000000000001,-3.9699999999999998 c17.23,33.11 39.12,63.08 68.2,85.23 C254.61622131347656,383.5959619140625 259.05622131347656,379.1859619140625 258.0962213134766,375.5159619140625 zM127.60622131347657,154.8659619140625 c-1.61,-6.11 -6.3,-11.56 -15.3,-15.5 c-3.03,-1.33 -5.73,2.96 -2.66,4.55 c3.7800000000000002,1.94 6.4,4.3 8.15,6.890000000000001 c-2.27,0.26 -3.45,3.42 -1.11,5.13 c1.2,0.8800000000000001 2.48,1.6900000000000002 3.74,2.52 c2.02,28.32 -66.34,69.42 -54.83,8.18 c0.78,-4.12 -3.05,-7.14 -6.86,-5.27 c-27.91,13.66 -48.55,-5.78 -49.37,-34.27 c-1.1,-38.57 36.4,-35.3 61.23,-21.77 c0.010000000000000002,-0.020000000000000004 0.020000000000000004,-0.04000000000000001 0.030000000000000006,-0.06000000000000001 c0.38000000000000006,0.17 0.7000000000000001,0.38000000000000006 1.1,0.54 c4.99,2.04 8.22,-6.09 3.62,-8.59 c-1.51,-0.8300000000000001 -3.06,-1.56 -4.6,-2.29 c-30.51,-19.55 19.57,-103.07 50.39,-41.14 c2.05,4.12 7.25,2.25 8.67,-1.13 c4.6,-11.01 11.16,-20.06 19.37,-28.67 c18.6,-19.51 56.84,-14.99 50.22,19.01 c-3.73,19.15 -25.81,34.62 -40.83,44.87 c-4.78,3.26 -0.56,10.76 4.57,7.83 c2.64,-1.51 5.35,-3.19 8.06,-5.02 c12.46,8.43 25.45,11.8 33.08,26.17 c5.3100000000000005,9.99 2.84,21.57 -3.18,30.51 C184.43622131347655,172.13596191406248 151.34622131347658,165.1659619140625 127.60622131347657,154.8659619140625 zM237.51622131347654,207.96596191406252 c6.73,-3.7600000000000002 -3.08,24.97 -4.95,27.36 c-5.94,7.59 -14.27,13.37 -22.08,18.82 c-5.78,4.04 -12.42,8.56 -19.24,12.38 C200.1462213134766,242.5359619140625 214.19622131347654,220.9759619140625 237.51622131347654,207.96596191406252 zM174.09622131347658,291.9359619140625 c-23.52,-9.68 -53.41,-20.95 -67.12,-42.14 c-14.94,-23.09 24.24,-12.2 28.03,-10.13 c9.22,5.02 17.08,12.63 24.65,19.81 c4.05,3.85 7.9,7.9 11.65,12.04 c0.77,1.7400000000000002 1.59,3.46 2.37,5.18 c-0.18000000000000002,1.4300000000000002 0.56,2.84 1.75,3.8200000000000003 c0.32000000000000006,0.6800000000000002 0.6200000000000001,1.3800000000000001 0.9400000000000001,2.06 C175.53622131347657,285.6859619140625 174.78622131347657,288.8159619140625 174.09622131347658,291.9359619140625 z" id="svg_7"/>
	</g>
</g></g></svg>