<svg xmlns="http://www.w3.org/2000/svg" xmlns:xlink="http://www.w3.org/1999/xlink" version="1.1" style="enable-background:new 0 0 690 518;" xml:space="preserve" width="283" height="353"><rect id="backgroundrect" width="100%" height="100%" x="0" y="0" fill="none" stroke="none"/>
<style type="text/css">
	.st0{fill:#009540;}
	.st1{fill:#E20613;}
	.st2{fill:#3C3C3B;}
</style>













<g class="currentLayer" style=""><title>Layer 1</title><g id="svg_1" class="">
	<g id="svg_2">
		<path class="st0" d="M161.2084515380859,257.8734338378906 c-0.9600000000000001,-0.43000000000000005 -1.9,-0.8700000000000001 -2.75,-1.49 c0.7100000000000001,0.55 1.42,1.09 2.13,1.6400000000000001 c-0.41000000000000003,-0.33000000000000007 -0.7600000000000001,-0.6800000000000002 -1.08,-1.09 c0.55,0.7100000000000001 1.09,1.42 1.6400000000000001,2.13 c-0.12000000000000001,-0.17 -0.23,-0.35000000000000003 -0.32000000000000006,-0.54 c0.35000000000000003,0.8400000000000001 0.7100000000000001,1.6700000000000002 1.06,2.51 c-0.17,-0.4 -0.27,-0.79 -0.33000000000000007,-1.22 c0.13,0.93 0.25,1.86 0.38000000000000006,2.79 c-0.020000000000000004,-0.21000000000000002 -0.020000000000000004,-0.42000000000000004 0,-0.6200000000000001 c-0.13,0.93 -0.25,1.86 -0.38000000000000006,2.79 c0.05000000000000001,-0.32000000000000006 0.11000000000000001,-0.5800000000000001 0.22000000000000003,-0.8800000000000001 c-0.35000000000000003,0.8400000000000001 -0.7100000000000001,1.6700000000000002 -1.06,2.51 c0.08000000000000002,-0.18000000000000002 0.18000000000000002,-0.35000000000000003 0.31000000000000005,-0.51 c-0.55,0.7100000000000001 -1.09,1.42 -1.6400000000000001,2.13 c0.13,-0.16000000000000003 0.27,-0.30000000000000004 0.44000000000000006,-0.41000000000000003 c-0.7100000000000001,0.55 -1.42,1.09 -2.13,1.6400000000000001 c0.11000000000000001,-0.06000000000000001 0.22000000000000003,-0.13 0.33000000000000007,-0.19000000000000003 c-0.8400000000000001,0.35000000000000003 -1.6700000000000002,0.7100000000000001 -2.51,1.06 c1.81,-0.7400000000000001 4,-0.8400000000000001 5.93,-1.17 c2.22,-0.38000000000000006 4.43,-0.77 6.65,-1.15 c4.27,-0.7400000000000001 8.54,-1.48 12.81,-2.22 c8.620000000000001,-1.49 17.24,-2.98 25.86,-4.47 c4.83,-0.8400000000000001 9.65,-1.79 14.5,-2.46 c-0.93,0.13 -1.86,0.25 -2.79,0.38000000000000006 c2.3,-0.29000000000000004 4.58,-0.42000000000000004 6.88,-0.12000000000000001 c-0.93,-0.13 -1.86,-0.25 -2.79,-0.38000000000000006 c1.17,0.19000000000000003 2.29,0.48000000000000004 3.38,0.93 c-0.8400000000000001,-0.35000000000000003 -1.6700000000000002,-0.7100000000000001 -2.51,-1.06 c0.8800000000000001,0.39000000000000007 1.7000000000000002,0.8600000000000001 2.47,1.4300000000000002 c-0.7100000000000001,-0.55 -1.42,-1.09 -2.13,-1.6400000000000001 c0.7500000000000001,0.5800000000000001 1.4100000000000001,1.22 2,1.96 c-0.55,-0.7100000000000001 -1.09,-1.42 -1.6400000000000001,-2.13 c0.41000000000000003,0.56 0.7600000000000001,1.1400000000000001 1.05,1.78 c-0.35000000000000003,-0.8400000000000001 -0.7100000000000001,-1.6700000000000002 -1.06,-2.51 c0.26,0.6500000000000001 0.44000000000000006,1.3 0.55,2 c2.44,-4.3100000000000005 4.890000000000001,-8.61 7.33,-12.92 c-9.4,1.58 -18.68,3.85 -27.75,6.79 c-2.59,0.8400000000000001 -4.88,2.44 -6.28,4.83 c-1.32,2.25 -1.8800000000000001,5.57 -1.06,8.09 c0.8200000000000001,2.54 2.4,4.99 4.83,6.28 c2.44,1.29 5.39,1.9300000000000002 8.09,1.06 c9.07,-2.93 18.35,-5.2 27.75,-6.79 c2.34,-0.39000000000000007 5.19,-2.77 6.28,-4.83 c0.35000000000000003,-0.8400000000000001 0.7100000000000001,-1.6700000000000002 1.06,-2.51 c0.5,-1.86 0.5,-3.72 0,-5.58 c-0.77,-5.06 -4.42,-9.15 -8.42,-12.01 c-3.66,-2.62 -8.11,-3.63 -12.52,-3.93 c-4.24,-0.29000000000000004 -8.55,0.6200000000000001 -12.71,1.34 c-3.6900000000000004,0.6400000000000001 -7.39,1.28 -11.08,1.92 c-14.620000000000001,2.5300000000000002 -29.23,5.06 -43.85,7.59 c-1.99,0.3400000000000001 -4.12,0.53 -6.06,1.11 c-4.38,1.32 -7.77,4.73 -8.95,9.17 c-1.96,7.36 2.71,14.21 9.27,17.13 c2.67,1.18 5.16,1.87 8.09,1.06 c2.44,-0.6700000000000002 5.07,-2.55 6.28,-4.83 c1.29,-2.44 1.9300000000000002,-5.39 1.06,-8.09 C165.24845153808593,261.72343383789064 163.64845153808596,258.96343383789065 161.2084515380859,257.8734338378906 L161.2084515380859,257.8734338378906 z" id="svg_3"/>
	</g>
</g><g id="svg_4" class="">
	<g id="svg_5">
		<path class="st0" d="M76.12845153808593,251.7634338378906 c3.2,3.03 6.8100000000000005,5.62 10.71,7.67 c0.7200000000000001,0.38000000000000006 1.6300000000000001,0.18000000000000002 2.05,-0.54 c0.4,-0.6800000000000002 0.18000000000000002,-1.6700000000000002 -0.54,-2.05 c-3.71,-1.9500000000000002 -7.07,-4.34 -10.11,-7.2 c-0.5900000000000001,-0.56 -1.54,-0.5800000000000001 -2.12,0 C75.56845153808592,250.2034338378906 75.53845153808595,251.21343383789065 76.12845153808593,251.7634338378906 L76.12845153808593,251.7634338378906 z" id="svg_6"/>
	</g>
</g><g id="svg_7" class="">
	<g id="svg_8">
		<path class="st1" d="M45.67845153808594,225.24343383789062 c3.92,0 7.68,-3.45 7.5,-7.5 c-0.18000000000000002,-4.06 -3.3,-7.5 -7.5,-7.5 c-3.92,0 -7.68,3.45 -7.5,7.5 C38.358451538085944,221.8134338378906 41.47845153808595,225.24343383789062 45.67845153808594,225.24343383789062 L45.67845153808594,225.24343383789062 z" id="svg_9"/>
	</g>
</g><g id="svg_10" class="">
	<g id="svg_11">
		<path class="st1" d="M92.68845153808593,106.18343383789062 c0,-0.25 0.020000000000000004,-0.49000000000000005 0.06000000000000001,-0.7300000000000001 c-0.09000000000000002,0.6600000000000001 -0.18000000000000002,1.33 -0.27,1.99 c0.08000000000000002,-0.37000000000000005 0.18000000000000002,-0.7000000000000001 0.32000000000000006,-1.05 c-0.25,0.6000000000000001 -0.5,1.19 -0.7600000000000001,1.79 c0.16000000000000003,-0.3400000000000001 0.38000000000000006,-0.6300000000000001 0.55,-0.9600000000000001 c-0.78,0.9500000000000001 -0.97,1.22 -0.5700000000000001,0.8 c0.13,-0.14 0.26,-0.27 0.41000000000000003,-0.39000000000000007 c0.09000000000000002,0.2 -1.83,1.17 -0.19000000000000003,0.26 c0.38000000000000006,-0.21000000000000002 0.77,-0.38000000000000006 1.17,-0.55 c-0.6000000000000001,0.25 -1.19,0.5 -1.79,0.7600000000000001 c2.44,-0.9400000000000001 5.06,-1.5 7.59,-2.12 c2.67,-0.6600000000000001 5.34,-1.27 8.03,-1.83 c5.37,-1.13 10.78,-2.08 16.22,-2.84 c1.7200000000000002,-0.24000000000000002 3.6500000000000004,-2.02 4.48,-3.45 c0.9400000000000001,-1.61 1.34,-3.98 0.7600000000000001,-5.78 c-0.5900000000000001,-1.81 -1.71,-3.5700000000000003 -3.45,-4.48 c-1.9100000000000001,-1.01 -3.66,-1.06 -5.78,-0.7600000000000001 c-7.36,1.04 -14.66,2.41 -21.89,4.11 c-3.96,0.93 -8,1.8 -11.74,3.44 c-4.75,2.09 -7.99,6.57 -8.15,11.79 c-0.12000000000000001,3.93 3.54,7.68 7.5,7.5 C89.35845153808594,113.49343383789062 92.55845153808593,110.39343383789063 92.68845153808593,106.18343383789062 L92.68845153808593,106.18343383789062 z" id="svg_12"/>
	</g>
</g><g id="svg_13" class="">
	<g id="svg_14">
		<path class="st1" d="M205.03845153808595,130.94343383789064 c4.82,3.81 9.65,7.62 14.47,11.44 c2.05,1.62 4.12,3.24 5.95,5.12 c0.44000000000000006,0.45 0.8700000000000001,0.91 1.27,1.3900000000000001 c0.8200000000000001,0.97 0.11000000000000001,-0.13 -0.26,-0.37000000000000005 c0.18000000000000002,0.12000000000000001 0.36000000000000004,0.5 0.49000000000000005,0.6900000000000002 c0.8,1.19 1.45,2.46 2,3.77 c-0.25,-0.6000000000000001 -0.5,-1.19 -0.7600000000000001,-1.79 c1.31,3.23 2.2,6.74 2.75,10.17 c-0.09000000000000002,-0.6600000000000001 -0.18000000000000002,-1.33 -0.27,-1.99 c0.09000000000000002,0.7100000000000001 0.12000000000000001,1.3900000000000001 0.030000000000000006,2.1 c0.09000000000000002,-0.6600000000000001 0.18000000000000002,-1.33 0.27,-1.99 c-0.04000000000000001,0.22000000000000003 -0.09000000000000002,0.43000000000000005 -0.17,0.6400000000000001 c0.25,-0.6000000000000001 0.5,-1.19 0.7600000000000001,-1.79 c-0.08000000000000002,0.2 -0.17,0.4 -0.29000000000000004,0.5800000000000001 c2.2,-1.85 2.75,-2.45 1.6500000000000001,-1.8 c0.6000000000000001,-0.25 1.19,-0.5 1.79,-0.7600000000000001 c-0.35000000000000003,0.14 -0.6600000000000001,0.21000000000000002 -1.03,0.27 c0.6600000000000001,-0.09000000000000002 1.33,-0.18000000000000002 1.99,-0.27 c-0.38000000000000006,0.020000000000000004 -0.7400000000000001,0.010000000000000002 -1.12,-0.030000000000000006 c0.6600000000000001,0.09000000000000002 1.33,0.18000000000000002 1.99,0.27 c-2.63,-0.39000000000000007 -5.24,-1.4100000000000001 -7.79,-2.15 c-2.84,-0.8300000000000001 -5.68,-1.6600000000000001 -8.52,-2.5 c-2.7600000000000002,-0.81 -5.52,-1.62 -8.28,-2.43 c-2.62,-0.77 -5.33,-1.42 -7.86,-2.44 c0.6000000000000001,0.25 1.19,0.5 1.79,0.7600000000000001 c-0.56,-0.24000000000000002 -1.12,-0.51 -1.6400000000000001,-0.8300000000000001 c-0.23,-0.14 -1.03,-0.7300000000000001 -0.07,0 c1.01,0.77 0.07,-0.04000000000000001 -0.11000000000000001,-0.2 c-0.79,-0.7600000000000001 0.54,0.55 0.46,0.6400000000000001 c0.010000000000000002,-0.010000000000000002 -0.38000000000000006,-0.5800000000000001 -0.41000000000000003,-0.6300000000000001 c-0.33000000000000007,-0.55 -0.6000000000000001,-1.13 -0.8500000000000001,-1.71 c0.25,0.6000000000000001 0.5,1.19 0.7600000000000001,1.79 c-0.53,-1.33 -0.92,-2.7 -1.28,-4.08 c-0.99,-3.8 -5.41,-6.47 -9.23,-5.24 c-3.91,1.26 -6.3,5.16 -5.24,9.23 c1.02,3.91 2.44,7.8100000000000005 5.32,10.76 c3.05,3.12 7.24,4.35 11.3,5.54 c7.33,2.15 14.67,4.3 22,6.45 c4.57,1.34 9.42,3.03 13.9,0.36000000000000004 c3.09,-1.83 4.5600000000000005,-4.96 4.91,-8.41 c0.21000000000000002,-2 -0.25,-4.03 -0.6700000000000002,-5.98 c-0.8200000000000001,-3.77 -1.87,-7.35 -3.47,-10.870000000000001 c-1.55,-3.38 -4,-6.39 -6.72,-8.91 c-2.89,-2.67 -6.1,-5.01 -9.18,-7.45 c-3.35,-2.64 -6.69,-5.29 -10.04,-7.93 c-1.62,-1.28 -3.14,-2.2 -5.3,-2.2 c-1.84,0 -4.04,0.8200000000000001 -5.3,2.2 c-1.31,1.4300000000000002 -2.29,3.31 -2.2,5.3 C202.92845153808594,127.48343383789063 203.5184515380859,129.73343383789063 205.03845153808595,130.94343383789064 L205.03845153808595,130.94343383789064 z" id="svg_15"/>
	</g>
</g><g id="svg_16" class="">
	<g id="svg_17">
		<path class="st1" d="M185.4584515380859,95.18343383789062 c6.45,0.33000000000000007 12.93,0.6500000000000001 19.37,0.010000000000000002 c7,-0.6900000000000002 13.68,-2.79 20.63,-3.74 c-0.6600000000000001,0.09000000000000002 -1.33,0.18000000000000002 -1.99,0.27 c4.84,-0.6300000000000001 9.71,-0.8500000000000001 14.59,-0.9600000000000001 c4.41,-0.1 8.86,-0.29000000000000004 13.25,0.27 c-0.6600000000000001,-0.09000000000000002 -1.33,-0.18000000000000002 -1.99,-0.27 c2.05,0.29000000000000004 4.04,0.7500000000000001 5.96,1.52 c-0.6000000000000001,-0.25 -1.19,-0.5 -1.79,-0.7600000000000001 c0.7600000000000001,0.32000000000000006 1.49,0.6700000000000002 2.2,1.09 c0.29000000000000004,0.17 0.5800000000000001,0.36000000000000004 0.8700000000000001,0.55 c1.01,0.6800000000000002 -0.030000000000000006,-0.14 -0.41000000000000003,-0.36000000000000004 c0.6300000000000001,0.36000000000000004 1.22,1.05 1.7200000000000002,1.57 c0.23,0.23 0.44000000000000006,0.47000000000000003 0.6600000000000001,0.7200000000000001 c0.19000000000000003,0.21000000000000002 1.11,1.3800000000000001 0.28,0.30000000000000004 c-0.8,-1.03 -0.06000000000000001,-0.06000000000000001 0.11000000000000001,0.19000000000000003 c0.23,0.32000000000000006 0.44000000000000006,0.6500000000000001 0.6600000000000001,0.98 c0.39000000000000007,0.6100000000000001 0.7600000000000001,1.24 1.1,1.8800000000000001 c0.7300000000000001,1.33 1.36,2.71 1.96,4.11 c-0.25,-0.6000000000000001 -0.5,-1.19 -0.7600000000000001,-1.79 c0.26,0.6400000000000001 0.48000000000000004,1.26 0.5700000000000001,1.94 c-0.09000000000000002,-0.6600000000000001 -0.18000000000000002,-1.33 -0.27,-1.99 c0.020000000000000004,0.27 0.010000000000000002,0.53 -0.04000000000000001,0.8 c0.09000000000000002,-0.6600000000000001 0.18000000000000002,-1.33 0.27,-1.99 c-0.04000000000000001,0.2 -0.1,0.4 -0.19000000000000003,0.5800000000000001 c0.25,-0.6000000000000001 0.5,-1.19 0.7600000000000001,-1.79 c-0.37000000000000005,0.6400000000000001 -0.14,0.38000000000000006 0.6700000000000002,-0.79 c-0.38000000000000006,0.35000000000000003 -0.28,0.28 0.29000000000000004,-0.2 c1.12,-0.8900000000000001 0,-0.13 -0.35000000000000003,0.020000000000000004 c0.6000000000000001,-0.25 1.19,-0.5 1.79,-0.7600000000000001 c-0.8400000000000001,0.31000000000000005 -1.7000000000000002,0.5 -2.58,0.6200000000000001 c0.6600000000000001,-0.09000000000000002 1.33,-0.18000000000000002 1.99,-0.27 c-17.27,2.31 -34.65,3.85 -52.06,4.61 c-3.91,0.17 -7.69,3.33 -7.5,7.5 c0.18000000000000002,3.92 3.3,7.68 7.5,7.5 c9.69,-0.42000000000000004 19.37,-1.08 29.03,-1.99 c4.83,-0.45 9.65,-0.97 14.47,-1.54 c2.45,-0.29000000000000004 4.9,-0.6000000000000001 7.34,-0.92 c2.94,-0.39000000000000007 5.53,-0.6500000000000001 8.18,-2.08 c3.35,-1.8 5.55,-5.49 5.44,-9.3 c-0.09000000000000002,-3.05 -1.57,-5.93 -2.91,-8.61 c-1.9,-3.8 -4.48,-7.49 -7.83,-10.14 c-2.48,-1.96 -4.95,-3.34 -7.94,-4.43 c-2.45,-0.8900000000000001 -5.03,-1.24 -7.61,-1.55 c-4.25,-0.5 -8.57,-0.31000000000000005 -12.83,-0.21000000000000002 c-5.8,0.13 -11.55,0.5 -17.29,1.33 c-5.32,0.7600000000000001 -10.47,2.38 -15.79,3.12 c0.6600000000000001,-0.09000000000000002 1.33,-0.18000000000000002 1.99,-0.27 c-7.14,0.93 -14.34,0.6000000000000001 -21.51,0.23 c-3.92,-0.2 -7.68,3.59 -7.5,7.5 C178.14845153808596,91.92343383789063 181.25845153808592,94.97343383789064 185.4584515380859,95.18343383789062 L185.4584515380859,95.18343383789062 z" id="svg_18"/>
	</g>
</g><g id="svg_19" class="">
	<g id="svg_20">
		<path class="st1" d="M175.08845153808596,110.22343383789064 c7.4,-1.97 13.49,-7.78 16.69,-14.64 c3.67,-7.87 4.2,-16.38 4.79,-24.92 c0.32000000000000006,-4.65 0.79,-9.28 1.4100000000000001,-13.9 c-0.09000000000000002,0.6600000000000001 -0.18000000000000002,1.33 -0.27,1.99 c0.6700000000000002,-4.94 1.1400000000000001,-10.21 2.99,-14.88 c-0.25,0.6000000000000001 -0.5,1.19 -0.7600000000000001,1.79 c0.30000000000000004,-0.7200000000000001 0.6300000000000001,-1.42 1.03,-2.09 c0.16000000000000003,-0.26 0.33000000000000007,-0.51 0.5,-0.77 c0.7200000000000001,-1.13 -1.23,1.29 -0.25,0.36000000000000004 c0.22000000000000003,-0.21000000000000002 0.42000000000000004,-0.45 0.6400000000000001,-0.6600000000000001 c0.9600000000000001,-0.9 -0.25,0.33000000000000007 -0.54,0.35000000000000003 c0.16000000000000003,-0.010000000000000002 0.7600000000000001,-0.51 0.91,-0.6000000000000001 c0.31000000000000005,-0.18000000000000002 0.6400000000000001,-0.3400000000000001 0.97,-0.48000000000000004 c-0.6000000000000001,0.25 -1.19,0.5 -1.79,0.7600000000000001 c0.6800000000000002,-0.27 1.35,-0.46 2.08,-0.5700000000000001 c-0.6600000000000001,0.09000000000000002 -1.33,0.18000000000000002 -1.99,0.27 c0.5700000000000001,-0.06000000000000001 1.12,-0.06000000000000001 1.7000000000000002,-0.010000000000000002 c-0.6600000000000001,-0.09000000000000002 -1.33,-0.18000000000000002 -1.99,-0.27 c0.6500000000000001,0.09000000000000002 1.27,0.25 1.8900000000000001,0.48000000000000004 c-0.6000000000000001,-0.25 -1.19,-0.5 -1.79,-0.7600000000000001 c0.56,0.24000000000000002 1.05,0.56 1.58,0.8500000000000001 c0.7400000000000001,0.41000000000000003 -1.45,-1.26 -0.6000000000000001,-0.46 c0.25,0.23 0.49000000000000005,0.46 0.7200000000000001,0.7100000000000001 c0.22000000000000003,0.23 0.8900000000000001,1.09 0.07,0.030000000000000006 c-0.8300000000000001,-1.07 -0.16000000000000003,-0.19000000000000003 0.010000000000000002,0.08000000000000002 c0.37000000000000005,0.5900000000000001 0.6800000000000002,1.21 0.9600000000000001,1.85 c-0.25,-0.6000000000000001 -0.5,-1.19 -0.7600000000000001,-1.79 c0.39000000000000007,0.98 0.6600000000000001,1.97 0.81,3.01 c-0.09000000000000002,-0.6600000000000001 -0.18000000000000002,-1.33 -0.27,-1.99 c0.13,1.18 0.08000000000000002,2.34 -0.07,3.51 c0.09000000000000002,-0.6600000000000001 0.18000000000000002,-1.33 0.27,-1.99 c-0.25,1.56 -0.6900000000000002,3.05 -1.29,4.52 c0.25,-0.6000000000000001 0.5,-1.19 0.7600000000000001,-1.79 c-3.55,8.37 -10.94,14.58 -12.72,23.81 c4.82,0 9.64,0 14.46,0 c-0.020000000000000004,-0.13 -0.04000000000000001,-0.25 -0.06000000000000001,-0.38000000000000006 c0.09000000000000002,0.6600000000000001 0.18000000000000002,1.33 0.27,1.99 c-0.06000000000000001,-0.6300000000000001 -0.06000000000000001,-1.23 0,-1.86 c-0.09000000000000002,0.6600000000000001 -0.18000000000000002,1.33 -0.27,1.99 c0.13,-0.99 0.41000000000000003,-1.92 0.79,-2.84 c-0.25,0.6000000000000001 -0.5,1.19 -0.7600000000000001,1.79 c0.51,-1.12 1.13,-2.17 1.84,-3.18 c0.14,-0.2 0.4,-0.7000000000000001 0.5900000000000001,-0.81 c-0.14,0.08000000000000002 -1.09,1.37 -0.44000000000000006,0.56 c0.38000000000000006,-0.47000000000000003 0.7600000000000001,-0.9400000000000001 1.1400000000000001,-1.4 c2,-2.43 3.99,-4.88 5.67,-7.54 c3.11,-4.92 5.41,-10.49 6.72,-16.16 c0.7200000000000001,-3.13 -0.45,-6.890000000000001 -3.45,-8.47 c-3.02,-1.6 -6.57,-1.19 -9.09,1.17 c-3.38,3.17 -6.86,6.25 -10.43,9.21 c-1.73,1.4300000000000002 -3.48,2.84 -5.24,4.22 c-0.24000000000000002,0.18000000000000002 -0.47000000000000003,0.37000000000000005 -0.7100000000000001,0.55 c0.93,-0.7100000000000001 1.08,-0.8300000000000001 0.45,-0.35000000000000003 c-0.36000000000000004,0.27 -0.7100000000000001,0.54 -1.07,0.8200000000000001 c-0.9500000000000001,0.7200000000000001 -1.92,1.44 -2.88,2.14 c-7.37,5.39 -15.06,10.32 -23.02,14.8 c3.42,0.9 6.84,1.79 10.26,2.6900000000000004 c-0.35000000000000003,-0.51 -0.6500000000000001,-1.02 -0.9,-1.58 c0.25,0.6000000000000001 0.5,1.19 0.7600000000000001,1.79 c-0.31000000000000005,-0.77 -0.52,-1.54 -0.6500000000000001,-2.36 c0.09000000000000002,0.6600000000000001 0.18000000000000002,1.33 0.27,1.99 c-0.16000000000000003,-1.33 -0.11000000000000001,-2.6500000000000004 0.06000000000000001,-3.98 c-0.09000000000000002,0.6600000000000001 -0.18000000000000002,1.33 -0.27,1.99 c0.7200000000000001,-5.18 2.72,-10.31 2.23,-15.6 c-0.29000000000000004,-3.1 -1.02,-6 -2.01,-8.94 c-0.8800000000000001,-2.6 -1.73,-5.18 -2.1,-7.91 c0.09000000000000002,0.6600000000000001 0.18000000000000002,1.33 0.27,1.99 c-0.8600000000000001,-7.19 0.21000000000000002,-14.73 -3.48,-21.32 c-3.6100000000000003,-6.44 -11.23,-11.18 -18.73,-9.2 c-3.75,0.99 -7.07,3.75 -8.870000000000001,7.17 c-1.71,3.24 -2.2800000000000002,6.54 -2.72,10.13 c-0.7400000000000001,6.1 -1.21,12.33 -1.15,18.48 c0.04000000000000001,4.09 0.43000000000000005,8.17 1.1400000000000001,12.19 c0.7100000000000001,4 2.03,7.69 3.6100000000000003,11.43 c-0.25,-0.6000000000000001 -0.5,-1.19 -0.7600000000000001,-1.79 c0.5700000000000001,1.37 1.06,2.7600000000000002 1.3,4.22 c-0.09000000000000002,-0.6600000000000001 -0.18000000000000002,-1.33 -0.27,-1.99 c0.08000000000000002,0.6300000000000001 0.1,1.24 0.030000000000000006,1.8800000000000001 c0.09000000000000002,-0.6600000000000001 0.18000000000000002,-1.33 0.27,-1.99 c-0.07,0.39000000000000007 -0.17,0.7500000000000001 -0.32000000000000006,1.11 c0.25,-0.6000000000000001 0.5,-1.19 0.7600000000000001,-1.79 c-0.41000000000000003,0.8 -0.6900000000000002,0.52 0.51,-0.5700000000000001 c0.35000000000000003,-0.26 0.7000000000000001,-0.52 1.04,-0.78 c-0.21000000000000002,0.15000000000000002 -0.43000000000000005,0.27 -0.6600000000000001,0.36000000000000004 c0.6000000000000001,-0.25 1.19,-0.5 1.79,-0.7600000000000001 c-0.23,0.09000000000000002 -0.46,0.16000000000000003 -0.7000000000000001,0.2 c0.6600000000000001,-0.09000000000000002 1.33,-0.18000000000000002 1.99,-0.27 c-0.5,0.06000000000000001 -0.97,0.06000000000000001 -1.47,-0.010000000000000002 c0.6600000000000001,0.09000000000000002 1.33,0.18000000000000002 1.99,0.27 c-0.6600000000000001,-0.13 -1.27,-0.33000000000000007 -1.8900000000000001,-0.5900000000000001 c0.6000000000000001,0.25 1.19,0.5 1.79,0.7600000000000001 c-3.13,-1.4300000000000002 -5.97,-3.56 -9,-5.19 c-3.5700000000000003,-1.92 -7.25,-3.59 -10.98,-5.15 c-6.55,-2.73 -13.35,-4.82 -20.31,-6.21 c-3.7,-0.7400000000000001 -7.33,0.7500000000000001 -8.85,4.34 c-1.4100000000000001,3.34 -0.22000000000000003,7.55 3.07,9.37 c6.8100000000000005,3.75 14.93,4.78 22.42,2.58 c3.05,-0.8900000000000001 5.65,-3.93 5.51,-7.23 c-0.16000000000000003,-3.52 -2.27,-6.02 -5.51,-7.23 c-5.5,-2.06 -11.53,-3 -17.4,-2.84 c-3.92,0.11000000000000001 -7.68,3.37 -7.5,7.5 c0.18000000000000002,3.9699999999999998 3.3,7.62 7.5,7.5 c2.16,-0.06000000000000001 4.3100000000000005,0.04000000000000001 6.46,0.31000000000000005 c-0.6600000000000001,-0.09000000000000002 -1.33,-0.18000000000000002 -1.99,-0.27 c3.07,0.42000000000000004 6.05,1.17 8.95,2.26 c0,-4.82 0,-9.64 0,-14.46 c-1.08,0.32000000000000006 -2.16,0.55 -3.2800000000000002,0.7100000000000001 c0.6600000000000001,-0.09000000000000002 1.33,-0.18000000000000002 1.99,-0.27 c-1.96,0.24000000000000002 -3.9,0.23 -5.85,-0.020000000000000004 c0.6600000000000001,0.09000000000000002 1.33,0.18000000000000002 1.99,0.27 c-1.81,-0.27 -3.55,-0.7400000000000001 -5.25,-1.42 c0.6000000000000001,0.25 1.19,0.5 1.79,0.7600000000000001 c-0.77,-0.33000000000000007 -1.52,-0.6900000000000002 -2.26,-1.1 c-1.9300000000000002,4.57 -3.85,9.14 -5.78,13.71 c6.96,1.3900000000000001 13.76,3.47 20.31,6.21 c-0.6000000000000001,-0.25 -1.19,-0.5 -1.79,-0.7600000000000001 c3.4,1.44 6.73,3.04 9.97,4.82 c3.56,1.96 6.890000000000001,4.52 10.77,5.82 c6.02,2.02 12.76,-1.21 14.53,-7.39 c1.27,-4.42 -0.4,-8.74 -2.1,-12.76 c0.25,0.6000000000000001 0.5,1.19 0.7600000000000001,1.79 c-1.55,-3.6900000000000004 -2.52,-7.5600000000000005 -3.06,-11.52 c0.09000000000000002,0.6600000000000001 0.18000000000000002,1.33 0.27,1.99 c-1.15,-8.93 -0.49000000000000005,-18.29 0.7000000000000001,-27.18 c-0.09000000000000002,0.6600000000000001 -0.18000000000000002,1.33 -0.27,1.99 c0.23,-1.62 0.5700000000000001,-3.21 1.18,-4.73 c-0.25,0.6000000000000001 -0.5,1.19 -0.7600000000000001,1.79 c0.18000000000000002,-0.41000000000000003 0.36000000000000004,-0.81 0.5800000000000001,-1.2 c0.11000000000000001,-0.19000000000000003 0.22000000000000003,-0.38000000000000006 0.35000000000000003,-0.56 c0.43000000000000005,-0.6100000000000001 0.24000000000000002,-0.36000000000000004 -0.5800000000000001,0.7400000000000001 c0.14,-0.16000000000000003 0.29000000000000004,-0.32000000000000006 0.45,-0.47000000000000003 c0.56,-0.5 0.30000000000000004,-0.32000000000000006 -0.7600000000000001,0.54 c0.4,-0.19000000000000003 0.7600000000000001,-0.47000000000000003 1.17,-0.6700000000000002 c-0.6000000000000001,0.25 -1.19,0.5 -1.79,0.7600000000000001 c0.5,-0.21000000000000002 1,-0.35000000000000003 1.54,-0.45 c-0.6600000000000001,0.09000000000000002 -1.33,0.18000000000000002 -1.99,0.27 c0.6300000000000001,-0.08000000000000002 1.24,-0.08000000000000002 1.8800000000000001,-0.010000000000000002 c-0.6600000000000001,-0.09000000000000002 -1.33,-0.18000000000000002 -1.99,-0.27 c0.7500000000000001,0.12000000000000001 1.45,0.33000000000000007 2.16,0.6200000000000001 c-0.6000000000000001,-0.25 -1.19,-0.5 -1.79,-0.7600000000000001 c0.6200000000000001,0.28 1.19,0.6200000000000001 1.75,0.99 c1.11,0.7300000000000001 -1.4,-1.24 -0.43000000000000005,-0.32000000000000006 c0.26,0.24000000000000002 0.52,0.48000000000000004 0.7600000000000001,0.7300000000000001 c0.19000000000000003,0.2 0.6400000000000001,0.54 0.7000000000000001,0.8 c-0.25,-0.32000000000000006 -0.49000000000000005,-0.6400000000000001 -0.7400000000000001,-0.9600000000000001 c0.14,0.19000000000000003 0.27,0.39000000000000007 0.4,0.5800000000000001 c0.39000000000000007,0.5900000000000001 0.7100000000000001,1.21 1.01,1.85 c-0.25,-0.6000000000000001 -0.5,-1.19 -0.7600000000000001,-1.79 c0.6000000000000001,1.42 0.92,2.92 1.15,4.44 c-0.09000000000000002,-0.6600000000000001 -0.18000000000000002,-1.33 -0.27,-1.99 c0.6900000000000002,5.19 0.29000000000000004,10.41 1.28,15.59 c0.8400000000000001,4.38 2.95,8.4 3.55,12.83 c-0.09000000000000002,-0.6600000000000001 -0.18000000000000002,-1.33 -0.27,-1.99 c0.16000000000000003,1.48 0.13,2.93 -0.05000000000000001,4.41 c0.09000000000000002,-0.6600000000000001 0.18000000000000002,-1.33 0.27,-1.99 c-1.06,7.79 -4.63,16.08 0.39000000000000007,23.34 c2.33,3.37 6.5,4.8 10.26,2.6900000000000004 c16.59,-9.32 32.06,-20.72 45.94,-33.73 c-4.18,-2.43 -8.36,-4.86 -12.54,-7.3 c-0.6100000000000001,2.6500000000000004 -1.44,5.23 -2.49,7.73 c0.25,-0.6000000000000001 0.5,-1.19 0.7600000000000001,-1.79 c-1.01,2.36 -2.2,4.65 -3.58,6.8100000000000005 c-0.6900000000000002,1.07 -1.4,2.17 -2.21,3.16 c0.17,-0.21000000000000002 1.02,-1.28 0.38000000000000006,-0.51 c-0.21000000000000002,0.25 -0.41000000000000003,0.5 -0.6200000000000001,0.7600000000000001 c-0.38000000000000006,0.46 -0.7600000000000001,0.92 -1.1400000000000001,1.3800000000000001 c-1.7600000000000002,2.15 -3.64,4.36 -4.86,6.88 c-0.6900000000000002,1.44 -1.42,3.01 -1.7000000000000002,4.6 c-0.45,2.5300000000000002 -0.39000000000000007,4.25 -0.020000000000000004,6.77 c0.22000000000000003,1.54 1.53,3 2.6900000000000004,3.9 c1.27,0.98 2.9,1.6800000000000002 4.54,1.61 c3.12,-0.14 6.6,-2.2 7.23,-5.51 c0.27,-1.3800000000000001 0.6700000000000002,-2.7 1.2,-4 c-0.25,0.6000000000000001 -0.5,1.19 -0.7600000000000001,1.79 c2.6500000000000004,-6.23 7.63,-11.07 10.42,-17.22 c1.78,-3.93 3.18,-8.23 2.73,-12.61 c-0.46,-4.37 -2.09,-8.21 -4.98,-11.53 c-2.8,-3.21 -7.04,-5.16 -11.29,-5.25 c-4.35,-0.09000000000000002 -8.68,2.01 -11.67,5.11 c-5.640000000000001,5.87 -6.5,14.3 -7.55,21.98 c-0.6500000000000001,4.73 -1.21,9.46 -1.58,14.22 c-0.33000000000000007,4.16 -0.5,8.33 -1.03,12.46 c0.09000000000000002,-0.6600000000000001 0.18000000000000002,-1.33 0.27,-1.99 c-0.46,3.35 -1.17,6.67 -2.45,9.82 c0.25,-0.6000000000000001 0.5,-1.19 0.7600000000000001,-1.79 c-0.51,1.19 -1.08,2.35 -1.75,3.46 c-0.32000000000000006,0.53 -0.6600000000000001,1.04 -1.01,1.54 c-0.7600000000000001,1.07 0.14,-0.39000000000000007 0.4,-0.49000000000000005 c-0.17,0.07 -0.5800000000000001,0.7000000000000001 -0.7100000000000001,0.8400000000000001 c-0.4,0.45 -0.8300000000000001,0.8900000000000001 -1.27,1.31 c-0.22000000000000003,0.21000000000000002 -0.44000000000000006,0.41000000000000003 -0.6700000000000002,0.6000000000000001 c-0.97,0.8300000000000001 0.24000000000000002,-0.31000000000000005 0.53,-0.39000000000000007 c-0.51,0.13 -1.18,0.81 -1.6500000000000001,1.08 c-0.5700000000000001,0.33000000000000007 -1.1600000000000001,0.6100000000000001 -1.77,0.8700000000000001 c0.6000000000000001,-0.25 1.19,-0.5 1.79,-0.7600000000000001 c-0.6700000000000002,0.27 -1.36,0.5 -2.06,0.6900000000000002 c-3.79,1.01 -6.48,5.4 -5.24,9.23 C167.12845153808593,108.88343383789064 171.02845153808596,111.30343383789062 175.08845153808596,110.22343383789064 L175.08845153808596,110.22343383789064 z" id="svg_21"/>
	</g>
</g><g id="svg_22" class="">
	<g id="svg_23">
		<path class="st1" d="M150.64845153808596,133.98343383789063 c-0.13,5.2 1.36,10.2 3.07,15.05 c1.6,4.53 2.92,9.03 3.58,13.8 c-0.09000000000000002,-0.6600000000000001 -0.18000000000000002,-1.33 -0.27,-1.99 c0.48000000000000004,3.64 0.6700000000000002,7.3100000000000005 0.7200000000000001,10.99 c0.04000000000000001,3.55 0.17,7.23 -0.17,10.77 c0.09000000000000002,-0.6600000000000001 0.18000000000000002,-1.33 0.27,-1.99 c-0.030000000000000006,0.21000000000000002 -0.09000000000000002,0.42000000000000004 -0.18000000000000002,0.6100000000000001 c0.25,-0.6000000000000001 0.5,-1.19 0.7600000000000001,-1.79 c0.6700000000000002,-0.7000000000000001 1.34,-1.4 2.01,-2.1 c0.6000000000000001,-0.25 1.19,-0.5 1.79,-0.7600000000000001 c-0.1,0.020000000000000004 -0.2,0.04000000000000001 -0.30000000000000004,0.06000000000000001 c0.6600000000000001,-0.09000000000000002 1.33,-0.18000000000000002 1.99,-0.27 c-0.1,0 -0.21000000000000002,0 -0.31000000000000005,0 c0.6600000000000001,0.09000000000000002 1.33,0.18000000000000002 1.99,0.27 c-0.21000000000000002,-0.020000000000000004 -0.42000000000000004,-0.08000000000000002 -0.6100000000000001,-0.17 c0.6000000000000001,0.25 1.19,0.5 1.79,0.7600000000000001 c0.55,0.33000000000000007 1.01,0.7600000000000001 1.37,1.29 c0.41000000000000003,0.5900000000000001 0.48000000000000004,0.6400000000000001 0.21000000000000002,0.16000000000000003 c0.25,0.6000000000000001 0.5,1.19 0.7600000000000001,1.79 c-1.03,-2.56 -1.46,-5.49 -2.13,-8.17 c-0.9,-3.63 -4.65,-5.85 -8.23,-5.37 c-3.8600000000000003,0.52 -6.2,3.6 -6.5,7.37 c-0.37000000000000005,4.65 0.6700000000000002,9.18 2.49,13.42 c0.8800000000000001,2.06 2.03,4.16 3.63,5.76 c2.87,2.87 6.890000000000001,3.14 10.56,1.96 c4.42,-1.42 8.69,-3.29 11.6,-7.05 c3.35,-4.34 4.27,-10.41 1.35,-15.25 c-2.03,-3.36 -6.82,-4.91 -10.26,-2.6900000000000004 c-3.37,2.18 -4.86,6.67 -2.6900000000000004,10.26 c0.13,0.2 0.24000000000000002,0.4 0.3400000000000001,0.6100000000000001 c-0.25,-0.6000000000000001 -0.5,-1.19 -0.7600000000000001,-1.79 c0.18000000000000002,0.43000000000000005 0.30000000000000004,0.8500000000000001 0.38000000000000006,1.32 c-0.09000000000000002,-0.6600000000000001 -0.18000000000000002,-1.33 -0.27,-1.99 c0.05000000000000001,0.47000000000000003 0.05000000000000001,0.91 0.010000000000000002,1.3800000000000001 c0.09000000000000002,-0.6600000000000001 0.18000000000000002,-1.33 0.27,-1.99 c-0.1,0.7200000000000001 -0.29000000000000004,1.3800000000000001 -0.5700000000000001,2.05 c0.25,-0.6000000000000001 0.5,-1.19 0.7600000000000001,-1.79 c-0.19000000000000003,0.39000000000000007 -1.17,1.85 -0.35000000000000003,0.79 c0.9500000000000001,-1.22 -0.44000000000000006,0.5800000000000001 -0.7300000000000001,0.5800000000000001 c0.06000000000000001,0 1.49,-1.01 0.54,-0.46 c-0.23,0.13 -0.46,0.28 -0.6900000000000002,0.42000000000000004 c-0.5900000000000001,0.33000000000000007 -1.2,0.6100000000000001 -1.83,0.8800000000000001 c0.6000000000000001,-0.25 1.19,-0.5 1.79,-0.7600000000000001 c-1.4,0.56 -2.85,1.09 -4.32,1.44 c0.6600000000000001,-0.09000000000000002 1.33,-0.18000000000000002 1.99,-0.27 c-0.28,0.06000000000000001 -0.56,0.07 -0.8500000000000001,0.04000000000000001 c0.6600000000000001,0.09000000000000002 1.33,0.18000000000000002 1.99,0.27 c-0.14,-0.04000000000000001 -0.27,-0.07 -0.41000000000000003,-0.11000000000000001 c0.6000000000000001,0.25 1.19,0.5 1.79,0.7600000000000001 c0.7000000000000001,0.37000000000000005 1.13,0.7600000000000001 1.45,1.47 c-0.16000000000000003,-0.37000000000000005 -0.47000000000000003,-0.7500000000000001 -0.6700000000000002,-1.1 c-0.42000000000000004,-0.7500000000000001 -0.79,-1.52 -1.12,-2.31 c0.25,0.6000000000000001 0.5,1.19 0.7600000000000001,1.79 c-0.6400000000000001,-1.6 -1.08,-3.24 -1.35,-4.94 c0.09000000000000002,0.6600000000000001 0.18000000000000002,1.33 0.27,1.99 c-0.21000000000000002,-1.57 -0.25,-3.12 -0.12000000000000001,-4.69 c-4.91,0.6600000000000001 -9.82,1.33 -14.73,1.99 c0.56,2.26 1.11,4.53 1.6900000000000002,6.79 c0.97,3.74 3.27,6.82 7.09,7.98 c4.75,1.44 9.89,-1.6900000000000002 11,-6.44 c0.5800000000000001,-2.49 0.38000000000000006,-5.28 0.42000000000000004,-7.82 c0.13,-9.19 -0.27,-18.62 -3.08,-27.44 c-1.46,-4.57 -3.41,-9 -4.09,-13.79 c0.09000000000000002,0.6600000000000001 0.18000000000000002,1.33 0.27,1.99 c-0.15000000000000002,-1.18 -0.21000000000000002,-2.36 -0.18000000000000002,-3.55 c0.1,-3.92 -3.52,-7.68 -7.5,-7.5 C153.99845153808593,126.67343383789063 150.75845153808592,129.7834338378906 150.64845153808596,133.98343383789063 L150.64845153808596,133.98343383789063 z" id="svg_24"/>
	</g>
</g><g id="svg_25" class="">
	<g id="svg_26">
		<path class="st1" d="M131.72845153808595,117.03343383789061 c0.19000000000000003,2.9 0.3400000000000001,5.8 -0.020000000000000004,8.69 c0.09000000000000002,-0.6600000000000001 0.18000000000000002,-1.33 0.27,-1.99 c-0.23,1.56 -0.6000000000000001,3.06 -1.21,4.52 c0.25,-0.6000000000000001 0.5,-1.19 0.7600000000000001,-1.79 c-0.29000000000000004,0.6300000000000001 -0.6100000000000001,1.25 -0.97,1.84 c-0.18000000000000002,0.29000000000000004 -0.38000000000000006,0.56 -0.5700000000000001,0.8400000000000001 c-0.54,0.8300000000000001 1.26,-1.49 0.30000000000000004,-0.39000000000000007 c-0.9500000000000001,1.08 -1.9300000000000002,2.12 -2.95,3.14 c-2.38,2.36 -4.54,4.8100000000000005 -6.53,7.53 c-3.58,4.890000000000001 -6.03,10.52 -8.18,16.16 c-1.02,2.68 -1.94,5.4 -2.83,8.13 c-0.7300000000000001,2.23 -1.36,4.41 -0.7600000000000001,6.78 c0.97,3.85 4.49,6.41 8.4,6.52 c3.34,0.1 7,-1.3900000000000001 9.75,-3.22 c2.9,-1.94 5.58,-4.47 7.29,-7.55 c2.2800000000000002,-4.12 1.1400000000000001,-9.44 -3.02,-11.88 c-2.6,-1.52 -5.63,-1.61 -8.52,-1.07 c-3.18,0.6100000000000001 -5.84,2.6100000000000003 -8.76,3.9 c0.6000000000000001,-0.25 1.19,-0.5 1.79,-0.7600000000000001 c-0.7600000000000001,0.31000000000000005 -1.51,0.55 -2.3200000000000003,0.6800000000000002 c0.6600000000000001,-0.09000000000000002 1.33,-0.18000000000000002 1.99,-0.27 c-0.33000000000000007,0.04000000000000001 -0.6200000000000001,0.05000000000000001 -0.9500000000000001,0.030000000000000006 c0.6600000000000001,0.09000000000000002 1.33,0.18000000000000002 1.99,0.27 c-0.09000000000000002,-0.030000000000000006 -0.19000000000000003,-0.05000000000000001 -0.28,-0.08000000000000002 c0.6000000000000001,0.25 1.19,0.5 1.79,0.7600000000000001 c0.7100000000000001,0.6900000000000002 1.42,1.3800000000000001 2.12,2.07 c0.25,0.6000000000000001 0.5,1.19 0.7600000000000001,1.79 c-0.14,-0.46 -0.2,-0.92 -0.26,-1.4 c0.09000000000000002,0.6600000000000001 0.18000000000000002,1.33 0.27,1.99 c-0.19000000000000003,-1.6700000000000002 -0.17,-3.33 0.05000000000000001,-4.99 c-0.09000000000000002,0.6600000000000001 -0.18000000000000002,1.33 -0.27,1.99 c0.25,-1.6600000000000001 0.7000000000000001,-3.26 1.34,-4.8100000000000005 c-0.25,0.6000000000000001 -0.5,1.19 -0.7600000000000001,1.79 c0.54,-1.24 1.19,-2.41 1.98,-3.52 c0.6800000000000002,-0.9600000000000001 0.05000000000000001,-0.21000000000000002 -0.25,0.29000000000000004 c0.18000000000000002,-0.30000000000000004 0.48000000000000004,-0.5800000000000001 0.7100000000000001,-0.8400000000000001 c0.43000000000000005,-0.5 0.8800000000000001,-0.98 1.34,-1.45 c2.11,-2.18 4.39,-4.2 6.6,-6.27 c4.640000000000001,-4.33 9.27,-8.66 13.91,-12.99 c2.87,-2.68 2.92,-7.93 0,-10.61 c-3.08,-2.83 -7.54,-2.8600000000000003 -10.61,0 c-3.43,3.2 -6.86,6.41 -10.29,9.61 c-3.31,3.09 -6.72,6.1 -9.91,9.33 c-3.64,3.68 -6.62,7.98 -8.01,13.02 c-0.6600000000000001,2.36 -1,4.9 -0.97,7.36 c0.05000000000000001,3.64 0.6200000000000001,7.48 3.68,9.84 c3.39,2.62 7.5600000000000005,2.03 11.24,0.48000000000000004 c2.05,-0.8600000000000001 3.91,-2.06 5.95,-2.95 c-0.6000000000000001,0.25 -1.19,0.5 -1.79,0.7600000000000001 c0.7300000000000001,-0.30000000000000004 1.46,-0.51 2.24,-0.6200000000000001 c-0.6600000000000001,0.09000000000000002 -1.33,0.18000000000000002 -1.99,0.27 c0.45,-0.04000000000000001 0.8800000000000001,-0.030000000000000006 1.32,0.010000000000000002 c-0.6600000000000001,-0.09000000000000002 -1.33,-0.18000000000000002 -1.99,-0.27 c0.35000000000000003,0.06000000000000001 0.6300000000000001,0.13 0.9500000000000001,0.26 c-0.6000000000000001,-0.25 -1.19,-0.5 -1.79,-0.7600000000000001 c-0.6900000000000002,-0.6800000000000002 -1.37,-1.36 -2.06,-2.04 c-0.3400000000000001,-1.26 -0.6800000000000002,-2.52 -1.02,-3.79 c0.020000000000000004,0.12000000000000001 0.030000000000000006,0.23 0.05000000000000001,0.35000000000000003 c0.09000000000000002,-0.6600000000000001 0.18000000000000002,-1.33 0.27,-1.99 c-0.020000000000000004,0.25 -0.09000000000000002,0.48000000000000004 -0.21000000000000002,0.7000000000000001 c0.25,-0.6000000000000001 0.5,-1.19 0.7600000000000001,-1.79 c-0.19000000000000003,0.33000000000000007 -0.4,0.6300000000000001 -0.6000000000000001,0.9500000000000001 c-0.7400000000000001,1.19 1.2,-1.36 0.25,-0.33000000000000007 c-0.51,0.56 -1.03,1.08 -1.59,1.59 c-0.9600000000000001,0.8700000000000001 1.5,-1 0.33000000000000007,-0.25 c-0.32000000000000006,0.2 -0.6200000000000001,0.42000000000000004 -0.9400000000000001,0.6100000000000001 c-0.6500000000000001,0.39000000000000007 -1.32,0.7100000000000001 -2.01,1.01 c0.6000000000000001,-0.25 1.19,-0.5 1.79,-0.7600000000000001 c-0.79,0.31000000000000005 -1.59,0.5800000000000001 -2.42,0.7500000000000001 c0.6600000000000001,-0.09000000000000002 1.33,-0.18000000000000002 1.99,-0.27 c-0.31000000000000005,0.04000000000000001 -0.5800000000000001,0.05000000000000001 -0.9,0.04000000000000001 c0.6600000000000001,0.09000000000000002 1.33,0.18000000000000002 1.99,0.27 c-0.19000000000000003,-0.020000000000000004 -0.37000000000000005,-0.07 -0.54,-0.14 c0.6000000000000001,0.25 1.19,0.5 1.79,0.7600000000000001 c0.7100000000000001,0.7100000000000001 1.4300000000000002,1.4300000000000002 2.14,2.14 c0.25,0.6000000000000001 0.5,1.19 0.7600000000000001,1.79 c-0.030000000000000006,-0.11000000000000001 -0.05000000000000001,-0.22000000000000003 -0.08000000000000002,-0.32000000000000006 c0.09000000000000002,0.6600000000000001 0.18000000000000002,1.33 0.27,1.99 c0,-0.11000000000000001 0.010000000000000002,-0.22000000000000003 0.010000000000000002,-0.3400000000000001 c-0.09000000000000002,0.6600000000000001 -0.18000000000000002,1.33 -0.27,1.99 c0.48000000000000004,-2.31 1.45,-4.61 2.22,-6.83 c0.8,-2.31 1.6600000000000001,-4.61 2.6100000000000003,-6.87 c-0.25,0.6000000000000001 -0.5,1.19 -0.7600000000000001,1.79 c1.4100000000000001,-3.31 3.01,-6.55 5,-9.56 c0.53,-0.8 1.1400000000000001,-1.56 1.6700000000000002,-2.36 c-1.19,1.81 -0.49000000000000005,0.6400000000000001 -0.14,0.22000000000000003 c0.27,-0.32000000000000006 0.54,-0.6300000000000001 0.81,-0.9400000000000001 c1.23,-1.3900000000000001 2.59,-2.66 3.89,-3.98 c3.26,-3.3 5.98,-7.05 7.18,-11.59 c1.12,-4.25 1.02,-8.65 0.7400000000000001,-12.99 c-0.25,-3.91 -3.27,-7.69 -7.5,-7.5 C135.38845153808592,109.71343383789062 131.4584515380859,112.84343383789061 131.72845153808595,117.03343383789061 L131.72845153808595,117.03343383789061 z" id="svg_27"/>
	</g>
</g><g id="svg_28" class="">
	<g id="svg_29">
		<path class="st1" d="M95.28845153808595,112.90343383789062 c3.25,-0.6900000000000002 6.49,-1.3900000000000001 9.74,-2.08 c0.98,-0.23 1.83,-0.6800000000000002 2.55,-1.34 c0.8200000000000001,-0.53 1.46,-1.23 1.9300000000000002,-2.1 c0.55,-0.8600000000000001 0.8400000000000001,-1.79 0.8900000000000001,-2.79 c0.22000000000000003,-1 0.18000000000000002,-1.99 -0.13,-2.99 c-0.5900000000000001,-1.81 -1.71,-3.5700000000000003 -3.45,-4.48 c-0.6000000000000001,-0.25 -1.19,-0.5 -1.79,-0.7600000000000001 c-1.33,-0.36000000000000004 -2.66,-0.36000000000000004 -3.99,0 c-3.25,0.6900000000000002 -6.49,1.3900000000000001 -9.74,2.08 c-0.98,0.23 -1.83,0.6800000000000002 -2.55,1.34 c-0.8200000000000001,0.53 -1.46,1.23 -1.9300000000000002,2.1 c-0.55,0.8600000000000001 -0.8400000000000001,1.79 -0.8900000000000001,2.79 c-0.22000000000000003,1 -0.18000000000000002,1.99 0.13,2.99 c0.5900000000000001,1.81 1.71,3.5700000000000003 3.45,4.48 c0.6000000000000001,0.25 1.19,0.5 1.79,0.7600000000000001 C92.62845153808593,113.25343383789061 93.95845153808591,113.25343383789061 95.28845153808595,112.90343383789062 L95.28845153808595,112.90343383789062 z" id="svg_30"/>
	</g>
</g><g id="svg_31" class="">
	<g id="svg_32">
		<path class="st1" d="M137.40845153808596,81.15343383789062 c-0.33000000000000007,0.47000000000000003 -0.6800000000000002,0.9400000000000001 -1.02,1.4100000000000001 c-0.54,0.7400000000000001 1.04,-1.3 0.46,-0.6000000000000001 c-0.16000000000000003,0.2 -0.32000000000000006,0.4 -0.49000000000000005,0.6000000000000001 c-0.7400000000000001,0.9 -1.51,1.77 -2.3,2.6100000000000003 c-1.56,1.6400000000000001 -3.23,3.14 -4.98,4.57 c-0.8400000000000001,0.6900000000000002 0.6000000000000001,-0.4 0.6000000000000001,-0.46 c0,0.09000000000000002 -0.54,0.4 -0.6200000000000001,0.46 c-0.47000000000000003,0.3400000000000001 -0.9400000000000001,0.6800000000000002 -1.42,1.01 c-0.9,0.6200000000000001 -1.83,1.21 -2.77,1.77 c-2,1.19 -4.07,2.23 -6.21,3.13 c0.6000000000000001,-0.25 1.19,-0.5 1.79,-0.7600000000000001 c-3.58,1.49 -7.3,2.56 -11.13,3.19 c2.8200000000000003,3.67 5.65,7.34 8.47,11.02 c-1.5,2.01 0.12000000000000001,-0.08000000000000002 0.5900000000000001,-0.55 c0.27,-0.28 0.55,-0.54 0.8400000000000001,-0.8 c0.2,-0.18000000000000002 1.56,-1.27 0.44000000000000006,-0.4 c-1.08,0.8400000000000001 0.11000000000000001,-0.04000000000000001 0.35000000000000003,-0.2 c0.32000000000000006,-0.21000000000000002 0.6600000000000001,-0.42000000000000004 0.99,-0.6100000000000001 c0.7300000000000001,-0.42000000000000004 1.49,-0.78 2.26,-1.12 c-0.6000000000000001,0.25 -1.19,0.5 -1.79,0.7600000000000001 c1.57,-0.6300000000000001 3.18,-1.07 4.86,-1.3 c-0.6600000000000001,0.09000000000000002 -1.33,0.18000000000000002 -1.99,0.27 c0.26,-0.030000000000000006 0.51,-0.06000000000000001 0.77,-0.08000000000000002 c-0.6600000000000001,-4.91 -1.33,-9.82 -1.99,-14.73 c-15.55,2.5700000000000003 -30.59,7.43 -44.85,14.13 c-3.96,1.86 -7.84,3.88 -11.63,6.05 c-3.52,2.01 -4.72,6.79 -2.6900000000000004,10.26 c4.72,8.08 14.31,9.65 22.89,9.65 c9.16,0 18.41,-1.18 27.29,-3.44 c4.76,-1.21 9.43,-2.77 13.97,-4.65 c1.8900000000000001,-0.78 3.41,-1.61 4.48,-3.45 c0.9400000000000001,-1.61 1.34,-3.98 0.7600000000000001,-5.78 c-0.5900000000000001,-1.81 -1.71,-3.5700000000000003 -3.45,-4.48 c-1.6600000000000001,-0.8800000000000001 -3.96,-1.51 -5.78,-0.7600000000000001 c-8.24,3.4 -16.88,5.72 -25.72,6.92 c0.6600000000000001,-0.09000000000000002 1.33,-0.18000000000000002 1.99,-0.27 c-6.46,0.8500000000000001 -13.28,1.42 -19.77,0.5700000000000001 c0.6600000000000001,0.09000000000000002 1.33,0.18000000000000002 1.99,0.27 c-1.7200000000000002,-0.25 -3.39,-0.6300000000000001 -5,-1.28 c0.6000000000000001,0.25 1.19,0.5 1.79,0.7600000000000001 c-0.46,-0.2 -0.91,-0.4 -1.35,-0.6400000000000001 c-0.33000000000000007,-0.18000000000000002 -1.9,-1.29 -0.7300000000000001,-0.4 c1.1400000000000001,0.8700000000000001 -0.15000000000000002,-0.25 -0.43000000000000005,-0.51 c-0.7500000000000001,-0.7200000000000001 0.6400000000000001,0.7400000000000001 0.56,0.7500000000000001 c-0.07,0.010000000000000002 -0.51,-0.79 -0.54,-0.8500000000000001 c-0.9,3.42 -1.79,6.84 -2.6900000000000004,10.26 c5.63,-3.21 11.45,-6.09 17.42,-8.63 c-0.6000000000000001,0.25 -1.19,0.5 -1.79,0.7600000000000001 c11.96,-5.04 24.47,-8.67 37.27,-10.79 c1.6700000000000002,-0.28 3.71,-1.99 4.48,-3.45 c0.8,-1.51 1.12,-3.08 0.8900000000000001,-4.78 c-0.46,-3.4 -3.64,-6.85 -7.37,-6.5 c-4.1,0.39000000000000007 -7.9,1.3900000000000001 -11.51,3.42 c-3.5700000000000003,2 -6.34,4.8 -8.76,8.05 c-0.7000000000000001,0.9500000000000001 -1.02,2.64 -1.02,3.79 c0,1.6700000000000002 0.6000000000000001,3.24 1.61,4.54 c1.97,2.55 4.8100000000000005,3.19 7.88,2.6900000000000004 c15.01,-2.46 28.35,-11.5 37.05,-23.83 c1.07,-1.51 1.23,-4.06 0.7600000000000001,-5.78 c-0.48000000000000004,-1.7400000000000002 -1.82,-3.62 -3.45,-4.48 C143.81845153808592,76.43343383789062 139.82845153808591,77.72343383789064 137.40845153808596,81.15343383789062 L137.40845153808596,81.15343383789062 z" id="svg_33"/>
	</g>
</g><g id="svg_34" class="">
	<g id="svg_35">
		<path class="st1" d="M138.21845153808596,86.52343383789062 c-4.54,5.46 -10.59,9.53 -17.38,11.61 c-3.33,1.02 -6.62,1.31 -10.06,1.6400000000000001 c-2.9699999999999998,0.28 -5.85,1.07 -7.1,4.03 c-0.32000000000000006,0.7600000000000001 0.35000000000000003,1.6400000000000001 1.05,1.85 c10.21,3.01 21,3.49 31.45,1.49 c1.8900000000000001,-0.36000000000000004 1.09,-3.25 -0.8,-2.89 c-9.92,1.9 -20.18,1.36 -29.86,-1.49 c0.35000000000000003,0.6200000000000001 0.7000000000000001,1.23 1.05,1.85 c0.97,-2.3 5.41,-1.86 7.37,-2.05 c3.39,-0.33000000000000007 6.74,-1.08 9.92,-2.2800000000000002 c6.38,-2.4 12.11,-6.37 16.48,-11.63 C141.56845153808592,87.17343383789063 139.4584515380859,85.03343383789061 138.21845153808596,86.52343383789062 L138.21845153808596,86.52343383789062 z" id="svg_36"/>
	</g>
</g><g id="svg_37" class="">
	<g id="svg_38">
		<path class="st1" d="M268.55845153808593,84.59343383789061 c0,0 0,0.010000000000000002 0.010000000000000002,0.010000000000000002 C268.55845153808593,84.59343383789061 268.5684515380859,84.60343383789063 268.55845153808593,84.59343383789061 z" id="svg_39"/>
		<path class="st1" d="M268.5684515380859,84.60343383789063 c0.04000000000000001,0.05000000000000001 -0.11000000000000001,-0.1 -0.54,-0.6200000000000001 c0.26,0.29000000000000004 0.47000000000000003,0.52 0.54,0.6100000000000001 c-0.32000000000000006,-0.47000000000000003 -0.6800000000000002,-0.9 -1.09,-1.28 c-0.11000000000000001,-0.14 -0.18000000000000002,-0.21000000000000002 -0.31000000000000005,-0.38000000000000006 c-2.06,-2.55 -4.6,-3.15 -6.9,-2.54 c-3.09,-0.6900000000000002 -9.1,-1.71 -8.93,-1.6800000000000002 c-3.55,-0.6300000000000001 -6.66,0.3400000000000001 -8.93,2.17 c-6.73,-5.7 -17.48,-0.30000000000000004 -16.94,8.19 c-0.5800000000000001,-0.43000000000000005 -1.17,-0.8400000000000001 -1.7200000000000002,-1.3 c-6.63,-5.5 -16.26,-1.47 -17.59,5.49 c-2.81,-2.8200000000000003 -5.6,-5.640000000000001 -8.4,-8.43 c-1.44,-1.44 -3.06,-2.27 -4.71,-2.64 c0.010000000000000002,-4.7 -0.06000000000000001,-9.37 -0.33000000000000007,-14.02 c4.1,0.6400000000000001 8.2,-1.4300000000000002 9.75,-6.13 c0.41000000000000003,-1.25 0.8300000000000001,-2.51 1.24,-3.77 c0.24000000000000002,0.08000000000000002 0.47000000000000003,0.17 0.77,0.23 c5.83,1.28 10.7,-2.6 11.11,-8.46 c1.86,-3.5700000000000003 2.18,-5.69 0.99,-6.37 c2.7,-1.59 4.63,-4.76 3.96,-8.5 c-0.06000000000000001,-0.3400000000000001 -0.12000000000000001,-0.6800000000000002 -0.18000000000000002,-1.02 c-0.47000000000000003,-2.68 -3,-4.62 -5.41,-5.41 c-8.71,-2.8600000000000003 -13.16,4.44 -15.29,12 c-4.12,0.45 -6.93,2.33 -9.17,5.49 c-1.06,-0.79 -2.12,-1.59 -3.14,-2.44 c-6.49,-5.34 -17.32,-0.54 -14.77,8.6 c1.62,5.79 2.34,11.58 2.68,17.42 c-1.86,-0.26 -3.83,-0.14 -6.12,0.78 c-0.13,0.05000000000000001 -0.25,0.12000000000000001 -0.37000000000000005,0.18000000000000002 c0.05000000000000001,-0.1 0.12000000000000001,-0.19000000000000003 0.17,-0.30000000000000004 c3.6500000000000004,-2.36 6.08,-7.05 3.8,-12.09 c-3.72,-8.21 -6.02,-16.85 -8.55,-25.43 c0.98,-0.1 1.9300000000000002,-0.26 2.85,-0.47000000000000003 c3.63,-0.030000000000000006 6.11,-2.8 6.85,-6.1 c0.020000000000000004,-0.08000000000000002 0.030000000000000006,-0.17 0.05000000000000001,-0.25 c0.07,-0.36000000000000004 0.13,-0.7300000000000001 0.16000000000000003,-1.1 c0.020000000000000004,-0.24000000000000002 0.020000000000000004,-0.47000000000000003 0.020000000000000004,-0.7100000000000001 c0,-0.24000000000000002 0,-0.47000000000000003 -0.020000000000000004,-0.7100000000000001 c-0.030000000000000006,-0.37000000000000005 -0.09000000000000002,-0.7400000000000001 -0.16000000000000003,-1.1 c-0.020000000000000004,-0.08000000000000002 -0.030000000000000006,-0.17 -0.05000000000000001,-0.25 c-0.7300000000000001,-3.3 -3.22,-6.08 -6.85,-6.1 c-4.67,-1.09 -10.22,-0.49000000000000005 -14.88,-0.6700000000000002 c-2.93,-0.11000000000000001 -5.45,1.3900000000000001 -7.04,3.59 c-5.34,0.6200000000000001 -10.02,6.32 -6.88,12.84 c4.55,9.42 8.11,19.26 12.1,28.93 c-0.15000000000000002,0.6400000000000001 -0.25,1.32 -0.26,2.06 c-0.020000000000000004,1.7400000000000002 -0.05000000000000001,3.48 -0.07,5.22 c-3.7600000000000002,-2.84 -7.23,-5.9 -9.63,-9.61 c-3.95,-6.11 -13.17,-5.06 -15.6,1.07 c-0.23,-0.32000000000000006 -0.48000000000000004,-0.6100000000000001 -0.6900000000000002,-0.9500000000000001 c-3.3200000000000003,-5.11 -11.86,-5.04 -14.78,-0.32000000000000006 c-1.1600000000000001,-1.24 -2.3,-2.5 -3.4,-3.83 c-5.34,-6.47 -16.03,1.97 -11.53,8.9 c6.28,9.66 14.92,16.6 23.03,24.62 c4.67,4.62 10.66,2.21 12.9,-2.35 c0.47000000000000003,0.26 0.93,0.54 1.4,0.8 c3.9699999999999998,2.16 8.71,0.6200000000000001 11.31,-2.45 c2.5300000000000002,1.8900000000000001 5.02,3.8200000000000003 7.39,5.85 c-4.19,-0.43000000000000005 -8.85,2.08 -9.88,6.75 c-1.15,-0.7600000000000001 -2.27,-1.56 -3.48,-2.26 c-4.99,-2.9 -13.12,0.7000000000000001 -12.45,7.15 c0.020000000000000004,0.17 0.04000000000000001,0.36000000000000004 0.06000000000000001,0.54 c-3.9699999999999998,-3.05 -8.04,-6.01 -11.85,-9.42 c-5.3100000000000005,-4.75 -13.28,-1.45 -13.67,5.66 c-0.25,4.6 -0.8400000000000001,9.15 -1.4300000000000002,13.7 c-3.7600000000000002,-3.01 -7.54,-6 -11.16,-9.18 c-6.41,-5.62 -14.65,1.6 -11.52,8.27 c-2.98,3.16 -0.81,9.16 4.44,7.88 c-3.94,0.9500000000000001 1.4100000000000001,6.29 4.48,7.13 c2.2800000000000002,0.6300000000000001 4.11,-0.030000000000000006 5.66,-1.22 c3,2.55 5.99,5.11 8.83,7.83 c5.11,4.9 12.75,1.17 13.23,-5.48 c0.3400000000000001,-4.68 1.02,-9.3 1.7000000000000002,-13.93 c4.5600000000000005,3.44 8.97,7.03 12.48,11.59 c3,3.9 8.41,4.96 11.93,2.38 c0.5900000000000001,1.6900000000000002 1.05,3.37 1.42,5.05 c-1.78,-0.8900000000000001 -3.56,-1.77 -5.34,-2.66 c-5.08,-2.54 -13.27,0.43000000000000005 -12.56,7.21 c0.25,2.41 0.6800000000000002,4.76 1.1600000000000001,7.09 c-1.79,-0.38000000000000006 -3.6500000000000004,-0.6500000000000001 -5.67,-0.7500000000000001 c-3.35,-0.17 -6.78,3.09 -6.52,6.52 c0.8200000000000001,10.41 0.79,21.72 6.97,30.55 c1.61,2.3 6.37,1.85 5.95,-1.61 c-0.78,-6.52 -0.7500000000000001,-13.09 -0.45,-19.64 c2.02,1.15 3.96,2.49 6.17,3.88 c4.82,3.04 12.14,-0.8600000000000001 11.75,-6.74 c-0.1,-1.58 -0.28,-3.14 -0.49000000000000005,-4.69 c1.51,0.7600000000000001 3.02,1.51 4.53,2.27 c2.29,1.1600000000000001 4.8,1.22 6.98,0.48000000000000004 c1.71,11.08 5.52,21.32 9.42,31.95 c1.82,4.95 8.56,2.96 7.78,-2.15 c-0.54,-3.5700000000000003 -1.03,-7.11 -1.47,-10.63 c5.01,8.89 16.65,2.18 15.37,-6.62 c-1.36,-9.37 -1.94,-18.86 -2.85,-28.3 c5.32,3.09 10.63,6.18 15.82,9.49 c1.06,0.6800000000000002 2.15,1.06 3.22,1.24 c6.57,8.25 13.58,16.08 20.27,23.43 c7.28,8 17.33,-0.79 16.17,-9.41 c-1.12,-8.29 -3.5,-16.22 -6.63,-23.88 c8.15,2.79 17.69,-4.76 12.38,-13.96 c-0.97,-1.6700000000000002 -1.82,-3.38 -2.6500000000000004,-5.11 c7.34,2.15 17.25,-2.91 13.57,-11.86 c-0.06000000000000001,-0.13 -0.09000000000000002,-0.27 -0.14,-0.41000000000000003 c0.6400000000000001,-0.22000000000000003 1.26,-0.49000000000000005 1.83,-0.8600000000000001 c2.98,-1.92 5.04,-4.57 6.23,-7.51 c3.47,-0.5900000000000001 6.59,-2.26 8.93,-5.88 C270.64845153808596,91.09343383789061 270.36845153808594,87.27343383789062 268.5684515380859,84.60343383789063 zM165.24845153808593,91.02343383789062 c0.24000000000000002,1.29 0.47000000000000003,2.58 0.6900000000000002,3.87 c-1.26,-0.54 -2.54,-1.09 -3.8200000000000003,-1.6300000000000001 C163.30845153808593,92.76343383789063 164.38845153808592,92.00343383789061 165.24845153808593,91.02343383789062 zM161.88845153808592,138.22343383789064 c0.23,1.77 0.45,3.54 0.6600000000000001,5.3 c-1.59,-0.9 -3.51,-1.19 -5.32,-0.92 c-0.020000000000000004,-1.22 -0.010000000000000002,-2.46 -0.07,-3.67 C158.77845153808596,139.19343383789064 160.40845153808596,138.89343383789063 161.88845153808592,138.22343383789064 z" id="svg_40"/>
	</g>
	<path class="st0" d="M106.79845153808594,250.37343383789062 c-4.66,-8 -8.99,-16.17 -13.23,-24.38 c-0.08000000000000002,-1.23 -0.4,-2.48 -1.09,-3.7 c-1.61,-2.85 -3.37,-5.640000000000001 -5.12,-8.44 c-3.08,-6.09 -6.16,-12.18 -9.3,-18.25 c-4.82,-9.32 -15.74,-5.86 -19.08,1.6 c-8.42,-7.61 -17.28,-14.78 -26.83,-21.32 c-8.32,-5.7 -15.97,2.46 -15.4,10.44 c-1.32,-1.11 -2.62,-2.25 -3.96,-3.34 c-7.43,-5.98 -17.2,3.29 -10.61,10.61 c6.63,7.36 13.16,13.91 20.28,19.84 c14.21,14.2 28.2,28.63 42.54,42.72 c5.76,5.66 14.05,1.86 15.92,-4.33 c2.47,3.11 4.890000000000001,6.25 7.27,9.42 C96.30845153808593,272.04343383789063 113.96845153808596,262.71343383789065 106.79845153808594,250.37343383789062 z" id="svg_41"/>
	<path class="st0" d="M253.53845153808595,243.03343383789064 c-2.05,-6.78 -6.61,-8.78 -10.35,-14.08 c-2.67,-3.8 -7.12,-4.8 -10.66,-3.48 c-1.22,-0.8 -2.44,-1.6 -3.71,-2.34 c-7.44,-4.34 -15.53,0.5 -17.26,7.71 c-4.04,-1.03 -8,-2.33 -11.73,-4.39 c-10,-5.51 -19.95,4.39 -16.66,14.21 c-4.15,-1.27 -8.29,-2.63 -12.36,-4.4 c-13.24,-5.77 -24.54,11.93 -11.58,19.81 c0,0 0,0 0,0 c-7.75,-2.7600000000000002 -15.5,-5.52 -23.39,-7.82 c-10.620000000000001,-3.1 -15.98,7.640000000000001 -12.45,15.6 c-6.83,1.77 -6.88,12.13 -1.25,15.4 c14.61,8.49 30.32,14.21 46.6,18.56 c7.72,2.06 13.06,-4.46 12.66,-10.77 c3.15,0.8300000000000001 6.33,1.61 9.54,2.24 c8.57,1.6800000000000002 17.6,-7.7 13.99,-15.34 c8.82,1.86 16.1,-9.09 11.89,-17.55 c0,-0.010000000000000002 -0.010000000000000002,-0.020000000000000004 -0.010000000000000002,-0.030000000000000006 c5.26,1.4300000000000002 10.88,2.49 15.23,-0.06000000000000001 c0.7400000000000001,-0.43000000000000005 1.4,-0.8900000000000001 1.99,-1.35 c0.7400000000000001,0.46 1.45,0.9500000000000001 2.21,1.3900000000000001 C244.98845153808594,261.41343383789064 256.58845153808596,253.09343383789064 253.53845153808595,243.03343383789064 z" id="svg_42"/>
	<g id="svg_43">
		<path class="st2" d="M185.93845153808593,86.65343383789062 c-0.05000000000000001,-0.8300000000000001 -0.16000000000000003,-1.1400000000000001 -0.5,-1.8800000000000001 c-0.47000000000000003,-1.05 -1.57,-1.59 -2.7,-1.6700000000000002 c-3.7800000000000002,-1.37 -7.72,-2.3200000000000003 -11.72,-2.7 c-2.54,-0.24000000000000002 -5.05,0.12000000000000001 -7.34,1.24 c-1.86,0.91 -2.71,2.39 -3.08,4.08 c-0.7100000000000001,0.37000000000000005 -1.4100000000000001,0.7500000000000001 -2.05,1.31 c-6.59,5.84 0.6600000000000001,14.42 6.6,16.9 c0.36000000000000004,0.15000000000000002 0.7000000000000001,0.22000000000000003 1.02,0.22000000000000003 c0.49000000000000005,0.30000000000000004 0.99,0.6000000000000001 1.56,0.8200000000000001 c1.15,0.43000000000000005 2.29,0.42000000000000004 3.41,0.25 c0.91,0.8900000000000001 1.83,1.6500000000000001 2.75,2.36 c-0.010000000000000002,0 -0.010000000000000002,0.010000000000000002 -0.020000000000000004,0.010000000000000002 c0.13,0.13 0.14,0.13 0.06000000000000001,0.020000000000000004 c0.08000000000000002,0.06000000000000001 0.16000000000000003,0.14 0.24000000000000002,0.2 c1.51,1.45 3.74,1.55 5.41,-0.010000000000000002 c1.6,-1.48 2.2,-4.23 2.79,-6.23 c0.8400000000000001,-2.84 1.48,-5.75 2.13,-8.63 c0.26,-1.18 0.52,-2.36 0.78,-3.54 c0.30000000000000004,-1.34 0.8200000000000001,-1.86 0.30000000000000004,-1.23 C185.83845153808596,87.71343383789062 185.96845153808596,87.19343383789064 185.93845153808593,86.65343383789062 zM170.28845153808595,93.85343383789063 c-0.53,-0.7100000000000001 -0.99,-1.47 -1.45,-2.23 c2.13,0.42000000000000004 4.35,1.36 6.29,2.36 c-0.77,0.97 -1.6300000000000001,1.94 -2.5,2.72 C171.80845153808593,95.78343383789061 171.0184515380859,94.84343383789061 170.28845153808595,93.85343383789063 z" id="svg_44"/>
		<path class="st2" d="M282.4584515380859,94.74343383789062 c-4.4,-16.01 -20.27,-21.87 -35,-23.42 c-8.44,-0.8900000000000001 -19.87,-2.18 -30.78,-1.7400000000000002 c10.93,-15.79 20.82,-37.36 1.45,-46.64 c-15.65,-7.5 -30.02,3.79 -39.05,17.4 c0.51,-18.37 -1.33,-41.34 -17.68,-40.31 c-25.25,1.6 -27.59,30.74 -23.81,51.91 c-14.55,-8.34 -29.48,-12.64 -46.94,-10.13 c-1.9100000000000001,0.27 -3.14,2.79 -2.5700000000000003,4.52 c5.84,17.47 19.3,27.47 34.18,36.75 c-21.37,1.87 -63.76,10.31 -62.75,33.67 c1.19,27.63 32.38,24.55 54.76,16.38 c-11.76,15.7 -20.02,33.38 -9.6,52.57 c0.79,1.46 2.92,2.47 4.53,1.84 c7.61,-2.96 14.03,-7.27 19.73,-12.36 c-3.19,12.49 -4.91,26.2 -6.68,32.99 c-5.38,20.56 -11.4,40.96 -17.39,61.37 c-0.6100000000000001,-0.4 -1.24,-0.78 -1.85,-1.17 c-7.3,-28.23 -19.3,-55.58 -42.06,-74.67 c-8.16,-6.85 -33.57,-28.77 -44.1,-14.19 c-12.53,17.34 4.01,39.85 16.19,51.65 c18.78,18.19 43.8,32.8 67.39,44.5 c0.46,1.44 0.92,2.87 1.3800000000000001,4.3 c-6.5600000000000005,22.48 -12.96,44.99 -18.27,67.77 c-1.21,5.21 7.05,7.3100000000000005 7.9,2.18 c5.53,-23.29 12.17,-46.27 18.76,-69.26 c0.51,0.020000000000000004 1.05,-0.1 1.54,-0.48000000000000004 c0.35000000000000003,-0.27 0.7200000000000001,-0.52 1.07,-0.79 c13.26,15.13 49.8,8.35 66.17,6.24 c26.21,-3.36 53.79,-8.41 72.09,-28.69 c19.21,-21.29 -16.3,-25.09 -29.39,-25.24 c-39.4,-0.46 -79.61,17.71 -109.66,42.61 c4.95,-17.35 9.81,-34.73 14.07,-52.27 c4.83,-19.92 12.7,-41.35 16.37,-61.89 c1.56,-2.09 3.08,-4.2 4.5600000000000005,-6.37 c-2.31,20.48 -2.26,47.2 16.58,48.24 c26.2,1.44 19.77,-35.32 17.92,-59.01 c4.4,19.5 30.19,32.83 48.8,33.24 c9.16,0.2 19.65,-4.3 20.66,-14.51 c1.52,-15.36 -11.28,-30.34 -22.98,-41.9 C251.63845153808592,122.56343383789061 289.61845153808594,120.81343383789061 282.4584515380859,94.74343383789062 zM62.73845153808594,244.49343383789062 c-15.88,-10.36 -38.92,-25.78 -41.65,-46.37 c-4.37,-32.94 34.19,-1.06 43.58,7.54 c16.98,15.56 25.2,37.27 32.19,58.83 C85.53845153808595,257.7634338378906 73.76845153808591,251.68343383789062 62.73845153808594,244.49343383789062 zM228.58845153808596,239.0634338378906 c16.45,0.45 17.96,14.58 5.46,23.21 c-3.5,2.41 -8.01,3.96 -11.89,5.41 c-31.63,11.86 -70.53,16.98 -103.14,7.12 c20.79,-14.8 43.33,-25.33 68.34,-31.83 C200.88845153808592,239.46343383789065 214.69845153808592,238.68343383789062 228.58845153808596,239.0634338378906 zM216.56845153808592,109.56343383789061 c-3.8600000000000003,-1.04 -6.97,3.96 -3.96,6.8 c9.79,9.25 52.78,54.38 14.07,52.46 c-22.69,-1.12 -40.92,-18.25 -40.16,-40.88 c0.08000000000000002,-2.37 -3.18,-2.55 -3.91,-0.53 c-0.8,2.2 -1.23,4.34 -1.49,6.45 c0.030000000000000006,-3.13 0.33000000000000007,-5.7 1.06,-7.49 c0.7600000000000001,-1.84 -1.85,-2.91 -3.09,-1.79 c-8.19,7.39 -1.58,37.54 -2.34,47.63 c-0.39000000000000007,5.26 -7.99,33.24 -18.28,19.22 c-3.71,-5.06 -3.49,-13.61 -3.7600000000000002,-19.46 c-0.53,-11.52 0.8400000000000001,-23.35 2.66,-34.72 c0.6900000000000002,-4.3 -4.74,-7.08 -7.25,-3.06 c-7.45,11.95 -14.93,23.52 -24.66,33.82 c-15.81,16.74 -18.31,-6.32 -12.88,-17.76 c4.54,-9.55 12.2,-17.76 19.03,-25.67 c2.85,-3.3 -0.8400000000000001,-8.94 -4.88,-6.32 c-7.72,5.02 -16,8.24 -24.84,10.71 c-4.68,1.21 -9.45,1.85 -14.3,1.94 c-14.42,0.77 -24.6,-15.18 -11.77,-25.09 c13.68,-10.57 36.04,-14.68 52.95,-15.21 c4.61,-0.15000000000000002 5.03,-6.58 1.3,-7.72 c-7.98,-6.34 -16.25,-12.26 -23.73,-19.23 c-14.08,-13.1 0.43000000000000005,-15.92 11.64,-12.94 c8.49,2.26 16.16,7.47 23.36,12.3 c2.77,1.86 6.36,-1.19 5.48,-4.22 c-1.71,-5.92 -2.5300000000000002,-11.9 -2.98,-18.04 c-0.16000000000000003,-3.18 -0.13,-6.37 0.09000000000000002,-9.54 c0.43000000000000005,-2.77 0.8600000000000001,-5.55 1.29,-8.32 c1.6800000000000002,-11.37 9.54,-13.78 23.56,-7.22 c5.2,13.2 1.84,30.28 1.53,44.12 c-0.1,4.42 6.45,5.22 7.62,1.03 c4.15,-15 13.78,-29.94 30.65,-31.59 c10.44,-1.03 13.12,8.35 11.43,16.75 c-0.6200000000000001,3.07 -7.04,16.46 -11.99,24.38 c-5.62,0.8400000000000001 -10.81,2.35 -14.99,4.91 c-3.52,2.16 -1.19,7.44 2.7600000000000002,6.54 c0.6700000000000002,-0.15000000000000002 1.4300000000000002,-0.31000000000000005 2.15,-0.47000000000000003 c0.45,1.31 1.49,2.47 2.7800000000000002,2.74 c0.43000000000000005,0.09000000000000002 0.8600000000000001,0.18000000000000002 1.29,0.28 c1.36,0.29000000000000004 3,0.08000000000000002 3.9699999999999998,-1.05 c1.01,-1.17 2.15,-2.5300000000000002 3.38,-4.04 c20.09,-3.05 48.02,-4.16 58.92,8.22 C293.60845153808594,116.26343383789063 231.85845153808594,113.68343383789062 216.56845153808592,109.56343383789061 z" id="svg_45"/>
	</g>
</g></g></svg>