<svg xmlns="http://www.w3.org/2000/svg" xmlns:xlink="http://www.w3.org/1999/xlink" version="1.1" style="enable-background:new 0 0 276 326;" xml:space="preserve" width="302" height="316"><rect id="backgroundrect" width="100%" height="100%" x="0" y="0" fill="none" stroke="none" class="" style=""/>
<style type="text/css">
	.st0{fill:#E20613;}
	.st1{fill:#3C3C3B;}
</style>

<g class="currentLayer" style=""><title>Layer 1</title><g id="svg_1" class="">
	<path class="st0" d="M278.281375302544,131.0262924135141 c-1.6977314893995397,-2.6349678509463734 -3.4401401232569606,-5.256560230568146 -5.212333520086304,-7.864777138865318 c0.5212333520086305,-1.4044244890830928 0.49144858903670896,-3.009481048035198 -0.41698668160690483,-4.694790434934909 c-7.1185583502892955,-13.06783548413506 -15.934848189978128,-25.35989363144327 -25.674465681796534,-37.183810282390446 c3.4103553602850387,1.6451829729259084 7.267482165148904,-0.2942603691412197 8.697150787801148,-2.9693546340613963 c4.735777312535556,2.5279640803495664 11.601165177563516,-0.2808848978166188 11.750088992423127,-5.403690415138756 c0.014892381485960886,-0.45476602503643043 0,-0.922907521397461 0,-1.3776735464338907 c0.11913905188768704,0.17388112721981153 0.23827810377537403,0.3477622544396233 0.3574171556630611,0.5216433816594346 c2.621059141529113,3.7317564995636454 8.59290411739942,4.10626969665247 12.122398529572148,1.9795697560409304 c0.08935428891576526,0.09362829927220626 0.16381619634556974,0.18725659854441243 0.2531704852613348,0.2808848978166188 c5.659104964665129,5.61769795633237 15.830601519576405,-0.1605056558952107 13.626529059654196,-6.460352649782225 c-1.3849914781943609,-3.959139512081861 -2.5614896155852698,-7.945029966812924 -3.7677725159481,-11.930920421543984 c1.3254219522505175,-0.8426546934498562 2.3529962747818174,-2.0464471126639348 2.799767719360644,-3.5980017863176377 c0.029784762971921758,-0.10700377059680723 0.059569525943843564,-0.21400754119361434 0.08935428891576526,-0.30763584046582026 c0.9977895595593786,0 2.0104715006047176,-0.22738301251821516 2.963583915706213,-0.7891528081514525 c9.277953665753621,-5.510694185735563 6.9696345354296865,-12.011173249491591 -1.8466553042591478,-18.08363723086039 c-4.646423023619791,-3.210113117904211 -11.46713374418987,-2.6349678509463734 -13.745668111541882,1.912692399417926 c-2.7104134304448793,-1.4311754317322942 -6.1058764092439555,-1.350922603784689 -8.771612695230953,-0.22738301251821516 c-0.372309537149022,-0.6955245088792463 -0.7446190742980437,-1.3910490177584915 -1.1318209929330263,-2.073198055313137 c-3.24653916393947,-5.898582854148988 -11.452241362703909,-3.878886684134255 -13.92437668937341,0.7356509228530491 c-4.646423023619791,-0.5885207382824391 -9.76940225479033,1.7120603295489127 -8.935428891576521,6.273096051237814 c0.2680628667472959,1.4980527883552992 0.5510181149805522,3.009481048035198 0.8339733632138094,4.507533836390497 c-2.695521048958917,-3.65150367161604 -5.4803963868336005,-7.249505457933678 -8.488657446997696,-10.753878944979107 c-5.748459253580896,-6.701111133625041 -17.111346327369038,-1.2840452471616848 -12.762770933468465,6.059088510044199 c4.348575393900574,7.3431337572058855 8.414195539567892,14.56588827249036 11.437348981217946,22.082903156916057 c-6.5079707093648995,-5.082679103348334 -12.83723284089827,-10.352614805241082 -20.462132161710233,-14.325129788647546 c-4.378360156872495,-2.287205596506751 -8.860966984146717,1.2706697758370842 -7.833392661615417,4.989050804076128 c0.8488657446997696,3.0629829333336014 2.799767719360644,5.055928160699133 5.227225901572265,7.463512999127291 c1.2509600448207132,1.243918833187882 3.0976153490798612,1.2840452471616848 4.542176353218064,0.6553980949054439 c0.2978476297192177,0.24075848384281617 0.610587640924396,0.48151696768563235 0.9084352706436135,0.7222754515284486 c-1.9806867376327961,0.8292792221252554 -3.4699248862288825,2.313956539155952 -3.8124496604059823,4.226648938573878 C202.12173638334008,46.894577781774565 187.0208615565758,28.47655376779916 168.82237138073162,12.011348567215478 c-5.912275449926464,-5.350188529840352 -14.22222431909263,0.40126413973802666 -12.256429962945795,6.232969637264009 c-3.7975572789200207,-3.4241206590978255 -7.818500280129456,-6.7144866049496414 -12.107506148086188,-9.830971423581646 c-5.5846430572353265,-4.066143282678667 -13.92437668937341,-0.4280150823872288 -12.018151859170422,5.697950784279975 c2.874229626790448,9.215699742650008 6.6568945242245094,18.123763644834195 11.005469918125081,26.831195477149365 c-5.3761497164318754,-5.6444488989815715 -11.213963258928535,-11.008012900146525 -17.721933968293435,-15.970312761573451 c-5.108086849684578,-3.8922621554588566 -13.87969954491553,-0.387888668413426 -11.571380414591594,5.497318714410962 c2.799767719360644,7.169252629986072 6.225015461131642,14.097746776129327 10.007680358565702,20.879110737701975 c-4.854916364423243,-5.724701726929177 -9.843864162220134,-11.382526097235349 -15.085982445278361,-16.893220282970912 c-4.810239219965361,-5.055928160699133 -12.330891870375597,0.4413905537118295 -11.199070877442573,5.3100621158665495 c3.3507858343411954,14.405382616595148 10.707622288405865,27.71397658457302 18.37719875367571,40.91556678195409 c-8.414195539567892,-11.088265728094129 -17.15602347182692,-21.97589938631925 -27.431766697139924,-32.0342538224191 c-4.646423023619791,-4.547660250364299 -12.747878551982504,0.13375471324600877 -11.035254681097003,5.229809287918944 c3.9018039493217476,11.623284581078165 8.860966984146717,22.979059735664315 14.043515741261098,34.28133300495205 c-7.550437413382161,-9.643714825037234 -15.100874826764322,-19.28742965007447 -25.0787704223581,-27.43309168675641 c-3.723095371490217,-3.0362319906844 -11.437348981217946,-1.2171678905386805 -10.662945143947981,3.584626314993036 c2.5317048526133483,15.689427863756833 9.5906936769588,30.3221934928702 15.875278664034285,45.18234213450177 c-6.68667928719643,-6.660984719651239 -12.83723284089827,-13.683107165066701 -18.9133244871703,-20.90586168035118 c-4.020943001209435,-4.788418734207115 -13.462712863308623,-2.140075411936141 -11.288425166358339,3.8120093275112517 c2.1296105524924047,5.845080968850585 4.020943001209435,11.716912880350371 5.227225901572265,17.668997619797764 c-2.993368678678134,-2.206952768559146 -5.956952594384347,-4.440656479767493 -8.726935550773069,-6.848241318195651 c-4.378360156872495,-3.7852583848620487 -12.018151859170422,-0.10700377059680723 -10.156604173425313,4.815169676856317 c1.0871438484751432,2.8891018061137914 1.6977314893995397,5.845080968850585 2.3083191303239348,8.787684660262778 c-1.593484818997813,-0.9095320500728606 -3.1274001120517827,-1.8993169280933249 -4.586853497675947,-3.049607462009001 c-5.003840179282851,-3.985890454731062 -12.077721385114263,0.7891528081514525 -8.980106036034405,5.697950784279975 c0.20849334080345241,0.3210113117904214 0.3872019186349828,0.6553980949054439 0.5808028779524744,0.9764094066958648 c-2.5019200896414264,1.1904169478894788 -3.7975572789200207,4.1865225246000755 -1.1913905188768696,6.660984719651239 c2.8444448638185262,2.6884697362447767 7.669576465269848,5.60432248500777 11.928797570254655,3.584626314993036 c1.3552067152224394,-0.6420226235808429 2.1891800784362476,-1.4713018457060971 2.6806286674729565,-2.4075848384281584 c1.9509019746608742,0.9496584640466628 3.9166963308077083,1.8993169280933249 5.882490686954544,2.9158527487629913 c5.6293202016932105,2.8891018061137914 10.379989895714724,-2.3808338957789568 7.967424094989064,-6.660984719651239 c-0.6701571668682393,-1.1904169478894788 -1.1467133744189868,-2.447711252401961 -1.5488076745399306,-3.7317564995636454 c2.4274581822116224,1.832439571470321 4.8251316014513215,3.705005556914444 7.088773587317373,5.697950784279975 c4.020943001209435,3.5311244296946325 10.514021329088372,0.8292792221252554 10.558698473546256,-3.5444999010192344 c0.029784762971921758,-3.290365945851817 -0.2531704852613348,-6.567356420379031 -0.7446190742980437,-9.830971423581646 c6.433508801935096,6.5539809490544325 13.298896666963055,12.827077000292245 20.923795987775023,18.55177872722142 c4.661315405105752,3.504373487045431 11.437348981217946,0.2808848978166188 9.963003214107822,-4.734916848908712 c-4.244328723498848,-14.499010915867355 -11.556488033105634,-28.436252036101475 -16.828391079135784,-42.734630882099815 c11.15439373298469,13.188214726056467 20.447239780224272,27.54009545735321 34.34183170662576,39.096502681808374 c4.557068734704026,3.7986338561866497 12.68830902603866,0.20063206986901339 10.588483236518178,-5.029177218049931 c-4.393252538358457,-10.887633658225118 -9.41198509912727,-21.614761660555025 -14.296686226522432,-32.368640605534125 c11.213963258928535,14.833397698982377 21.727984588016906,30.06805953770278 34.5950021918871,44.00530065793689 c4.869808745909204,5.269935701892747 13.805237637485725,2.3808338957789568 12.315999488889638,-4.159771581950873 c-4.095404908639239,-18.030135345561987 -14.564749093269727,-34.37496130422426 -24.125658007256604,-50.98729668937855 c16.411404397528877,20.678478667832962 31.869696379956256,41.89197618864996 50.410711329977545,61.39341337991804 c4.348575393900574,4.574411193013502 13.909484307887451,-0.13375471324600877 11.362887073788142,-5.390314943814155 c-10.782084195835669,-22.33703711208347 -26.419084756094577,-42.80150823872282 -40.239214775066266,-63.93475293159221 c18.124028268414378,23.66120877321896 32.465391639394696,49.73000238486607 55.99535438721287,70.26135086812842 c6.1058764092439555,5.336813058515752 14.624318619213573,-1.136915062591075 11.13950135149873,-7.062248859389265 c-18.466553042591478,-31.405606670162868 -43.02409011294095,-60.845019055609406 -59.16743164372252,-93.06652947657292 c29.02525151613773,30.88396328850343 45.942996884189284,69.40532070335398 81.04434004659905,96.70465767686436 c5.108086849684578,3.9725149834064615 15.30936816756777,0.36113772576422415 12.241537581459836,-5.804954554876782 c-1.3105295707645568,-2.621592379621773 -2.6806286674729565,-5.2164338165943445 -4.1102972901252,-7.784524310917713 c6.329262131533369,6.420226235808422 12.956371892785954,12.639820401747832 20.134499769019094,18.53840325589682 C272.9052255861121,143.96037318440318 282.45124211861304,137.47326959197176 278.281375302544,131.0262924135141 z" id="svg_2"/>
	<g id="svg_3">
		<path class="st1" d="M281.11092778487654,308.1309082225544 c-3.3656782158271557,1.5916810876275047 -7.684468846755808,2.4209603097527594 -12.315999488889638,2.8891018061137914 c0.08935428891576526,-5.537445128384764 -1.6679467264276178,-11.99779777816699 -3.4997096492008044,-17.29448442270894 c-0.2233857222894132,-0.6286471522562418 -0.9382200336155355,-0.8560301647744565 -1.6381619634556956,-0.7891528081514525 c-1.816870541287226,0.18725659854441243 -3.6337410825744527,0.36113772576422415 -5.450611623861678,0.5350188529840356 c0.1340314333736479,-10.044978964775261 -1.1913905188768696,-16.30469954468847 -14.117977648690903,-17.789376861719173 c-24.468182781433708,-2.808848978166186 -49.72566178162334,-4.387154594469089 -73.88110455185186,-1.0165358206696675 c-0.5659104964665137,0.08025282794760537 -0.9531124151014962,0.5885207382824391 -0.9233276521295743,1.0432867633188683 c0.2531704852613348,5.8584564401751855 0.07446190742980442,11.556407224455162 1.3403143337364782,17.374737250656544 c0.014892381485960886,0.06687735662300447 0.04467714445788267,0.10700377059680723 0.07446190742980442,0.1605056558952107 c-3.5443867936586866,-0.48151696768563235 -7.0738812058314124,-1.0165358206696675 -10.618267999490099,-1.658558444250509 c-0.7744038372699654,-0.14713018457060978 -1.5637000560258918,0.2808848978166188 -1.5190229115680087,0.9764094066958648 c0.372309537149022,6.059088510044199 1.2062829003628304,11.69016193770117 2.9189067712483308,17.64224667714856 c0.19360095931749144,0.6821490375546454 1.3552067152224394,0.40126413973802666 1.2211752818487913,-0.2675094264920177 c-0.04467714445788267,-0.18725659854441243 -5.599535438721287,-16.82634292634791 2.1296105524924047,-15.381792023291013 c5.525073531291482,1.0299112919942681 11.15439373298469,1.6050565589521057 16.739036790220016,2.206952768559146 c14.95195101190471,1.6184320302767063 30.08261060164095,1.5248037310045004 45.019669232059705,1.0834131772926714 c10.9607927736672,-0.33438678311502257 21.906693165848438,-1.1636660052402767 32.748346887627946,-2.287205596506751 c7.490867887438317,-0.7757773368268516 5.9420602128983875,10.406116690539486 7.133450731775256,15.635925978458431 c-7.312159309606787,0.5350188529840356 -15.115767208250283,0.33438678311502257 -21.05782742114867,0.7222754515284486 c-18.40698351664763,1.2171678905386805 -36.81396703329526,1.738811272198115 -55.369874364802506,1.2706697758370842 c-22.681097003118403,-0.5751452669578385 -45.22816257286316,-2.9292282200875928 -67.8943671944956,-2.6082169082971722 c-22.621527477174556,0.3210113117904214 -45.07923875800355,1.738811272198115 -67.7752281426079,0.9362829927220618 c-12.68830902603866,-0.45476602503643043 -25.21280185573175,-2.1668263545853432 -37.54369372610735,-5.01580174672533 c-7.863177424587339,-1.8056886288211196 -4.705992549563635,-25.346518160118666 -4.7953468384794,-30.255316136247192 c-0.41698668160690483,-20.06320698690132 -0.8637581261857311,-40.113038502478034 -2.174287696950287,-60.17624548937936 c-1.6679467264276178,-25.8681615417781 -12.792555696440386,-58.11642290539083 -1.9360095931749135,-82.80754297060405 c15.592323415801031,-3.236864060553413 33.746136447187325,-2.5279640803495664 49.353352244474316,-3.049607462009001 c30.827229675938995,-1.0299112919942681 61.75870602227972,-1.0834131772926714 92.67528998713448,-0.7356509228530491 c30.097502983126915,0.3477622544396233 60.224790729225745,1.1636660052402767 90.32229371235266,3.0362319906844 c10.826761340293551,0.6687735662300447 21.653522680587102,1.4980527883552992 32.42071449493681,2.8891018061137914 c3.2316467824535082,0.4146396110626277 14.37114813395224,1.0165358206696675 16.12844914929562,4.052767811354068 c0.5956952594384358,1.0299112919942681 2.4870277081554653,0.45476602503643043 2.367888656267778,-0.5483943243086362 c0.16381619634556974,0.30763584046582026 0.3425247741771004,0.6018962096070398 0.4467714445788264,0.8961565787482597 c0.41698668160690483,1.123539591266474 2.5019200896414264,0.6821490375546454 2.0849334080345217,-0.45476602503643043 c-3.7826648974340604,-10.272361977293476 -17.379409194116334,-21.2536239347908 -24.914954226012533,-29.81392558253536 c-5.927167831412426,-6.741237547598844 -11.884120425796773,-13.482475095197689 -17.870857783153042,-20.19696170014733 c0.04467714445788267,-0.026750942649201786 0.10424667040172621,-0.04012641397380266 0.16381619634556974,-0.06687735662300447 c10.082142265995508,-7.102375273363068 23.083191303239346,-11.489529867832157 34.28226218068192,-17.26773348005974 c5.4208268608897585,-2.7954735068415837 16.15823391226754,-7.918279024163722 16.27737296415523,-14.218126018050738 c0.3127400112051783,-15.64930144978303 -25.540434248422887,-30.897338759828035 -40.09029096020666,-38.1067178037879 c-0.5956952594384358,-0.2942603691412197 -1.2509600448207132,-0.18725659854441243 -1.7275162523714611,0.1605056558952107 c-14.624318619213573,10.6334997030577 -30.33578108690229,20.544723954586953 -43.66446251683727,32.31513872023573 c-8.190809817278478,-7.9316544954883215 -16.7837139346779,-15.569048621835426 -25.540434248422887,-23.139565391559525 c-7.967424094989064,-6.8883677321694545 -16.053987241865816,-13.683107165066701 -24.289474203602172,-20.34409188471794 c-1.4743457671101259,-1.1904169478894788 -5.614427820207247,-5.724701726929177 -8.324841250652126,-5.136180988646738 c-0.3574171556630611,0.08025282794760537 -0.4467714445788264,0.5350188529840356 -0.08935428891576526,0.6821490375546454 c3.24653916393947,1.337547132460088 7.654684083783885,6.68773566230044 10.275743225313,8.854562016885783 c7.773823135671573,6.460352649782225 15.398722456483538,13.041084541485858 23.00872939580954,19.64856737583869 c12.167075674030029,10.579997817759295 23.887379903481232,21.333876762738402 34.65457171783094,32.89028398719356 c13.135080470617487,14.084371304804726 25.823389496656144,28.463002978750676 38.49680614120885,42.828259181372026 c5.956952594384347,6.754613018923444 11.899012807282734,13.53597698049609 17.766611112751317,20.34409188471794 c1.9955791191187564,2.313956539155952 5.8229211610107,5.577571542358568 8.05677838390483,8.560301647744566 c-5.450611623861678,-5.510694185735563 -26.925425726617245,-5.403690415138756 -32.97173260991736,-5.938709268122792 c-31.199539213088016,-2.782098035516983 -62.62246414846545,-3.504373487045431 -93.86668050601135,-4.079518754003268 c-34.49075552148537,-0.6286471522562418 -68.98151104297074,-0.5885207382824391 -103.36801989405438,0.5082679103348339 c-16.24758820118331,0.5216433816594346 -35.741715566306084,0.053501885298403606 -52.09355043789111,3.664879142940642 c-0.14892381485960876,-0.06687735662300447 -0.2978476297192177,-0.13375471324600877 -0.4616638260647874,-0.14713018457060978 c1.8466553042591478,-0.815903750800654 3.708202990004257,-1.6451829729259084 5.554858294263404,-2.474462195051163 c0.49144858903670896,-0.1605056558952107 0.2978476297192177,-0.7624018655022504 -0.2531704852613348,-0.6821490375546454 c-4.437929682816339,1.2974207184862854 -5.063409705226695,1.0165358206696675 -1.8764400672310697,-0.8025282794760533 c3.4252477417709994,-3.771882913537449 6.67178690571047,-7.664145068996305 9.963003214107822,-11.52965628180596 c5.4357192423757175,-6.406850764483822 10.692729906919903,-12.92070529956445 16.053987241865816,-19.367682478022076 c11.422456599731985,-13.749984521689704 23.18743797364107,-27.727352055897626 37.8266489743406,-39.20350645240518 c25.689358063282498,-20.156835286173525 57.29099157649146,-34.82972732926069 82.22083818398995,-55.588458825041265 c1.1020362299611044,-0.922907521397461 -0.5956952594384358,-2.247079182532948 -1.7573010153433823,-1.457926374381496 c-27.22327335633647,18.69890891179203 -56.38255630584785,35.60550466608755 -82.53357819519513,55.33432486987384 c-27.41687431565396,20.678478667832962 -45.71961116189986,49.86375709811208 -67.358241461001,74.5415016920007 c-0.610587640924396,0.6955245088792463 0.43187906309286594,1.6986848582243121 1.3403143337364782,1.551554673653703 c-0.014892381485960886,0.013375471324600886 -0.014892381485960886,0.013375471324600886 -0.029784762971921758,0.026750942649201786 c-0.014892381485960886,0.04012641397380266 -0.029784762971921758,0.08025282794760537 -0.059569525943843564,0.12037924192140807 c-2.0253638820906783,0.48151696768563235 -4.020943001209435,1.0031603493450665 -5.912275449926464,1.6184320302767063 c-1.1020362299611044,0.36113772576422415 -0.5956952594384358,1.8859414567687258 0.5510181149805522,1.5248037310045004 c1.4594533856241654,-0.4413905537118295 2.9784762971921737,-0.7891528081514525 4.497499208760182,-1.1502905339156761 c-8.5631193544275,19.969578687629117 -2.5912743785571917,44.47344215429793 -0.14892381485960876,65.2589245927277 c4.184759197555004,35.65900655138595 3.26143154542543,71.50526970131631 4.423037301330377,107.16427625270227 c0.014892381485960886,0.5483943243086362 0.47655620755074807,0.9897848780204656 1.0871438484751432,1.1502905339156761 c25.37661805207732,6.8883677321694545 51.34893136359307,7.196003572635275 77.42549134551057,6.567356420379031 c28.38487911224141,-0.6821490375546454 55.920892479783056,-0.6955245088792463 84.38023349945428,0.8827811074236588 c24.378828492517943,1.350922603784689 48.48959411828859,0.9630339353712637 72.67482165148903,-0.5350188529840356 c10.052357503023586,-0.6286471522562418 28.250847678867764,0.4146396110626277 36.94799846666891,-4.3336527091706865 C283.7915564523495,309.25444781382083 282.52570402604283,307.46213465632434 281.11092778487654,308.1309082225544 zM172.15826483358683,293.45801617946717 c0.17870857783153044,-0.12037924192140807 0.2978476297192177,-0.30763584046582026 0.2531704852613348,-0.5483943243086362 c-0.6254800224103566,-3.691630085589843 -3.7826648974340604,-15.79643163435364 2.9486915342202527,-16.7327146270757 c11.109716588526808,-1.5248037310045004 22.725774147576285,-1.2840452471616848 34.02909169542059,-0.9095320500728606 c9.486447006557073,0.30763584046582026 18.89843210568434,1.4311754317322942 28.340201967783536,2.2203282398837465 c3.7677725159481,0.3210113117904214 7.4164059800085145,0.5082679103348339 11.15439373298469,1.2037924192140792 c7.639791702297925,1.4177999604076934 6.6122173797666255,10.593373289083896 6.53775547233682,14.806646756333175 c0,0.09362829927220626 0.04467714445788267,0.14713018457060978 0.059569525943843564,0.22738301251821516 C227.84087920959453,296.2668651576334 199.9176639234179,297.0827689084341 172.15826483358683,293.45801617946717 zM226.6345963092317,62.71776035877741 c-2.8295524823325646,-3.009481048035198 -5.733566872094935,-5.952084739447392 -8.682258406315185,-8.854562016885783 c0.9233276521295743,-0.4280150823872288 1.8466553042591478,-0.8426546934498562 2.769982956388722,-1.2706697758370842 c0.19360095931749144,-0.053501885298403606 0.10424667040172621,-0.2675094264920177 -0.08935428891576526,-0.24075848384281617 c3.291216308397352,-0.36113772576422415 14.966843393390674,-12.024548720816192 18.258059701788024,-14.378631673945947 c2.4423505636975826,-1.7521867435227163 20.387670254280426,-16.7059636844265 23.083191303239346,-15.368416551966412 c10.752299432863746,5.336813058515752 20.447239780224272,12.90732982823985 28.66783436047467,20.705229610482164 c15.324260549053731,14.525761858516555 1.593484818997813,22.537669181952484 -13.298896666963055,29.89417841048297 c-9.382200336155346,4.641288549636506 -19.762190231870072,8.373045049200151 -28.14660100846604,14.218126018050738 C241.79504066193988,79.12946367406269 234.28928039301556,70.87679786678396 226.6345963092317,62.71776035877741 z" id="svg_4"/>
		<path class="st1" d="M288.2443785166518,276.5112940111979 c-0.23827810377537403,-18.39127307132621 -1.4743457671101259,-36.80929708530162 -2.7104134304448793,-55.213945627952434 c-1.1913905188768696,-17.829503275692975 -2.5614896155852698,-35.65900655138595 -3.5592791751446478,-53.48850982707892 c-0.2680628667472959,-4.748292320233312 -4.557068734704026,-25.33314268879407 0.20849334080345241,-28.931144475111704 c1.0275743225313005,-0.7757773368268516 -0.372309537149022,-2.2203282398837465 -1.5339152930539695,-1.6451829729259084 c-4.646423023619791,2.3273320104805535 -2.1891800784362476,14.73976939971017 -2.0849334080345217,18.2575183580802 c0.49144858903670896,17.107227824164525 1.9360095931749135,34.24120659097826 3.112507730565821,51.33505894381818 c1.3849914781943609,19.849199445707704 2.725305811930839,39.69839889141541 3.4699248862288825,59.56097380844772 c0.5212333520086305,14.11112224745393 1.8764400672310697,29.292282200875928 -1.593484818997813,43.06901766521484 c-0.2680628667472959,1.0432867633188683 1.5637000560258918,1.457926374381496 1.9509019746608742,0.45476602503643043 C289.49533856147247,299.6508594027575 288.3784099500254,287.26517295617697 288.2443785166518,276.5112940111979 z" id="svg_5"/>
		<path class="st1" d="M133.61678154792008,179.53912690784148 c0.059569525943843564,-0.6687735662300447 -0.7595114557840045,-1.1636660052402767 -1.4743457671101259,-1.2037924192140792 c-30.30599632393037,-1.67193391557511 -60.65666979231861,5.363564001164953 -90.78395753841745,-0.7222754515284486 c-0.49144858903670896,-0.09362829927220626 -0.8935428891576525,0.013375471324600886 -1.1913905188768696,0.21400754119361434 c0.04467714445788267,-1.0432867633188683 0.08935428891576526,-2.0865735266377374 0.10424667040172621,-3.116484818632005 c0.029784762971921758,-1.1101641199418733 -1.9657943561468352,-1.0834131772926714 -2.0402562635766395,-0.013375471324600886 c-0.9680047965874573,13.214965668705672 -2.0402562635766395,26.389804923437538 -2.0551486450626,39.658272477441606 c-1.1318209929330263,0.04012641397380266 -1.0871438484751432,1.4044244890830928 -0.014892381485960886,1.658558444250509 c0,0.36113772576422415 -0.014892381485960886,0.7088999802038471 -0.014892381485960886,1.0566622346434698 c0.1340314333736479,11.730288351674972 0.5808028779524744,26.403180394762135 9.322630810211503,36.555163130134204 c6.776033576112194,7.878152610189921 22.115186506651888,8.466673348472359 32.1973287726474,8.854562016885783 c19.464342602150854,0.7356509228530491 38.57126804863864,-2.648343322270974 58.005825887817586,-2.2337037112083475 c0.5808028779524744,0.013375471324600886 1.2658524263066742,-0.3477622544396233 1.3403143337364782,-0.8560301647744565 C140.9438332390128,232.78687825107755 131.21910812868038,206.18306578644643 133.61678154792008,179.53912690784148 zM130.221318569121,188.19305685485824 c-0.3127400112051783,8.814435602911981 0.8339733632138094,17.709124033771566 2.1296105524924047,26.57706152198195 c-0.23827810377537403,-0.08025282794760537 -0.50634097052267,-0.13375471324600877 -0.8041886002418872,-0.10700377059680723 c-14.594533856241652,1.5649301449783029 -29.352883908828872,1.9528188133917288 -44.15591110587397,1.7789376861719173 c-0.3574171556630611,-11.716912880350371 0.07446190742980442,-23.473952174674547 -0.3574171556630611,-34.60234431674248 c7.803607898643495,-0.4280150823872288 15.60721579728699,-0.9764094066958648 23.425716077416446,-1.324171661135487 C119.79665152894839,180.07414576082556 130.57873572478408,177.76018922166958 130.221318569121,188.19305685485824 zM40.077733434599864,179.64613067843828 c0.16381619634556974,0.12037924192140807 0.3574171556630611,0.21400754119361434 0.610587640924396,0.2675094264920177 c14.103085267204944,2.8489753921399874 27.967892430634514,2.835599920815387 42.21990151269907,2.1668263545853432 c0.7595114557840045,-0.04012641397380266 1.5339152930539695,-0.09362829927220626 2.2934267488379736,-0.13375471324600877 c-0.20849334080345241,11.476154396507557 -0.07446190742980442,22.992435206988915 0.43187906309286594,34.49534054614567 c-15.741247230660639,-0.24075848384281617 -31.5122792242932,-1.1101641199418733 -47.19395692900999,-1.9528188133917288 C38.320432419256484,202.81244701264706 39.52671531961932,191.06878318964743 40.077733434599864,179.64613067843828 zM132.58920722538878,257.82576057073044 c-5.971844975870308,-0.12037924192140807 -11.943689951740616,0.3745131970888249 -17.870857783153042,0.7490263941776495 c-25.80849711517018,1.6318075016013074 -65.60094044565761,8.680680889665972 -73.3003016738994,-19.514812662592682 c-2.0402562635766395,-7.476888470451892 -2.8295524823325646,-15.127658068123596 -2.993368678678134,-22.8319295510937 c15.696570086202753,1.1904169478894788 31.5122792242932,2.1935772972345444 47.31309598089768,2.487837666375764 c0.08935428891576526,1.6986848582243121 0.14892381485960876,3.3973697164486234 0.23827810377537403,5.0960545746729355 c0.5510181149805522,9.483209169142025 -0.3574171556630611,24.691120065213227 6.67178690571047,33.14441794236098 c0.7148343113261226,0.8694056360990579 2.5317048526133483,0.387888668413426 2.0700410265485614,-0.6955245088792463 c-5.063409705226695,-11.837292122271778 -6.7164640501683515,-24.637618179914824 -7.237697402176983,-37.53157253683007 c15.071090063792397,0.22738301251821516 30.097502983126915,-0.18725659854441243 44.91542256165798,-1.7521867435227163 c0.11913905188768704,-0.013375471324600886 0.17870857783153044,-0.053501885298403606 0.2680628667472959,-0.08025282794760537 c0.7595114557840045,5.16293193129594 1.5488076745399306,10.312488391267278 2.099825789520483,15.421918437264814 C135.04645017057234,235.03395743361057 137.2207378675226,257.9193888700027 132.58920722538878,257.82576057073044 z" id="svg_6"/>
	</g>
</g></g></svg>