<svg xmlns="http://www.w3.org/2000/svg" xmlns:xlink="http://www.w3.org/1999/xlink" version="1.1" style="" xml:space="preserve" width="600" height="600"><rect id="backgroundrect" width="100%" height="100%" x="0" y="0" fill="none" stroke="none"/>
<style type="text/css">
	.st0{fill:#E95B0C;}
	.st1{fill:#3C3C3B;}
</style>




<g class="currentLayer" style=""><title>Layer 1</title><g id="svg_10" class="">
	<path class="st0" d="M393.13974543843426,291.99264460019907 c9.430053911624713,0.20370976971540364 19.214416207212203,-7.795293854442765 15.139869791640255,-18.27955666912885 c-4.810417674571566,-12.399134650010877 -11.106205112679396,-23.671075240929856 -17.470128778472375,-35.323274068650925 c-4.769535937960477,-8.718778143819259 -13.845281465622412,-8.85458465696286 -20.25008686802648,-4.631002098196833 c-12.23726649225288,-11.774424689550308 -24.651687176487147,-23.358720260699574 -37.46129798129528,-34.56275759504675 c-10.00239822417997,-8.75952009776234 -26.532247060597278,-1.032129499891376 -27.036455145467386,10.076843275255282 c-3.924646714664621,-2.8926787299587273 -7.931056902551422,-5.7038735520312915 -12.060112300271491,-8.379261860960254 c-12.387166193160208,-8.066906880729968 -30.02082191807694,8.365681209645894 -20.917821899340947,20.846299767542934 c5.9959880362931735,8.216294045187931 12.005603318123372,16.459749393004582 18.0288458454906,24.703204740821235 c-7.0589131881815055,-5.771776808603093 -14.18596260404816,-11.434908406691303 -21.558302439581354,-16.82642697849231 c-11.296986550197813,-8.28419730175973 -27.935853350911362,8.189132742559211 -19.514215609026863,19.447492682163833 c7.99919313023657,10.687972584401491 16.47533985426919,20.982106280686533 25.169522506894285,31.113272161199255 c-6.3911781568670385,-5.377937920486645 -12.809610804808138,-10.715133887030209 -19.337061417045476,-15.930103991744534 c-11.201595831438604,-8.976810518792103 -29.543868324280897,2.335872026069958 -21.054094354711246,16.18813636671738 c14.47213476032579,23.589591333043696 30.23885784666942,46.350762935911426 45.46049111153185,69.4378701703238 c-18.36952698391635,-13.281876985444292 -36.39837282940695,-27.09339937214863 -55.09495370621202,-39.913534212904686 c-13.341073380752302,-9.139778334564426 -25.005995560449932,9.981778716054759 -16.10740422476938,20.80555781359985 c5.9959880362931735,7.279229104497076 12.114621282419611,14.44981299847927 18.3013907562312,21.566074287204025 c-4.6877724647382975,-1.7654846708668286 -9.416426666087684,-3.3951628285900544 -14.267726077270341,-4.644582749511193 c-10.492979063513049,-2.729710914186403 -18.11060931871278,13.363360893330453 -7.604003009662703,17.99436299152729 c24.3110060380614,11.394166452748221 46.973115366142174,25.11062428025204 70.5209956541299,37.93075912100808 c9.78436229558749,5.3236153152292065 19.60960632778607,-3.5309693417336563 18.410408720527435,-12.507779860525762 c6.922640732811206,4.522356887681952 13.940672184381622,8.936068564849021 21.149485073470455,13.037425261785808 c11.487767987716232,6.545873933521624 24.06571561839486,-6.382906117749303 17.797182671361092,-17.736330616554444 c-8.585164688328858,-15.522684452313728 -17.91982788119436,-30.542884805996128 -27.527035984800467,-45.41369799522056 c17.143074885583655,14.055974110362824 34.68133989174118,27.595883470779963 53.36429352300921,39.70982444318927 c11.310613795734845,7.347132361068878 25.632848855153302,-7.157003242667836 18.451290457138526,-18.401782530958094 c-2.3438862323691487,-3.666775854877259 -4.783163183497506,-7.265648453182715 -7.249694625699926,-10.823779097545094 c1.7170329376657718,1.344484480121662 3.4204386297945124,2.6889689602433227 5.164726058534344,4.006292137736264 c0.013627245537029964,0.013580651314360237 0.027254491074059934,0.04074195394308077 0.05450898214811997,0.05432260525744111 c0,0 0.013627245537029964,-0.013580651314360237 0.013627245537029964,-0.013580651314360237 c0.9947889242031855,0.7469358222898133 1.948696111795281,1.5481942498370649 2.9571122815354953,2.281549420812517 c14.526643742473908,10.823779097545094 26.913809935634116,-11.081811472517936 17.72904644367594,-22.896978116011326 c-8.43526498742153,-10.823779097545094 -16.802393747157907,-21.68830014903327 -25.142268015820225,-32.57998250315016 C380.57542505329275,306.29307043422034 391.640748429361,300.96945511899116 393.13974543843426,291.99264460019907 z" id="svg_11"/>
	<path class="st0" d="M334.6379803479649,100.7770740940072 c-0.8993982054439766,-25.830398799913134 -0.9947889242031855,-51.66079759982627 -0.8176347322217974,-77.50477705105376 c0.13627245537029944,-20.724073905713688 -29.830040480558523,-19.121557050619188 -30.865711141372795,0.05432260525744111 c-0.12264520983326953,-0.013580651314360237 -0.24529041966653894,-0.027161302628720522 -0.35430838396277914,-0.05432260525744111 c0.34068113842574926,25.857560102541854 2.1939865314618188,51.72870085639807 4.1699371343311595,77.50477705105376 c1.6488967099806224,21.566074287204025 1.267333834943784,47.586602205518204 9.93426199649482,67.71312745340005 c3.4885748574796627,8.10764883467305 17.783555425824062,6.070551137519017 19.187161716138146,-2.4988398418422806 C339.2984983216289,145.14506193802205 335.3738516069643,121.82708363126557 334.6379803479649,100.7770740940072 z" id="svg_12"/>
	<path class="st0" d="M435.9156691791711,108.84398097473718 c-2.888976053850346,-4.766808611340436 -7.86292067486627,-6.233518953291339 -13.109410206622796,-5.310034663914845 c-15.303396738084615,2.661807657614604 -17.8925733901203,25.34149535259617 -21.285757528840755,37.1430813447752 c-5.287371268367614,18.442524484901174 -13.504600327196663,38.338178660438885 -15.085360809492135,57.4868970136868 c-0.9947889242031855,11.99171511058007 15.821232068491751,14.884393840538799 21.50379345743323,5.798938111231811 c9.443681157161743,-15.060942307625481 13.749890746863201,-35.119564298935515 19.854896747452614,-51.75586215902678 C432.3044491118585,139.88934987936463 443.76496260850047,121.82708363126557 435.9156691791711,108.84398097473718 z" id="svg_13"/>
	<path class="st0" d="M557.0073730212192,165.65184542270595 c-6.418432647941098,-2.0914203024114744 -13.749890746863201,2.3222913747555967 -16.093776979232352,8.392842512274614 c-0.5587170670182273,0.4481614933738884 -1.1991976072586341,0.964226243319577 -2.0304595850174616,1.6025168550945055 c-3.597592821775902,2.784033519443844 -7.713020973958942,4.997679683684561 -11.651294934160594,7.238487150553995 c-11.487767987716232,6.532293282207266 -23.561507533524754,12.059618367151874 -35.553483606111094,17.600524103410844 c-20.10018716711915,9.30274615033675 -46.973115366142174,16.201717018031736 -63.44845522041137,31.520691700630064 c-8.694182652625097,8.080487532044328 0.3679356294998092,21.959913175320477 11.228850322512665,19.216621609819704 c29.9118039537807,-7.578003433413001 59.932625871857645,-22.082139037149712 88.15465137904663,-34.304725220073905 c12.1555030190307,-5.255712058657404 30.19797611005833,-11.448489058005663 37.829233610795086,-23.100687885726728 C572.3789059869889,183.26595017743117 569.8306110715644,169.82110537621458 557.0073730212192,165.65184542270595 z" id="svg_14"/>
	<path class="st0" d="M527.0410600852904,295.99893673793537 c-8.462519478495588,-12.847296143384767 -29.97994018146585,-9.587939827938314 -43.552676736347664,-10.457101512057367 c-10.792778465327707,-0.6790325657180113 -21.585556930655414,-1.3173231774929408 -32.37833539598312,-1.9556137892678722 c-4.047291924497888,-0.24445172365848403 -14.567525479084997,1.6160975064088658 -16.69337578286167,1.3037425261785809 c-0.19078143751841975,-0.04074195394308077 -0.35430838396277914,-0.14938716445796274 -0.5587170670182273,-0.17654846708668323 c-0.32705389288871894,-0.06790325657180131 -0.6541077857774362,-0.09506455920052188 -0.9811616786661549,-0.09506455920052188 c-1.6761512010546817,0 -3.5703383307018424,0.9370649406908568 -4.333464080775519,2.4852591905279198 c-0.013627245537029964,0.027161302628720522 -0.027254491074059934,0.05432260525744111 -0.04088173661108988,0.08148390788616146 c-1.267333834943784,2.566743098414081 -0.5995988036293178,5.282873361286124 1.8124236564249818,6.87180956506627 c10.820032956401768,7.157003242667836 29.24406892246624,10.104004577884002 44.09776655782886,13.05100591310017 c14.1587081129741,2.824775473386925 38.81039528946125,13.10532851835761 50.92501657188085,2.064258999782753 C528.7989747595672,306.03503805924754 529.6302367373262,299.92374496778547 527.0410600852904,295.99893673793537 z" id="svg_15"/>
	<path class="st0" d="M489.7977980325875,390.2350762082809 c-21.939865314618196,-14.110296715620265 -43.68894919171797,-33.80224112144258 -67.78191930118689,-44.0692135150989 c-8.50340121510668,-3.626033900934178 -15.984759014936111,5.377937920486645 -9.85249852327264,12.738650932869882 c10.711014992105529,12.860876794699125 27.595172212485615,22.720429648924643 40.62281894588623,33.15036985835329 c7.931056902551422,6.355744815120581 15.99838626047314,12.630005722355003 23.3979805870804,19.596879846621793 c2.2757500046839994,2.145742907668915 4.183564379868189,5.310034663914845 6.459314384552188,7.252067801868356 c1.6216422189065622,1.3852264340647422 3.284166174424214,2.702549611557683 5.069335339775136,3.8840662759070232 c1.5807604822954726,1.0592908025200976 1.6216422189065622,1.0864521051488178 1.0901796429623951,0.6111293091462091 c8.598791933865888,4.916195775798399 21.96711980569225,2.1593235589832744 21.135857827933428,-10.348456301542486 C509.10760495855914,400.7736616282244 498.9961887700829,396.1426595300276 489.7977980325875,390.2350762082809 z" id="svg_16"/>
	<path class="st0" d="M480.42225310311096,529.3416876212725 c-16.35269464443592,-18.11658885335653 -31.138256052113398,-37.79495260786448 -46.31900758036473,-56.88934835585495 c-14.34948955049252,-18.048685596784726 -27.690562931244823,-39.47895337084515 -44.83363781682848,-55.042379777101964 c-9.539071875920953,-8.664455538561818 -22.989163220969495,2.145742907668915 -17.42924704186128,13.404102847273537 c10.234061398309478,20.724073905713688 27.322627301745012,39.465372719530784 40.94987283877495,58.030123066261204 c12.07373954580852,16.446168741690222 24.3110060380614,32.7701116215512 36.63003600353646,49.026151244840385 c2.9026032993873763,4.4816149337388715 6.1322604916634695,8.610132933304378 9.675344331291251,12.725070281555524 C471.7280704504858,565.2625103477552 493.4362725909747,543.7779199684376 480.42225310311096,529.3416876212725 z" id="svg_17"/>
	<g id="svg_18">
		<path class="st0" d="M315.6143455782709,435.05122554566964 c-1.049297906351306,-4.1149373482511455 -6.459314384552188,-5.201389453399963 -9.375544929476593,-2.376613980013038 c2.575549406498657,-2.51242049315664 -2.888976053850346,2.376613980013038 -3.5158293485537224,4.2507438613947475 c-1.0629251518883356,3.2186143615033713 -1.8124236564249818,6.4508093743211035 -2.5074131788135077,9.764488295024995 c-2.4392769511283583,11.788005340864668 -4.442482045071757,23.671075240929856 -6.854504505126056,35.48624188442325 c-2.5210404243505375,12.331231393439078 -4.987571866552956,24.67604343819252 -7.604003009662703,36.993694180317235 c-0.8448892232958563,3.992711486421904 -2.466531442202418,7.5236808281555625 -3.5430838396277826,11.380585801433861 c-0.6677350313144685,2.4173559339561193 -0.858516468832886,6.831067611123189 0,9.248423545079309 c0.04088173661108988,0.12222586182924212 0.0681362276851499,0.1358065131436019 0.10901796429623964,0.217290421029764 c0.0681362276851499,3.1235498023028496 0.9811616786661549,6.016228532261576 3.5294565940907523,9.085455729306986 c4.592381745979088,5.513744433630248 12.809610804808138,4.033453440364983 17.606401233842675,0 c10.779151219790677,-9.071875077992624 7.713020973958942,-37.57766218683472 8.626046424939949,-53.290475757549494 c0.7358712589996178,-12.901618748642205 1.5535059912214129,-25.74891489202697 2.779958089554107,-38.609791686726105 c0.4769535937960483,-5.038421637627641 1.1174341340364546,-10.063262623940922 1.6216422189065622,-15.101684261568561 C316.6908979756962,440.45632476878495 315.9277722256228,436.5586778415635 315.6143455782709,435.05122554566964 z" id="svg_19"/>
		<path class="st0" d="M315.6143455782709,435.05122554566964 c0.013627245537029964,0.04074195394308077 0.027254491074059934,0.06790325657180131 0.04088173661108988,0.09506455920052188 C315.42356414075255,434.1277412562931 315.4644458773637,434.29070907206545 315.6143455782709,435.05122554566964 z" id="svg_20"/>
	</g>
	<path class="st0" d="M218.38394867156234,413.72960298212405 c-55.258480652656374,28.22059343124053 -72.86488188649905,88.70881438540091 -97.38029660761589,140.80419282728676 c-4.10180090664601,4.9840990323701995 -6.990776960496356,10.416359558114287 -8.29899253205123,17.342491728437995 c-3.4885748574796627,18.388201879643734 24.951486578301804,26.074850523571616 28.11300754289275,7.727390597870963 c10.438470081364928,-60.44747900021733 44.438447696254606,-111.2798568698676 87.41878012004702,-153.1490048720402 C235.07732445442406,419.81373477095747 226.42402353841004,409.62824628518734 218.38394867156234,413.72960298212405 z" id="svg_21"/>
	<path class="st0" d="M160.99961771512938,335.233438385122 c5.123844321923256,-2.0370976971540324 -3.733865277146202,-1.6296781577232262 -6.105006000589411,-1.4802909932652641 c-4.0064101878868,0.23087107234412388 -7.99919313023657,0.7333551709754521 -11.97834882704931,1.2222586182924196 c-11.460513496642173,1.3716457827503825 -23.00279046650653,2.3087107234412376 -34.49055845422276,3.3408402233326133 c-14.25409883173331,1.2901618748642205 -34.51781294529681,-0.6247099604605711 -46.04646266962415,9.601520479252674 c-5.2328622862194925,4.631002098196833 -4.6196362370531485,13.186812426243772 0,17.912879083641126 c3.4885748574796627,3.5852919469910973 7.99919313023657,4.142098650879866 12.414420684234269,3.191453058874652 c-0.013627245537029964,0.027161302628720522 -0.027254491074059934,0.04074195394308077 -0.05450898214811997,0.06790325657180131 c-5.791579353237721,0.8691616841190548 0.6949895223885281,0.5975486578318503 2.248495513609939,0.7333551709754521 c4.142682643257099,0.35309693417336624 8.06732935792172,-0.39383888811644785 12.14187577349367,-1.032129499891376 c9.78436229558749,-1.5617749011514248 19.582351836712014,-3.0556465457310487 29.366714132299503,-4.671744052139915 c10.19317966169839,-1.6840007629806668 20.26371411356351,-3.7210984601346997 30.26611233774348,-6.247099604605699 c10.08416169740215,-2.553162447099721 13.85890871115944,-5.7038735520312915 19.296179680434385,-13.458425452530975 C171.0701521669945,340.09531155566293 166.0416985638305,333.22350199059673 160.99961771512938,335.233438385122 z" id="svg_22"/>
	<path class="st0" d="M166.38237970225617,259.38550079442024 c-17.59277398830564,-11.801585992179028 -44.724619852532236,-15.930103991744534 -64.59314384552188,-23.087107234412372 c-12.686965594974868,-4.563098841625033 -25.278540471190524,-9.397810709537271 -37.51580696344341,-15.07452295893984 c-4.428854799534729,-2.050678348468393 -8.666928161551036,-4.37296972322399 -12.782356313734077,-7.007616078209872 c-1.0084161697402163,-0.7740971249185336 -2.0985958127026105,-1.3716457827503825 -3.2705389288871847,-1.8741298813817098 c-0.967534433129127,-4.875453821855318 -5.94147905414505,-8.365681209645894 -11.71943116184574,-7.374293663697598 c-11.119832358216426,1.9148718353247922 -12.35991170208615,13.281876985444292 -8.394383250810439,21.837687313491223 c5.219235040682464,11.271940590918982 22.68936381915483,15.563426406256811 33.18234288266789,19.40675072822075 c17.98796410887951,6.613777190093425 36.58915426692538,11.638618176406705 55.09495370621202,16.609136557462545 c14.06331739421489,3.7754210653921407 31.54707341822429,10.796617794916372 46.27812584375365,10.253391742341961 C170.1980084526246,272.7760229903794 172.44650396623456,263.4461155374139 166.38237970225617,259.38550079442024 z" id="svg_23"/>
	<path class="st0" d="M232.84245618635111,190.47727602535645 c-11.760312898456831,-21.47100972800351 -26.42322909630104,-41.24443804171197 -38.30618720459114,-62.701867118401125 c-7.154303906940714,-12.942360702585287 -13.518227572733693,-26.346463549858814 -18.955498542008634,-40.09008267999136 c-4.156309888794129,-10.497843466000448 -5.8733428264599015,-19.705525057136672 -13.041273978937646,-28.532948411470816 c-6.840877259589025,-8.447165117532055 -18.056100336564658,-0.5160647499456882 -18.996380278619725,7.836035808385845 c-2.4392769511283583,21.742622754290707 16.516221590880278,48.68663496198137 27.39076352943017,66.51803013773635 c14.090571885288949,23.114268537041088 30.51140275741002,47.219924620030476 50.31179052271451,65.87973952596141 C227.3915579715392,205.14437944486548 236.87612086531203,197.85156968905406 232.84245618635111,190.47727602535645 z" id="svg_24"/>
	<g id="svg_25">
		<path class="st1" d="M394.9657963403962,254.8767245580525 c-9.716226067902342,-15.930103991744534 -24.011206636246744,-25.640269681512088 -39.81881145920146,-29.863852240278117 c1.3218428170919034,-1.8469685787529895 1.7579146742768614,-4.4544536311101535 0,-6.6952610979795875 c-62.39915731406006,-79.39248758374983 -149.15020240279262,30.74659457571153 -150.89448983153244,97.35968927264838 c-2.4937859332764782,94.71146226634815 123.57186252978744,107.25998408081699 179.59346893251748,55.68067038887689 C416.78301644518126,341.00521519372506 417.1782065657551,291.34077333710974 394.9657963403962,254.8767245580525 zM360.85680076121025,376.3420699136904 c-57.002768081396205,37.740630002607034 -148.1417862330524,9.49287526873779 -146.16583563018307,-66.21925580882042 c1.5126242546103223,-57.935058507060674 77.87970824412605,-149.9711324644799 131.14861104837607,-86.88900710927666 c-23.684152743358023,-3.0828078483597694 -49.303374352974295,5.119905545513808 -67.45486540829816,22.58462313578104 c-24.801586877394477,23.874785010645258 -34.57232192744494,69.87245101238332 -12.128248527956641,97.87575402259407 c23.411607832617424,29.211980977188826 75.29053159209036,12.331231393439078 88.11376964243554,-18.27955666912885 c11.93746709043822,-28.492206457527733 -1.9895778484063713,-69.8452897097546 -40.064101878868,-63.99202899326534 c-31.192765034261516,4.793969913969157 -42.81680547734805,40.035760074733915 -7.522239536440521,48.971828639582945 c5.519034442497122,1.398807085379103 7.7266482194959725,-6.749583703237029 2.3438862323691487,-8.460745768846415 c-3.256911683350154,-7.876777762328927 -6.500196121163277,-15.753555524657852 -9.757107804513431,-23.616752635672416 c8.121838340069841,-6.803906308494469 17.361110814176136,-8.637294235933098 27.71781742231888,-5.513744433630248 c15.112615300566196,3.2321950128177326 21.885356332470074,16.541233300890745 22.32142818965503,30.542884805996128 c0.7903802411477371,26.006947266999813 -22.307800944118,42.49385796263312 -45.76029051334651,44.0692135150989 c-48.60838483058577,3.2593563154464524 -43.38914978990331,-54.173218092982914 -27.14547310976363,-82.38023087290908 c30.03444916361397,-52.14970104714323 99.58791038461474,-36.58627464088642 119.02036252041944,14.273264531392588 C409.86037571237,316.8452365054782 392.9625912464528,355.0883506067167 360.85680076121025,376.3420699136904 z" id="svg_26"/>
		<path class="st1" d="M336.7774578972784,47.01127554045512 c-0.44969910272198793,-1.8605492300673498 -2.480158687739448,-3.558130644362377 -4.469736536145819,-3.3815821772756953 c-4.183564379868189,0.35309693417336624 -4.892181147793745,1.8333879274386304 -6.977149714959325,5.513744433630248 c-1.240079343869724,2.1729042102976353 0.28617215627762926,4.8482925192265975 2.3983952145172682,5.377937920486645 c-0.34068113842574926,3.1778724075602907 -0.6541077857774362,6.369325466434941 -0.9539071875920956,9.560778525309594 c-0.8312619777588257,8.637294235933098 -0.31342664735168946,17.51904019552468 -0.7358712589996178,26.19707638540086 c-1.0765523974253646,21.79694535954815 -3.924646714664621,43.458084205952694 -3.3523024021093626,65.32293282207264 c0.10901796429623964,4.142098650879866 6.186769473811589,4.101356696936786 6.404805402404071,0 c1.1855703617216045,-21.837687313491223 3.5158293485537224,-43.52598746252449 5.287371268367614,-65.32293282207264 C335.41473334357534,77.55416034645125 339.78907916096216,59.41041019046601 336.7774578972784,47.01127554045512 z" id="svg_27"/>
		<path class="st1" d="M182.89860129313644,134.93241214962316 c-5.464525460349003,-7.116261288724754 -10.19317966169839,-13.702877176189459 -14.049690148677861,-21.783364708233787 c-2.04408683055449,-4.277905164023469 -3.4340658753315427,-9.234842893764947 -8.203601813292018,-11.041069518574856 c-2.3847679689802384,-0.8963229867477747 -4.6196362370531485,0.9913875459482959 -5.3963892326638545,3.0556465457310487 c-0.940279942055066,2.4988398418422806 0.2180359285924793,5.513744433630248 0.7903802411477371,7.958261670215088 c0.5314625759441671,2.254388118183796 2.7254491074059866,2.8519367760156453 4.496991027219877,2.240807466869436 c1.4308607813881435,2.7432915655007637 2.6573128797208367,5.66313159808821 3.9110194691275906,7.903939064957647 c3.3250479110353033,5.989067229632856 8.13546558560687,11.000327564631775 12.509811402993478,16.228878320660456 c17.170329376657715,20.54752543862701 33.9182141416675,40.87776045622425 45.21520069186532,65.32293282207264 c0.7086167679255575,1.5210329472083446 3.229657192276094,0.43458084205952807 2.6981946163319277,-1.1407747104062589 C216.24447112224868,177.82010900037272 199.33305941079453,156.3219379697405 182.89860129313644,134.93241214962316 z" id="svg_28"/>
		<path class="st1" d="M178.33347403823132,251.53588433472004 c-9.634462594680164,-1.7654846708668286 -19.80038776530449,-0.7876777762328943 -29.693768025188223,-2.539581795785361 c-10.751896728716616,-1.8877105326960713 -21.258503037766694,-4.875453821855318 -31.90138180218707,-7.252067801868356 c-4.1699371343311595,-0.9370649406908568 -5.709815880015541,4.902615124484038 -1.7442874287398324,6.3150028611775015 c4.565127254905028,1.6296781577232262 8.939473072291637,5.486583131001527 13.341073380752302,7.618745387356081 c0.7631257500736772,0.3802582368020873 1.444488026925173,-0.7469358222898133 0.6677350313144685,-1.1543553617206181 c-1.9350688662582511,-1.032129499891376 -4.905808393330776,-2.3630333286986778 -7.086167679255565,-4.223582558766028 c9.280154210717383,2.8926787299587273 18.737462613416156,5.269292709971764 28.26290724380008,7.211325847925276 c8.898591335680546,1.8198072761242687 20.509004533230048,4.698905354768636 29.026032993873756,0.8012584275472535 C182.10822105198883,257.02246746572155 181.41323152960018,252.0926910386088 178.33347403823132,251.53588433472004 z" id="svg_29"/>
		<path class="st1" d="M173.26413869845635,345.77202380506554 c-9.252899719643326,-2.023517045839673 -20.958703635952038,1.344484480121662 -30.22523060113239,2.661807657614604 c-4.783163183497506,0.6790325657180113 -9.566326366995012,1.3852264340647422 -14.335862304955489,2.213646164240715 c-1.9623233573323113,0.3395162828590064 -5.85971558092287,1.9556137892678722 -5.709815880015541,1.9284524866391513 c-2.5482949154245977,0.4481614933738884 -1.7170329376657718,4.074195394308065 0.5723443125552576,4.2507438613947475 c-0.23166317412950918,-0.013580651314360237 2.7527035984800463,0.7876777762328943 4.524245518293938,0.692613217032373 c4.551500009367997,-0.23087107234412388 9.103000018735994,-0.8691616841190548 13.627245537029934,-1.3580651314360217 c10.1522979250873,-1.1000327564631773 21.694574894951653,-0.3666775854877265 31.560700663761324,-2.824775473386925 C176.97074948452848,352.4129622977877 177.10702193989874,346.6140241865559 173.26413869845635,345.77202380506554 z" id="svg_30"/>
		<path class="st1" d="M232.78794720420302,402.4440817398907 c-9.648089840217192,3.13713045361721 -16.20279494352859,14.35474843927875 -22.43044615395127,21.959913175320477 c-11.71943116184574,14.300425834021308 -22.784754537914047,29.157658371931387 -33.38675156572334,44.28650393612866 c-5.573543424645243,7.944681018900727 -38.701377325165005,48.83602212643934 -23.738661725506145,58.77705888855102 c1.3490973081659636,0.8963229867477747 3.175148210127974,-0.2851936776015651 3.175148210127974,-1.8062266248099088 c-0.09539071875920975,-20.180847853139277 23.357098850469306,-45.495181903106726 34.42242222653761,-60.70551137519018 c13.572736554881814,-18.673395557245296 35.594365342722185,-37.1430813447752 45.78754500442058,-57.54121961894423 C237.8572825439781,404.92934093041856 235.81319571342368,401.46627484525675 232.78794720420302,402.4440817398907 z" id="svg_31"/>
		<path class="st1" d="M308.6099413722375,430.5152880066733 c-9.511817384846893,4.332227769280909 -9.062118282124906,37.50975893026292 -10.24768864384651,45.73963362676521 c-3.6793562949980823,25.558785773625928 -7.413221572144284,51.090410244623136 -11.746685652919803,76.54055080773418 c-0.7494985045366469,4.413711677167071 5.6961886344785135,6.369325466434941 6.840877259589025,1.8877105326960713 c5.478152705886032,-21.484590379317865 7.753902710570032,-43.960568304584015 11.337868286808904,-65.81183626938962 c2.779958089554107,-16.92149153769283 3.243284437813125,-37.98508172626553 9.375544929476593,-54.078153533782384 C315.4917003684376,431.3301270855349 311.28088149749544,429.2930293883809 308.6099413722375,430.5152880066733 z" id="svg_32"/>
		<path class="st1" d="M458.4687605429558,517.1870046949202 c-21.367521002062933,-12.005295761894432 -36.53464528477725,-30.474981549424324 -51.36108842906581,-49.61011925135787 c-12.782356313734077,-16.500491346947662 -24.18836082822813,-40.83701850228117 -40.704582419108405,-53.7657985535521 c-2.7390763529430164,-2.145742907668915 -6.02324252736723,0.43458084205952807 -4.6877724647382975,3.598872598305458 c9.375544929476593,22.109300339778432 29.625631797503072,44.04205221247019 44.26129350427322,62.9463188420596 c11.446886251105145,14.789329281338278 29.026032993873756,41.04072827199658 49.466901299418645,43.946987653269666 C459.5725674314551,524.9008146414768 462.63869767728704,519.5364573723044 458.4687605429558,517.1870046949202 z" id="svg_33"/>
		<path class="st1" d="M499.0370705066939,395.38214305642344 c-4.6877724647382975,-2.539581795785361 -10.05690720632809,-3.1507111049315712 -15.167124282714315,-4.563098841625033 c-7.276949116773984,-2.0099363945253126 -14.363116796029546,-4.8211312165978795 -21.258503037766694,-7.863197111014565 c-4.142682643257099,-1.8333879274386304 -15.167124282714315,-11.149714729089741 -19.732251537619344,-7.632326038670442 c-1.567133236758442,1.2086779669780596 -0.43607185718495867,3.463066085161855 1.0629251518883356,4.006292137736264 c0.6677350313144685,0.24445172365848403 1.3082155715548738,0.5024840986313278 1.948696111795281,0.7605164736041737 c3.284166174424214,1.7111620656093882 7.699393728421914,5.744615505974373 10.234061398309478,7.170583893982195 c4.238073362016309,2.376613980013038 8.680555407088068,4.508776236367592 13.177546434307944,6.342164163806221 c8.285365286514198,3.3815821772756953 19.037262015230816,8.75952009776234 28.167516525040874,7.5236808281555625 C500.24989535948964,400.76008097691005 502.04869177037733,397.01182121414655 499.0370705066939,395.38214305642344 z" id="svg_34"/>
		<path class="st1" d="M508.64427861030003,295.156936356445 c-4.197191625405219,-1.4531296906365434 -9.566326366995012,0.2716130262872048 -13.8861632022335,0.6382906117749306 c-6.949895223885266,0.5839680065174899 -13.913417693307563,0.9099036380621358 -20.876940162729856,1.2358392696067797 c-9.171136246421145,0.4210001907451678 -18.76471710449022,1.942033137953512 -27.71781742231888,2.254388118183796 c-2.3030044957580587,0.08148390788616146 -2.3030044957580587,3.6396145522485392 0,3.558130644362377 c9.93426199649482,0.2987743289159253 20.19557788587836,1.5481942498370649 30.402384793113782,1.4667103419509038 c8.884964090143516,-0.06790325657180131 26.273329395393713,2.661807657614604 33.604787494315815,-3.3408402233326133 C512.3645166419093,299.1768091454956 510.8791468783728,295.93103348136356 508.64427861030003,295.156936356445 z" id="svg_35"/>
		<path class="st1" d="M555.5356305032202,192.93537391325563 c-0.8993982054439766,3.3951628285900544 -14.049690148677861,8.352100558331534 -16.870529974843055,9.764488295024995 c-13.490973081659634,6.7088417492939465 -27.745071913392945,11.96455380795135 -41.862898289755954,17.193104563980036 c-21.653693158340563,8.01258427547253 -45.283336919550464,17.247427169237472 -68.47690882357541,19.40675072822075 c-3.8837649780535317,0.3666775854877265 -4.03366467896086,6.111293091462098 0,6.138454394090817 c28.630842873299887,0.1901291184010436 60.08252557276498,-13.648554570932019 86.50575466906601,-23.182171793612888 c9.321035947328474,-3.3680015259613345 49.56229201817786,-13.730038478818178 47.627223151919615,-28.369980595698493 C561.981317642235,190.17850169644052 556.6258101461823,188.77969461106142 555.5356305032202,192.93537391325563 z" id="svg_36"/>
		<path class="st1" d="M437.00584882213377,137.60780045855216 c-9.048491036587876,4.671744052139915 -15.916622787250962,17.165943261351313 -22.06251052445146,25.0563016749946 c-3.2024027012020353,4.1149373482511455 -17.156702131120685,18.08942755072781 -13.68175451917805,24.39084976059095 c1.0629251518883356,1.9284524866391513 3.8020015048313507,0.24445172365848403 2.9026032993873763,-1.6840007629806668 c0.16352694644435964,0.3395162828590064 7.154303906940714,-7.836035808385845 7.9174296570143925,-8.75952009776234 c4.496991027219877,-5.3507766178579255 9.034863791050846,-10.660811281772771 13.68175451917805,-15.875781386487093 c5.382761987126823,-6.043389834890296 12.959510505715466,-11.96455380795135 15.793977577417692,-19.637621800564872 C442.56576500124197,138.35473628084193 439.2134625991324,136.4534450968315 437.00584882213377,137.60780045855216 z" id="svg_37"/>
	</g>
</g></g></svg>