<svg xmlns="http://www.w3.org/2000/svg" xmlns:xlink="http://www.w3.org/1999/xlink" version="1.1" style="enable-background:new 0 0 896 568;" xml:space="preserve" width="256" height="374"><rect id="backgroundrect" width="100%" height="100%" x="0" y="0" fill="none" stroke="none" class="" style=""/>
<style type="text/css">
	.st0{fill:#00973A;}
	.st1{fill:#7D4E24;}
	.st2{fill:#3C3C3B;}
</style>


<g class="currentLayer" style=""><title>Layer 1</title><g id="svg_1" class="">
	<path class="st0" d="M190.22321172119757,142.4855642084171 c-26.158411388397216,-21.26355640053749 -52.712748627662656,-42.29371732354164 -78.47523416519165,-63.80295317411422 c18.62216760635376,14.32311193704605 36.206736431121826,29.616657701730727 56.75392282962799,42.02346992850304 c6.744392080307008,4.078278870582581 19.059051303863527,-1.4003728652000431 13.079205694198608,-7.358099528551102 c-21.03868055820465,-20.95645708799362 -47.210744562149046,-39.27186008810997 -69.72390759944916,-59.442142935991285 c21.59843779563904,16.116571922302246 42.03640326976776,33.20357767224312 66.46093248367309,47.09675057172776 c6.880918235778808,3.9185872280597684 18.717735915184022,-1.0932735526561739 13.092858309745788,-7.3703835010528564 c-9.556830883026123,-10.662488131523132 -20.069344854354856,-20.7721975004673 -30.97778467655182,-30.660795364379883 c0.23209446430206304,0.1351236975193024 0.4505363130569459,0.2702473950386048 0.682630777359009,0.40537109255790726 c7.263191471099854,4.262538458108902 17.652831902503966,-0.9581498551368716 13.120163540840148,-7.382667473554611 c-10.430598278045656,-14.765334947109222 -23.646330127716066,-28.363692506551743 -34.377285947799685,-43.018471701145174 c-4.4097948217391965,-6.006862553358078 -19.004440841674803,-1.744324095249176 -15.304582028388978,4.704761468172073 c2.1980711030960083,3.832599420547486 3.5633326578140263,7.43180336356163 5.979845609664917,10.859031691551209 c-10.498861355781555,-6.743900903463365 -20.90215440273285,-13.5492216694355 -31.30544744968414,-20.36682640790939 c-6.676129002571106,-4.38537818312645 -19.100009150505066,1.6092003977298739 -13.120163540840148,7.382667473554611 c5.46104621887207,5.2575402307510375 11.072271208763121,10.429092653989793 16.779064507484435,15.551509187221527 c-8.724021334648132,-5.9085907733440415 -17.775705442428592,-11.55921812415123 -27.469062480926514,-16.718486574888228 c-7.522591166496277,-4.004575035572052 -14.526382942199708,3.439512300491333 -11.440891828536989,8.353101301193236 c3.9319532775878905,6.2648259758949285 8.53288471698761,12.197984694242477 13.557047238349915,17.91003190755844 c-6.116371765136719,-3.07099312543869 -12.519448456764222,-5.88402282834053 -19.291145768165592,-8.365385273694992 c-6.7580446958541875,-2.4813624453544616 -17.0111589717865,3.0464251804351807 -11.509154906272888,8.389953218698501 c1.324303708076477,1.2775331401824952 2.6759126472473143,2.5550662803649904 4.000216355323792,3.8203154480457306 c-4.013868970870972,-2.2971028578281403 -8.082348403930665,-4.545069825649262 -12.260048761367798,-6.7070489859580995 c-7.085707468986512,-3.6606238055229188 -14.854045715332033,3.2675366854667667 -11.208797364234925,8.18112568616867 c4.478057899475098,6.031430498361588 9.406652112007142,11.866317436695098 14.553688173294068,17.590648622512816 c-1.4198720169067383,-1.0809895801544191 -2.839744033813477,-2.1619791603088383 -4.273268666267395,-3.230684767961502 c-5.47469883441925,-4.041426953077316 -15.918949728012086,0.024567945003509534 -13.365910620689391,5.6751952958107 c2.880701880455017,6.387665700912476 6.635171155929566,12.394528254270554 10.86748197555542,18.21713122010231 c-0.8737673950195315,-0.7493223226070406 -1.720229558944702,-1.5109286177158356 -2.593996953964233,-2.260250940322876 c-5.734098529815674,-4.87673708319664 -16.970201125144957,1.5109286177158356 -12.150827836990358,6.842172683477402 c4.450752668380737,4.925872973203659 8.846894874572754,9.876313891410826 13.18842661857605,14.851322754621506 c-5.2562569856643675,-0.8967299926280979 -10.471556124687195,4.151982705593109 -8.027737941741943,8.340817328691482 c8.53288471698761,14.605643304586412 20.1785657787323,28.105729084014893 30.13132251262665,42.183161571025856 c-14.280635862350465,-10.908167581558228 -27.701156945228576,-22.455101733207705 -42.992086358070374,-32.6385149371624 c-6.334813613891602,-4.225686540603638 -15.550329108238222,1.0564216351509095 -11.68663890838623,6.584209260940552 c7.577201628684997,10.8344637465477 16.26026511669159,21.189852565526962 25.216380915641782,31.434685631990433 c-5.106078214645386,-0.8598780751228334 -10.526166586875915,3.8080314755439764 -7.7273803997039785,7.861742401123047 c12.519448456764222,18.118859440088272 26.5816424703598,35.61123628258705 40.2206054019928,53.27558874011039 c-6.2938557672500615,-4.999576808214188 -12.669627227783202,-9.937733753919602 -19.687071619033812,-14.433667689561844 c-5.3518252944946285,-3.439512300491333 -14.171414937973024,0.9458658826351167 -10.17119858264923,5.724331185817719 c5.611224989891053,6.719332958459854 11.440891828536989,13.352678109407426 17.25690605163574,19.986023260354994 c-2.9353123426437375,-0.9581498551368716 -7.153970546722412,0.6264825975894929 -5.966192994117737,3.5500680530071262 c5.242604370117188,12.922739071846008 23.30501473903656,25.894614033699032 37.94061860561371,33.42468917727471 c5.201646523475647,2.677906005382538 10.93574505329132,-2.3953746378421785 8.232527174949647,-6.006862553358078 c-4.614584054946899,-6.1788381683826445 -9.502220420837402,-12.234836611747744 -14.499077711105349,-18.253983137607573 c3.0445332670211793,2.0882753252983095 6.157329611778259,4.115130788087845 9.461262574195862,6.019146525859833 c5.9115825319290165,3.378092437982559 14.13045709133148,-0.7247543776035312 10.553471817970276,-5.945442690849304 c-8.683063488006592,-12.652491676807404 -18.062410368919373,-25.04701993107796 -27.510020327568053,-37.392412295341494 c2.2936394119262697,1.9654356002807618 4.559973592758179,3.9431551730632783 6.880918235778808,5.896306800842285 c5.515656681060791,4.631057633161545 14.594646019935608,-1.2652491676807405 11.099576439857485,-6.252542003393173 c-11.031313362121582,-15.784904664754867 -24.21973998069763,-30.636227419376375 -37.21702998161316,-45.573537981510164 c8.273485021591187,6.240258030891418 16.779064507484435,12.320824419260024 25.980927386283877,17.873179990053178 c5.187993907928466,3.1324129879474643 14.526382942199708,0.3193832850456239 12.137175221443178,-5.159268450737 c-2.826091418266296,-6.473653508424758 -6.403076691627503,-12.689343594312668 -10.348682584762573,-18.769909982681273 c0.9693357038497926,0.8598780751228334 1.938671407699585,1.7197561502456664 2.9216597270965576,2.5673502528667447 c5.952540378570557,5.097848588228226 15.195361104011537,-1.388088892698288 11.850470294952393,-6.670197068452834 c-4.054826817512512,-6.424517618417741 -8.410011177062989,-12.738479484319686 -12.956332154273987,-18.978737515211105 c0.3413153886795045,0.20882753252983094 0.6689781618118287,0.42993903756141666 1.0239461660385134,0.6264825975894929 c6.703434233665466,3.8080314755439764 16.21930727005005,-0.8230261576175691 12.027954297065735,-6.768468848466873 c-5.2562569856643675,-7.468655281066894 -11.440891828536989,-14.617927277088166 -17.69378974914551,-21.742631328105926 c8.628453025817869,6.96501240849495 17.611874055862426,13.672061394453051 27.510020327568053,19.7403438103199 c5.966192994117737,3.6606238055229188 14.471772480010985,0.19654356002807621 13.666268162727356,-4.766181330680848 c3.9183006620407106,5.2084043407440195 8.068695788383485,10.343104846477509 12.314659223556518,15.416385489702225 c-1.4744824790954594,-1.0318536901474 -2.9216597270965576,-2.0759913527965552 -4.437100052833557,-3.07099312543869 c-7.181275777816772,-4.729329413175583 -18.117020831108093,1.2161132776737213 -13.406868467330932,7.542359116077423 c1.9113661766052243,2.5673502528667447 3.8773428153991696,5.1224165332317355 5.816014223098755,7.6774828135967255 c-3.9319532775878905,1.4372247827053068 -6.430381922721863,4.778465303182601 -3.454111733436585,8.488224998712539 c6.239245305061341,7.812606511116028 12.492143225669862,15.625213022232057 18.51294668197632,23.53609131336212 c-2.4847760295867922,-2.0145714902877807 -4.9695520591735844,-4.041426953077316 -7.427022857666016,-6.068282415866852 c-6.662476387023926,-5.503219680786134 -18.076062984466553,1.5232125902175904 -13.516089391708375,7.603778978586197 c3.0172280359268187,4.016859008073807 6.048108687400817,8.033718016147613 9.106294569969178,12.038293051719666 c-2.703217878341675,1.6829042327404027 -4.000216355323792,4.532785853147507 -1.7748400211334232,7.68976678609848 c3.6589009666442873,5.196120368242265 7.686422553062439,10.281684983968734 11.67298629283905,15.354965627193451 c-6.635171155929566,-0.9950017726421357 -13.447826313972472,5.9085907733440415 -7.8912117862701425,11.018723334074021 c8.341748099327088,7.665198841094972 16.301222963333128,15.416385489702225 23.35962520122528,23.74491884589195 c5.802361607551575,6.842172683477402 19.646113772392273,0.8475941026210788 14.703866944313049,-6.2648259758949285 c-0.1365261554718018,-0.20882753252983094 -0.2867049264907837,-0.40537109255790726 -0.4232310819625855,-0.614198625087738 c1.692924327850342,-0.614198625087738 3.0854911136627194,-1.5600645077228545 3.8363849687576295,-2.7516098403930673 c6.362118844985962,0.6510505425930025 13.324952774047851,-4.483649963140488 8.860547490119934,-9.176127458810805 c-2.33459725856781,-2.456794500350952 -4.62823667049408,-4.938156945705413 -6.8672656202316285,-7.444087336063385 c5.993498225212097,0.9704338276386262 13.079205694198608,-1.8917317652702332 10.225809044837952,-7.210691858530045 c-1.4881350946426393,-2.7884617578983306 -3.0581858825683597,-5.540071598291397 -4.669194517135621,-8.291681438684464 c4.9695520591735844,-0.8721620476245884 9.28377857208252,-5.368095983266831 6.143676996231079,-9.274399238824843 c-4.5872788238525395,-5.724331185817719 -9.147252416610717,-11.448662371635438 -13.693573393821715,-17.172993557453157 c2.6076495695114144,2.2356829953193667 5.228951754570008,4.471365990638733 7.8912117862701425,6.670197068452834 c6.799002542495728,5.62605940580368 16.751759276390075,-1.5232125902175904 13.17477400302887,-7.407235418558121 c-2.839744033813477,-4.6801935231685645 -5.979845609664917,-9.249831293821336 -9.28377857208252,-13.745765229463577 c2.9489649581909183,2.149695187807083 5.979845609664917,4.262538458108902 9.119947185516358,6.289393920898438 c5.8979299163818375,3.8203154480457306 16.806369738578802,-1.3635209476947785 11.55011275291443,-6.498221453428268 c-8.683063488006592,-8.488224998712539 -17.611874055862426,-16.853610272407533 -26.513379392623904,-25.218995546102526 c4.614584054946899,3.0832770979404445 9.32473641872406,6.105134333372116 14.15776232242584,9.028719788789749 C186.56431075455328,156.32960121789466 197.63658196331642,148.51699470677863 190.22321172119757,142.4855642084171 zM49.328219274298135,235.70863152423397 c2.553039107322693,2.8990175104141236 5.092425599098205,5.810318993330003 7.6181594753265385,8.733904448747635 C53.80627717377325,241.69092613258852 51.15766975762034,238.7673406771708 49.328219274298135,235.70863152423397 zM69.2610379731812,71.64389479079733 c14.703866944313049,10.097425396442414 28.574924340248106,20.845901335477826 42.391371273994444,31.655797137022017 c-4.095784664154053,0.7493223226070406 -7.413370242118835,4.078278870582581 -6.403076691627503,7.480939253568649 C94.38185057999272,97.21912553945077 81.64396027447367,84.51749797263633 69.2610379731812,71.64389479079733 z" id="svg_2"/>
	<path class="st1" d="M156.09167285324713,350.2566751030971 c-4.669194517135621,-8.046001988649367 -11.222449979782105,-15.256693847179413 -18.55390452861786,-22.11115050315857 c0.5734098529815675,-1.0072857451438904 0.6689781618118287,-2.211115050315857 0,-3.5746359980106357 c-4.478057899475098,-9.249831293821336 -10.744608435630798,-17.83632807254791 -17.161337742805483,-26.385972933769228 c0.3140101575851441,0.17197561502456668 0.6416729307174683,0.33166725754737864 0.9556830883026124,0.5036428725719453 c6.3894240760803225,3.4640802454948427 14.608298635482788,-3.1815488779544827 10.635387511253358,-7.763470621109009 c-9.092641954421998,-10.52736443400383 -19.045398688316343,-20.759913527965544 -26.704516010284422,-31.86462466955185 c1.0649040126800537,0.25796342253685 2.116155409812927,0.5282108175754547 3.181059422492981,0.7861742401123049 c7.7956434774398815,1.8917317652702332 12.519448456764222,-5.5155036532878885 7.563549013137817,-9.483226771354675 c-3.0445332670211793,-2.4322265553474427 -5.269909601211548,-5.048712698221207 -7.044749622344971,-7.812606511116028 c3.3858486557006837,1.2775331401824952 6.744392080307008,2.5919181978702546 9.966409349441529,4.090562843084335 c7.1403179311752325,3.3166725754737856 13.24303708076477,-2.9481534004211425 10.457903509140015,-7.6283469235897075 c-3.5223748111724853,-5.9085907733440415 -7.6181594753265385,-11.546934151649475 -12.055259528160095,-17.05015383243561 c6.457687153816224,2.0514234077930453 13.543394622802735,-3.439512300491333 9.707009654045105,-8.082853906154632 c-4.65554190158844,-5.638343378305435 -9.488567805290222,-11.215266894102097 -14.307941093444825,-16.792190409898758 c4.368836975097657,-0.9458658826351167 6.99013916015625,-4.557353798151016 4.65554190158844,-8.365385273694992 c-4.764762825965882,-7.763470621109009 -12.533101072311402,-14.200272212028503 -18.7996516084671,-21.288124345540997 c2.3619024896621705,-1.4617927277088165 3.727164044380188,-3.7711795580387113 2.566691722869874,-6.019146525859833 c-2.239028949737549,-4.38537818312645 -2.5257338762283332,-9.163843486309052 -3.1401015758514403,-13.893172899484634 c0.06826307773590093,0 0.1365261554718018,0 0.20478923320770273,0 c2.648607416152954,0.012283972501754769 6.0071508407592775,-1.1055575251579286 7.1403179311752325,-2.985005317926407 c3.454111733436585,-5.7366151583194736 4.873983750343323,-11.829465519189835 -4.914941596984863,-14.286260019540787 c-5.775056376457215,-1.449508755207062 -9.720662269592285,1.756608067750931 -10.17119858264923,5.245256258249282 c-0.6280203151702882,0 -1.2423880147933961,0 -1.8704083299636842,0 c-5.3381726789474495,0.012283972501754769 -9.365694265365601,3.8203154480457306 -7.932169632911683,7.603778978586197 c1.7475347900390625,4.61877366065979 1.8431030988693238,9.544646633863449 2.7168704938888553,14.32311193704605 c-4.600931439399719,1.1669773876667024 -6.348466229438782,5.196120368242265 -4.245963435173034,8.561928833723067 c3.727164044380188,5.970010635852814 9.229168109893799,11.141563059091569 14.444467248916625,16.43595520734787 c-4.5872788238525395,0.8967299926280979 -6.894570851325988,5.662911323308945 -4.450752668380737,8.574212806224823 c3.276627731323242,3.906303255558014 6.648823771476746,7.788038566112518 10.021019811630248,11.645205931663513 c-6.362118844985962,-2.1251272428035737 -14.116804475784301,3.3658084654808054 -9.884493656158448,8.009150071144104 c5.297214832305908,5.810318993330003 10.498861355781555,11.657489904165269 15.331887259483338,17.639784512519835 c-1.5973560190200806,-0.6510505425930025 -3.1947120380401612,-1.3266690301895143 -4.751110210418701,-2.0391394352912906 c-5.9115825319290165,-2.7147579228878023 -12.806153383255007,1.7197561502456664 -11.263407826423645,6.3139618659019465 c1.283345861434937,3.8817353105545047 2.730523109436035,7.554643088579178 4.573626208305359,11.080143196582794 c-5.42008837223053,-0.7738902676105501 -11.891428141593934,2.223399022817612 -9.638746576309204,6.879024600982666 c3.9456058931350713,8.131989796161651 9.28377857208252,15.68663288474083 15.209013719558717,23.02016446828842 c-5.3381726789474495,-0.2825313675403595 -9.32473641872406,5.048712698221207 -6.97648654460907,8.770756366252899 c3.549680042266846,5.6014914608001725 7.631812090873718,11.018723334074021 11.768554601669313,16.41138726234436 c-6.9628339290618895,-4.827601193189621 -16.24661250114441,2.5796342253685003 -10.403293046951294,7.910878291130066 c13.038247847557068,11.927737299203875 28.58857695579529,22.786768990755082 40.32982632637024,35.463828612566 c-12.027954297065735,-5.88402282834053 -22.158195033073426,-14.802186864614487 -32.6434037733078,-21.36182818055153 c-5.843319454193115,-3.6483398330211636 -14.417162017822266,0.8844460201263429 -10.703650588989257,6.019146525859833 c6.97648654460907,9.655202386379242 15.058834948539733,18.843613817691804 22.47220519065857,28.314556616544724 c-4.273268666267395,-1.4249408102035523 -8.491926870346068,-2.923585455417633 -12.574058918952943,-4.569637770652771 c-2.1298080253601075,-1.8548798477649688 -5.611224989891053,-3.07099312543869 -8.805937027931213,-3.2675366854667667 c-4.737457594871521,-0.2825313675403595 -5.297214832305908,4.225686540603638 -2.1844184875488284,5.88402282834053 c10.457903509140015,5.5646395432949065 22.294721188545225,9.556930606365205 33.55812901496887,14.175704267024992 c4.027521586418152,1.646052315235138 10.444250893592836,-1.130125470161438 8.464621639251709,-4.741613385677338 c-2.553039107322693,-4.667909550666809 -5.570267143249512,-9.176127458810805 -8.778631796836853,-13.610641531944275 c7.741033015251159,4.348526265621185 16.16469680786133,7.788038566112518 25.858053846359255,9.077855678796768 C154.57623252751011,358.92915968933596 158.61740672947542,354.61748534122 156.09167285324713,350.2566751030971 z" id="svg_3"/>
	<path class="st2" d="M171.90140165688183,51.289352355389696 c-16.069128499031066,-30.587091529369353 -61.191022882461546,-67.05820588707924 -109.41206099510192,-44.03804141879082 c-41.790656189918515,19.94917134284973 -45.70895685195922,71.40673215270043 -48.00259626388549,103.76271572232247 c-2.2663341808319095,31.962896449565886 -2.416512951850891,65.84209260940553 4.3961422061920175,97.41190193891525 c3.890995430946351,18.057439577579498 13.488784160614015,35.377840805053715 32.45226715564728,47.72323316931725 c11.427239212989805,7.444087336063385 25.51673845767975,10.244833066463471 40.26156324863434,11.104711141586302 c-1.2696932458877563,21.509235850572587 -3.7954271221160893,42.57624869108199 -7.986780095100403,64.03634865164757 c-1.8157978677749635,9.274399238824843 -2.839744033813477,18.548798477649687 -1.6656190967559816,27.896901551485062 c0.49149415969848637,3.9431551730632783 -1.8431030988693238,10.207981148958206 0.3140101575851441,13.942308789491653 c0.20478923320770273,0.3562352025508881 0.9556830883026124,0.6633345150947573 1.4881350946426393,0.614198625087738 c2.3619024896621705,-0.20882753252983094 2.375555105209351,-0.3562352025508881 4.9558994436264046,-1.2529651951789855 c0.8191569328308107,-0.2825313675403595 0.4505363130569459,-1.3512369751930238 -0.4778415441513062,-1.2775331401824952 c-2.839744033813477,0.22111150503158572 -0.8874200105667117,-9.200695403814317 -1.378914170265198,-12.038293051719666 c-1.9659766387939452,-11.55921812415123 1.283345861434937,-23.695782955884933 3.8090797376632692,-35.046173547506335 c4.2050055885314945,-18.880465735197067 5.870624685287475,-37.62580777287483 6.9628339290618895,-56.62911323308945 c9.556830883026123,0.24567945003509525 19.26384053707123,-0.15969164252281193 28.64318741798401,-0.5404947900772095 c0.0819156932830811,0.0368519175052643 0.19113661766052248,0.04913589000701907 0.2867049264907837,0.07370383501052857 c7.5362437820434565,30.943326731920244 14.253330631256103,61.812949628829955 15.304582028388978,93.35819101333618 c0.09556830883026125,2.985005317926407 6.444034538269043,2.985005317926407 6.348466229438782,0 c-1.0512513971328736,-31.618945219516753 -7.850253939628601,-62.34116044640541 -15.290929412841797,-93.33362306833267 c1.5017877101898196,-0.11055575251579289 2.962617573738098,-0.25796342253685 4.3961422061920175,-0.4790749275684358 c0.9966409349441531,-0.024567945003509534 2.006934485435486,-0.06141986250877383 2.9899228048324584,-0.07370383501052857 c0.9829883193969726,-0.012283972501754769 1.5973560190200806,-0.4176550650596621 1.9113661766052243,-0.9212979376316073 c40.07042663097382,-10.03600553393364 48.95827935218811,-64.25746015667916 52.4123910856247,-88.7885532426834 C200.36710507275245,136.0119106999923 191.95709389568947,89.45565491834174 171.90140165688183,51.289352355389696 zM97.86326754452364,263.2615818456699 c0.10922092437744144,-1.9900035452842715 0.21844184875488287,-3.9922910630702972 0.3140101575851441,-5.994578580856323 c2.143460640907288,-43.63267032623291 -0.6416729307174683,-87.30219256997107 -1.6656190967559816,-130.9594308412075 c3.6042905044555664,16.865894244909292 5.979845609664917,33.85462821483612 8.710368719100952,50.831078212261204 c3.9046480464935307,24.260845690965652 11.004008131027222,48.07946837186813 16.956548509597777,72.10691858530045 c1.1468197059631349,4.631057633161545 2.2936394119262697,9.249831293821336 3.4268065023422243,13.868604954481123 c-0.1501787710189819,0.09827178001403815 -0.2867049264907837,0.20882753252983094 -0.3959258508682252,0.33166725754737864 C116.06220406891487,263.61781704822073 106.901299036757,263.75294074574003 97.86326754452364,263.2615818456699 zM181.34901161553046,207.91000175276292 c-5.706793298721313,18.73305806517601 -17.74840021133423,52.30515491247177 -49.54534182071686,54.52855393528938 c-0.7781990861892703,-3.206116822957993 -1.5563981723785405,-6.412233645915985 -2.33459725856781,-9.630634441375733 c-6.4849923849105835,-26.840479916334154 -14.321593708992005,-53.37386052012444 -18.67677806854248,-80.46001988649368 c-3.9183006620407106,-24.346833498477935 -7.1403179311752325,-48.66909905195236 -14.77213002204895,-72.59827748537064 c-0.8191569328308107,-2.5796342253685003 -6.225592689514161,-1.9654356002807618 -6.225592689514161,0.614198625087738 c0.10922092437744144,52.317438884973534 4.450752668380737,104.61030982494354 2.2936394119262697,156.9154647374153 c-0.0819156932830811,1.8671638202667236 -0.1774840021133423,3.7097596955299377 -0.2730523109436036,5.5646395432949065 c-9.242820725440978,-0.8107421851158144 -18.294504833221435,-2.4322265553474427 -26.991220936775207,-5.503219680786134 c-22.322026419639588,-7.910878291130066 -32.69801423549652,-26.852763888835906 -38.022534298896794,-43.31328704118729 c-8.068695788383485,-24.887328288555146 -6.266550536155701,-51.88749984741211 -6.662476387023926,-77.33989087104797 c-0.5870624685287477,-37.846919277906416 -0.06826307773590093,-88.98509680271148 35.90637888908386,-119.17910121202469 c20.97041748046875,-17.602932595014572 55.56614527702332,-14.667063167095185 78.28409754753113,-0.614198625087738 c24.8614129114151,15.367249599695205 35.75620011806488,41.12673993587494 43.10130728244781,63.37301413655282 C191.12428434731146,121.61509492793573 194.01863884331362,166.26733497181425 181.34901161553046,207.91000175276292 z" id="svg_4"/>
</g><g id="svg_5" class="">
	<path class="st0" d="M252.1434721873951,221.65649977113185 c-18.12218304634094,-12.755570197105406 -36.49451892614365,-25.373580323457716 -54.3387543797493,-38.266710591316226 c12.89676830291748,8.591251691579819 25.070872864723203,17.770260049104692 39.28789223313331,25.211009330749512 c4.6695195579528805,2.438564890623093 13.2025106549263,-0.8378658854961399 9.047194143533707,-4.414427725076676 c-14.564453859329225,-12.567988282442094 -32.68663690567016,-23.547783020734784 -48.27949685811997,-35.65306924700737 c14.95358048915863,9.666721335649491 29.10111295938492,19.921199337244033 46.02812135696411,28.24983634829521 c4.766801215410233,2.3510266637802126 12.966255201101303,-0.6502839708328245 9.06109152317047,-4.414427725076676 c-6.615152707099914,-6.390290559530259 -13.897379636764526,-12.455439133644106 -21.443656779527664,-18.39553309798241 c0.15287117600440983,0.07503276586532596 0.30574235200881966,0.1625709927082062 0.47251090764999437,0.25010921955108634 c5.030851428508758,2.5636195003986355 12.229694080352784,-0.5752512049674988 9.074988902807236,-4.42693318605423 c-7.2266374111175535,-8.85386637210846 -16.37111321210861,-17.007426929473876 -23.80621131777763,-25.798765996694563 c-3.0435261404514313,-3.6015727615356443 -13.160818516016008,-1.0379532611370088 -10.603700662851333,2.8262341809272753 c1.5148143804073335,2.3010048198699953 2.459836195707321,4.4519441080093385 4.141419131755828,6.515345169305801 c-7.268329550027848,-4.039263895750046 -14.481069581508637,-8.128549635410309 -21.67991223335266,-12.217835375070571 c-4.627827419042587,-2.6261468052864076 -13.230305414199828,0.962920495271683 -9.074988902807236,4.42693318605423 c3.7800872611999514,3.151376166343689 7.671353559494018,6.252730488777161 11.618209376335143,9.329073889255524 c-6.045360141992568,-3.539045456647873 -12.313078358173371,-6.940530842542648 -19.011615343093872,-10.029379703998565 c-5.211517363786697,-2.4010485076904295 -10.061702857017517,2.0634010612964633 -7.92150639295578,5.0021843910217285 c2.723886408805847,3.7641437542438503 5.906386345624924,7.315694671869277 9.39462863445282,10.742190979719162 c-4.238700789213181,-1.8383027637004852 -8.671964893341064,-3.526539995670319 -13.355381830930709,-5.014689851999282 c-4.683416937589645,-1.4881498563289641 -11.78497793197632,1.8257973027229308 -7.963198531866074,5.027195312976836 c0.917227056026459,0.7628331196308141 1.8483514916896826,1.5256662392616271 2.7794759273529053,2.288499358892441 c-2.7794759273529053,-1.3756007075309755 -5.600643993616105,-2.7261904931068424 -8.491298958063126,-4.026758434772492 c-4.9057750117778784,-2.200961132049561 -10.284060931205751,1.9633573734760286 -7.76863521695137,4.902140703201294 c3.0991156589984894,3.614078222513199 6.517871049642563,7.11560729622841 10.075600236654282,10.542103604078292 c-0.9728165745735171,-0.6502839708328245 -1.9595305287837985,-1.3005679416656495 -2.9601418626308442,-1.9383464515209199 c-3.7939846408367157,-2.4260594296455382 -11.02062205195427,0.012505460977554329 -9.255654838085174,3.4014853858947762 c1.9873252880573276,3.8266710591316224 4.586135280132294,7.4407492816448215 7.532379763126373,10.929772894382477 c-0.5975873243808748,-0.4501965951919558 -1.1951746487617496,-0.912898651361466 -1.8066593527793886,-1.3505897855758668 c-3.974650576114655,-2.926277868747711 -11.743285793066024,0.912898651361466 -8.407914680242538,4.101791200637818 c3.085218279361725,2.9512887907028196 6.128744419813156,5.927588503360749 9.130578421354294,8.903888216018677 c-3.6411134648323062,-0.5377348220348361 -7.254432170391082,2.48858673453331 -5.5589518547058105,5.0021843910217285 c5.906386345624924,8.753822684288025 13.96686653494835,16.857361397743226 20.859966834783553,25.298547557592393 c-9.881036921739579,-6.540356091260911 -19.178383898735046,-13.468381472826003 -29.768187181949617,-19.571046429872514 c-4.39157196521759,-2.526103117465973 -10.770469218492508,0.6377785098552706 -8.088274948596954,3.951725668907166 c5.253209502696992,6.502839708328247 11.256877505779267,12.70554835319519 17.455108823776246,18.845729693174363 c-3.543831807374954,-0.5127239000797272 -7.296124309301376,2.288499358892441 -5.350491160154343,4.714558788537979 c8.671964893341064,10.867245589494704 18.400130639076234,21.359327349662777 27.850348792076108,31.951452797651292 c-4.3637772059440625,-3.001310634613037 -8.78314393043518,-5.96510488629341 -13.633329423666002,-8.65377899646759 c-3.7106003630161286,-2.0634010612964633 -9.811550023555755,0.5752512049674988 -7.0459714758396155,3.4390017688274384 c3.891266298294067,4.039263895750046 7.92150639295578,8.01600048661232 11.951746487617493,11.992737077474594 c-2.042914806604385,-0.5752512049674988 -4.947467150688172,0.3751638293266299 -4.127521752119064,2.125928366184235 c3.627216085195542,7.7533858060836796 16.134857758283616,15.531782534122467 26.266047513484953,20.04625394701958 c3.599421325922012,1.613204466104508 7.574071902036667,-1.4381280124187468 5.697925651073455,-3.6015727615356443 c-3.1963973164558412,-3.701616449356079 -6.587357947826386,-7.340705593824387 -10.047805477380754,-10.942278355360031 c2.112401704788208,1.2505460977554321 4.266495548486709,2.4760812735557556 6.559563188552856,3.6015727615356443 c4.099726992845535,2.0258846783638003 9.783755264282227,-0.43769113421440137 7.31002168893814,-3.5640563786029817 c-6.01756538271904,-7.5908148133754745 -12.507641673088074,-15.01905863404274 -19.039410102367402,-22.434796993732455 c1.584301278591156,1.1755133318901063 3.1547051775455475,2.363532124757767 4.766801215410233,3.539045456647873 c3.8217794001102448,2.7762123370170597 10.10339499592781,-0.7503276586532598 7.685250939130784,-3.7516382932662964 c-7.6296614205837265,-9.466633960008622 -16.774137221574783,-18.38302763700485 -25.76574184656143,-27.336937696933745 c5.7257204103469865,3.7516382932662964 11.618209376335143,7.390727437734604 17.983209249973296,10.717180057764054 c3.5855239462852477,1.8758191466331486 10.061702857017517,0.1875819146633149 8.407914680242538,-3.0888488614559177 c-1.9595305287837985,-3.8891983640193937 -4.4332641041278835,-7.615825735330581 -7.1710478925704955,-11.254914879798891 c0.6809716022014624,0.5127239000797272 1.3341484451293948,1.0254478001594545 2.029017426967621,1.538171700239182 c4.127521752119064,3.063837939500809 10.520316385030746,-0.8253604245185858 8.213351365327835,-4.001747512817383 c-2.8072706866264343,-3.851681981086731 -5.823002067804337,-7.640836657285691 -8.977707245349883,-11.379969489574432 c0.23625545382499705,0.12505460977554317 0.4586135280132294,0.25010921955108634 0.7087663614749906,0.3751638293266299 c4.641724798679352,2.288499358892441 11.229082746505737,-0.4877129781246189 8.324530402421951,-4.064274817705154 c-3.6411134648323062,-4.476955029964447 -7.92150639295578,-8.766328145265579 -12.257488839626312,-13.043195799589157 c5.9758732438087465,4.176823966503143 12.201899321079253,8.203582401275636 19.039410102367402,11.842671545743944 c4.127521752119064,2.200961132049561 10.020010718107223,0.11254914879798897 9.464115532636644,-2.8637505638599396 c2.7099890291690834,3.1263652443885803 5.586746613979339,6.202708644866943 8.532991096973419,9.254041123390198 c-1.0145087134838107,-0.6127675879001616 -2.015120047330856,-1.2380406367778778 -3.0713208997249604,-1.8383027637004852 c-4.9752619099616995,-2.838739641904831 -12.549333811998366,0.7253167366981511 -9.283449597358704,4.5269768738746645 c1.3341484451293948,1.538171700239182 2.682194269895554,3.076343400478363 4.030240094661712,4.6020096397399906 c-2.723886408805847,0.8628768074512486 -4.447161483764648,2.8637505638599396 -2.3903492975234992,5.089722617864609 c4.322085067033767,4.6895478665828705 8.644170134067535,9.379095733165741 12.813384025096894,14.118665443658827 c-1.7232750749588017,-1.2130297148227691 -3.4326527702808383,-2.4260594296455382 -5.1420304656028755,-3.6390891444683082 c-4.613930039405823,-3.301441698074341 -12.507641673088074,0.912898651361466 -9.352936495542528,4.564493256807328 c2.084606945514679,2.4135539686679843 4.183111270666122,4.814602476358414 6.309410355091095,7.2156509840488425 c-1.8622488713264467,1.0129423391819001 -2.7655785477161405,2.7136850321292876 -1.2229694080352786,4.614515100717545 c2.529323093891144,3.1138597834110264 5.3226964008808135,6.16519226193428 8.088274948596954,9.216524740457535 c-4.586135280132294,-0.6002621269226073 -9.311244356632233,3.539045456647873 -5.461670197248459,6.615388857126236 c5.767412549257279,4.6020096397399906 11.284672265052794,9.241535662412643 16.176549897193908,14.243720053434373 c4.016342715024948,4.101791200637818 13.60553466439247,0.5127239000797272 10.172881894111633,-3.7641437542438503 c-0.09728165745735175,-0.12505460977554317 -0.1945633149147034,-0.23760375857353216 -0.2918449723720554,-0.36265836834907567 c1.1673798894882206,-0.3751638293266299 2.140196464061737,-0.9379095733165749 2.6543995106220253,-1.650720849037171 c4.405469344854355,0.3876692903041843 9.227860078811647,-2.68867411017418 6.128744419813156,-5.502402830123902 c-1.6259934175014499,-1.4756443953514098 -3.1963973164558412,-2.9637942516803752 -4.752903835773468,-4.464449568986893 c4.155316511392594,0.5877566659450532 9.047194143533707,-1.125491487979889 7.073766235113144,-4.326889498233795 c-1.0284060931205752,-1.6757317709922792 -2.112401704788208,-3.3264526200294497 -3.2241920757293707,-4.964668008089065 c3.4465501499176026,-0.5252293610572815 6.420589392185211,-3.213903471231461 4.2525981688499455,-5.564930135011673 c-3.168602557182312,-3.4264963078498845 -6.337205114364624,-6.865498076677323 -9.478012912273407,-10.304499845504761 c1.8066593527793886,1.3380843245983125 3.627216085195542,2.676168649196625 5.461670197248459,4.001747512817383 c4.7112116968631765,3.376474463939667 11.60431199669838,-0.912898651361466 9.11668104171753,-4.4519441080093385 c-1.9734279084205624,-2.8137287199497223 -4.141419131755828,-5.552424674034119 -6.420589392185211,-8.241098784208297 c2.042914806604385,1.2880624806880951 4.141419131755828,2.5511140394210816 6.309410355091095,3.776649215221405 c4.08582961320877,2.288499358892441 11.632106755971908,-0.8253604245185858 7.990993291139603,-3.9017038249969485 c-6.01756538271904,-5.089722617864609 -12.188001941442488,-10.104412469863892 -18.358438500165942,-15.131607782840728 c3.1963973164558412,1.85080822467804 6.462281531095505,3.6641000664234173 9.79765264391899,5.414864603281021 C249.60025171386712,229.960125860228 257.27160527336116,225.27057799364513 252.1434721873951,221.65649977113185 zM154.58386713730806,277.5684158017773 c1.7649672138690948,1.738259075880051 3.5299344277381897,3.4890236127376557 5.28100426197052,5.239788149595261 C157.68298279630653,281.1574831023354 155.8346313046169,279.4067185654777 154.58386713730806,277.5684158017773 zM168.3839651166153,179.17544883037988 c10.172881894111633,6.052643113136291 19.77597122311592,12.505460977554321 29.351265792846682,18.98328976392746 c-2.8350654458999633,0.4501965951919558 -5.128133085966111,2.451070351600647 -4.4332641041278835,4.489460490942001 C185.76958704220772,194.50714398886146 176.95864835249893,186.89131825353093 168.3839651166153,179.17544883037988 z" id="svg_6"/>
	<path class="st1" d="M228.50402942525864,346.2734184124607 c-3.2241920757293707,-4.827107937335969 -7.76863521695137,-9.153997435569764 -12.855076164007187,-13.25578863620758 c0.4030240094661714,-0.6002621269226073 0.4586135280132294,-1.3255788636207586 0,-2.1509392881393437 c-3.0991156589984894,-5.552424674034119 -7.435098105669021,-10.7046745967865 -11.882259589433671,-15.819408136606217 c0.22235807418823256,0.1000436878204346 0.4447161483764651,0.2000873756408692 0.667074222564698,0.30013106346130375 c4.4332641041278835,2.0759065222740176 10.117292375564576,-1.9008300685882569 7.365611207485199,-4.652031483650208 c-6.295512975454331,-6.315257793664932 -13.188613275289535,-12.455439133644106 -18.48351491689682,-19.120849834680556 c0.73656112074852,0.1625709927082062 1.4592248618602754,0.31263652443885814 2.195785982608795,0.47520751714706444 c5.392183299064636,1.125491487979889 8.671964893341064,-3.3139471590518954 5.239312123060227,-5.689984744787216 c-2.0985043251514437,-1.4631389343738554 -3.6411134648323062,-3.0263215565681456 -4.877980252504348,-4.6770424056053175 c2.3486571586132055,0.7628331196308141 4.6695195579528805,1.5506771612167358 6.906997679471969,2.451070351600647 c4.933569771051407,1.9883682954311372 9.172270560264588,-1.7632699978351596 7.240534790754318,-4.576998717784882 c-2.432041436433792,-3.551550917625427 -5.28100426197052,-6.928025381565094 -8.35232516169548,-10.229467079639434 c4.461058863401413,1.2255351758003235 9.380731254816055,-2.0634010612964633 6.726331744194031,-4.8521188592910764 c-3.2241920757293707,-3.388979924917221 -6.5734605681896205,-6.727938005924225 -9.908831681013107,-10.06689608693123 c3.029628760814667,-0.5627457439899446 4.836288113594055,-2.738695954084397 3.2241920757293707,-5.014689851999282 c-3.307576353549957,-4.652031483650208 -8.671964893341064,-8.516218925714494 -13.02184471964836,-12.768075658082964 c1.6398907971382144,-0.8753822684288027 2.5710152328014373,-2.2634884369373323 1.7788645935058593,-3.614078222513199 c-1.5565065193176266,-2.6261468052864076 -1.7510698342323305,-5.502402830123902 -2.167991223335266,-8.328637011051178 c0.041692138910293615,0 0.09728165745735175,0 0.13897379636764526,0 c1.8344541120529176,0 4.155316511392594,-0.6627894318103795 4.933569771051407,-1.7882809197902676 c2.3903492975234992,-3.4390017688274384 3.37706325173378,-7.0905963742733 -3.4048580110073092,-8.56624076962471 c-4.002445335388184,-0.8753822684288027 -6.726331744194031,1.0504587221145631 -7.0459714758396155,3.138870705366134 c-0.4308187687397008,0 -0.8616375374794014,0 -1.292456306219101,0 c-3.6967029833793643,0.012505460977554329 -6.490076290369034,2.3010048198699953 -5.489464956521988,4.564493256807328 c1.2090720283985141,2.763706876039506 1.2785589265823365,5.727501127719879 1.8900436305999762,8.591251691579819 c-3.1824999368190765,0.7003058147430423 -4.39157196521759,3.1138597834110264 -2.9462444829940804,5.139744461774827 c2.584912612438202,3.576561839580536 6.3927946329116825,6.677916162014007 10.00611333847046,9.854303250312805 c-3.1824999368190765,0.5377348220348361 -4.780698595046997,3.4014853858947762 -3.085218279361725,5.139744461774827 c2.2652728807926183,2.3510266637802126 4.600032659769059,4.664536944627762 6.934792438745499,6.990552686452865 c-4.405469344854355,-1.2755570197105408 -9.783755264282227,2.0258846783638003 -6.851408160924911,4.802097015380859 c3.6689082241058353,3.4890236127376557 7.268329550027848,6.990552686452865 10.617598042488101,10.579619987010958 c-1.111790370941162,-0.3876692903041843 -2.20968336224556,-0.8003495025634773 -3.293678973913193,-1.2255351758003235 c-4.099726992845535,-1.6257099270820619 -8.866528208255767,1.0379532611370088 -7.810327355861664,3.789154676198959 c0.8894322967529298,2.326015741825104 1.8900436305999762,4.5394823348522175 3.168602557182312,6.640399779081346 c-3.7522925019264224,-0.46270205616951005 -8.241146124601364,1.3255788636207586 -6.670742225646973,4.126802122592926 c2.7377837884426115,4.877129781246185 6.434486771821976,9.416612116098404 10.534213764667511,13.806028919219969 c-3.6967029833793643,-0.1625709927082062 -6.462281531095505,3.0263215565681456 -4.836288113594055,5.264799071550369 c2.459836195707321,3.3639690029621128 5.28100426197052,6.602883396148682 8.157761846780778,9.841797789335251 c-4.822390733957291,-2.901266946792602 -11.242980126142502,1.5506771612167358 -7.21274003148079,4.752075171470642 c9.033296763896942,7.153123679161071 19.789868602752687,13.668468848466873 27.919835690259934,21.271789122819904 c-8.324530402421951,-3.526539995670319 -15.342707118988036,-8.878877294063567 -22.597139289379122,-12.805592041015625 c-4.044137474298477,-2.1884556710720062 -9.97831857919693,0.5252293610572815 -7.4073033463954925,3.614078222513199 c4.836288113594055,5.7900284326076505 10.423034727573395,11.304936723709105 15.565065193176268,16.98241600751877 c-2.9601418626308442,-0.8503713464736947 -5.878591586351395,-1.7507645368576048 -8.713657032251357,-2.738695954084397 c-1.4731222414970402,-1.1129860270023348 -3.891266298294067,-1.8383027637004852 -6.1009496605396265,-1.9633573734760286 c-3.279781594276428,-0.1625709927082062 -3.6689082241058353,2.5386085784435277 -1.5148143804073335,3.526539995670319 c7.240534790754318,3.3389580810070036 15.439988776445388,5.727501127719879 23.236418752670286,8.503713464736938 c2.7794759273529053,0.9879314172267918 7.2266374111175535,-0.6752948927879336 5.8646942067146295,-2.8512451028823858 c-1.7649672138690948,-2.8012232589721684 -3.8634715390205385,-5.502402830123902 -6.073154901266098,-8.166066018342972 c5.364388539791108,2.6136413443088538 11.187390607595445,4.6770424056053175 17.89982497215271,5.452380986213685 C227.4617259525013,351.47569017912326 230.25509925949098,348.88705975676953 228.50402942525864,346.2734184124607 z" id="svg_7"/>
	<path class="st2" d="M239.45516457902897,166.95761345530934 c-11.117903709411621,-18.34551125407219 -42.37311051249504,-40.21756250381469 -75.75461640000343,-26.41153358459473 c-28.934344403743744,11.967726155519486 -31.644333432912827,42.83120384812355 -33.228634711503986,62.23967928528786 c-1.5704038989543916,19.170871678590775 -1.6676855564117437,39.49224576711654 3.0435261404514313,58.42551368713379 c2.696091649532318,10.829729206562043 9.339039115905761,21.22176727890968 22.47206287264824,28.625000177621843 c7.92150639295578,4.464449568986893 17.663569518327716,6.140181339979172 27.878143551349638,6.665410701036453 c-0.8755349171161656,12.90563572883606 -2.6266047513484967,25.536151316165927 -5.531157095432281,38.40427066206932 c-1.2507641673088075,5.564930135011673 -1.9734279084205624,11.117354809045793 -1.1534825098514558,16.732306787967683 c0.3474344909191134,2.363532124757767 -1.2785589265823365,6.127675879001618 0.22235807418823256,8.366153393983842 c0.13897379636764526,0.21259283661842357 0.667074222564698,0.4001747512817384 1.0284060931205752,0.3751638293266299 c1.6259934175014499,-0.12505460977554317 1.6398907971382144,-0.21259283661842357 3.4326527702808383,-0.7503276586532598 c0.5697925651073454,-0.17507645368576058 0.30574235200881966,-0.8128549635410314 -0.33353711128234886,-0.7628331196308141 c-1.9595305287837985,0.13756007075309756 -0.6114847040176391,-5.514908291101456 -0.9589191949367526,-7.228156445026398 c-1.3619432044029236,-6.928025381565094 0.8894322967529298,-14.218709131479262 2.6405021309852597,-21.02167990326881 c2.9184497237205504,-11.329947645664216 4.0719322335720065,-22.559851603507994 4.822390733957291,-33.96483201503754 c6.615152707099914,0.1500655317306519 13.341484451293946,-0.1000436878204346 19.83156074166298,-0.32514198541641237 c0.05558951854705815,0.025010921955108664 0.1250764167308808,0.025010921955108664 0.1945633149147034,0.037516382932662996 c5.225414743423462,18.558104090690613 9.867139542102814,37.07869179844856 10.58980328321457,55.99945425748825 c0.06948689818382266,1.7882809197902676 4.461058863401413,1.7882809197902676 4.39157196521759,0 c-0.73656112074852,-18.95827884197235 -5.43387543797493,-37.39132832288742 -10.58980328321457,-55.97444333553314 c1.0423034727573397,-0.06252730488777163 2.05681218624115,-0.1625709927082062 3.0435261404514313,-0.2876256024837494 c0.6948689818382263,-0.012505460977554329 1.3897379636764526,-0.037516382932662996 2.070709565877914,-0.050021843910217315 c0.6809716022014624,-0.012505460977554329 1.111790370941162,-0.25010921955108634 1.3202510654926303,-0.5502402830123905 c27.739169754981997,-6.0151267302036295 33.89570893406868,-38.54183073282242 36.299955611228945,-53.2482528424263 C259.1616489039611,217.77980686809008 253.33864683615673,189.8551125052113 239.45516457902897,166.95761345530934 zM188.18773109900474,294.10063521410405 c0.06948689818382266,-1.200524253845215 0.15287117600440983,-2.3885430467128757 0.22235807418823256,-3.5890673005580904 c1.4870196211338045,-26.173929826021194 -0.4447161483764651,-52.36036511301994 -1.1534825098514558,-78.5468004000187 c2.501528334617615,10.116917930841446 4.141419131755828,20.308868627548215 6.031462762355805,30.488313863277433 c2.7099890291690834,14.556356577873231 7.615764040946961,28.837593014240262 11.743285793066024,43.24388406038284 c0.7921506392955787,2.7762123370170597 1.584301278591156,5.552424674034119 2.376451917886734,8.316131550073624 c-0.09728165745735175,0.06252730488777163 -0.1945633149147034,0.12505460977554317 -0.2779475927352905,0.2000873756408692 C200.7926544295501,294.3132280507225 194.44155193554877,294.38826081658783 188.18773109900474,294.10063521410405 zM245.98693300830837,260.8986363186974 c-3.946855816841125,11.229903957843781 -12.299180978536606,31.363696131706234 -34.31263032317162,32.70178045630455 c-0.5419978058338167,-1.9258409905433655 -1.0700982320308685,-3.851681981086731 -1.6120960378646858,-5.777522971630097 c-4.4888536226749425,-16.094528278112413 -9.908831681013107,-32.013980102539065 -12.92456306219101,-48.25857391238213 c-2.7099890291690834,-14.606378421783447 -4.947467150688172,-29.187745921611786 -10.228471412658692,-43.54401512384415 c-0.5697925651073454,-1.538171700239182 -4.3081876873970035,-1.1755133318901063 -4.3081876873970035,0.36265836834907567 c0.06948689818382266,31.376201592683792 3.085218279361725,62.752403185367584 1.584301278591156,94.11609931707383 c-0.05558951854705815,1.1129860270023348 -0.1250764167308808,2.2259720540046692 -0.1945633149147034,3.3389580810070036 c-6.3927946329116825,-0.4877129781246189 -12.660512849092482,-1.4506334733963016 -18.69197561144829,-3.301441698074341 c-15.453886156082152,-4.752075171470642 -22.63883142828941,-16.107033739089967 -26.335534411668778,-25.986347911357882 c-5.586746613979339,-14.931520407199859 -4.335982446670532,-31.126092373132707 -4.613930039405823,-46.382754765748984 c-0.416921389102936,-22.69741167426109 -0.041692138910293615,-53.37330745220184 24.862412170171737,-71.4812149477005 c14.522761720418929,-10.554609065055846 38.46794683456421,-8.803844528198242 54.21367796301841,-0.36265836834907567 c17.218853369951248,9.216524740457535 24.765130512714386,24.66076904773712 29.851571459770202,38.00409591078758 C252.7549568914127,209.1385333326 254.7700769387435,235.92523074652138 245.98693300830837,260.8986363186974 z" id="svg_8"/>
</g></g></svg>